<svg width="176" height="110" fill="none" xmlns="http://www.w3.org/2000/svg"><g filter="url(#a)" opacity=".8"><mask id="c" fill="#fff"><path fill-rule="evenodd" clip-rule="evenodd" d="M42.92 10.52c-.485.483-.52.613-.52 1.88 0 1.266.035 1.396.52 1.88.698.698 1.462.698 2.16 0 .485-.484.52-.614.52-1.88 0-1.267-.035-1.397-.52-1.88-.354-.355-.697-.52-1.08-.52-.383 0-.726.165-1.08.52Zm-15.296 1.42c-.305.305-.52.709-.52.977 0 .712 1.938 5.294 2.43 5.746.961.884 2.55.193 2.55-1.108 0-.869-1.831-5.22-2.413-5.734-.64-.565-1.407-.52-2.047.12Zm30.703-.12c-.582.514-2.412 4.867-2.412 5.735 0 1.301 1.588 1.992 2.55 1.108.491-.452 2.43-5.034 2.43-5.746 0-.268-.216-.672-.52-.977-.64-.64-1.408-.684-2.048-.12Zm-42.856 9.745c-.742.882-.625 1.44.563 2.684.562.59 1.248 1.188 1.524 1.331 1.05.543 2.255-.262 2.255-1.506 0-.54-.172-.8-1.215-1.842-1.104-1.103-1.28-1.214-1.94-1.214-.593 0-.811.101-1.187.547Zm53.929.667c-1.104 1.103-1.214 1.28-1.214 1.94 0 .597.1.809.568 1.203.902.758 1.564.55 3.033-.953 1.38-1.412 1.515-1.936.74-2.857-.376-.446-.594-.547-1.187-.547-.66 0-.836.11-1.94 1.214ZM36.104 26.34c-2.402.79-4.264 2.7-5.075 5.207-.42 1.3-1.679 1.765-2.61.964-.518-.446-.633-1.157-.345-2.144l.15-.516-1 .103c-1.858.192-3.521 1.454-4.109 3.118l-.25.71.653.122c1.135.212 2.448.953 3.298 1.862.685.732.823.994.823 1.566 0 .898-.567 1.46-1.473 1.46-.517 0-.832-.161-1.542-.791-1.137-1.01-2.058-1.307-3.145-1.017-1.109.297-1.606.666-2.155 1.603-.355.606-.473 1.04-.463 1.713.017 1.138.374 1.829 1.398 2.704 1.105.944 1.259 1.755.48 2.534-.707.707-1.36.704-2.344-.01-.907-.656-.938-.627-1.358 1.246-.488 2.179-.146 4.529.98 6.735.21.412.901 1.298 1.536 1.97 1.984 2.102 4.502 3.127 7.403 3.013.848-.033 1.588-.105 1.643-.16.055-.055.04-.452-.034-.882-.117-.683-.201-.796-.663-.892-2.3-.474-4.2-2.725-4.245-5.028-.018-.928.033-1.082.48-1.466.725-.625 1.566-.58 2.152.117.253.3.46.748.46.995 0 1.032.796 2.026 1.83 2.286.397.1.474.026.761-.725.435-1.136 1.305-2.037 1.97-2.037.663 0 1.202.38 1.476 1.042.193.466.153.664-.375 1.829-.544 1.2-.592 1.45-.593 3.084 0 1.556.059 1.903.477 2.793 2.113 4.507 7.966 5.407 11.427 1.757.627-.662 1.133-.697 2.752-.19 1.667.522 3.872.63 5.72.282 2.046-.386 2.413-.367 2.93.148.525.526.584 1.477.125 2.038-.303.37-1.86.896-2.668.9-.61.004-.481.416.38 1.21.952.876 1.36 1.091 3.994 2.106 2.383.919 3.35 1.49 4.474 2.646.44.453 1.03.944 1.31 1.091 1.102.578 2.424-.23 2.424-1.48 0-.617-.753-2.64-1.128-3.032-.163-.17-.45-.142-1.334.133-1.562.486-2.423.46-2.97-.086-.526-.525-.584-1.478-.125-2.034.188-.228.834-.521 1.63-.74 1.677-.46 2.917-1.069 4.15-2.035 1.113-.874 2.058-2.033 1.458-1.788-.624.255-3.517.33-4.538.118-1.126-.234-2.997-1.073-3.864-1.733-.511-.39-.655-.421-1.138-.253-2.465.859-6.103-1.058-6.486-3.418-.089-.547-.026-.716.438-1.18.873-.873 1.486-.76 2.633.48l.944 1.022h1.072c.972 0 1.124-.053 1.652-.58.53-.53.58-.67.557-1.6-.014-.56-.083-1.316-.153-1.68-.112-.584-.064-.724.412-1.2 2.011-2.01 3.953 1.87 2.536 5.07-.46 1.038-.377 1.16 1.149 1.697 1.607.567 3.723.43 5.295-.344 1.835-.903 3.201-2.647 3.672-4.688.23-.992.228-1.699-.004-2.78l-.189-.882-.745.426c-.909.52-1.532.542-2.123.077-.969-.762-.765-1.975.463-2.75 1.076-.68 1.592-1.523 1.68-2.749.114-1.57-.566-2.71-1.965-3.295-.944-.394-1.902-.338-2.904.17-1.673.849-2.92.376-2.92-1.107 0-.755.704-1.479 1.872-1.925.438-.167.796-.33.796-.364 0-.033-.196-.58-.435-1.215-.833-2.212-2.575-4.258-4.602-5.407-1.071-.607-3.113-1.267-3.919-1.267-.474 0-.563.07-.585.455-.058 1-1.148 1.646-2.102 1.248-.678-.283-.983-.736-.988-1.469-.005-.691-.562-1.828-1.174-2.4-1.887-1.761-5.158-.623-5.513 1.92-.166 1.186-.446 1.696-1.076 1.959-.505.211-.678.211-1.184 0-.973-.406-1.187-1.368-.721-3.238.078-.313-.083-.45-1.031-.88-1.498-.68-3.948-.799-5.553-.272Zm-30.08 7.17a1.477 1.477 0 0 0-.073 2.162c.462.45 4.965 2.41 5.539 2.41 1.086 0 1.877-1.125 1.523-2.167-.228-.67-.317-.725-2.982-1.826C7.397 33 6.73 32.904 6.024 33.51Zm71.766.64c-2.16.915-2.432 1.08-2.713 1.646-.251.507-.275.735-.12 1.178.22.63.85 1.108 1.459 1.108.645 0 5.145-1.92 5.633-2.403.567-.561.565-1.538-.004-2.144-.638-.678-1.495-.554-4.255.615Zm-41.11 1.784c-1.295.414-1.996.857-3.03 1.915-1.087 1.112-1.896 2.848-2.039 4.371-.106 1.142-.095 1.186.457 1.738.492.49.653.552 1.215.46.932-.15 1.286-.596 1.462-1.84.189-1.335.5-1.947 1.408-2.766.693-.627 1.352-.893 2.754-1.113 1.564-.245 2.06-1.943.84-2.878-.409-.314-1.904-.259-3.068.113Zm15.866 6.404c-.19.19-.439.689-.552 1.108-.601 2.233-2.231 3.985-4.29 4.61-2.317.703-4.548.213-6.427-1.414-.677-.586-.995-.74-1.525-.74-.887 0-1.514.639-1.514 1.542 0 .557.142.776 1.046 1.617.988.919 3.202 2.173 3.837 2.173.813 0 .49.644-.706 1.411-.63.404-1.233.616-2.095.734-.95.13-1.296.264-1.61.62a1.556 1.556 0 0 0 .06 2.155c.437.436.532.455 1.794.36 2.583-.195 5.234-1.96 6.262-4.167.379-.812.5-.925 1.101-1.027 1.14-.192 3.146-1.272 4.2-2.26 1.274-1.195 2.275-2.734 2.724-4.186.456-1.473.446-1.678-.107-2.335-.37-.44-.598-.547-1.156-.547-.452 0-.817.12-1.042.346Zm-38.24 13.571c-.339.117-.72.412-.849.657-.192.366-5.737 33.058-5.737 33.824 0 .18.512.093 2.085-.36 10.334-2.968 21.631-2.835 31.75.375l.845.268v-10.13c0-10.7.017-10.945.808-11.248.37-.142 1.214-.142 1.584 0 .791.303.809.547.809 11.247v10.131l.845-.263c10.344-3.227 21.497-3.352 31.8-.357 1.572.457 2.034.535 2.034.344 0-.37-5.486-33.302-5.65-33.92-.124-.461-.244-.547-.895-.635-.694-.093-.788-.056-1.198.482-.245.32-.613 1.126-.817 1.79-.738 2.39-2.178 4.633-3.996 6.228l-.974.853.617 1.335c.81 1.75 1.068 2.83.94 3.92-.297 2.497-2.347 4.316-4.845 4.297-1.464-.01-2.465-.488-3.956-1.888-1.368-1.284-1.735-1.503-3.754-2.247-1.863-.687-3.465-1.5-4.518-2.292-.942-.709-2.158-2.382-2.343-3.222-.082-.373-.223-.534-.466-.534-.192 0-.934-.121-1.65-.269l-1.3-.268-1.17.784c-2.237 1.5-4.769 2.11-7.196 1.737-2.648-.406-5.442-2.17-6.831-4.312l-.568-.875-.902.135c-1.305.195-4.15.13-5.082-.115-3.034-.801-5.722-2.557-7.39-4.827-.69-.941-.939-1.02-2.03-.645Zm-6.783 4.3a1.72 1.72 0 0 0-.664.748C6.474 61.913-.112 96.197 0 96.65c.062.244.314.603.56.797.441.346.763.352 17.231.352 15.86 0 16.783-.017 16.796-.31.007-.172.115-1.431.24-2.8.124-1.368.175-2.548.112-2.62-.199-.23-3.542-.664-6.798-.882-6.23-.418-11.469.236-19.52 2.435-1.084.296-2.033.144-2.885-.463-.59-.42-1.218-1.68-1.218-2.44 0-.313 1.12-7.285 2.49-15.491 1.37-8.207 2.49-15.004 2.49-15.104 0-.269-1.44-.207-1.976.085Zm70.979-.085c0 .1 1.126 6.918 2.502 15.152 1.603 9.585 2.474 15.243 2.423 15.728-.166 1.561-1.511 2.775-3.058 2.76-.391-.004-1.512-.248-2.49-.542-7.076-2.126-15.731-2.708-23.01-1.546-.917.147-1.72.299-1.784.338-.064.04-.019 1.177.1 2.529.118 1.351.22 2.636.228 2.856l.013.4h16.782c16.468 0 16.79-.006 17.23-.352.247-.194.5-.552.56-.796.114-.451-6.473-34.734-6.858-35.695-.11-.273-.424-.613-.698-.755-.571-.295-1.94-.35-1.94-.077ZM48.446 93.088c-.733.221-1.974.651-2.756.956-.783.305-1.539.555-1.68.555-.141 0-1.061-.31-2.045-.69-1.903-.734-3.59-1.212-3.742-1.059-.051.051-.214 1.522-.362 3.27-.31 3.678-.35 3.559 1.358 4.159 2.738.961 6.824.961 9.563 0 1.707-.6 1.664-.462 1.344-4.256-.152-1.803-.292-3.291-.31-3.307-.02-.016-.636.152-1.37.373Z"/></mask><path fill-rule="evenodd" clip-rule="evenodd" d="M42.92 10.52c-.485.483-.52.613-.52 1.88 0 1.266.035 1.396.52 1.88.698.698 1.462.698 2.16 0 .485-.484.52-.614.52-1.88 0-1.267-.035-1.397-.52-1.88-.354-.355-.697-.52-1.08-.52-.383 0-.726.165-1.08.52Zm-15.296 1.42c-.305.305-.52.709-.52.977 0 .712 1.938 5.294 2.43 5.746.961.884 2.55.193 2.55-1.108 0-.869-1.831-5.22-2.413-5.734-.64-.565-1.407-.52-2.047.12Zm30.703-.12c-.582.514-2.412 4.867-2.412 5.735 0 1.301 1.588 1.992 2.55 1.108.491-.452 2.43-5.034 2.43-5.746 0-.268-.216-.672-.52-.977-.64-.64-1.408-.684-2.048-.12Zm-42.856 9.745c-.742.882-.625 1.44.563 2.684.562.59 1.248 1.188 1.524 1.331 1.05.543 2.255-.262 2.255-1.506 0-.54-.172-.8-1.215-1.842-1.104-1.103-1.28-1.214-1.94-1.214-.593 0-.811.101-1.187.547Zm53.929.667c-1.104 1.103-1.214 1.28-1.214 1.94 0 .597.1.809.568 1.203.902.758 1.564.55 3.033-.953 1.38-1.412 1.515-1.936.74-2.857-.376-.446-.594-.547-1.187-.547-.66 0-.836.11-1.94 1.214ZM36.104 26.34c-2.402.79-4.264 2.7-5.075 5.207-.42 1.3-1.679 1.765-2.61.964-.518-.446-.633-1.157-.345-2.144l.15-.516-1 .103c-1.858.192-3.521 1.454-4.109 3.118l-.25.71.653.122c1.135.212 2.448.953 3.298 1.862.685.732.823.994.823 1.566 0 .898-.567 1.46-1.473 1.46-.517 0-.832-.161-1.542-.791-1.137-1.01-2.058-1.307-3.145-1.017-1.109.297-1.606.666-2.155 1.603-.355.606-.473 1.04-.463 1.713.017 1.138.374 1.829 1.398 2.704 1.105.944 1.259 1.755.48 2.534-.707.707-1.36.704-2.344-.01-.907-.656-.938-.627-1.358 1.246-.488 2.179-.146 4.529.98 6.735.21.412.901 1.298 1.536 1.97 1.984 2.102 4.502 3.127 7.403 3.013.848-.033 1.588-.105 1.643-.16.055-.055.04-.452-.034-.882-.117-.683-.201-.796-.663-.892-2.3-.474-4.2-2.725-4.245-5.028-.018-.928.033-1.082.48-1.466.725-.625 1.566-.58 2.152.117.253.3.46.748.46.995 0 1.032.796 2.026 1.83 2.286.397.1.474.026.761-.725.435-1.136 1.305-2.037 1.97-2.037.663 0 1.202.38 1.476 1.042.193.466.153.664-.375 1.829-.544 1.2-.592 1.45-.593 3.084 0 1.556.059 1.903.477 2.793 2.113 4.507 7.966 5.407 11.427 1.757.627-.662 1.133-.697 2.752-.19 1.667.522 3.872.63 5.72.282 2.046-.386 2.413-.367 2.93.148.525.526.584 1.477.125 2.038-.303.37-1.86.896-2.668.9-.61.004-.481.416.38 1.21.952.876 1.36 1.091 3.994 2.106 2.383.919 3.35 1.49 4.474 2.646.44.453 1.03.944 1.31 1.091 1.102.578 2.424-.23 2.424-1.48 0-.617-.753-2.64-1.128-3.032-.163-.17-.45-.142-1.334.133-1.562.486-2.423.46-2.97-.086-.526-.525-.584-1.478-.125-2.034.188-.228.834-.521 1.63-.74 1.677-.46 2.917-1.069 4.15-2.035 1.113-.874 2.058-2.033 1.458-1.788-.624.255-3.517.33-4.538.118-1.126-.234-2.997-1.073-3.864-1.733-.511-.39-.655-.421-1.138-.253-2.465.859-6.103-1.058-6.486-3.418-.089-.547-.026-.716.438-1.18.873-.873 1.486-.76 2.633.48l.944 1.022h1.072c.972 0 1.124-.053 1.652-.58.53-.53.58-.67.557-1.6-.014-.56-.083-1.316-.153-1.68-.112-.584-.064-.724.412-1.2 2.011-2.01 3.953 1.87 2.536 5.07-.46 1.038-.377 1.16 1.149 1.697 1.607.567 3.723.43 5.295-.344 1.835-.903 3.201-2.647 3.672-4.688.23-.992.228-1.699-.004-2.78l-.189-.882-.745.426c-.909.52-1.532.542-2.123.077-.969-.762-.765-1.975.463-2.75 1.076-.68 1.592-1.523 1.68-2.749.114-1.57-.566-2.71-1.965-3.295-.944-.394-1.902-.338-2.904.17-1.673.849-2.92.376-2.92-1.107 0-.755.704-1.479 1.872-1.925.438-.167.796-.33.796-.364 0-.033-.196-.58-.435-1.215-.833-2.212-2.575-4.258-4.602-5.407-1.071-.607-3.113-1.267-3.919-1.267-.474 0-.563.07-.585.455-.058 1-1.148 1.646-2.102 1.248-.678-.283-.983-.736-.988-1.469-.005-.691-.562-1.828-1.174-2.4-1.887-1.761-5.158-.623-5.513 1.92-.166 1.186-.446 1.696-1.076 1.959-.505.211-.678.211-1.184 0-.973-.406-1.187-1.368-.721-3.238.078-.313-.083-.45-1.031-.88-1.498-.68-3.948-.799-5.553-.272Zm-30.08 7.17a1.477 1.477 0 0 0-.073 2.162c.462.45 4.965 2.41 5.539 2.41 1.086 0 1.877-1.125 1.523-2.167-.228-.67-.317-.725-2.982-1.826C7.397 33 6.73 32.904 6.024 33.51Zm71.766.64c-2.16.915-2.432 1.08-2.713 1.646-.251.507-.275.735-.12 1.178.22.63.85 1.108 1.459 1.108.645 0 5.145-1.92 5.633-2.403.567-.561.565-1.538-.004-2.144-.638-.678-1.495-.554-4.255.615Zm-41.11 1.784c-1.295.414-1.996.857-3.03 1.915-1.087 1.112-1.896 2.848-2.039 4.371-.106 1.142-.095 1.186.457 1.738.492.49.653.552 1.215.46.932-.15 1.286-.596 1.462-1.84.189-1.335.5-1.947 1.408-2.766.693-.627 1.352-.893 2.754-1.113 1.564-.245 2.06-1.943.84-2.878-.409-.314-1.904-.259-3.068.113Zm15.866 6.404c-.19.19-.439.689-.552 1.108-.601 2.233-2.231 3.985-4.29 4.61-2.317.703-4.548.213-6.427-1.414-.677-.586-.995-.74-1.525-.74-.887 0-1.514.639-1.514 1.542 0 .557.142.776 1.046 1.617.988.919 3.202 2.173 3.837 2.173.813 0 .49.644-.706 1.411-.63.404-1.233.616-2.095.734-.95.13-1.296.264-1.61.62a1.556 1.556 0 0 0 .06 2.155c.437.436.532.455 1.794.36 2.583-.195 5.234-1.96 6.262-4.167.379-.812.5-.925 1.101-1.027 1.14-.192 3.146-1.272 4.2-2.26 1.274-1.195 2.275-2.734 2.724-4.186.456-1.473.446-1.678-.107-2.335-.37-.44-.598-.547-1.156-.547-.452 0-.817.12-1.042.346Zm-38.24 13.571c-.339.117-.72.412-.849.657-.192.366-5.737 33.058-5.737 33.824 0 .18.512.093 2.085-.36 10.334-2.968 21.631-2.835 31.75.375l.845.268v-10.13c0-10.7.017-10.945.808-11.248.37-.142 1.214-.142 1.584 0 .791.303.809.547.809 11.247v10.131l.845-.263c10.344-3.227 21.497-3.352 31.8-.357 1.572.457 2.034.535 2.034.344 0-.37-5.486-33.302-5.65-33.92-.124-.461-.244-.547-.895-.635-.694-.093-.788-.056-1.198.482-.245.32-.613 1.126-.817 1.79-.738 2.39-2.178 4.633-3.996 6.228l-.974.853.617 1.335c.81 1.75 1.068 2.83.94 3.92-.297 2.497-2.347 4.316-4.845 4.297-1.464-.01-2.465-.488-3.956-1.888-1.368-1.284-1.735-1.503-3.754-2.247-1.863-.687-3.465-1.5-4.518-2.292-.942-.709-2.158-2.382-2.343-3.222-.082-.373-.223-.534-.466-.534-.192 0-.934-.121-1.65-.269l-1.3-.268-1.17.784c-2.237 1.5-4.769 2.11-7.196 1.737-2.648-.406-5.442-2.17-6.831-4.312l-.568-.875-.902.135c-1.305.195-4.15.13-5.082-.115-3.034-.801-5.722-2.557-7.39-4.827-.69-.941-.939-1.02-2.03-.645Zm-6.783 4.3a1.72 1.72 0 0 0-.664.748C6.474 61.913-.112 96.197 0 96.65c.062.244.314.603.56.797.441.346.763.352 17.231.352 15.86 0 16.783-.017 16.796-.31.007-.172.115-1.431.24-2.8.124-1.368.175-2.548.112-2.62-.199-.23-3.542-.664-6.798-.882-6.23-.418-11.469.236-19.52 2.435-1.084.296-2.033.144-2.885-.463-.59-.42-1.218-1.68-1.218-2.44 0-.313 1.12-7.285 2.49-15.491 1.37-8.207 2.49-15.004 2.49-15.104 0-.269-1.44-.207-1.976.085Zm70.979-.085c0 .1 1.126 6.918 2.502 15.152 1.603 9.585 2.474 15.243 2.423 15.728-.166 1.561-1.511 2.775-3.058 2.76-.391-.004-1.512-.248-2.49-.542-7.076-2.126-15.731-2.708-23.01-1.546-.917.147-1.72.299-1.784.338-.064.04-.019 1.177.1 2.529.118 1.351.22 2.636.228 2.856l.013.4h16.782c16.468 0 16.79-.006 17.23-.352.247-.194.5-.552.56-.796.114-.451-6.473-34.734-6.858-35.695-.11-.273-.424-.613-.698-.755-.571-.295-1.94-.35-1.94-.077ZM48.446 93.088c-.733.221-1.974.651-2.756.956-.783.305-1.539.555-1.68.555-.141 0-1.061-.31-2.045-.69-1.903-.734-3.59-1.212-3.742-1.059-.051.051-.214 1.522-.362 3.27-.31 3.678-.35 3.559 1.358 4.159 2.738.961 6.824.961 9.563 0 1.707-.6 1.664-.462 1.344-4.256-.152-1.803-.292-3.291-.31-3.307-.02-.016-.636.152-1.37.373Z" fill="#06CAC6"/><path fill-rule="evenodd" clip-rule="evenodd" d="M42.92 10.52c-.485.483-.52.613-.52 1.88 0 1.266.035 1.396.52 1.88.698.698 1.462.698 2.16 0 .485-.484.52-.614.52-1.88 0-1.267-.035-1.397-.52-1.88-.354-.355-.697-.52-1.08-.52-.383 0-.726.165-1.08.52Zm-15.296 1.42c-.305.305-.52.709-.52.977 0 .712 1.938 5.294 2.43 5.746.961.884 2.55.193 2.55-1.108 0-.869-1.831-5.22-2.413-5.734-.64-.565-1.407-.52-2.047.12Zm30.703-.12c-.582.514-2.412 4.867-2.412 5.735 0 1.301 1.588 1.992 2.55 1.108.491-.452 2.43-5.034 2.43-5.746 0-.268-.216-.672-.52-.977-.64-.64-1.408-.684-2.048-.12Zm-42.856 9.745c-.742.882-.625 1.44.563 2.684.562.59 1.248 1.188 1.524 1.331 1.05.543 2.255-.262 2.255-1.506 0-.54-.172-.8-1.215-1.842-1.104-1.103-1.28-1.214-1.94-1.214-.593 0-.811.101-1.187.547Zm53.929.667c-1.104 1.103-1.214 1.28-1.214 1.94 0 .597.1.809.568 1.203.902.758 1.564.55 3.033-.953 1.38-1.412 1.515-1.936.74-2.857-.376-.446-.594-.547-1.187-.547-.66 0-.836.11-1.94 1.214ZM36.104 26.34c-2.402.79-4.264 2.7-5.075 5.207-.42 1.3-1.679 1.765-2.61.964-.518-.446-.633-1.157-.345-2.144l.15-.516-1 .103c-1.858.192-3.521 1.454-4.109 3.118l-.25.71.653.122c1.135.212 2.448.953 3.298 1.862.685.732.823.994.823 1.566 0 .898-.567 1.46-1.473 1.46-.517 0-.832-.161-1.542-.791-1.137-1.01-2.058-1.307-3.145-1.017-1.109.297-1.606.666-2.155 1.603-.355.606-.473 1.04-.463 1.713.017 1.138.374 1.829 1.398 2.704 1.105.944 1.259 1.755.48 2.534-.707.707-1.36.704-2.344-.01-.907-.656-.938-.627-1.358 1.246-.488 2.179-.146 4.529.98 6.735.21.412.901 1.298 1.536 1.97 1.984 2.102 4.502 3.127 7.403 3.013.848-.033 1.588-.105 1.643-.16.055-.055.04-.452-.034-.882-.117-.683-.201-.796-.663-.892-2.3-.474-4.2-2.725-4.245-5.028-.018-.928.033-1.082.48-1.466.725-.625 1.566-.58 2.152.117.253.3.46.748.46.995 0 1.032.796 2.026 1.83 2.286.397.1.474.026.761-.725.435-1.136 1.305-2.037 1.97-2.037.663 0 1.202.38 1.476 1.042.193.466.153.664-.375 1.829-.544 1.2-.592 1.45-.593 3.084 0 1.556.059 1.903.477 2.793 2.113 4.507 7.966 5.407 11.427 1.757.627-.662 1.133-.697 2.752-.19 1.667.522 3.872.63 5.72.282 2.046-.386 2.413-.367 2.93.148.525.526.584 1.477.125 2.038-.303.37-1.86.896-2.668.9-.61.004-.481.416.38 1.21.952.876 1.36 1.091 3.994 2.106 2.383.919 3.35 1.49 4.474 2.646.44.453 1.03.944 1.31 1.091 1.102.578 2.424-.23 2.424-1.48 0-.617-.753-2.64-1.128-3.032-.163-.17-.45-.142-1.334.133-1.562.486-2.423.46-2.97-.086-.526-.525-.584-1.478-.125-2.034.188-.228.834-.521 1.63-.74 1.677-.46 2.917-1.069 4.15-2.035 1.113-.874 2.058-2.033 1.458-1.788-.624.255-3.517.33-4.538.118-1.126-.234-2.997-1.073-3.864-1.733-.511-.39-.655-.421-1.138-.253-2.465.859-6.103-1.058-6.486-3.418-.089-.547-.026-.716.438-1.18.873-.873 1.486-.76 2.633.48l.944 1.022h1.072c.972 0 1.124-.053 1.652-.58.53-.53.58-.67.557-1.6-.014-.56-.083-1.316-.153-1.68-.112-.584-.064-.724.412-1.2 2.011-2.01 3.953 1.87 2.536 5.07-.46 1.038-.377 1.16 1.149 1.697 1.607.567 3.723.43 5.295-.344 1.835-.903 3.201-2.647 3.672-4.688.23-.992.228-1.699-.004-2.78l-.189-.882-.745.426c-.909.52-1.532.542-2.123.077-.969-.762-.765-1.975.463-2.75 1.076-.68 1.592-1.523 1.68-2.749.114-1.57-.566-2.71-1.965-3.295-.944-.394-1.902-.338-2.904.17-1.673.849-2.92.376-2.92-1.107 0-.755.704-1.479 1.872-1.925.438-.167.796-.33.796-.364 0-.033-.196-.58-.435-1.215-.833-2.212-2.575-4.258-4.602-5.407-1.071-.607-3.113-1.267-3.919-1.267-.474 0-.563.07-.585.455-.058 1-1.148 1.646-2.102 1.248-.678-.283-.983-.736-.988-1.469-.005-.691-.562-1.828-1.174-2.4-1.887-1.761-5.158-.623-5.513 1.92-.166 1.186-.446 1.696-1.076 1.959-.505.211-.678.211-1.184 0-.973-.406-1.187-1.368-.721-3.238.078-.313-.083-.45-1.031-.88-1.498-.68-3.948-.799-5.553-.272Zm-30.08 7.17a1.477 1.477 0 0 0-.073 2.162c.462.45 4.965 2.41 5.539 2.41 1.086 0 1.877-1.125 1.523-2.167-.228-.67-.317-.725-2.982-1.826C7.397 33 6.73 32.904 6.024 33.51Zm71.766.64c-2.16.915-2.432 1.08-2.713 1.646-.251.507-.275.735-.12 1.178.22.63.85 1.108 1.459 1.108.645 0 5.145-1.92 5.633-2.403.567-.561.565-1.538-.004-2.144-.638-.678-1.495-.554-4.255.615Zm-41.11 1.784c-1.295.414-1.996.857-3.03 1.915-1.087 1.112-1.896 2.848-2.039 4.371-.106 1.142-.095 1.186.457 1.738.492.49.653.552 1.215.46.932-.15 1.286-.596 1.462-1.84.189-1.335.5-1.947 1.408-2.766.693-.627 1.352-.893 2.754-1.113 1.564-.245 2.06-1.943.84-2.878-.409-.314-1.904-.259-3.068.113Zm15.866 6.404c-.19.19-.439.689-.552 1.108-.601 2.233-2.231 3.985-4.29 4.61-2.317.703-4.548.213-6.427-1.414-.677-.586-.995-.74-1.525-.74-.887 0-1.514.639-1.514 1.542 0 .557.142.776 1.046 1.617.988.919 3.202 2.173 3.837 2.173.813 0 .49.644-.706 1.411-.63.404-1.233.616-2.095.734-.95.13-1.296.264-1.61.62a1.556 1.556 0 0 0 .06 2.155c.437.436.532.455 1.794.36 2.583-.195 5.234-1.96 6.262-4.167.379-.812.5-.925 1.101-1.027 1.14-.192 3.146-1.272 4.2-2.26 1.274-1.195 2.275-2.734 2.724-4.186.456-1.473.446-1.678-.107-2.335-.37-.44-.598-.547-1.156-.547-.452 0-.817.12-1.042.346Zm-38.24 13.571c-.339.117-.72.412-.849.657-.192.366-5.737 33.058-5.737 33.824 0 .18.512.093 2.085-.36 10.334-2.968 21.631-2.835 31.75.375l.845.268v-10.13c0-10.7.017-10.945.808-11.248.37-.142 1.214-.142 1.584 0 .791.303.809.547.809 11.247v10.131l.845-.263c10.344-3.227 21.497-3.352 31.8-.357 1.572.457 2.034.535 2.034.344 0-.37-5.486-33.302-5.65-33.92-.124-.461-.244-.547-.895-.635-.694-.093-.788-.056-1.198.482-.245.32-.613 1.126-.817 1.79-.738 2.39-2.178 4.633-3.996 6.228l-.974.853.617 1.335c.81 1.75 1.068 2.83.94 3.92-.297 2.497-2.347 4.316-4.845 4.297-1.464-.01-2.465-.488-3.956-1.888-1.368-1.284-1.735-1.503-3.754-2.247-1.863-.687-3.465-1.5-4.518-2.292-.942-.709-2.158-2.382-2.343-3.222-.082-.373-.223-.534-.466-.534-.192 0-.934-.121-1.65-.269l-1.3-.268-1.17.784c-2.237 1.5-4.769 2.11-7.196 1.737-2.648-.406-5.442-2.17-6.831-4.312l-.568-.875-.902.135c-1.305.195-4.15.13-5.082-.115-3.034-.801-5.722-2.557-7.39-4.827-.69-.941-.939-1.02-2.03-.645Zm-6.783 4.3a1.72 1.72 0 0 0-.664.748C6.474 61.913-.112 96.197 0 96.65c.062.244.314.603.56.797.441.346.763.352 17.231.352 15.86 0 16.783-.017 16.796-.31.007-.172.115-1.431.24-2.8.124-1.368.175-2.548.112-2.62-.199-.23-3.542-.664-6.798-.882-6.23-.418-11.469.236-19.52 2.435-1.084.296-2.033.144-2.885-.463-.59-.42-1.218-1.68-1.218-2.44 0-.313 1.12-7.285 2.49-15.491 1.37-8.207 2.49-15.004 2.49-15.104 0-.269-1.44-.207-1.976.085Zm70.979-.085c0 .1 1.126 6.918 2.502 15.152 1.603 9.585 2.474 15.243 2.423 15.728-.166 1.561-1.511 2.775-3.058 2.76-.391-.004-1.512-.248-2.49-.542-7.076-2.126-15.731-2.708-23.01-1.546-.917.147-1.72.299-1.784.338-.064.04-.019 1.177.1 2.529.118 1.351.22 2.636.228 2.856l.013.4h16.782c16.468 0 16.79-.006 17.23-.352.247-.194.5-.552.56-.796.114-.451-6.473-34.734-6.858-35.695-.11-.273-.424-.613-.698-.755-.571-.295-1.94-.35-1.94-.077ZM48.446 93.088c-.733.221-1.974.651-2.756.956-.783.305-1.539.555-1.68.555-.141 0-1.061-.31-2.045-.69-1.903-.734-3.59-1.212-3.742-1.059-.051.051-.214 1.522-.362 3.27-.31 3.678-.35 3.559 1.358 4.159 2.738.961 6.824.961 9.563 0 1.707-.6 1.664-.462 1.344-4.256-.152-1.803-.292-3.291-.31-3.307-.02-.016-.636.152-1.37.373Z" fill="url(#b)"/><path clip-rule="evenodd" d="M42.92 10.52c-.485.483-.52.613-.52 1.88 0 1.266.035 1.396.52 1.88.698.698 1.462.698 2.16 0 .485-.484.52-.614.52-1.88 0-1.267-.035-1.397-.52-1.88-.354-.355-.697-.52-1.08-.52-.383 0-.726.165-1.08.52Zm-15.296 1.42c-.305.305-.52.709-.52.977 0 .712 1.938 5.294 2.43 5.746.961.884 2.55.193 2.55-1.108 0-.869-1.831-5.22-2.413-5.734-.64-.565-1.407-.52-2.047.12Zm30.703-.12c-.582.514-2.412 4.867-2.412 5.735 0 1.301 1.588 1.992 2.55 1.108.491-.452 2.43-5.034 2.43-5.746 0-.268-.216-.672-.52-.977-.64-.64-1.408-.684-2.048-.12Zm-42.856 9.745c-.742.882-.625 1.44.563 2.684.562.59 1.248 1.188 1.524 1.331 1.05.543 2.255-.262 2.255-1.506 0-.54-.172-.8-1.215-1.842-1.104-1.103-1.28-1.214-1.94-1.214-.593 0-.811.101-1.187.547Zm53.929.667c-1.104 1.103-1.214 1.28-1.214 1.94 0 .597.1.809.568 1.203.902.758 1.564.55 3.033-.953 1.38-1.412 1.515-1.936.74-2.857-.376-.446-.594-.547-1.187-.547-.66 0-.836.11-1.94 1.214ZM36.104 26.34c-2.402.79-4.264 2.7-5.075 5.207-.42 1.3-1.679 1.765-2.61.964-.518-.446-.633-1.157-.345-2.144l.15-.516-1 .103c-1.858.192-3.521 1.454-4.109 3.118l-.25.71.653.122c1.135.212 2.448.953 3.298 1.862.685.732.823.994.823 1.566 0 .898-.567 1.46-1.473 1.46-.517 0-.832-.161-1.542-.791-1.137-1.01-2.058-1.307-3.145-1.017-1.109.297-1.606.666-2.155 1.603-.355.606-.473 1.04-.463 1.713.017 1.138.374 1.829 1.398 2.704 1.105.944 1.259 1.755.48 2.534-.707.707-1.36.704-2.344-.01-.907-.656-.938-.627-1.358 1.246-.488 2.179-.146 4.529.98 6.735.21.412.901 1.298 1.536 1.97 1.984 2.102 4.502 3.127 7.403 3.013.848-.033 1.588-.105 1.643-.16.055-.055.04-.452-.034-.882-.117-.683-.201-.796-.663-.892-2.3-.474-4.2-2.725-4.245-5.028-.018-.928.033-1.082.48-1.466.725-.625 1.566-.58 2.152.117.253.3.46.748.46.995 0 1.032.796 2.026 1.83 2.286.397.1.474.026.761-.725.435-1.136 1.305-2.037 1.97-2.037.663 0 1.202.38 1.476 1.042.193.466.153.664-.375 1.829-.544 1.2-.592 1.45-.593 3.084 0 1.556.059 1.903.477 2.793 2.113 4.507 7.966 5.407 11.427 1.757.627-.662 1.133-.697 2.752-.19 1.667.522 3.872.63 5.72.282 2.046-.386 2.413-.367 2.93.148.525.526.584 1.477.125 2.038-.303.37-1.86.896-2.668.9-.61.004-.481.416.38 1.21.952.876 1.36 1.091 3.994 2.106 2.383.919 3.35 1.49 4.474 2.646.44.453 1.03.944 1.31 1.091 1.102.578 2.424-.23 2.424-1.48 0-.617-.753-2.64-1.128-3.032-.163-.17-.45-.142-1.334.133-1.562.486-2.423.46-2.97-.086-.526-.525-.584-1.478-.125-2.034.188-.228.834-.521 1.63-.74 1.677-.46 2.917-1.069 4.15-2.035 1.113-.874 2.058-2.033 1.458-1.788-.624.255-3.517.33-4.538.118-1.126-.234-2.997-1.073-3.864-1.733-.511-.39-.655-.421-1.138-.253-2.465.859-6.103-1.058-6.486-3.418-.089-.547-.026-.716.438-1.18.873-.873 1.486-.76 2.633.48l.944 1.022h1.072c.972 0 1.124-.053 1.652-.58.53-.53.58-.67.557-1.6-.014-.56-.083-1.316-.153-1.68-.112-.584-.064-.724.412-1.2 2.011-2.01 3.953 1.87 2.536 5.07-.46 1.038-.377 1.16 1.149 1.697 1.607.567 3.723.43 5.295-.344 1.835-.903 3.201-2.647 3.672-4.688.23-.992.228-1.699-.004-2.78l-.189-.882-.745.426c-.909.52-1.532.542-2.123.077-.969-.762-.765-1.975.463-2.75 1.076-.68 1.592-1.523 1.68-2.749.114-1.57-.566-2.71-1.965-3.295-.944-.394-1.902-.338-2.904.17-1.673.849-2.92.376-2.92-1.107 0-.755.704-1.479 1.872-1.925.438-.167.796-.33.796-.364 0-.033-.196-.58-.435-1.215-.833-2.212-2.575-4.258-4.602-5.407-1.071-.607-3.113-1.267-3.919-1.267-.474 0-.563.07-.585.455-.058 1-1.148 1.646-2.102 1.248-.678-.283-.983-.736-.988-1.469-.005-.691-.562-1.828-1.174-2.4-1.887-1.761-5.158-.623-5.513 1.92-.166 1.186-.446 1.696-1.076 1.959-.505.211-.678.211-1.184 0-.973-.406-1.187-1.368-.721-3.238.078-.313-.083-.45-1.031-.88-1.498-.68-3.948-.799-5.553-.272Zm-30.08 7.17a1.477 1.477 0 0 0-.073 2.162c.462.45 4.965 2.41 5.539 2.41 1.086 0 1.877-1.125 1.523-2.167-.228-.67-.317-.725-2.982-1.826C7.397 33 6.73 32.904 6.024 33.51Zm71.766.64c-2.16.915-2.432 1.08-2.713 1.646-.251.507-.275.735-.12 1.178.22.63.85 1.108 1.459 1.108.645 0 5.145-1.92 5.633-2.403.567-.561.565-1.538-.004-2.144-.638-.678-1.495-.554-4.255.615Zm-41.11 1.784c-1.295.414-1.996.857-3.03 1.915-1.087 1.112-1.896 2.848-2.039 4.371-.106 1.142-.095 1.186.457 1.738.492.49.653.552 1.215.46.932-.15 1.286-.596 1.462-1.84.189-1.335.5-1.947 1.408-2.766.693-.627 1.352-.893 2.754-1.113 1.564-.245 2.06-1.943.84-2.878-.409-.314-1.904-.259-3.068.113Zm15.866 6.404c-.19.19-.439.689-.552 1.108-.601 2.233-2.231 3.985-4.29 4.61-2.317.703-4.548.213-6.427-1.414-.677-.586-.995-.74-1.525-.74-.887 0-1.514.639-1.514 1.542 0 .557.142.776 1.046 1.617.988.919 3.202 2.173 3.837 2.173.813 0 .49.644-.706 1.411-.63.404-1.233.616-2.095.734-.95.13-1.296.264-1.61.62a1.556 1.556 0 0 0 .06 2.155c.437.436.532.455 1.794.36 2.583-.195 5.234-1.96 6.262-4.167.379-.812.5-.925 1.101-1.027 1.14-.192 3.146-1.272 4.2-2.26 1.274-1.195 2.275-2.734 2.724-4.186.456-1.473.446-1.678-.107-2.335-.37-.44-.598-.547-1.156-.547-.452 0-.817.12-1.042.346Zm-38.24 13.571c-.339.117-.72.412-.849.657-.192.366-5.737 33.058-5.737 33.824 0 .18.512.093 2.085-.36 10.334-2.968 21.631-2.835 31.75.375l.845.268v-10.13c0-10.7.017-10.945.808-11.248.37-.142 1.214-.142 1.584 0 .791.303.809.547.809 11.247v10.131l.845-.263c10.344-3.227 21.497-3.352 31.8-.357 1.572.457 2.034.535 2.034.344 0-.37-5.486-33.302-5.65-33.92-.124-.461-.244-.547-.895-.635-.694-.093-.788-.056-1.198.482-.245.32-.613 1.126-.817 1.79-.738 2.39-2.178 4.633-3.996 6.228l-.974.853.617 1.335c.81 1.75 1.068 2.83.94 3.92-.297 2.497-2.347 4.316-4.845 4.297-1.464-.01-2.465-.488-3.956-1.888-1.368-1.284-1.735-1.503-3.754-2.247-1.863-.687-3.465-1.5-4.518-2.292-.942-.709-2.158-2.382-2.343-3.222-.082-.373-.223-.534-.466-.534-.192 0-.934-.121-1.65-.269l-1.3-.268-1.17.784c-2.237 1.5-4.769 2.11-7.196 1.737-2.648-.406-5.442-2.17-6.831-4.312l-.568-.875-.902.135c-1.305.195-4.15.13-5.082-.115-3.034-.801-5.722-2.557-7.39-4.827-.69-.941-.939-1.02-2.03-.645Zm-6.783 4.3a1.72 1.72 0 0 0-.664.748C6.474 61.913-.112 96.197 0 96.65c.062.244.314.603.56.797.441.346.763.352 17.231.352 15.86 0 16.783-.017 16.796-.31.007-.172.115-1.431.24-2.8.124-1.368.175-2.548.112-2.62-.199-.23-3.542-.664-6.798-.882-6.23-.418-11.469.236-19.52 2.435-1.084.296-2.033.144-2.885-.463-.59-.42-1.218-1.68-1.218-2.44 0-.313 1.12-7.285 2.49-15.491 1.37-8.207 2.49-15.004 2.49-15.104 0-.269-1.44-.207-1.976.085Zm70.979-.085c0 .1 1.126 6.918 2.502 15.152 1.603 9.585 2.474 15.243 2.423 15.728-.166 1.561-1.511 2.775-3.058 2.76-.391-.004-1.512-.248-2.49-.542-7.076-2.126-15.731-2.708-23.01-1.546-.917.147-1.72.299-1.784.338-.064.04-.019 1.177.1 2.529.118 1.351.22 2.636.228 2.856l.013.4h16.782c16.468 0 16.79-.006 17.23-.352.247-.194.5-.552.56-.796.114-.451-6.473-34.734-6.858-35.695-.11-.273-.424-.613-.698-.755-.571-.295-1.94-.35-1.94-.077ZM48.446 93.088c-.733.221-1.974.651-2.756.956-.783.305-1.539.555-1.68.555-.141 0-1.061-.31-2.045-.69-1.903-.734-3.59-1.212-3.742-1.059-.051.051-.214 1.522-.362 3.27-.31 3.678-.35 3.559 1.358 4.159 2.738.961 6.824.961 9.563 0 1.707-.6 1.664-.462 1.344-4.256-.152-1.803-.292-3.291-.31-3.307-.02-.016-.636.152-1.37.373Z" stroke="#fff" stroke-opacity=".03" stroke-width="2" mask="url(#c)"/></g><defs><linearGradient id="b" x1="76.853" y1="-15.783" x2="41.849" y2="128.384" gradientUnits="userSpaceOnUse"><stop stop-color="#fff" stop-opacity="0"/><stop offset="1" stop-color="#0A0B43"/></linearGradient><filter id="a" x="-4" y="6" width="96" height="99" filterUnits="userSpaceOnUse" color-interpolation-filters="sRGB"><feFlood flood-opacity="0" result="BackgroundImageFix"/><feGaussianBlur in="BackgroundImageFix" stdDeviation="2"/><feComposite in2="SourceAlpha" operator="in" result="effect1_backgroundBlur_1_663"/><feBlend in="SourceGraphic" in2="effect1_backgroundBlur_1_663" result="shape"/></filter></defs></svg>