<svg width="176" height="110" fill="none" xmlns="http://www.w3.org/2000/svg"><g filter="url(#a)" opacity=".8"><mask id="c" fill="#fff"><path fill-rule="evenodd" clip-rule="evenodd" d="M23.228 13.571c-.141.34-.617 1.584-1.058 2.763-.44 1.18-.877 2.229-.97 2.331-.094.103-1.573.27-3.286.373-2.572.154-3.124.237-3.17.477-.034.183.847 1.006 2.377 2.222 1.337 1.063 2.43 2.023 2.429 2.134-.002.112-.338 1.419-.747 2.906-.408 1.486-.743 2.81-.743 2.943 0 .59.67.33 2.913-1.13 1.322-.86 2.499-1.619 2.616-1.686.117-.068 1.365.631 2.774 1.554 1.41.922 2.638 1.676 2.731 1.676.426 0 .337-.79-.397-3.497-.674-2.485-.75-2.942-.52-3.111 1.973-1.453 4.622-3.774 4.577-4.01-.06-.317-1.78-.517-4.765-.552l-1.541-.019-.277-.606c-.152-.333-.678-1.655-1.17-2.936-.977-2.55-1.326-2.91-1.773-1.832Zm34.808 3.809-.746 1.978-1.57.509c-.862.28-2.234.846-3.046 1.257l-1.478.748-1.786-.808c-.983-.444-1.872-.809-1.976-.81-.104-.002-1.209 1.025-2.455 2.28l-2.266 2.285.845 1.901.845 1.901-.846 1.736c-.465.954-1.023 2.326-1.24 3.048l-.395 1.312-1.953.74-1.953.738.047 3.332.048 3.333 1.91.736 1.91.738.3 1.059c.166.582.724 1.959 1.241 3.059l.94 2-.86 1.916-.86 1.916 2.31 2.316 2.311 2.315 1.938-.865 1.937-.864 1.481.738c.816.406 2.186.974 3.046 1.263l1.563.525.768 1.948.768 1.949 3.266.05 3.266.051.758-1.987.757-1.987 1.981-.697c1.09-.384 2.456-.965 3.035-1.292l1.055-.595 1.962.875 1.961.876 2.315-2.314 2.314-2.315-.864-1.925-.865-1.925.762-1.538c.42-.845.987-2.22 1.262-3.055l.5-1.519 1.884-.726 1.883-.726.05-3.333.05-3.333-1.955-.736-1.955-.736-.393-1.315c-.215-.723-.77-2.1-1.234-3.062l-.841-1.747.848-1.89.847-1.889-2.275-2.284c-1.252-1.256-2.361-2.283-2.465-2.282-.105.002-1 .37-1.99.818l-1.801.815-.81-.463c-1.129-.644-3.657-1.674-4.49-1.83-.688-.127-.705-.151-1.475-2.16l-.778-2.031H58.78l-.745 1.978Zm.725 9.577c-2.704.73-5.627 2.768-7.157 4.992-2.95 4.287-3.1 9.652-.397 14.102 1.424 2.344 4.095 4.459 6.744 5.34 3.276 1.09 6.54.862 9.723-.678 1.497-.724 2.02-1.107 3.37-2.468 2.764-2.787 3.847-5.62 3.67-9.597-.153-3.472-1.205-5.85-3.683-8.327-1.578-1.578-2.887-2.415-4.88-3.123-1.895-.672-5.371-.786-7.39-.241Zm8.074 6.505c-.308.2-1.941 1.754-3.63 3.454l-3.07 3.091-1.416-1.378c-1.051-1.023-1.591-1.41-2.098-1.505-1.507-.283-2.923 1.126-2.641 2.627.1.534.544 1.119 1.987 2.617 2.252 2.337 3.27 3.058 4.32 3.058.74 0 .86-.103 5.284-4.526l4.528-4.527v-.884c0-.738-.101-.994-.607-1.546-.77-.84-1.814-1.03-2.657-.481Zm-43.423 5.567c-.05.082-.532 1.325-1.07 2.76-.539 1.437-1.09 2.703-1.227 2.815-.14.116-1.522.257-3.179.325-1.612.067-3.002.192-3.088.278-.299.298.072.693 2.307 2.456 1.235.973 2.287 1.839 2.34 1.924.052.084-.259 1.447-.69 3.028-.73 2.665-.821 3.441-.407 3.441.089 0 1.313-.755 2.72-1.678 1.406-.923 2.594-1.679 2.64-1.679.045 0 1.255.762 2.688 1.694 1.434.931 2.693 1.64 2.8 1.574.302-.188.24-.575-.551-3.455-.409-1.487-.744-2.752-.746-2.812-.002-.06 1.09-.979 2.428-2.041 1.53-1.216 2.411-2.04 2.376-2.222-.062-.329-1.4-.51-4.061-.55-2.323-.037-2.33-.04-2.909-1.578-1.37-3.64-1.675-4.315-1.97-4.371-.17-.033-.35.008-.4.09Zm7.705 25.606c-1.71.29-3.88 1.352-10.116 4.951a3485.744 3485.744 0 0 0-6.438 3.72c-.052.035 8.1 14.455 8.264 14.619.056.056.705-.22 1.444-.61l1.343-.712 11.937 3.202 11.937 3.202 1.866-.076c1.34-.055 2.165-.193 2.934-.492.969-.376 31.836-19.221 32.67-19.945.565-.49 1.038-1.724 1.042-2.719.006-1.245-.589-2.423-1.54-3.052-1.545-1.022-4.583-.522-8.061 1.327-.821.436-5.144 2.923-9.606 5.526-9.106 5.311-9.773 5.658-11.725 6.092-2.878.64-5.936.2-13.915-2.002-5.035-1.39-5.322-1.534-5.322-2.688 0-.665.684-1.392 1.31-1.392.18 0 1.784.413 3.565.918 6.082 1.724 7.806 2.11 8.966 2.01 1.305-.115 2.111-.643 2.59-1.697.666-1.466.357-2.773-.912-3.86-.626-.535-1.087-.72-2.682-1.073-3.118-.69-6.665-1.766-11.434-3.466-5.474-1.95-6.198-2.11-8.117-1.783ZM3.529 70.569C.32 72.397-.12 72.859.024 74.239c.058.555 1.908 3.978 7.238 13.393C14.955 101.22 14.806 101 16.312 101c1.003 0 6.285-2.954 6.804-3.805.803-1.317.894-1.116-6.186-13.633-8.213-14.521-7.914-14.02-8.567-14.358-1.104-.57-1.763-.384-4.834 1.365Zm2.315 3.376c-1.137.477-1.427 1.868-.568 2.727.98.98 2.713.271 2.713-1.108 0-1.135-1.18-2.025-2.145-1.62Z"/></mask><path fill-rule="evenodd" clip-rule="evenodd" d="M23.228 13.571c-.141.34-.617 1.584-1.058 2.763-.44 1.18-.877 2.229-.97 2.331-.094.103-1.573.27-3.286.373-2.572.154-3.124.237-3.17.477-.034.183.847 1.006 2.377 2.222 1.337 1.063 2.43 2.023 2.429 2.134-.002.112-.338 1.419-.747 2.906-.408 1.486-.743 2.81-.743 2.943 0 .59.67.33 2.913-1.13 1.322-.86 2.499-1.619 2.616-1.686.117-.068 1.365.631 2.774 1.554 1.41.922 2.638 1.676 2.731 1.676.426 0 .337-.79-.397-3.497-.674-2.485-.75-2.942-.52-3.111 1.973-1.453 4.622-3.774 4.577-4.01-.06-.317-1.78-.517-4.765-.552l-1.541-.019-.277-.606c-.152-.333-.678-1.655-1.17-2.936-.977-2.55-1.326-2.91-1.773-1.832Zm34.808 3.809-.746 1.978-1.57.509c-.862.28-2.234.846-3.046 1.257l-1.478.748-1.786-.808c-.983-.444-1.872-.809-1.976-.81-.104-.002-1.209 1.025-2.455 2.28l-2.266 2.285.845 1.901.845 1.901-.846 1.736c-.465.954-1.023 2.326-1.24 3.048l-.395 1.312-1.953.74-1.953.738.047 3.332.048 3.333 1.91.736 1.91.738.3 1.059c.166.582.724 1.959 1.241 3.059l.94 2-.86 1.916-.86 1.916 2.31 2.316 2.311 2.315 1.938-.865 1.937-.864 1.481.738c.816.406 2.186.974 3.046 1.263l1.563.525.768 1.948.768 1.949 3.266.05 3.266.051.758-1.987.757-1.987 1.981-.697c1.09-.384 2.456-.965 3.035-1.292l1.055-.595 1.962.875 1.961.876 2.315-2.314 2.314-2.315-.864-1.925-.865-1.925.762-1.538c.42-.845.987-2.22 1.262-3.055l.5-1.519 1.884-.726 1.883-.726.05-3.333.05-3.333-1.955-.736-1.955-.736-.393-1.315c-.215-.723-.77-2.1-1.234-3.062l-.841-1.747.848-1.89.847-1.889-2.275-2.284c-1.252-1.256-2.361-2.283-2.465-2.282-.105.002-1 .37-1.99.818l-1.801.815-.81-.463c-1.129-.644-3.657-1.674-4.49-1.83-.688-.127-.705-.151-1.475-2.16l-.778-2.031H58.78l-.745 1.978Zm.725 9.577c-2.704.73-5.627 2.768-7.157 4.992-2.95 4.287-3.1 9.652-.397 14.102 1.424 2.344 4.095 4.459 6.744 5.34 3.276 1.09 6.54.862 9.723-.678 1.497-.724 2.02-1.107 3.37-2.468 2.764-2.787 3.847-5.62 3.67-9.597-.153-3.472-1.205-5.85-3.683-8.327-1.578-1.578-2.887-2.415-4.88-3.123-1.895-.672-5.371-.786-7.39-.241Zm8.074 6.505c-.308.2-1.941 1.754-3.63 3.454l-3.07 3.091-1.416-1.378c-1.051-1.023-1.591-1.41-2.098-1.505-1.507-.283-2.923 1.126-2.641 2.627.1.534.544 1.119 1.987 2.617 2.252 2.337 3.27 3.058 4.32 3.058.74 0 .86-.103 5.284-4.526l4.528-4.527v-.884c0-.738-.101-.994-.607-1.546-.77-.84-1.814-1.03-2.657-.481Zm-43.423 5.567c-.05.082-.532 1.325-1.07 2.76-.539 1.437-1.09 2.703-1.227 2.815-.14.116-1.522.257-3.179.325-1.612.067-3.002.192-3.088.278-.299.298.072.693 2.307 2.456 1.235.973 2.287 1.839 2.34 1.924.052.084-.259 1.447-.69 3.028-.73 2.665-.821 3.441-.407 3.441.089 0 1.313-.755 2.72-1.678 1.406-.923 2.594-1.679 2.64-1.679.045 0 1.255.762 2.688 1.694 1.434.931 2.693 1.64 2.8 1.574.302-.188.24-.575-.551-3.455-.409-1.487-.744-2.752-.746-2.812-.002-.06 1.09-.979 2.428-2.041 1.53-1.216 2.411-2.04 2.376-2.222-.062-.329-1.4-.51-4.061-.55-2.323-.037-2.33-.04-2.909-1.578-1.37-3.64-1.675-4.315-1.97-4.371-.17-.033-.35.008-.4.09Zm7.705 25.606c-1.71.29-3.88 1.352-10.116 4.951a3485.744 3485.744 0 0 0-6.438 3.72c-.052.035 8.1 14.455 8.264 14.619.056.056.705-.22 1.444-.61l1.343-.712 11.937 3.202 11.937 3.202 1.866-.076c1.34-.055 2.165-.193 2.934-.492.969-.376 31.836-19.221 32.67-19.945.565-.49 1.038-1.724 1.042-2.719.006-1.245-.589-2.423-1.54-3.052-1.545-1.022-4.583-.522-8.061 1.327-.821.436-5.144 2.923-9.606 5.526-9.106 5.311-9.773 5.658-11.725 6.092-2.878.64-5.936.2-13.915-2.002-5.035-1.39-5.322-1.534-5.322-2.688 0-.665.684-1.392 1.31-1.392.18 0 1.784.413 3.565.918 6.082 1.724 7.806 2.11 8.966 2.01 1.305-.115 2.111-.643 2.59-1.697.666-1.466.357-2.773-.912-3.86-.626-.535-1.087-.72-2.682-1.073-3.118-.69-6.665-1.766-11.434-3.466-5.474-1.95-6.198-2.11-8.117-1.783ZM3.529 70.569C.32 72.397-.12 72.859.024 74.239c.058.555 1.908 3.978 7.238 13.393C14.955 101.22 14.806 101 16.312 101c1.003 0 6.285-2.954 6.804-3.805.803-1.317.894-1.116-6.186-13.633-8.213-14.521-7.914-14.02-8.567-14.358-1.104-.57-1.763-.384-4.834 1.365Zm2.315 3.376c-1.137.477-1.427 1.868-.568 2.727.98.98 2.713.271 2.713-1.108 0-1.135-1.18-2.025-2.145-1.62Z" fill="#06CAC6"/><path fill-rule="evenodd" clip-rule="evenodd" d="M23.228 13.571c-.141.34-.617 1.584-1.058 2.763-.44 1.18-.877 2.229-.97 2.331-.094.103-1.573.27-3.286.373-2.572.154-3.124.237-3.17.477-.034.183.847 1.006 2.377 2.222 1.337 1.063 2.43 2.023 2.429 2.134-.002.112-.338 1.419-.747 2.906-.408 1.486-.743 2.81-.743 2.943 0 .59.67.33 2.913-1.13 1.322-.86 2.499-1.619 2.616-1.686.117-.068 1.365.631 2.774 1.554 1.41.922 2.638 1.676 2.731 1.676.426 0 .337-.79-.397-3.497-.674-2.485-.75-2.942-.52-3.111 1.973-1.453 4.622-3.774 4.577-4.01-.06-.317-1.78-.517-4.765-.552l-1.541-.019-.277-.606c-.152-.333-.678-1.655-1.17-2.936-.977-2.55-1.326-2.91-1.773-1.832Zm34.808 3.809-.746 1.978-1.57.509c-.862.28-2.234.846-3.046 1.257l-1.478.748-1.786-.808c-.983-.444-1.872-.809-1.976-.81-.104-.002-1.209 1.025-2.455 2.28l-2.266 2.285.845 1.901.845 1.901-.846 1.736c-.465.954-1.023 2.326-1.24 3.048l-.395 1.312-1.953.74-1.953.738.047 3.332.048 3.333 1.91.736 1.91.738.3 1.059c.166.582.724 1.959 1.241 3.059l.94 2-.86 1.916-.86 1.916 2.31 2.316 2.311 2.315 1.938-.865 1.937-.864 1.481.738c.816.406 2.186.974 3.046 1.263l1.563.525.768 1.948.768 1.949 3.266.05 3.266.051.758-1.987.757-1.987 1.981-.697c1.09-.384 2.456-.965 3.035-1.292l1.055-.595 1.962.875 1.961.876 2.315-2.314 2.314-2.315-.864-1.925-.865-1.925.762-1.538c.42-.845.987-2.22 1.262-3.055l.5-1.519 1.884-.726 1.883-.726.05-3.333.05-3.333-1.955-.736-1.955-.736-.393-1.315c-.215-.723-.77-2.1-1.234-3.062l-.841-1.747.848-1.89.847-1.889-2.275-2.284c-1.252-1.256-2.361-2.283-2.465-2.282-.105.002-1 .37-1.99.818l-1.801.815-.81-.463c-1.129-.644-3.657-1.674-4.49-1.83-.688-.127-.705-.151-1.475-2.16l-.778-2.031H58.78l-.745 1.978Zm.725 9.577c-2.704.73-5.627 2.768-7.157 4.992-2.95 4.287-3.1 9.652-.397 14.102 1.424 2.344 4.095 4.459 6.744 5.34 3.276 1.09 6.54.862 9.723-.678 1.497-.724 2.02-1.107 3.37-2.468 2.764-2.787 3.847-5.62 3.67-9.597-.153-3.472-1.205-5.85-3.683-8.327-1.578-1.578-2.887-2.415-4.88-3.123-1.895-.672-5.371-.786-7.39-.241Zm8.074 6.505c-.308.2-1.941 1.754-3.63 3.454l-3.07 3.091-1.416-1.378c-1.051-1.023-1.591-1.41-2.098-1.505-1.507-.283-2.923 1.126-2.641 2.627.1.534.544 1.119 1.987 2.617 2.252 2.337 3.27 3.058 4.32 3.058.74 0 .86-.103 5.284-4.526l4.528-4.527v-.884c0-.738-.101-.994-.607-1.546-.77-.84-1.814-1.03-2.657-.481Zm-43.423 5.567c-.05.082-.532 1.325-1.07 2.76-.539 1.437-1.09 2.703-1.227 2.815-.14.116-1.522.257-3.179.325-1.612.067-3.002.192-3.088.278-.299.298.072.693 2.307 2.456 1.235.973 2.287 1.839 2.34 1.924.052.084-.259 1.447-.69 3.028-.73 2.665-.821 3.441-.407 3.441.089 0 1.313-.755 2.72-1.678 1.406-.923 2.594-1.679 2.64-1.679.045 0 1.255.762 2.688 1.694 1.434.931 2.693 1.64 2.8 1.574.302-.188.24-.575-.551-3.455-.409-1.487-.744-2.752-.746-2.812-.002-.06 1.09-.979 2.428-2.041 1.53-1.216 2.411-2.04 2.376-2.222-.062-.329-1.4-.51-4.061-.55-2.323-.037-2.33-.04-2.909-1.578-1.37-3.64-1.675-4.315-1.97-4.371-.17-.033-.35.008-.4.09Zm7.705 25.606c-1.71.29-3.88 1.352-10.116 4.951a3485.744 3485.744 0 0 0-6.438 3.72c-.052.035 8.1 14.455 8.264 14.619.056.056.705-.22 1.444-.61l1.343-.712 11.937 3.202 11.937 3.202 1.866-.076c1.34-.055 2.165-.193 2.934-.492.969-.376 31.836-19.221 32.67-19.945.565-.49 1.038-1.724 1.042-2.719.006-1.245-.589-2.423-1.54-3.052-1.545-1.022-4.583-.522-8.061 1.327-.821.436-5.144 2.923-9.606 5.526-9.106 5.311-9.773 5.658-11.725 6.092-2.878.64-5.936.2-13.915-2.002-5.035-1.39-5.322-1.534-5.322-2.688 0-.665.684-1.392 1.31-1.392.18 0 1.784.413 3.565.918 6.082 1.724 7.806 2.11 8.966 2.01 1.305-.115 2.111-.643 2.59-1.697.666-1.466.357-2.773-.912-3.86-.626-.535-1.087-.72-2.682-1.073-3.118-.69-6.665-1.766-11.434-3.466-5.474-1.95-6.198-2.11-8.117-1.783ZM3.529 70.569C.32 72.397-.12 72.859.024 74.239c.058.555 1.908 3.978 7.238 13.393C14.955 101.22 14.806 101 16.312 101c1.003 0 6.285-2.954 6.804-3.805.803-1.317.894-1.116-6.186-13.633-8.213-14.521-7.914-14.02-8.567-14.358-1.104-.57-1.763-.384-4.834 1.365Zm2.315 3.376c-1.137.477-1.427 1.868-.568 2.727.98.98 2.713.271 2.713-1.108 0-1.135-1.18-2.025-2.145-1.62Z" fill="url(#b)"/><path clip-rule="evenodd" d="M23.228 13.571c-.141.34-.617 1.584-1.058 2.763-.44 1.18-.877 2.229-.97 2.331-.094.103-1.573.27-3.286.373-2.572.154-3.124.237-3.17.477-.034.183.847 1.006 2.377 2.222 1.337 1.063 2.43 2.023 2.429 2.134-.002.112-.338 1.419-.747 2.906-.408 1.486-.743 2.81-.743 2.943 0 .59.67.33 2.913-1.13 1.322-.86 2.499-1.619 2.616-1.686.117-.068 1.365.631 2.774 1.554 1.41.922 2.638 1.676 2.731 1.676.426 0 .337-.79-.397-3.497-.674-2.485-.75-2.942-.52-3.111 1.973-1.453 4.622-3.774 4.577-4.01-.06-.317-1.78-.517-4.765-.552l-1.541-.019-.277-.606c-.152-.333-.678-1.655-1.17-2.936-.977-2.55-1.326-2.91-1.773-1.832Zm34.808 3.809-.746 1.978-1.57.509c-.862.28-2.234.846-3.046 1.257l-1.478.748-1.786-.808c-.983-.444-1.872-.809-1.976-.81-.104-.002-1.209 1.025-2.455 2.28l-2.266 2.285.845 1.901.845 1.901-.846 1.736c-.465.954-1.023 2.326-1.24 3.048l-.395 1.312-1.953.74-1.953.738.047 3.332.048 3.333 1.91.736 1.91.738.3 1.059c.166.582.724 1.959 1.241 3.059l.94 2-.86 1.916-.86 1.916 2.31 2.316 2.311 2.315 1.938-.865 1.937-.864 1.481.738c.816.406 2.186.974 3.046 1.263l1.563.525.768 1.948.768 1.949 3.266.05 3.266.051.758-1.987.757-1.987 1.981-.697c1.09-.384 2.456-.965 3.035-1.292l1.055-.595 1.962.875 1.961.876 2.315-2.314 2.314-2.315-.864-1.925-.865-1.925.762-1.538c.42-.845.987-2.22 1.262-3.055l.5-1.519 1.884-.726 1.883-.726.05-3.333.05-3.333-1.955-.736-1.955-.736-.393-1.315c-.215-.723-.77-2.1-1.234-3.062l-.841-1.747.848-1.89.847-1.889-2.275-2.284c-1.252-1.256-2.361-2.283-2.465-2.282-.105.002-1 .37-1.99.818l-1.801.815-.81-.463c-1.129-.644-3.657-1.674-4.49-1.83-.688-.127-.705-.151-1.475-2.16l-.778-2.031H58.78l-.745 1.978Zm.725 9.577c-2.704.73-5.627 2.768-7.157 4.992-2.95 4.287-3.1 9.652-.397 14.102 1.424 2.344 4.095 4.459 6.744 5.34 3.276 1.09 6.54.862 9.723-.678 1.497-.724 2.02-1.107 3.37-2.468 2.764-2.787 3.847-5.62 3.67-9.597-.153-3.472-1.205-5.85-3.683-8.327-1.578-1.578-2.887-2.415-4.88-3.123-1.895-.672-5.371-.786-7.39-.241Zm8.074 6.505c-.308.2-1.941 1.754-3.63 3.454l-3.07 3.091-1.416-1.378c-1.051-1.023-1.591-1.41-2.098-1.505-1.507-.283-2.923 1.126-2.641 2.627.1.534.544 1.119 1.987 2.617 2.252 2.337 3.27 3.058 4.32 3.058.74 0 .86-.103 5.284-4.526l4.528-4.527v-.884c0-.738-.101-.994-.607-1.546-.77-.84-1.814-1.03-2.657-.481Zm-43.423 5.567c-.05.082-.532 1.325-1.07 2.76-.539 1.437-1.09 2.703-1.227 2.815-.14.116-1.522.257-3.179.325-1.612.067-3.002.192-3.088.278-.299.298.072.693 2.307 2.456 1.235.973 2.287 1.839 2.34 1.924.052.084-.259 1.447-.69 3.028-.73 2.665-.821 3.441-.407 3.441.089 0 1.313-.755 2.72-1.678 1.406-.923 2.594-1.679 2.64-1.679.045 0 1.255.762 2.688 1.694 1.434.931 2.693 1.64 2.8 1.574.302-.188.24-.575-.551-3.455-.409-1.487-.744-2.752-.746-2.812-.002-.06 1.09-.979 2.428-2.041 1.53-1.216 2.411-2.04 2.376-2.222-.062-.329-1.4-.51-4.061-.55-2.323-.037-2.33-.04-2.909-1.578-1.37-3.64-1.675-4.315-1.97-4.371-.17-.033-.35.008-.4.09Zm7.705 25.606c-1.71.29-3.88 1.352-10.116 4.951a3485.744 3485.744 0 0 0-6.438 3.72c-.052.035 8.1 14.455 8.264 14.619.056.056.705-.22 1.444-.61l1.343-.712 11.937 3.202 11.937 3.202 1.866-.076c1.34-.055 2.165-.193 2.934-.492.969-.376 31.836-19.221 32.67-19.945.565-.49 1.038-1.724 1.042-2.719.006-1.245-.589-2.423-1.54-3.052-1.545-1.022-4.583-.522-8.061 1.327-.821.436-5.144 2.923-9.606 5.526-9.106 5.311-9.773 5.658-11.725 6.092-2.878.64-5.936.2-13.915-2.002-5.035-1.39-5.322-1.534-5.322-2.688 0-.665.684-1.392 1.31-1.392.18 0 1.784.413 3.565.918 6.082 1.724 7.806 2.11 8.966 2.01 1.305-.115 2.111-.643 2.59-1.697.666-1.466.357-2.773-.912-3.86-.626-.535-1.087-.72-2.682-1.073-3.118-.69-6.665-1.766-11.434-3.466-5.474-1.95-6.198-2.11-8.117-1.783ZM3.529 70.569C.32 72.397-.12 72.859.024 74.239c.058.555 1.908 3.978 7.238 13.393C14.955 101.22 14.806 101 16.312 101c1.003 0 6.285-2.954 6.804-3.805.803-1.317.894-1.116-6.186-13.633-8.213-14.521-7.914-14.02-8.567-14.358-1.104-.57-1.763-.384-4.834 1.365Zm2.315 3.376c-1.137.477-1.427 1.868-.568 2.727.98.98 2.713.271 2.713-1.108 0-1.135-1.18-2.025-2.145-1.62Z" stroke="#fff" stroke-opacity=".03" stroke-width="2" mask="url(#c)"/></g><defs><linearGradient id="b" x1="76.853" y1="-11.933" x2="44" y2="127.987" gradientUnits="userSpaceOnUse"><stop stop-color="#fff" stop-opacity="0"/><stop offset="1" stop-color="#0A0B43"/></linearGradient><filter id="a" x="-4" y="9" width="96" height="96" filterUnits="userSpaceOnUse" color-interpolation-filters="sRGB"><feFlood flood-opacity="0" result="BackgroundImageFix"/><feGaussianBlur in="BackgroundImageFix" stdDeviation="2"/><feComposite in2="SourceAlpha" operator="in" result="effect1_backgroundBlur_1_667"/><feBlend in="SourceGraphic" in2="effect1_backgroundBlur_1_667" result="shape"/></filter></defs></svg>