<svg width="176" height="110" fill="none" xmlns="http://www.w3.org/2000/svg"><g filter="url(#a)" opacity=".8"><mask id="c" fill="#fff"><path fill-rule="evenodd" clip-rule="evenodd" d="M48.216 14.536c-2.138 1.224-2.63 1.585-2.417 1.78.19.173 16.684 9.925 17.936 10.604.174.095 5.731-3.2 5.607-3.323-.052-.052-4.224-2.458-9.269-5.346L50.899 13l-2.683 1.536Zm-7.018 4c-.994.604-1.883 1.174-1.975 1.268-.147.15 17.395 10.658 18.049 10.81.256.06 4.198-2.202 4.18-2.399-.01-.123-17.92-10.662-18.23-10.728-.12-.026-1.03.447-2.024 1.05Zm-7.317 4.249c-1.54.907-2.734 1.711-2.651 1.788.083.077 4.216 2.486 9.185 5.354l9.034 5.215 2.666-1.487c1.466-.818 2.665-1.57 2.665-1.673 0-.144-8.956-5.52-17.179-10.311l-.917-.535-2.803 1.649Zm33.597 4.697-2.651 1.49-.022 3.38c-.015 2.418-.095 3.468-.282 3.693-.403.484-7 4.174-7.464 4.174-.8 0-.9-.363-.9-3.297 0-1.544-.04-2.807-.088-2.807-.048 0-1.333.735-2.855 1.634l-2.767 1.634v22.758l3.722-2.15 9.891-5.71 6.169-3.56V37.35c0-6.255-.023-11.37-.051-11.365-.028.003-1.244.678-2.702 1.498Zm-37.422 10.26v11.376l6.27 3.624c3.45 1.993 7.58 4.382 9.18 5.307l2.907 1.684-.052-11.406-.053-11.406-8.26-4.775-9.126-5.278-.866-.502v11.376Zm-13.294-1.323-10.54 6.14.794.344c.437.19 4.997 2.764 10.133 5.722 11.4 6.564 11.021 6.347 22.695 13.059C58.82 72.593 57.38 71.704 59.44 73.768c2.784 2.788 5.044 6.745 6.023 10.546.439 1.703.504 2.347.448 4.481-.035 1.371-.055 2.493-.044 2.493.231 0 32.165-18.71 32.544-19.067 1.993-1.874 2.13-6.853.312-11.25-1.632-3.942-4.15-7.138-7.09-9-1.666-1.053-18.186-10.69-18.593-10.845-.327-.124-.357.193-.408 4.301l-.055 4.435-4.384 2.528c-9.971 5.747-18.072 10.356-18.43 10.485-.277.1-2.637-1.173-8.566-4.619-6.825-3.966-11.344-6.557-12.976-7.438-.264-.143-.313-1.545-.359-10.367-.041-7.967-.108-10.199-.306-10.187-.139.008-4.996 2.778-10.793 6.155Zm43.63-4.996-1.99 1.151v2.308c0 1.27.07 2.271.154 2.225l2.243-1.254 2.09-1.17v-2.217c0-1.644-.066-2.214-.255-2.206-.14.006-1.15.529-2.243 1.162ZM3.645 44.183a10.5 10.5 0 0 1-.761.19c-.85.188-1.887 1.217-2.423 2.405-.42.93-.48 1.36-.458 3.307.053 4.884 2.343 9.787 6.299 13.485 1.427 1.335 2.46 2.015 6.853 4.512 7.173 4.077 25.576 14.675 35.356 20.36 4.486 2.61 8.616 4.924 9.177 5.145.61.241 1.525.406 2.277.412 1.7.012 2.66-.61 3.464-2.244.542-1.1.58-1.346.577-3.622-.005-2.762-.407-4.528-1.634-7.178-1.52-3.282-4.516-6.955-6.927-8.493-.561-.357-6.435-3.743-13.052-7.523-6.618-3.78-16.942-9.687-22.943-13.126-6.001-3.438-11.37-6.481-11.93-6.762-1.318-.66-3.221-1.085-3.875-.868Zm2.343 6.055c-1.124.763-1.5 1.442-1.591 2.875-.201 3.148 1.957 6.895 4.706 8.172 2.318 1.076 4.019.253 4.764-2.304.272-.934.285-1.31.082-2.358-.898-4.623-5.326-8.174-7.961-6.385Zm15.3 8.851c-.396.198-.918.715-1.18 1.17-.401.696-.46 1.049-.41 2.441.05 1.389.17 1.86.816 3.21 1.684 3.52 5.085 5.526 7.093 4.182.393-.263.927-.889 1.187-1.391.406-.783.462-1.14.392-2.485-.115-2.177-1.075-4.118-2.864-5.788-1.786-1.667-3.479-2.117-5.034-1.339Zm15.138 8.798c-1.32.803-1.862 2.441-1.48 4.478.48 2.563 2.518 5.406 4.607 6.425 3.47 1.694 5.987-1.423 4.561-5.646-1.39-4.119-5.236-6.748-7.688-5.257Zm15.261 8.905c-2.505 1.385-1.96 6.147 1.075 9.369 2.361 2.507 5.402 2.62 6.608.246.574-1.13.59-2.385.054-4.117-.7-2.26-2.405-4.482-4.117-5.366-1.022-.527-2.788-.592-3.62-.132Z"/></mask><path fill-rule="evenodd" clip-rule="evenodd" d="M48.216 14.536c-2.138 1.224-2.63 1.585-2.417 1.78.19.173 16.684 9.925 17.936 10.604.174.095 5.731-3.2 5.607-3.323-.052-.052-4.224-2.458-9.269-5.346L50.899 13l-2.683 1.536Zm-7.018 4c-.994.604-1.883 1.174-1.975 1.268-.147.15 17.395 10.658 18.049 10.81.256.06 4.198-2.202 4.18-2.399-.01-.123-17.92-10.662-18.23-10.728-.12-.026-1.03.447-2.024 1.05Zm-7.317 4.249c-1.54.907-2.734 1.711-2.651 1.788.083.077 4.216 2.486 9.185 5.354l9.034 5.215 2.666-1.487c1.466-.818 2.665-1.57 2.665-1.673 0-.144-8.956-5.52-17.179-10.311l-.917-.535-2.803 1.649Zm33.597 4.697-2.651 1.49-.022 3.38c-.015 2.418-.095 3.468-.282 3.693-.403.484-7 4.174-7.464 4.174-.8 0-.9-.363-.9-3.297 0-1.544-.04-2.807-.088-2.807-.048 0-1.333.735-2.855 1.634l-2.767 1.634v22.758l3.722-2.15 9.891-5.71 6.169-3.56V37.35c0-6.255-.023-11.37-.051-11.365-.028.003-1.244.678-2.702 1.498Zm-37.422 10.26v11.376l6.27 3.624c3.45 1.993 7.58 4.382 9.18 5.307l2.907 1.684-.052-11.406-.053-11.406-8.26-4.775-9.126-5.278-.866-.502v11.376Zm-13.294-1.323-10.54 6.14.794.344c.437.19 4.997 2.764 10.133 5.722 11.4 6.564 11.021 6.347 22.695 13.059C58.82 72.593 57.38 71.704 59.44 73.768c2.784 2.788 5.044 6.745 6.023 10.546.439 1.703.504 2.347.448 4.481-.035 1.371-.055 2.493-.044 2.493.231 0 32.165-18.71 32.544-19.067 1.993-1.874 2.13-6.853.312-11.25-1.632-3.942-4.15-7.138-7.09-9-1.666-1.053-18.186-10.69-18.593-10.845-.327-.124-.357.193-.408 4.301l-.055 4.435-4.384 2.528c-9.971 5.747-18.072 10.356-18.43 10.485-.277.1-2.637-1.173-8.566-4.619-6.825-3.966-11.344-6.557-12.976-7.438-.264-.143-.313-1.545-.359-10.367-.041-7.967-.108-10.199-.306-10.187-.139.008-4.996 2.778-10.793 6.155Zm43.63-4.996-1.99 1.151v2.308c0 1.27.07 2.271.154 2.225l2.243-1.254 2.09-1.17v-2.217c0-1.644-.066-2.214-.255-2.206-.14.006-1.15.529-2.243 1.162ZM3.645 44.183a10.5 10.5 0 0 1-.761.19c-.85.188-1.887 1.217-2.423 2.405-.42.93-.48 1.36-.458 3.307.053 4.884 2.343 9.787 6.299 13.485 1.427 1.335 2.46 2.015 6.853 4.512 7.173 4.077 25.576 14.675 35.356 20.36 4.486 2.61 8.616 4.924 9.177 5.145.61.241 1.525.406 2.277.412 1.7.012 2.66-.61 3.464-2.244.542-1.1.58-1.346.577-3.622-.005-2.762-.407-4.528-1.634-7.178-1.52-3.282-4.516-6.955-6.927-8.493-.561-.357-6.435-3.743-13.052-7.523-6.618-3.78-16.942-9.687-22.943-13.126-6.001-3.438-11.37-6.481-11.93-6.762-1.318-.66-3.221-1.085-3.875-.868Zm2.343 6.055c-1.124.763-1.5 1.442-1.591 2.875-.201 3.148 1.957 6.895 4.706 8.172 2.318 1.076 4.019.253 4.764-2.304.272-.934.285-1.31.082-2.358-.898-4.623-5.326-8.174-7.961-6.385Zm15.3 8.851c-.396.198-.918.715-1.18 1.17-.401.696-.46 1.049-.41 2.441.05 1.389.17 1.86.816 3.21 1.684 3.52 5.085 5.526 7.093 4.182.393-.263.927-.889 1.187-1.391.406-.783.462-1.14.392-2.485-.115-2.177-1.075-4.118-2.864-5.788-1.786-1.667-3.479-2.117-5.034-1.339Zm15.138 8.798c-1.32.803-1.862 2.441-1.48 4.478.48 2.563 2.518 5.406 4.607 6.425 3.47 1.694 5.987-1.423 4.561-5.646-1.39-4.119-5.236-6.748-7.688-5.257Zm15.261 8.905c-2.505 1.385-1.96 6.147 1.075 9.369 2.361 2.507 5.402 2.62 6.608.246.574-1.13.59-2.385.054-4.117-.7-2.26-2.405-4.482-4.117-5.366-1.022-.527-2.788-.592-3.62-.132Z" fill="#06CAC6"/><path fill-rule="evenodd" clip-rule="evenodd" d="M48.216 14.536c-2.138 1.224-2.63 1.585-2.417 1.78.19.173 16.684 9.925 17.936 10.604.174.095 5.731-3.2 5.607-3.323-.052-.052-4.224-2.458-9.269-5.346L50.899 13l-2.683 1.536Zm-7.018 4c-.994.604-1.883 1.174-1.975 1.268-.147.15 17.395 10.658 18.049 10.81.256.06 4.198-2.202 4.18-2.399-.01-.123-17.92-10.662-18.23-10.728-.12-.026-1.03.447-2.024 1.05Zm-7.317 4.249c-1.54.907-2.734 1.711-2.651 1.788.083.077 4.216 2.486 9.185 5.354l9.034 5.215 2.666-1.487c1.466-.818 2.665-1.57 2.665-1.673 0-.144-8.956-5.52-17.179-10.311l-.917-.535-2.803 1.649Zm33.597 4.697-2.651 1.49-.022 3.38c-.015 2.418-.095 3.468-.282 3.693-.403.484-7 4.174-7.464 4.174-.8 0-.9-.363-.9-3.297 0-1.544-.04-2.807-.088-2.807-.048 0-1.333.735-2.855 1.634l-2.767 1.634v22.758l3.722-2.15 9.891-5.71 6.169-3.56V37.35c0-6.255-.023-11.37-.051-11.365-.028.003-1.244.678-2.702 1.498Zm-37.422 10.26v11.376l6.27 3.624c3.45 1.993 7.58 4.382 9.18 5.307l2.907 1.684-.052-11.406-.053-11.406-8.26-4.775-9.126-5.278-.866-.502v11.376Zm-13.294-1.323-10.54 6.14.794.344c.437.19 4.997 2.764 10.133 5.722 11.4 6.564 11.021 6.347 22.695 13.059C58.82 72.593 57.38 71.704 59.44 73.768c2.784 2.788 5.044 6.745 6.023 10.546.439 1.703.504 2.347.448 4.481-.035 1.371-.055 2.493-.044 2.493.231 0 32.165-18.71 32.544-19.067 1.993-1.874 2.13-6.853.312-11.25-1.632-3.942-4.15-7.138-7.09-9-1.666-1.053-18.186-10.69-18.593-10.845-.327-.124-.357.193-.408 4.301l-.055 4.435-4.384 2.528c-9.971 5.747-18.072 10.356-18.43 10.485-.277.1-2.637-1.173-8.566-4.619-6.825-3.966-11.344-6.557-12.976-7.438-.264-.143-.313-1.545-.359-10.367-.041-7.967-.108-10.199-.306-10.187-.139.008-4.996 2.778-10.793 6.155Zm43.63-4.996-1.99 1.151v2.308c0 1.27.07 2.271.154 2.225l2.243-1.254 2.09-1.17v-2.217c0-1.644-.066-2.214-.255-2.206-.14.006-1.15.529-2.243 1.162ZM3.645 44.183a10.5 10.5 0 0 1-.761.19c-.85.188-1.887 1.217-2.423 2.405-.42.93-.48 1.36-.458 3.307.053 4.884 2.343 9.787 6.299 13.485 1.427 1.335 2.46 2.015 6.853 4.512 7.173 4.077 25.576 14.675 35.356 20.36 4.486 2.61 8.616 4.924 9.177 5.145.61.241 1.525.406 2.277.412 1.7.012 2.66-.61 3.464-2.244.542-1.1.58-1.346.577-3.622-.005-2.762-.407-4.528-1.634-7.178-1.52-3.282-4.516-6.955-6.927-8.493-.561-.357-6.435-3.743-13.052-7.523-6.618-3.78-16.942-9.687-22.943-13.126-6.001-3.438-11.37-6.481-11.93-6.762-1.318-.66-3.221-1.085-3.875-.868Zm2.343 6.055c-1.124.763-1.5 1.442-1.591 2.875-.201 3.148 1.957 6.895 4.706 8.172 2.318 1.076 4.019.253 4.764-2.304.272-.934.285-1.31.082-2.358-.898-4.623-5.326-8.174-7.961-6.385Zm15.3 8.851c-.396.198-.918.715-1.18 1.17-.401.696-.46 1.049-.41 2.441.05 1.389.17 1.86.816 3.21 1.684 3.52 5.085 5.526 7.093 4.182.393-.263.927-.889 1.187-1.391.406-.783.462-1.14.392-2.485-.115-2.177-1.075-4.118-2.864-5.788-1.786-1.667-3.479-2.117-5.034-1.339Zm15.138 8.798c-1.32.803-1.862 2.441-1.48 4.478.48 2.563 2.518 5.406 4.607 6.425 3.47 1.694 5.987-1.423 4.561-5.646-1.39-4.119-5.236-6.748-7.688-5.257Zm15.261 8.905c-2.505 1.385-1.96 6.147 1.075 9.369 2.361 2.507 5.402 2.62 6.608.246.574-1.13.59-2.385.054-4.117-.7-2.26-2.405-4.482-4.117-5.366-1.022-.527-2.788-.592-3.62-.132Z" fill="url(#b)"/><path clip-rule="evenodd" d="M48.216 14.536c-2.138 1.224-2.63 1.585-2.417 1.78.19.173 16.684 9.925 17.936 10.604.174.095 5.731-3.2 5.607-3.323-.052-.052-4.224-2.458-9.269-5.346L50.899 13l-2.683 1.536Zm-7.018 4c-.994.604-1.883 1.174-1.975 1.268-.147.15 17.395 10.658 18.049 10.81.256.06 4.198-2.202 4.18-2.399-.01-.123-17.92-10.662-18.23-10.728-.12-.026-1.03.447-2.024 1.05Zm-7.317 4.249c-1.54.907-2.734 1.711-2.651 1.788.083.077 4.216 2.486 9.185 5.354l9.034 5.215 2.666-1.487c1.466-.818 2.665-1.57 2.665-1.673 0-.144-8.956-5.52-17.179-10.311l-.917-.535-2.803 1.649Zm33.597 4.697-2.651 1.49-.022 3.38c-.015 2.418-.095 3.468-.282 3.693-.403.484-7 4.174-7.464 4.174-.8 0-.9-.363-.9-3.297 0-1.544-.04-2.807-.088-2.807-.048 0-1.333.735-2.855 1.634l-2.767 1.634v22.758l3.722-2.15 9.891-5.71 6.169-3.56V37.35c0-6.255-.023-11.37-.051-11.365-.028.003-1.244.678-2.702 1.498Zm-37.422 10.26v11.376l6.27 3.624c3.45 1.993 7.58 4.382 9.18 5.307l2.907 1.684-.052-11.406-.053-11.406-8.26-4.775-9.126-5.278-.866-.502v11.376Zm-13.294-1.323-10.54 6.14.794.344c.437.19 4.997 2.764 10.133 5.722 11.4 6.564 11.021 6.347 22.695 13.059C58.82 72.593 57.38 71.704 59.44 73.768c2.784 2.788 5.044 6.745 6.023 10.546.439 1.703.504 2.347.448 4.481-.035 1.371-.055 2.493-.044 2.493.231 0 32.165-18.71 32.544-19.067 1.993-1.874 2.13-6.853.312-11.25-1.632-3.942-4.15-7.138-7.09-9-1.666-1.053-18.186-10.69-18.593-10.845-.327-.124-.357.193-.408 4.301l-.055 4.435-4.384 2.528c-9.971 5.747-18.072 10.356-18.43 10.485-.277.1-2.637-1.173-8.566-4.619-6.825-3.966-11.344-6.557-12.976-7.438-.264-.143-.313-1.545-.359-10.367-.041-7.967-.108-10.199-.306-10.187-.139.008-4.996 2.778-10.793 6.155Zm43.63-4.996-1.99 1.151v2.308c0 1.27.07 2.271.154 2.225l2.243-1.254 2.09-1.17v-2.217c0-1.644-.066-2.214-.255-2.206-.14.006-1.15.529-2.243 1.162ZM3.645 44.183a10.5 10.5 0 0 1-.761.19c-.85.188-1.887 1.217-2.423 2.405-.42.93-.48 1.36-.458 3.307.053 4.884 2.343 9.787 6.299 13.485 1.427 1.335 2.46 2.015 6.853 4.512 7.173 4.077 25.576 14.675 35.356 20.36 4.486 2.61 8.616 4.924 9.177 5.145.61.241 1.525.406 2.277.412 1.7.012 2.66-.61 3.464-2.244.542-1.1.58-1.346.577-3.622-.005-2.762-.407-4.528-1.634-7.178-1.52-3.282-4.516-6.955-6.927-8.493-.561-.357-6.435-3.743-13.052-7.523-6.618-3.78-16.942-9.687-22.943-13.126-6.001-3.438-11.37-6.481-11.93-6.762-1.318-.66-3.221-1.085-3.875-.868Zm2.343 6.055c-1.124.763-1.5 1.442-1.591 2.875-.201 3.148 1.957 6.895 4.706 8.172 2.318 1.076 4.019.253 4.764-2.304.272-.934.285-1.31.082-2.358-.898-4.623-5.326-8.174-7.961-6.385Zm15.3 8.851c-.396.198-.918.715-1.18 1.17-.401.696-.46 1.049-.41 2.441.05 1.389.17 1.86.816 3.21 1.684 3.52 5.085 5.526 7.093 4.182.393-.263.927-.889 1.187-1.391.406-.783.462-1.14.392-2.485-.115-2.177-1.075-4.118-2.864-5.788-1.786-1.667-3.479-2.117-5.034-1.339Zm15.138 8.798c-1.32.803-1.862 2.441-1.48 4.478.48 2.563 2.518 5.406 4.607 6.425 3.47 1.694 5.987-1.423 4.561-5.646-1.39-4.119-5.236-6.748-7.688-5.257Zm15.261 8.905c-2.505 1.385-1.96 6.147 1.075 9.369 2.361 2.507 5.402 2.62 6.608.246.574-1.13.59-2.385.054-4.117-.7-2.26-2.405-4.482-4.117-5.366-1.022-.527-2.788-.592-3.62-.132Z" stroke="#fff" stroke-opacity=".03" stroke-width="2" mask="url(#c)"/></g><defs><linearGradient id="b" x1="87.333" y1="-9.95" x2="62.391" y2="121.197" gradientUnits="userSpaceOnUse"><stop stop-color="#fff" stop-opacity="0"/><stop offset="1" stop-color="#0A0B43"/></linearGradient><filter id="a" x="-4" y="9" width="108" height="89" filterUnits="userSpaceOnUse" color-interpolation-filters="sRGB"><feFlood flood-opacity="0" result="BackgroundImageFix"/><feGaussianBlur in="BackgroundImageFix" stdDeviation="2"/><feComposite in2="SourceAlpha" operator="in" result="effect1_backgroundBlur_1_655"/><feBlend in="SourceGraphic" in2="effect1_backgroundBlur_1_655" result="shape"/></filter></defs></svg>