<svg width="176" height="110" fill="none" xmlns="http://www.w3.org/2000/svg"><g filter="url(#a)" opacity=".8"><mask id="c" fill="#fff"><path fill-rule="evenodd" clip-rule="evenodd" d="M34.428 16.513c-3.497 2.033-6.403 3.74-6.456 3.794-.053.055 7.669 4.611 17.16 10.126l17.255 10.026 6.394-3.705c3.517-2.038 6.394-3.759 6.394-3.823 0-.064-7.572-4.514-16.826-9.888a8683.985 8683.985 0 0 1-17.194-10c-.326-.201-1.076.186-6.727 3.47Zm-13.396 7.71c-2.696 1.522-4.883 2.828-4.86 2.902.053.175 34.089 19.975 34.355 19.985.323.013 9.628-5.406 9.57-5.574-.028-.084-7.48-4.49-16.558-9.794l-17.056-9.964-.55-.322-4.901 2.767ZM7.767 31.852c-3.497 1.995-6.436 3.704-6.53 3.8-.109.107.947.814 2.816 1.885 4.219 2.418 14.666 8.486 23.744 13.79l7.732 4.519 6.52-3.708c3.587-2.038 6.524-3.75 6.528-3.802.003-.052-3.564-2.168-7.926-4.701L23.422 33.627l-9.297-5.403-6.358 3.628Zm62.182 6.322-6.42 3.738-.091 7.379-.092 7.379-.485.17c-.4.14-.923-.01-3.002-.866-1.385-.57-2.58-1.037-2.655-1.037-.076 0-1.316 1.876-2.757 4.17-1.44 2.292-2.77 4.33-2.954 4.526-.273.292-.428.325-.843.179l-.508-.179-.092-6.809-.092-6.808-6.51 3.715-6.511 3.715.044 20.858c.025 11.471.078 20.89.12 20.932.04.04 3.59-1.972 7.886-4.473 5.91-3.441 7.784-4.615 7.7-4.823-.569-1.403-.52-4.76.113-7.89 1.152-5.694 4.214-11.954 8.107-16.575 4.492-5.334 9.492-8.466 14.343-8.985l1.21-.13V45.386c0-6.036-.021-10.969-.047-10.962-.025.007-2.934 1.694-6.464 3.75ZM.044 45.254c.067 4.25.122 13.642.122 20.872V79.27l17.252 10.026c9.49 5.514 17.285 9.993 17.324 9.954.039-.039.012-9.454-.06-20.922l-.13-20.852-17.147-9.971C7.974 42.02.182 37.532.09 37.53c-.1-.002-.119 3.098-.046 7.724Zm56.436.721c-2.566 1.5-4.734 2.796-4.817 2.879-.083.083-.13 2.495-.103 5.36l.049 5.21 2.101-3.251c1.156-1.788 2.246-3.297 2.423-3.353.178-.057 1.39.344 2.713.896l2.391.998V48.96c0-3.164-.02-5.744-.046-5.733-.025.01-2.145 1.247-4.711 2.747Zm17.228 12.81c-2.96.796-6.419 2.966-9.349 5.865-6.44 6.373-10.464 15.771-10.034 23.438.237 4.225 1.788 7.406 4.273 8.765l.745.407L59 96.245c-.458-1.354-.878-4.226-.88-6.007-.006-8.353 5.483-19.337 12.648-25.309 2.816-2.347 6.224-4.135 8.951-4.698 1.337-.276 1.29-.432-.36-1.172-1.545-.692-3.703-.797-5.65-.273Zm5.905 3.392c-6.66 1.858-13.305 8.494-16.934 16.908-1.909 4.428-2.652 8.083-2.486 12.23.113 2.806.398 4.13 1.253 5.822 2.932 5.805 10.878 4.978 18.017-1.877 5.69-5.463 9.574-13.197 10.392-20.689.652-5.973-.917-10.278-4.365-11.974-1.094-.538-1.399-.602-3.06-.645-1.204-.03-2.182.048-2.817.225ZM74.75 73.044c-.252.28-.307.914-.35 4.054l-.049 3.724-3.114 1.802c-1.713.991-3.22 1.946-3.348 2.121-.247.338-.137.98.206 1.206.439.29.97.092 3.295-1.225 1.326-.751 2.556-1.42 2.732-1.486.298-.111.32.109.32 3.07 0 3.367.062 3.63.85 3.63.92 0 .985-.286.985-4.306v-3.73l2.613-1.5c3.914-2.247 3.99-2.302 3.99-2.892 0-.606-.3-.952-.817-.946-.207.002-1.573.693-3.035 1.536l-2.66 1.53-.05-3.129c-.041-2.587-.102-3.186-.35-3.46-.38-.42-.836-.42-1.218.001Z"/></mask><path fill-rule="evenodd" clip-rule="evenodd" d="M34.428 16.513c-3.497 2.033-6.403 3.74-6.456 3.794-.053.055 7.669 4.611 17.16 10.126l17.255 10.026 6.394-3.705c3.517-2.038 6.394-3.759 6.394-3.823 0-.064-7.572-4.514-16.826-9.888a8683.985 8683.985 0 0 1-17.194-10c-.326-.201-1.076.186-6.727 3.47Zm-13.396 7.71c-2.696 1.522-4.883 2.828-4.86 2.902.053.175 34.089 19.975 34.355 19.985.323.013 9.628-5.406 9.57-5.574-.028-.084-7.48-4.49-16.558-9.794l-17.056-9.964-.55-.322-4.901 2.767ZM7.767 31.852c-3.497 1.995-6.436 3.704-6.53 3.8-.109.107.947.814 2.816 1.885 4.219 2.418 14.666 8.486 23.744 13.79l7.732 4.519 6.52-3.708c3.587-2.038 6.524-3.75 6.528-3.802.003-.052-3.564-2.168-7.926-4.701L23.422 33.627l-9.297-5.403-6.358 3.628Zm62.182 6.322-6.42 3.738-.091 7.379-.092 7.379-.485.17c-.4.14-.923-.01-3.002-.866-1.385-.57-2.58-1.037-2.655-1.037-.076 0-1.316 1.876-2.757 4.17-1.44 2.292-2.77 4.33-2.954 4.526-.273.292-.428.325-.843.179l-.508-.179-.092-6.809-.092-6.808-6.51 3.715-6.511 3.715.044 20.858c.025 11.471.078 20.89.12 20.932.04.04 3.59-1.972 7.886-4.473 5.91-3.441 7.784-4.615 7.7-4.823-.569-1.403-.52-4.76.113-7.89 1.152-5.694 4.214-11.954 8.107-16.575 4.492-5.334 9.492-8.466 14.343-8.985l1.21-.13V45.386c0-6.036-.021-10.969-.047-10.962-.025.007-2.934 1.694-6.464 3.75ZM.044 45.254c.067 4.25.122 13.642.122 20.872V79.27l17.252 10.026c9.49 5.514 17.285 9.993 17.324 9.954.039-.039.012-9.454-.06-20.922l-.13-20.852-17.147-9.971C7.974 42.02.182 37.532.09 37.53c-.1-.002-.119 3.098-.046 7.724Zm56.436.721c-2.566 1.5-4.734 2.796-4.817 2.879-.083.083-.13 2.495-.103 5.36l.049 5.21 2.101-3.251c1.156-1.788 2.246-3.297 2.423-3.353.178-.057 1.39.344 2.713.896l2.391.998V48.96c0-3.164-.02-5.744-.046-5.733-.025.01-2.145 1.247-4.711 2.747Zm17.228 12.81c-2.96.796-6.419 2.966-9.349 5.865-6.44 6.373-10.464 15.771-10.034 23.438.237 4.225 1.788 7.406 4.273 8.765l.745.407L59 96.245c-.458-1.354-.878-4.226-.88-6.007-.006-8.353 5.483-19.337 12.648-25.309 2.816-2.347 6.224-4.135 8.951-4.698 1.337-.276 1.29-.432-.36-1.172-1.545-.692-3.703-.797-5.65-.273Zm5.905 3.392c-6.66 1.858-13.305 8.494-16.934 16.908-1.909 4.428-2.652 8.083-2.486 12.23.113 2.806.398 4.13 1.253 5.822 2.932 5.805 10.878 4.978 18.017-1.877 5.69-5.463 9.574-13.197 10.392-20.689.652-5.973-.917-10.278-4.365-11.974-1.094-.538-1.399-.602-3.06-.645-1.204-.03-2.182.048-2.817.225ZM74.75 73.044c-.252.28-.307.914-.35 4.054l-.049 3.724-3.114 1.802c-1.713.991-3.22 1.946-3.348 2.121-.247.338-.137.98.206 1.206.439.29.97.092 3.295-1.225 1.326-.751 2.556-1.42 2.732-1.486.298-.111.32.109.32 3.07 0 3.367.062 3.63.85 3.63.92 0 .985-.286.985-4.306v-3.73l2.613-1.5c3.914-2.247 3.99-2.302 3.99-2.892 0-.606-.3-.952-.817-.946-.207.002-1.573.693-3.035 1.536l-2.66 1.53-.05-3.129c-.041-2.587-.102-3.186-.35-3.46-.38-.42-.836-.42-1.218.001Z" fill="#06CAC6"/><path fill-rule="evenodd" clip-rule="evenodd" d="M34.428 16.513c-3.497 2.033-6.403 3.74-6.456 3.794-.053.055 7.669 4.611 17.16 10.126l17.255 10.026 6.394-3.705c3.517-2.038 6.394-3.759 6.394-3.823 0-.064-7.572-4.514-16.826-9.888a8683.985 8683.985 0 0 1-17.194-10c-.326-.201-1.076.186-6.727 3.47Zm-13.396 7.71c-2.696 1.522-4.883 2.828-4.86 2.902.053.175 34.089 19.975 34.355 19.985.323.013 9.628-5.406 9.57-5.574-.028-.084-7.48-4.49-16.558-9.794l-17.056-9.964-.55-.322-4.901 2.767ZM7.767 31.852c-3.497 1.995-6.436 3.704-6.53 3.8-.109.107.947.814 2.816 1.885 4.219 2.418 14.666 8.486 23.744 13.79l7.732 4.519 6.52-3.708c3.587-2.038 6.524-3.75 6.528-3.802.003-.052-3.564-2.168-7.926-4.701L23.422 33.627l-9.297-5.403-6.358 3.628Zm62.182 6.322-6.42 3.738-.091 7.379-.092 7.379-.485.17c-.4.14-.923-.01-3.002-.866-1.385-.57-2.58-1.037-2.655-1.037-.076 0-1.316 1.876-2.757 4.17-1.44 2.292-2.77 4.33-2.954 4.526-.273.292-.428.325-.843.179l-.508-.179-.092-6.809-.092-6.808-6.51 3.715-6.511 3.715.044 20.858c.025 11.471.078 20.89.12 20.932.04.04 3.59-1.972 7.886-4.473 5.91-3.441 7.784-4.615 7.7-4.823-.569-1.403-.52-4.76.113-7.89 1.152-5.694 4.214-11.954 8.107-16.575 4.492-5.334 9.492-8.466 14.343-8.985l1.21-.13V45.386c0-6.036-.021-10.969-.047-10.962-.025.007-2.934 1.694-6.464 3.75ZM.044 45.254c.067 4.25.122 13.642.122 20.872V79.27l17.252 10.026c9.49 5.514 17.285 9.993 17.324 9.954.039-.039.012-9.454-.06-20.922l-.13-20.852-17.147-9.971C7.974 42.02.182 37.532.09 37.53c-.1-.002-.119 3.098-.046 7.724Zm56.436.721c-2.566 1.5-4.734 2.796-4.817 2.879-.083.083-.13 2.495-.103 5.36l.049 5.21 2.101-3.251c1.156-1.788 2.246-3.297 2.423-3.353.178-.057 1.39.344 2.713.896l2.391.998V48.96c0-3.164-.02-5.744-.046-5.733-.025.01-2.145 1.247-4.711 2.747Zm17.228 12.81c-2.96.796-6.419 2.966-9.349 5.865-6.44 6.373-10.464 15.771-10.034 23.438.237 4.225 1.788 7.406 4.273 8.765l.745.407L59 96.245c-.458-1.354-.878-4.226-.88-6.007-.006-8.353 5.483-19.337 12.648-25.309 2.816-2.347 6.224-4.135 8.951-4.698 1.337-.276 1.29-.432-.36-1.172-1.545-.692-3.703-.797-5.65-.273Zm5.905 3.392c-6.66 1.858-13.305 8.494-16.934 16.908-1.909 4.428-2.652 8.083-2.486 12.23.113 2.806.398 4.13 1.253 5.822 2.932 5.805 10.878 4.978 18.017-1.877 5.69-5.463 9.574-13.197 10.392-20.689.652-5.973-.917-10.278-4.365-11.974-1.094-.538-1.399-.602-3.06-.645-1.204-.03-2.182.048-2.817.225ZM74.75 73.044c-.252.28-.307.914-.35 4.054l-.049 3.724-3.114 1.802c-1.713.991-3.22 1.946-3.348 2.121-.247.338-.137.98.206 1.206.439.29.97.092 3.295-1.225 1.326-.751 2.556-1.42 2.732-1.486.298-.111.32.109.32 3.07 0 3.367.062 3.63.85 3.63.92 0 .985-.286.985-4.306v-3.73l2.613-1.5c3.914-2.247 3.99-2.302 3.99-2.892 0-.606-.3-.952-.817-.946-.207.002-1.573.693-3.035 1.536l-2.66 1.53-.05-3.129c-.041-2.587-.102-3.186-.35-3.46-.38-.42-.836-.42-1.218.001Z" fill="url(#b)"/><path clip-rule="evenodd" d="M34.428 16.513c-3.497 2.033-6.403 3.74-6.456 3.794-.053.055 7.669 4.611 17.16 10.126l17.255 10.026 6.394-3.705c3.517-2.038 6.394-3.759 6.394-3.823 0-.064-7.572-4.514-16.826-9.888a8683.985 8683.985 0 0 1-17.194-10c-.326-.201-1.076.186-6.727 3.47Zm-13.396 7.71c-2.696 1.522-4.883 2.828-4.86 2.902.053.175 34.089 19.975 34.355 19.985.323.013 9.628-5.406 9.57-5.574-.028-.084-7.48-4.49-16.558-9.794l-17.056-9.964-.55-.322-4.901 2.767ZM7.767 31.852c-3.497 1.995-6.436 3.704-6.53 3.8-.109.107.947.814 2.816 1.885 4.219 2.418 14.666 8.486 23.744 13.79l7.732 4.519 6.52-3.708c3.587-2.038 6.524-3.75 6.528-3.802.003-.052-3.564-2.168-7.926-4.701L23.422 33.627l-9.297-5.403-6.358 3.628Zm62.182 6.322-6.42 3.738-.091 7.379-.092 7.379-.485.17c-.4.14-.923-.01-3.002-.866-1.385-.57-2.58-1.037-2.655-1.037-.076 0-1.316 1.876-2.757 4.17-1.44 2.292-2.77 4.33-2.954 4.526-.273.292-.428.325-.843.179l-.508-.179-.092-6.809-.092-6.808-6.51 3.715-6.511 3.715.044 20.858c.025 11.471.078 20.89.12 20.932.04.04 3.59-1.972 7.886-4.473 5.91-3.441 7.784-4.615 7.7-4.823-.569-1.403-.52-4.76.113-7.89 1.152-5.694 4.214-11.954 8.107-16.575 4.492-5.334 9.492-8.466 14.343-8.985l1.21-.13V45.386c0-6.036-.021-10.969-.047-10.962-.025.007-2.934 1.694-6.464 3.75ZM.044 45.254c.067 4.25.122 13.642.122 20.872V79.27l17.252 10.026c9.49 5.514 17.285 9.993 17.324 9.954.039-.039.012-9.454-.06-20.922l-.13-20.852-17.147-9.971C7.974 42.02.182 37.532.09 37.53c-.1-.002-.119 3.098-.046 7.724Zm56.436.721c-2.566 1.5-4.734 2.796-4.817 2.879-.083.083-.13 2.495-.103 5.36l.049 5.21 2.101-3.251c1.156-1.788 2.246-3.297 2.423-3.353.178-.057 1.39.344 2.713.896l2.391.998V48.96c0-3.164-.02-5.744-.046-5.733-.025.01-2.145 1.247-4.711 2.747Zm17.228 12.81c-2.96.796-6.419 2.966-9.349 5.865-6.44 6.373-10.464 15.771-10.034 23.438.237 4.225 1.788 7.406 4.273 8.765l.745.407L59 96.245c-.458-1.354-.878-4.226-.88-6.007-.006-8.353 5.483-19.337 12.648-25.309 2.816-2.347 6.224-4.135 8.951-4.698 1.337-.276 1.29-.432-.36-1.172-1.545-.692-3.703-.797-5.65-.273Zm5.905 3.392c-6.66 1.858-13.305 8.494-16.934 16.908-1.909 4.428-2.652 8.083-2.486 12.23.113 2.806.398 4.13 1.253 5.822 2.932 5.805 10.878 4.978 18.017-1.877 5.69-5.463 9.574-13.197 10.392-20.689.652-5.973-.917-10.278-4.365-11.974-1.094-.538-1.399-.602-3.06-.645-1.204-.03-2.182.048-2.817.225ZM74.75 73.044c-.252.28-.307.914-.35 4.054l-.049 3.724-3.114 1.802c-1.713.991-3.22 1.946-3.348 2.121-.247.338-.137.98.206 1.206.439.29.97.092 3.295-1.225 1.326-.751 2.556-1.42 2.732-1.486.298-.111.32.109.32 3.07 0 3.367.062 3.63.85 3.63.92 0 .985-.286.985-4.306v-3.73l2.613-1.5c3.914-2.247 3.99-2.302 3.99-2.892 0-.606-.3-.952-.817-.946-.207.002-1.573.693-3.035 1.536l-2.66 1.53-.05-3.129c-.041-2.587-.102-3.186-.35-3.46-.38-.42-.836-.42-1.218.001Z" stroke="#fff" stroke-opacity=".03" stroke-width="2" mask="url(#c)"/></g><defs><linearGradient id="b" x1="78.6" y1="-11.933" x2="46.403" y2="128.309" gradientUnits="userSpaceOnUse"><stop stop-color="#fff" stop-opacity="0"/><stop offset="1" stop-color="#0A0B43"/></linearGradient><filter id="a" x="-4" y="9" width="98" height="96" filterUnits="userSpaceOnUse" color-interpolation-filters="sRGB"><feFlood flood-opacity="0" result="BackgroundImageFix"/><feGaussianBlur in="BackgroundImageFix" stdDeviation="2"/><feComposite in2="SourceAlpha" operator="in" result="effect1_backgroundBlur_1_659"/><feBlend in="SourceGraphic" in2="effect1_backgroundBlur_1_659" result="shape"/></filter></defs></svg>