<svg width="176" height="110" fill="none" xmlns="http://www.w3.org/2000/svg"><g opacity=".8" filter="url(#a)"><g filter="url(#b)"><mask id="d" fill="#fff"><path fill-rule="evenodd" clip-rule="evenodd" d="M38.927 4.292c-1.074.526-1.371 1.173-1.44 3.132l-.063 1.74-1.189.596c-.654.328-1.619.885-2.143 1.237l-.954.64-1.28-.755c-1.088-.64-1.427-.754-2.263-.754-.718 0-1.127.103-1.519.38-.358.255-1.507 2.053-3.465 5.422-2.336 4.02-2.944 5.203-3.004 5.84-.115 1.227.341 1.887 1.994 2.883l1.391.84v4.998l-1.391.838c-1.652.996-2.11 1.657-1.994 2.883.06.638.668 1.82 3.004 5.84 1.958 3.37 3.107 5.168 3.465 5.422.392.278.801.38 1.52.38.835 0 1.174-.112 2.262-.754l1.28-.754.954.64c.524.352 1.49.909 2.143 1.237l1.19.596.061 1.74c.052 1.453.127 1.83.46 2.295.79 1.102.994 1.133 7.554 1.133 6.56 0 6.763-.03 7.554-1.133.333-.465.408-.842.46-2.295l.062-1.74 1.189-.596a23.902 23.902 0 0 0 2.143-1.237l.954-.64 1.28.754c1.088.642 1.427.754 2.263.754.72 0 1.125-.102 1.519-.382.356-.255 1.518-2.072 3.465-5.421 2.341-4.026 2.945-5.2 3.005-5.839.114-1.226-.343-1.887-1.995-2.883l-1.391-.838v-4.999l1.391-.839c1.653-.996 2.11-1.656 1.994-2.883-.06-.637-.668-1.82-3.004-5.84-1.958-3.369-3.107-5.167-3.465-5.421-.392-.278-.801-.38-1.52-.38-.836 0-1.174.112-2.272.759l-1.289.76-.855-.607c-.47-.333-1.43-.892-2.134-1.242l-1.278-.636-.062-1.739c-.052-1.453-.127-1.83-.46-2.295-.792-1.104-.99-1.133-7.581-1.129-5.123.004-6.042.045-6.546.292Zm4.984 15.893c-4.06.793-6.981 4.95-6.31 8.976.58 3.486 3.218 6.11 6.724 6.688 5.167.851 9.93-3.887 9.075-9.027-.755-4.529-5.017-7.51-9.489-6.637ZM8.657 40.091C-.094 44.455.02 44.375.02 46.121c0 1.85-1.558.957 22.804 13.072C40.852 68.159 44.915 70.116 45.5 70.116c.585 0 4.648-1.957 22.676-10.923C92.538 47.078 90.98 47.971 90.98 46.121c0-1.747.117-1.666-8.658-6.037l-7.825-3.898-.282.715c-.386.976-5.778 10.271-6.561 11.31-.76 1.01-2.19 2.035-3.55 2.547-1.086.409-3.062.534-4.514.287l-.833-.142-.22.675c-.942 2.895-3.31 5.01-6.227 5.56-1.252.236-12.368.236-13.62 0-2.92-.552-5.285-2.664-6.23-5.57-.21-.64-.26-.677-.775-.575-2.172.432-3.765.262-5.617-.6-1.937-.901-2.657-1.812-5.98-7.56-1.64-2.835-3.126-5.487-3.304-5.894l-.323-.74-7.804 3.892ZM1.84 55.933C.454 56.681.02 57.31.02 58.563c0 1.85-1.558.957 22.804 13.072C40.852 80.601 44.915 82.558 45.5 82.558c.585 0 4.648-1.957 22.676-10.923C92.538 59.52 90.98 60.412 90.98 58.563c0-1.288-.457-1.915-1.96-2.69l-1.16-.598-19.974 9.92c-22.048 10.952-21.04 10.52-23.592 10.114-1.057-.168-3.662-1.412-21.089-10.069-10.935-5.432-19.982-9.874-20.104-9.872-.122.003-.689.257-1.26.565Zm0 12.442c-1.386.749-1.82 1.376-1.82 2.63 0 1.85-1.558.957 22.804 13.072C40.852 93.043 44.915 95 45.5 95c.585 0 4.648-1.957 22.676-10.923C92.538 71.962 90.98 72.854 90.98 71.005c0-1.288-.457-1.915-1.96-2.69l-1.16-.598-19.974 9.92c-22.048 10.952-21.04 10.52-23.592 10.114-1.057-.168-3.662-1.412-21.089-10.069C12.27 72.25 3.223 67.808 3.101 67.81c-.122.003-.689.257-1.26.565Z"/></mask><path fill-rule="evenodd" clip-rule="evenodd" d="M38.927 4.292c-1.074.526-1.371 1.173-1.44 3.132l-.063 1.74-1.189.596c-.654.328-1.619.885-2.143 1.237l-.954.64-1.28-.755c-1.088-.64-1.427-.754-2.263-.754-.718 0-1.127.103-1.519.38-.358.255-1.507 2.053-3.465 5.422-2.336 4.02-2.944 5.203-3.004 5.84-.115 1.227.341 1.887 1.994 2.883l1.391.84v4.998l-1.391.838c-1.652.996-2.11 1.657-1.994 2.883.06.638.668 1.82 3.004 5.84 1.958 3.37 3.107 5.168 3.465 5.422.392.278.801.38 1.52.38.835 0 1.174-.112 2.262-.754l1.28-.754.954.64c.524.352 1.49.909 2.143 1.237l1.19.596.061 1.74c.052 1.453.127 1.83.46 2.295.79 1.102.994 1.133 7.554 1.133 6.56 0 6.763-.03 7.554-1.133.333-.465.408-.842.46-2.295l.062-1.74 1.189-.596a23.902 23.902 0 0 0 2.143-1.237l.954-.64 1.28.754c1.088.642 1.427.754 2.263.754.72 0 1.125-.102 1.519-.382.356-.255 1.518-2.072 3.465-5.421 2.341-4.026 2.945-5.2 3.005-5.839.114-1.226-.343-1.887-1.995-2.883l-1.391-.838v-4.999l1.391-.839c1.653-.996 2.11-1.656 1.994-2.883-.06-.637-.668-1.82-3.004-5.84-1.958-3.369-3.107-5.167-3.465-5.421-.392-.278-.801-.38-1.52-.38-.836 0-1.174.112-2.272.759l-1.289.76-.855-.607c-.47-.333-1.43-.892-2.134-1.242l-1.278-.636-.062-1.739c-.052-1.453-.127-1.83-.46-2.295-.792-1.104-.99-1.133-7.581-1.129-5.123.004-6.042.045-6.546.292Zm4.984 15.893c-4.06.793-6.981 4.95-6.31 8.976.58 3.486 3.218 6.11 6.724 6.688 5.167.851 9.93-3.887 9.075-9.027-.755-4.529-5.017-7.51-9.489-6.637ZM8.657 40.091C-.094 44.455.02 44.375.02 46.121c0 1.85-1.558.957 22.804 13.072C40.852 68.159 44.915 70.116 45.5 70.116c.585 0 4.648-1.957 22.676-10.923C92.538 47.078 90.98 47.971 90.98 46.121c0-1.747.117-1.666-8.658-6.037l-7.825-3.898-.282.715c-.386.976-5.778 10.271-6.561 11.31-.76 1.01-2.19 2.035-3.55 2.547-1.086.409-3.062.534-4.514.287l-.833-.142-.22.675c-.942 2.895-3.31 5.01-6.227 5.56-1.252.236-12.368.236-13.62 0-2.92-.552-5.285-2.664-6.23-5.57-.21-.64-.26-.677-.775-.575-2.172.432-3.765.262-5.617-.6-1.937-.901-2.657-1.812-5.98-7.56-1.64-2.835-3.126-5.487-3.304-5.894l-.323-.74-7.804 3.892ZM1.84 55.933C.454 56.681.02 57.31.02 58.563c0 1.85-1.558.957 22.804 13.072C40.852 80.601 44.915 82.558 45.5 82.558c.585 0 4.648-1.957 22.676-10.923C92.538 59.52 90.98 60.412 90.98 58.563c0-1.288-.457-1.915-1.96-2.69l-1.16-.598-19.974 9.92c-22.048 10.952-21.04 10.52-23.592 10.114-1.057-.168-3.662-1.412-21.089-10.069-10.935-5.432-19.982-9.874-20.104-9.872-.122.003-.689.257-1.26.565Zm0 12.442c-1.386.749-1.82 1.376-1.82 2.63 0 1.85-1.558.957 22.804 13.072C40.852 93.043 44.915 95 45.5 95c.585 0 4.648-1.957 22.676-10.923C92.538 71.962 90.98 72.854 90.98 71.005c0-1.288-.457-1.915-1.96-2.69l-1.16-.598-19.974 9.92c-22.048 10.952-21.04 10.52-23.592 10.114-1.057-.168-3.662-1.412-21.089-10.069C12.27 72.25 3.223 67.808 3.101 67.81c-.122.003-.689.257-1.26.565Z" fill="#06CAC6"/><path fill-rule="evenodd" clip-rule="evenodd" d="M38.927 4.292c-1.074.526-1.371 1.173-1.44 3.132l-.063 1.74-1.189.596c-.654.328-1.619.885-2.143 1.237l-.954.64-1.28-.755c-1.088-.64-1.427-.754-2.263-.754-.718 0-1.127.103-1.519.38-.358.255-1.507 2.053-3.465 5.422-2.336 4.02-2.944 5.203-3.004 5.84-.115 1.227.341 1.887 1.994 2.883l1.391.84v4.998l-1.391.838c-1.652.996-2.11 1.657-1.994 2.883.06.638.668 1.82 3.004 5.84 1.958 3.37 3.107 5.168 3.465 5.422.392.278.801.38 1.52.38.835 0 1.174-.112 2.262-.754l1.28-.754.954.64c.524.352 1.49.909 2.143 1.237l1.19.596.061 1.74c.052 1.453.127 1.83.46 2.295.79 1.102.994 1.133 7.554 1.133 6.56 0 6.763-.03 7.554-1.133.333-.465.408-.842.46-2.295l.062-1.74 1.189-.596a23.902 23.902 0 0 0 2.143-1.237l.954-.64 1.28.754c1.088.642 1.427.754 2.263.754.72 0 1.125-.102 1.519-.382.356-.255 1.518-2.072 3.465-5.421 2.341-4.026 2.945-5.2 3.005-5.839.114-1.226-.343-1.887-1.995-2.883l-1.391-.838v-4.999l1.391-.839c1.653-.996 2.11-1.656 1.994-2.883-.06-.637-.668-1.82-3.004-5.84-1.958-3.369-3.107-5.167-3.465-5.421-.392-.278-.801-.38-1.52-.38-.836 0-1.174.112-2.272.759l-1.289.76-.855-.607c-.47-.333-1.43-.892-2.134-1.242l-1.278-.636-.062-1.739c-.052-1.453-.127-1.83-.46-2.295-.792-1.104-.99-1.133-7.581-1.129-5.123.004-6.042.045-6.546.292Zm4.984 15.893c-4.06.793-6.981 4.95-6.31 8.976.58 3.486 3.218 6.11 6.724 6.688 5.167.851 9.93-3.887 9.075-9.027-.755-4.529-5.017-7.51-9.489-6.637ZM8.657 40.091C-.094 44.455.02 44.375.02 46.121c0 1.85-1.558.957 22.804 13.072C40.852 68.159 44.915 70.116 45.5 70.116c.585 0 4.648-1.957 22.676-10.923C92.538 47.078 90.98 47.971 90.98 46.121c0-1.747.117-1.666-8.658-6.037l-7.825-3.898-.282.715c-.386.976-5.778 10.271-6.561 11.31-.76 1.01-2.19 2.035-3.55 2.547-1.086.409-3.062.534-4.514.287l-.833-.142-.22.675c-.942 2.895-3.31 5.01-6.227 5.56-1.252.236-12.368.236-13.62 0-2.92-.552-5.285-2.664-6.23-5.57-.21-.64-.26-.677-.775-.575-2.172.432-3.765.262-5.617-.6-1.937-.901-2.657-1.812-5.98-7.56-1.64-2.835-3.126-5.487-3.304-5.894l-.323-.74-7.804 3.892ZM1.84 55.933C.454 56.681.02 57.31.02 58.563c0 1.85-1.558.957 22.804 13.072C40.852 80.601 44.915 82.558 45.5 82.558c.585 0 4.648-1.957 22.676-10.923C92.538 59.52 90.98 60.412 90.98 58.563c0-1.288-.457-1.915-1.96-2.69l-1.16-.598-19.974 9.92c-22.048 10.952-21.04 10.52-23.592 10.114-1.057-.168-3.662-1.412-21.089-10.069-10.935-5.432-19.982-9.874-20.104-9.872-.122.003-.689.257-1.26.565Zm0 12.442c-1.386.749-1.82 1.376-1.82 2.63 0 1.85-1.558.957 22.804 13.072C40.852 93.043 44.915 95 45.5 95c.585 0 4.648-1.957 22.676-10.923C92.538 71.962 90.98 72.854 90.98 71.005c0-1.288-.457-1.915-1.96-2.69l-1.16-.598-19.974 9.92c-22.048 10.952-21.04 10.52-23.592 10.114-1.057-.168-3.662-1.412-21.089-10.069C12.27 72.25 3.223 67.808 3.101 67.81c-.122.003-.689.257-1.26.565Z" fill="url(#c)"/><path clip-rule="evenodd" d="M38.927 4.292c-1.074.526-1.371 1.173-1.44 3.132l-.063 1.74-1.189.596c-.654.328-1.619.885-2.143 1.237l-.954.64-1.28-.755c-1.088-.64-1.427-.754-2.263-.754-.718 0-1.127.103-1.519.38-.358.255-1.507 2.053-3.465 5.422-2.336 4.02-2.944 5.203-3.004 5.84-.115 1.227.341 1.887 1.994 2.883l1.391.84v4.998l-1.391.838c-1.652.996-2.11 1.657-1.994 2.883.06.638.668 1.82 3.004 5.84 1.958 3.37 3.107 5.168 3.465 5.422.392.278.801.38 1.52.38.835 0 1.174-.112 2.262-.754l1.28-.754.954.64c.524.352 1.49.909 2.143 1.237l1.19.596.061 1.74c.052 1.453.127 1.83.46 2.295.79 1.102.994 1.133 7.554 1.133 6.56 0 6.763-.03 7.554-1.133.333-.465.408-.842.46-2.295l.062-1.74 1.189-.596a23.902 23.902 0 0 0 2.143-1.237l.954-.64 1.28.754c1.088.642 1.427.754 2.263.754.72 0 1.125-.102 1.519-.382.356-.255 1.518-2.072 3.465-5.421 2.341-4.026 2.945-5.2 3.005-5.839.114-1.226-.343-1.887-1.995-2.883l-1.391-.838v-4.999l1.391-.839c1.653-.996 2.11-1.656 1.994-2.883-.06-.637-.668-1.82-3.004-5.84-1.958-3.369-3.107-5.167-3.465-5.421-.392-.278-.801-.38-1.52-.38-.836 0-1.174.112-2.272.759l-1.289.76-.855-.607c-.47-.333-1.43-.892-2.134-1.242l-1.278-.636-.062-1.739c-.052-1.453-.127-1.83-.46-2.295-.792-1.104-.99-1.133-7.581-1.129-5.123.004-6.042.045-6.546.292Zm4.984 15.893c-4.06.793-6.981 4.95-6.31 8.976.58 3.486 3.218 6.11 6.724 6.688 5.167.851 9.93-3.887 9.075-9.027-.755-4.529-5.017-7.51-9.489-6.637ZM8.657 40.091C-.094 44.455.02 44.375.02 46.121c0 1.85-1.558.957 22.804 13.072C40.852 68.159 44.915 70.116 45.5 70.116c.585 0 4.648-1.957 22.676-10.923C92.538 47.078 90.98 47.971 90.98 46.121c0-1.747.117-1.666-8.658-6.037l-7.825-3.898-.282.715c-.386.976-5.778 10.271-6.561 11.31-.76 1.01-2.19 2.035-3.55 2.547-1.086.409-3.062.534-4.514.287l-.833-.142-.22.675c-.942 2.895-3.31 5.01-6.227 5.56-1.252.236-12.368.236-13.62 0-2.92-.552-5.285-2.664-6.23-5.57-.21-.64-.26-.677-.775-.575-2.172.432-3.765.262-5.617-.6-1.937-.901-2.657-1.812-5.98-7.56-1.64-2.835-3.126-5.487-3.304-5.894l-.323-.74-7.804 3.892ZM1.84 55.933C.454 56.681.02 57.31.02 58.563c0 1.85-1.558.957 22.804 13.072C40.852 80.601 44.915 82.558 45.5 82.558c.585 0 4.648-1.957 22.676-10.923C92.538 59.52 90.98 60.412 90.98 58.563c0-1.288-.457-1.915-1.96-2.69l-1.16-.598-19.974 9.92c-22.048 10.952-21.04 10.52-23.592 10.114-1.057-.168-3.662-1.412-21.089-10.069-10.935-5.432-19.982-9.874-20.104-9.872-.122.003-.689.257-1.26.565Zm0 12.442c-1.386.749-1.82 1.376-1.82 2.63 0 1.85-1.558.957 22.804 13.072C40.852 93.043 44.915 95 45.5 95c.585 0 4.648-1.957 22.676-10.923C92.538 71.962 90.98 72.854 90.98 71.005c0-1.288-.457-1.915-1.96-2.69l-1.16-.598-19.974 9.92c-22.048 10.952-21.04 10.52-23.592 10.114-1.057-.168-3.662-1.412-21.089-10.069C12.27 72.25 3.223 67.808 3.101 67.81c-.122.003-.689.257-1.26.565Z" stroke="#fff" stroke-opacity=".03" stroke-width="2" mask="url(#d)"/></g></g><defs><filter id="a" x="-80" y="-80" width="336" height="270" filterUnits="userSpaceOnUse" color-interpolation-filters="sRGB"><feFlood flood-opacity="0" result="BackgroundImageFix"/><feGaussianBlur in="BackgroundImageFix" stdDeviation="40"/><feComposite in2="SourceAlpha" operator="in" result="effect1_backgroundBlur_1_651"/><feBlend in="SourceGraphic" in2="effect1_backgroundBlur_1_651" result="shape"/></filter><filter id="b" x="-4" y="0" width="99" height="99" filterUnits="userSpaceOnUse" color-interpolation-filters="sRGB"><feFlood flood-opacity="0" result="BackgroundImageFix"/><feGaussianBlur in="BackgroundImageFix" stdDeviation="2"/><feComposite in2="SourceAlpha" operator="in" result="effect1_backgroundBlur_1_651"/><feBlend in="SourceGraphic" in2="effect1_backgroundBlur_1_651" result="shape"/></filter><linearGradient id="c" x1="79.473" y1="-21.783" x2="45.5" y2="122.907" gradientUnits="userSpaceOnUse"><stop stop-color="#fff" stop-opacity="0"/><stop offset="1" stop-color="#0A0B43"/></linearGradient></defs></svg>