<svg width="100" height="100" fill="none" xmlns="http://www.w3.org/2000/svg"><g clip-path="url(#a)" fill-rule="evenodd" clip-rule="evenodd"><path d="M29.45 8.178c-1.008.238-2.254.951-3.164 1.812-1.572 1.487-2.34 3.56-2.147 5.799l.099 1.153-1.974 1.111-1.975 1.113-.7-.575c-1.59-1.301-3.814-1.921-5.67-1.579-4.089.753-6.723 4.896-5.674 8.923.346 1.329.813 2.17 1.764 3.174.757.801 2.478 1.86 3.021 1.86.175 0 .22.524.22 2.527v2.528l-1.062.497a7.028 7.028 0 0 0-.086 12.803c1.161.561 1.322.594 2.87.594 1.876 0 2.715-.245 4.214-1.232l.931-.614 1.97 1.155 1.971 1.155-.094 1.333c-.16 2.267.606 4.204 2.273 5.748 2.876 2.663 7.013 2.664 9.804.002 1.643-1.568 2.515-4.02 2.173-6.112-.097-.589-.084-.905.039-1 .486-.371 3.86-2.322 4.017-2.322.1 0 .499.244.888.54 3.54 2.702 8.71 1.37 10.633-2.74.998-2.134.993-4.217-.018-6.273-.669-1.36-2.25-2.84-3.595-3.36l-.998-.388v-4.815l.484-.106c.721-.159 2.312-1.245 3.028-2.067 1.394-1.602 2.1-3.975 1.76-5.913-.535-3.047-2.833-5.344-5.896-5.891-1.974-.353-4.199.254-5.725 1.56-.372.318-.724.578-.782.578-.114 0-3.499-1.921-3.799-2.157-.127-.1-.138-.382-.036-.92.206-1.093-.098-2.847-.709-4.088-.574-1.166-1.973-2.6-3.098-3.175-1.481-.757-3.401-1.004-4.956-.638Zm29.984.15c-1.727.686-3.34 2.317-4.057 4.102-.292.727-.364 1.237-.368 2.625-.005 1.6.032 1.8.514 2.818 1.253 2.644 3.69 4.248 6.465 4.254 2.177.005 3.725-.615 5.187-2.078.795-.794 1.856-2.594 1.856-3.148 0-.16 1.006-.206 4.48-.206h4.479l.299.831c.364 1.015 1.338 2.34 2.247 3.06.666.527 2.255 1.36 2.594 1.36.12 0 .175 1.458.175 4.58v4.582l-.616.198c-.978.317-1.88.904-2.785 1.814-3.497 3.515-2.378 9.362 2.202 11.505 2.104.985 4.806.769 6.7-.535.987-.679 2.121-1.997 2.652-3.082.405-.828.463-1.151.513-2.852.053-1.802.029-1.978-.395-2.924-.824-1.835-2.35-3.303-4.004-3.852l-.822-.273v-9.089l1.098-.478c1.349-.587 2.73-1.913 3.372-3.236 1.855-3.823.209-8.312-3.608-9.837-.771-.308-1.259-.378-2.667-.38-1.654-.005-1.773.02-3.006.608-1.643.784-2.83 1.966-3.484 3.469l-.473 1.086h-8.878l-.472-1.085c-.607-1.393-1.898-2.794-3.244-3.52-.998-.54-1.1-.56-3.083-.601-1.73-.036-2.18.008-2.871.283Zm-28.957 3.28c-1.773.33-2.954 1.773-2.954 3.61 0 2.744 2.658 4.401 5.168 3.222.965-.453 1.26-.755 1.71-1.748 1.214-2.675-1.058-5.619-3.924-5.084Zm30.858.024c-2.855.526-3.9 4.2-1.757 6.177 2.245 2.068 5.689.77 6.11-2.304.338-2.465-1.778-4.347-4.353-3.873Zm22.76.049c-1.73.451-2.888 2.08-2.709 3.811.124 1.203.749 2.23 1.694 2.783 2.496 1.463 5.344-.245 5.344-3.206 0-.512-.108-1.186-.239-1.498-.64-1.523-2.392-2.333-4.09-1.89Zm-60.168 9.476c-1.528.884-1.977 1.219-1.901 1.418.055.143.1.854.099 1.579-.004 3.232-1.956 5.84-5.147 6.877-.264.086-.287.317-.246 2.486l.045 2.391.948.385c2.022.821 3.749 2.674 4.318 4.632.288.988.332 2.802.088 3.612l-.158.524 1.947 1.143c1.73 1.015 1.97 1.113 2.16.882.117-.143.636-.534 1.153-.87 2.494-1.616 5.956-1.438 8.242.423l.867.706 2.03-1.213c1.117-.667 2.027-1.27 2.023-1.338-.005-.07-.07-.564-.146-1.1-.172-1.21.092-2.76.683-4.02.609-1.297 2.16-2.777 3.542-3.379l1.096-.477v-2.425c0-1.917-.046-2.424-.22-2.424-.565 0-2.264-1.062-3.098-1.936-1.55-1.626-2.218-3.452-2.027-5.55l.106-1.177-2.009-1.151-2.009-1.151-.572.503c-.845.741-2.46 1.438-3.65 1.573-2.043.233-3.691-.214-5.316-1.44l-.846-.64-2.002 1.157Zm-10.185-.427c-2.372 1.028-2.924 4.217-1.04 6.006 1.45 1.375 4.007 1.246 5.253-.267 1.294-1.57 1.127-3.667-.402-5.046-1.037-.934-2.597-1.218-3.81-.693Zm31.982.19c-1.213.615-1.832 1.519-1.925 2.812-.167 2.31 1.32 3.956 3.576 3.956 1.176 0 2.008-.366 2.746-1.207 1.04-1.184 1.162-3.137.278-4.413-.62-.893-1.954-1.6-3.024-1.6-.506 0-1.06.152-1.651.452Zm-16.228 6.538c-2.518.677-4.504 2.97-4.854 5.602-.333 2.514 1.304 5.313 3.834 6.556.843.413 1.103.458 2.657.458 1.53 0 1.829-.05 2.669-.443 1.208-.566 2.547-1.906 3.165-3.166.44-.9.482-1.133.482-2.707 0-1.554-.045-1.814-.458-2.657-.938-1.91-2.696-3.31-4.677-3.724-1.117-.233-1.71-.216-2.818.081Zm.329 3.641c-1.532.845-2.085 2.619-1.256 4.032.997 1.702 2.98 2.029 4.454.735 1.41-1.239 1.324-3.36-.183-4.51-.786-.6-2.179-.718-3.016-.257Zm54.096 3.54c-1.22.453-2.018 1.246-2.398 2.384-.629 1.877.487 3.992 2.4 4.548 3.39.985 5.986-2.57 4.049-5.548-.796-1.224-2.717-1.881-4.05-1.385Zm-70.179 4.959c-1.324.573-2.165 1.87-2.165 3.34 0 2.096 1.34 3.476 3.377 3.476 1.538 0 2.692-.716 3.316-2.055.683-1.467.447-2.9-.654-3.961-1.054-1.016-2.627-1.34-3.874-.8Zm32.466-.045c-.998.373-1.582.899-2.042 1.839-.588 1.203-.523 2.478.185 3.624 1.333 2.156 4.717 2.154 6.051-.005 1.46-2.363 0-5.374-2.717-5.605-.526-.045-1.124.015-1.477.147Zm21.1.99c-2.163.569-3.832 1.892-4.759 3.771-.819 1.66-1.044 3.398-.634 4.892.056.204-.442.584-1.972 1.506-1.696 1.022-2.08 1.194-2.237 1.005-.104-.126-.6-.5-1.1-.833-3-1.991-7.036-1.474-9.392 1.203-3.138 3.564-1.918 9.198 2.43 11.223l1.176.549v2.427c0 2.167-.03 2.438-.287 2.522-1.83.603-3.349 1.86-4.197 3.475-1.532 2.915-1.063 6.148 1.225 8.442 2.643 2.65 6.741 2.895 9.633.575l.713-.572 2.01 1.127 2.01 1.127-.14.859c-.197 1.197.097 2.928.708 4.168.559 1.135 1.968 2.598 3.016 3.132 2.915 1.485 6.17.992 8.439-1.277 1.552-1.553 2.255-3.483 2.087-5.735l-.092-1.234 1.854-1.026c1.02-.564 1.9-1.025 1.957-1.025.056 0 .462.258.901.573 2.34 1.68 5.033 1.935 7.521.71 1.315-.647 2.69-2.079 3.35-3.487.484-1.038.497-1.127.444-3.083-.048-1.779-.106-2.124-.496-2.958-.792-1.69-2.528-3.173-4.439-3.792-.256-.083-.287-.354-.287-2.523v-2.43l1.085-.472c1.393-.607 2.794-1.898 3.521-3.244.537-.994.56-1.11.617-3.122.059-2.045.05-2.113-.44-3.16-.702-1.498-1.93-2.74-3.45-3.492-1.202-.594-1.281-.61-3.047-.605-2.11.005-3.047.297-4.497 1.399l-.879.668-1.946-1.164-1.946-1.163.118-.529c.065-.29.117-1.082.115-1.759-.006-2.852-1.809-5.343-4.63-6.399-1.144-.428-2.992-.55-4.062-.269Zm-.101 4.01c-2.614 1.365-2.553 5.248.1 6.454.966.438 2.47.405 3.38-.076 1.091-.576 1.677-1.517 1.76-2.828.088-1.375-.266-2.339-1.13-3.079-1.208-1.034-2.705-1.206-4.11-.472Zm-37.55 4.56c-1.348.584-2.134 1.817-2.134 3.348 0 2.119 1.501 3.61 3.635 3.61 3.793 0 4.98-5.348 1.535-6.913-.804-.366-2.247-.387-3.037-.045Zm31.946 4.692L59.67 54.97l.103 1.165c.123 1.396-.212 3.033-.868 4.238-.619 1.137-2.088 2.44-3.39 3.008l-1.085.472v2.507c0 2.195.033 2.506.264 2.506.504 0 2.198 1.033 2.986 1.821 1.547 1.547 2.28 3.56 2.09 5.737l-.109 1.256 1.996 1.103 1.995 1.103.434-.397c1.55-1.421 3.687-2.058 5.871-1.748 1.318.186 2.308.605 3.427 1.45l.841.636 1.928-1.071c1.808-1.005 1.92-1.097 1.822-1.488-.198-.79-.101-2.926.17-3.74.754-2.267 2.452-3.911 4.873-4.72.256-.085.287-.358.287-2.549v-2.453l-.616-.199c-2.052-.664-3.82-2.473-4.545-4.655-.265-.796-.376-3.194-.172-3.724.074-.191-.396-.551-1.865-1.43-1.08-.645-2.009-1.174-2.064-1.174-.055 0-.466.29-.915.644-1.295 1.025-2.42 1.39-4.26 1.383-1.838-.007-2.881-.345-4.229-1.37-.475-.36-.918-.654-.984-.65-.066.004-.99.531-2.052 1.173Zm-9.716-.374c-1.245.312-2.34 1.282-2.708 2.397-.328.991-.14 2.426.422 3.237.62.893 1.954 1.6 3.024 1.6 1.078 0 2.405-.706 3.034-1.614.445-.642.493-.837.493-1.982 0-1.126-.056-1.361-.493-2.069-.745-1.204-2.43-1.905-3.772-1.569Zm32.258.015c-.942.222-1.867.99-2.358 1.958-.758 1.494-.536 2.942.62 4.056 1.306 1.258 3.498 1.347 4.89.2 2.229-1.838 1.553-5.306-1.192-6.116-.97-.286-1.131-.294-1.96-.098Zm-71.141 1.533c-2.072.687-3.574 1.975-4.464 3.83-.566 1.177-.567 1.184-.513 3.204.052 1.902.087 2.09.595 3.119.677 1.374 2.1 2.707 3.577 3.35l1.051.458v9.084l-1.062.497c-5.488 2.568-5.572 10.168-.141 12.774 3.554 1.706 8.124.072 9.66-3.453l.476-1.092 4.352.003 4.352.004.55 1.169c.726 1.547 1.801 2.608 3.429 3.385 1.218.582 1.342.607 2.993.603 1.995-.004 3.039-.33 4.444-1.386 4.491-3.374 3.336-10.294-2.052-12.293-1.209-.449-3.253-.49-4.453-.091-2.183.726-3.992 2.493-4.656 4.546l-.199.615h-8.782l-.192-.64c-.515-1.722-2.336-3.597-4.244-4.372l-.948-.385-.043-4.494-.044-4.493.63-.189c.941-.282 2.518-1.363 3.197-2.191 1.76-2.148 2.135-5.304.922-7.767-.671-1.364-2.077-2.712-3.548-3.401-.969-.455-1.316-.528-2.672-.567-.972-.028-1.806.038-2.215.173Zm1.087 3.389c-.89.21-1.85.992-2.306 1.88-1.476 2.867 1.151 6.029 4.257 5.123 1.455-.425 2.389-1.528 2.566-3.034.205-1.73-.859-3.413-2.455-3.888-.903-.267-1.22-.28-2.062-.081Zm53.136 1.62a7.193 7.193 0 0 0-4.134 3.493c-.513.983-.542 1.13-.542 2.761 0 1.53.05 1.83.443 2.67.534 1.138 1.907 2.558 3.016 3.119.444.224 1.24.497 1.772.607 3.353.692 6.827-1.85 7.497-5.487.483-2.618-1.167-5.577-3.787-6.791-.718-.333-1.204-.428-2.379-.462-.812-.025-1.66.016-1.886.09Zm.567 3.6c-2.264 1.06-2.45 3.959-.334 5.199 2.46 1.44 5.279-1.2 4.032-3.775-.683-1.412-2.35-2.054-3.698-1.423ZM51.067 72.46c-2.451 1.134-2.791 4.557-.616 6.198 1.755 1.324 4.422.705 5.414-1.255.927-1.833.086-4.26-1.74-5.023-.78-.325-2.267-.287-3.059.08Zm32.57-.129c-1.421.567-2.408 2.175-2.254 3.672.095.922.545 1.959 1.046 2.412.565.511 1.758.945 2.598.945 3.034 0 4.722-3.597 2.762-5.886-.806-.942-1.626-1.328-2.796-1.315-.523.006-1.132.083-1.355.172Zm-69.895 9.267c-1.324.573-2.165 1.87-2.165 3.34 0 2.096 1.34 3.476 3.377 3.476 1.538 0 2.692-.716 3.316-2.055.683-1.467.447-2.9-.654-3.961-1.054-1.016-2.627-1.34-3.874-.8Zm22.969-.046c-.796.252-2.014 1.516-2.26 2.346-.728 2.449.95 4.713 3.49 4.713 2.123 0 3.585-1.462 3.584-3.584-.001-2.549-2.361-4.253-4.814-3.475Zm30.946.016c-1.372.508-2.392 1.983-2.392 3.46 0 3.522 4.731 4.96 6.672 2.028.407-.615.458-.84.458-2.028 0-1.181-.053-1.416-.448-2.013-.889-1.344-2.815-1.993-4.29-1.447Z" fill="#06CAC6"/><path d="M29.45 8.178c-1.008.238-2.254.951-3.164 1.812-1.572 1.487-2.34 3.56-2.147 5.799l.099 1.153-1.974 1.111-1.975 1.113-.7-.575c-1.59-1.301-3.814-1.921-5.67-1.579-4.089.753-6.723 4.896-5.674 8.923.346 1.329.813 2.17 1.764 3.174.757.801 2.478 1.86 3.021 1.86.175 0 .22.524.22 2.527v2.528l-1.062.497a7.028 7.028 0 0 0-.086 12.803c1.161.561 1.322.594 2.87.594 1.876 0 2.715-.245 4.214-1.232l.931-.614 1.97 1.155 1.971 1.155-.094 1.333c-.16 2.267.606 4.204 2.273 5.748 2.876 2.663 7.013 2.664 9.804.002 1.643-1.568 2.515-4.02 2.173-6.112-.097-.589-.084-.905.039-1 .486-.371 3.86-2.322 4.017-2.322.1 0 .499.244.888.54 3.54 2.702 8.71 1.37 10.633-2.74.998-2.134.993-4.217-.018-6.273-.669-1.36-2.25-2.84-3.595-3.36l-.998-.388v-4.815l.484-.106c.721-.159 2.312-1.245 3.028-2.067 1.394-1.602 2.1-3.975 1.76-5.913-.535-3.047-2.833-5.344-5.896-5.891-1.974-.353-4.199.254-5.725 1.56-.372.318-.724.578-.782.578-.114 0-3.499-1.921-3.799-2.157-.127-.1-.138-.382-.036-.92.206-1.093-.098-2.847-.709-4.088-.574-1.166-1.973-2.6-3.098-3.175-1.481-.757-3.401-1.004-4.956-.638Zm29.984.15c-1.727.686-3.34 2.317-4.057 4.102-.292.727-.364 1.237-.368 2.625-.005 1.6.032 1.8.514 2.818 1.253 2.644 3.69 4.248 6.465 4.254 2.177.005 3.725-.615 5.187-2.078.795-.794 1.856-2.594 1.856-3.148 0-.16 1.006-.206 4.48-.206h4.479l.299.831c.364 1.015 1.338 2.34 2.247 3.06.666.527 2.255 1.36 2.594 1.36.12 0 .175 1.458.175 4.58v4.582l-.616.198c-.978.317-1.88.904-2.785 1.814-3.497 3.515-2.378 9.362 2.202 11.505 2.104.985 4.806.769 6.7-.535.987-.679 2.121-1.997 2.652-3.082.405-.828.463-1.151.513-2.852.053-1.802.029-1.978-.395-2.924-.824-1.835-2.35-3.303-4.004-3.852l-.822-.273v-9.089l1.098-.478c1.349-.587 2.73-1.913 3.372-3.236 1.855-3.823.209-8.312-3.608-9.837-.771-.308-1.259-.378-2.667-.38-1.654-.005-1.773.02-3.006.608-1.643.784-2.83 1.966-3.484 3.469l-.473 1.086h-8.878l-.472-1.085c-.607-1.393-1.898-2.794-3.244-3.52-.998-.54-1.1-.56-3.083-.601-1.73-.036-2.18.008-2.871.283Zm-28.957 3.28c-1.773.33-2.954 1.773-2.954 3.61 0 2.744 2.658 4.401 5.168 3.222.965-.453 1.26-.755 1.71-1.748 1.214-2.675-1.058-5.619-3.924-5.084Zm30.858.024c-2.855.526-3.9 4.2-1.757 6.177 2.245 2.068 5.689.77 6.11-2.304.338-2.465-1.778-4.347-4.353-3.873Zm22.76.049c-1.73.451-2.888 2.08-2.709 3.811.124 1.203.749 2.23 1.694 2.783 2.496 1.463 5.344-.245 5.344-3.206 0-.512-.108-1.186-.239-1.498-.64-1.523-2.392-2.333-4.09-1.89Zm-60.168 9.476c-1.528.884-1.977 1.219-1.901 1.418.055.143.1.854.099 1.579-.004 3.232-1.956 5.84-5.147 6.877-.264.086-.287.317-.246 2.486l.045 2.391.948.385c2.022.821 3.749 2.674 4.318 4.632.288.988.332 2.802.088 3.612l-.158.524 1.947 1.143c1.73 1.015 1.97 1.113 2.16.882.117-.143.636-.534 1.153-.87 2.494-1.616 5.956-1.438 8.242.423l.867.706 2.03-1.213c1.117-.667 2.027-1.27 2.023-1.338-.005-.07-.07-.564-.146-1.1-.172-1.21.092-2.76.683-4.02.609-1.297 2.16-2.777 3.542-3.379l1.096-.477v-2.425c0-1.917-.046-2.424-.22-2.424-.565 0-2.264-1.062-3.098-1.936-1.55-1.626-2.218-3.452-2.027-5.55l.106-1.177-2.009-1.151-2.009-1.151-.572.503c-.845.741-2.46 1.438-3.65 1.573-2.043.233-3.691-.214-5.316-1.44l-.846-.64-2.002 1.157Zm-10.185-.427c-2.372 1.028-2.924 4.217-1.04 6.006 1.45 1.375 4.007 1.246 5.253-.267 1.294-1.57 1.127-3.667-.402-5.046-1.037-.934-2.597-1.218-3.81-.693Zm31.982.19c-1.213.615-1.832 1.519-1.925 2.812-.167 2.31 1.32 3.956 3.576 3.956 1.176 0 2.008-.366 2.746-1.207 1.04-1.184 1.162-3.137.278-4.413-.62-.893-1.954-1.6-3.024-1.6-.506 0-1.06.152-1.651.452Zm-16.228 6.538c-2.518.677-4.504 2.97-4.854 5.602-.333 2.514 1.304 5.313 3.834 6.556.843.413 1.103.458 2.657.458 1.53 0 1.829-.05 2.669-.443 1.208-.566 2.547-1.906 3.165-3.166.44-.9.482-1.133.482-2.707 0-1.554-.045-1.814-.458-2.657-.938-1.91-2.696-3.31-4.677-3.724-1.117-.233-1.71-.216-2.818.081Zm.329 3.641c-1.532.845-2.085 2.619-1.256 4.032.997 1.702 2.98 2.029 4.454.735 1.41-1.239 1.324-3.36-.183-4.51-.786-.6-2.179-.718-3.016-.257Zm54.096 3.54c-1.22.453-2.018 1.246-2.398 2.384-.629 1.877.487 3.992 2.4 4.548 3.39.985 5.986-2.57 4.049-5.548-.796-1.224-2.717-1.881-4.05-1.385Zm-70.179 4.959c-1.324.573-2.165 1.87-2.165 3.34 0 2.096 1.34 3.476 3.377 3.476 1.538 0 2.692-.716 3.316-2.055.683-1.467.447-2.9-.654-3.961-1.054-1.016-2.627-1.34-3.874-.8Zm32.466-.045c-.998.373-1.582.899-2.042 1.839-.588 1.203-.523 2.478.185 3.624 1.333 2.156 4.717 2.154 6.051-.005 1.46-2.363 0-5.374-2.717-5.605-.526-.045-1.124.015-1.477.147Zm21.1.99c-2.163.569-3.832 1.892-4.759 3.771-.819 1.66-1.044 3.398-.634 4.892.056.204-.442.584-1.972 1.506-1.696 1.022-2.08 1.194-2.237 1.005-.104-.126-.6-.5-1.1-.833-3-1.991-7.036-1.474-9.392 1.203-3.138 3.564-1.918 9.198 2.43 11.223l1.176.549v2.427c0 2.167-.03 2.438-.287 2.522-1.83.603-3.349 1.86-4.197 3.475-1.532 2.915-1.063 6.148 1.225 8.442 2.643 2.65 6.741 2.895 9.633.575l.713-.572 2.01 1.127 2.01 1.127-.14.859c-.197 1.197.097 2.928.708 4.168.559 1.135 1.968 2.598 3.016 3.132 2.915 1.485 6.17.992 8.439-1.277 1.552-1.553 2.255-3.483 2.087-5.735l-.092-1.234 1.854-1.026c1.02-.564 1.9-1.025 1.957-1.025.056 0 .462.258.901.573 2.34 1.68 5.033 1.935 7.521.71 1.315-.647 2.69-2.079 3.35-3.487.484-1.038.497-1.127.444-3.083-.048-1.779-.106-2.124-.496-2.958-.792-1.69-2.528-3.173-4.439-3.792-.256-.083-.287-.354-.287-2.523v-2.43l1.085-.472c1.393-.607 2.794-1.898 3.521-3.244.537-.994.56-1.11.617-3.122.059-2.045.05-2.113-.44-3.16-.702-1.498-1.93-2.74-3.45-3.492-1.202-.594-1.281-.61-3.047-.605-2.11.005-3.047.297-4.497 1.399l-.879.668-1.946-1.164-1.946-1.163.118-.529c.065-.29.117-1.082.115-1.759-.006-2.852-1.809-5.343-4.63-6.399-1.144-.428-2.992-.55-4.062-.269Zm-.101 4.01c-2.614 1.365-2.553 5.248.1 6.454.966.438 2.47.405 3.38-.076 1.091-.576 1.677-1.517 1.76-2.828.088-1.375-.266-2.339-1.13-3.079-1.208-1.034-2.705-1.206-4.11-.472Zm-37.55 4.56c-1.348.584-2.134 1.817-2.134 3.348 0 2.119 1.501 3.61 3.635 3.61 3.793 0 4.98-5.348 1.535-6.913-.804-.366-2.247-.387-3.037-.045Zm31.946 4.692L59.67 54.97l.103 1.165c.123 1.396-.212 3.033-.868 4.238-.619 1.137-2.088 2.44-3.39 3.008l-1.085.472v2.507c0 2.195.033 2.506.264 2.506.504 0 2.198 1.033 2.986 1.821 1.547 1.547 2.28 3.56 2.09 5.737l-.109 1.256 1.996 1.103 1.995 1.103.434-.397c1.55-1.421 3.687-2.058 5.871-1.748 1.318.186 2.308.605 3.427 1.45l.841.636 1.928-1.071c1.808-1.005 1.92-1.097 1.822-1.488-.198-.79-.101-2.926.17-3.74.754-2.267 2.452-3.911 4.873-4.72.256-.085.287-.358.287-2.549v-2.453l-.616-.199c-2.052-.664-3.82-2.473-4.545-4.655-.265-.796-.376-3.194-.172-3.724.074-.191-.396-.551-1.865-1.43-1.08-.645-2.009-1.174-2.064-1.174-.055 0-.466.29-.915.644-1.295 1.025-2.42 1.39-4.26 1.383-1.838-.007-2.881-.345-4.229-1.37-.475-.36-.918-.654-.984-.65-.066.004-.99.531-2.052 1.173Zm-9.716-.374c-1.245.312-2.34 1.282-2.708 2.397-.328.991-.14 2.426.422 3.237.62.893 1.954 1.6 3.024 1.6 1.078 0 2.405-.706 3.034-1.614.445-.642.493-.837.493-1.982 0-1.126-.056-1.361-.493-2.069-.745-1.204-2.43-1.905-3.772-1.569Zm32.258.015c-.942.222-1.867.99-2.358 1.958-.758 1.494-.536 2.942.62 4.056 1.306 1.258 3.498 1.347 4.89.2 2.229-1.838 1.553-5.306-1.192-6.116-.97-.286-1.131-.294-1.96-.098Zm-71.141 1.533c-2.072.687-3.574 1.975-4.464 3.83-.566 1.177-.567 1.184-.513 3.204.052 1.902.087 2.09.595 3.119.677 1.374 2.1 2.707 3.577 3.35l1.051.458v9.084l-1.062.497c-5.488 2.568-5.572 10.168-.141 12.774 3.554 1.706 8.124.072 9.66-3.453l.476-1.092 4.352.003 4.352.004.55 1.169c.726 1.547 1.801 2.608 3.429 3.385 1.218.582 1.342.607 2.993.603 1.995-.004 3.039-.33 4.444-1.386 4.491-3.374 3.336-10.294-2.052-12.293-1.209-.449-3.253-.49-4.453-.091-2.183.726-3.992 2.493-4.656 4.546l-.199.615h-8.782l-.192-.64c-.515-1.722-2.336-3.597-4.244-4.372l-.948-.385-.043-4.494-.044-4.493.63-.189c.941-.282 2.518-1.363 3.197-2.191 1.76-2.148 2.135-5.304.922-7.767-.671-1.364-2.077-2.712-3.548-3.401-.969-.455-1.316-.528-2.672-.567-.972-.028-1.806.038-2.215.173Zm1.087 3.389c-.89.21-1.85.992-2.306 1.88-1.476 2.867 1.151 6.029 4.257 5.123 1.455-.425 2.389-1.528 2.566-3.034.205-1.73-.859-3.413-2.455-3.888-.903-.267-1.22-.28-2.062-.081Zm53.136 1.62a7.193 7.193 0 0 0-4.134 3.493c-.513.983-.542 1.13-.542 2.761 0 1.53.05 1.83.443 2.67.534 1.138 1.907 2.558 3.016 3.119.444.224 1.24.497 1.772.607 3.353.692 6.827-1.85 7.497-5.487.483-2.618-1.167-5.577-3.787-6.791-.718-.333-1.204-.428-2.379-.462-.812-.025-1.66.016-1.886.09Zm.567 3.6c-2.264 1.06-2.45 3.959-.334 5.199 2.46 1.44 5.279-1.2 4.032-3.775-.683-1.412-2.35-2.054-3.698-1.423ZM51.067 72.46c-2.451 1.134-2.791 4.557-.616 6.198 1.755 1.324 4.422.705 5.414-1.255.927-1.833.086-4.26-1.74-5.023-.78-.325-2.267-.287-3.059.08Zm32.57-.129c-1.421.567-2.408 2.175-2.254 3.672.095.922.545 1.959 1.046 2.412.565.511 1.758.945 2.598.945 3.034 0 4.722-3.597 2.762-5.886-.806-.942-1.626-1.328-2.796-1.315-.523.006-1.132.083-1.355.172Zm-69.895 9.267c-1.324.573-2.165 1.87-2.165 3.34 0 2.096 1.34 3.476 3.377 3.476 1.538 0 2.692-.716 3.316-2.055.683-1.467.447-2.9-.654-3.961-1.054-1.016-2.627-1.34-3.874-.8Zm22.969-.046c-.796.252-2.014 1.516-2.26 2.346-.728 2.449.95 4.713 3.49 4.713 2.123 0 3.585-1.462 3.584-3.584-.001-2.549-2.361-4.253-4.814-3.475Zm30.946.016c-1.372.508-2.392 1.983-2.392 3.46 0 3.522 4.731 4.96 6.672 2.028.407-.615.458-.84.458-2.028 0-1.181-.053-1.416-.448-2.013-.889-1.344-2.815-1.993-4.29-1.447Z" fill="url(#b)"/></g><defs><linearGradient id="b" x1="81.359" y1="-15.782" x2="50.013" y2="117.744" gradientUnits="userSpaceOnUse"><stop stop-color="#fff" stop-opacity="0"/><stop offset="1" stop-color="#0A0B43"/></linearGradient><clipPath id="a"><path fill="#fff" transform="translate(8 8)" d="M0 0h84v84H0z"/></clipPath></defs></svg>