<svg width="100" height="100" fill="none" xmlns="http://www.w3.org/2000/svg"><path fill-rule="evenodd" clip-rule="evenodd" d="M48.016 9.68v3.71h2.968V5.97h-2.968v3.71Zm-8.29 1.456c-.631.168-1.2.361-1.267.428-.1.103.589 3.08.761 3.287.091.11 2.667-.558 2.764-.717.145-.233-.721-3.343-.925-3.323-.103.01-.703.156-1.334.325Zm-10.77.928c-.635.373-1.157.723-1.16.778-.006.122 6.46 11.344 6.648 11.54.188.193 2.542-1.235 2.482-1.506-.084-.384-6.568-11.528-6.695-11.508-.067.01-.64.324-1.275.696Zm38.294 1.733c-.716 1.133-4.39 7.586-4.389 7.71.001.077.56.457 1.24.845.943.535 1.273.646 1.382.464 3.11-5.216 4.548-7.874 4.361-8.06-.117-.118-.687-.478-1.267-.8l-1.056-.588-.271.429Zm-25.481 3.737-1.175 1.176v6.508l-1.438.085c-1.575.094-2.292.38-3.187 1.276-.969.969-1.213 1.6-1.213 3.14s.244 2.17 1.213 3.14c.895.895 1.612 1.182 3.187 1.275l1.438.086v6.508l1.175 1.175 1.175 1.175h13.112l1.175-1.175 1.175-1.175v-6.465l15.277.631c15.041.621 15.293.626 16.374.29 1.498-.467 3.195-2.13 3.658-3.585.722-2.27.25-4.185-1.453-5.902-1.954-1.969-.71-1.892-18.594-1.153l-15.262.63V18.71l-1.175-1.176-1.175-1.175H42.944l-1.175 1.175Zm2.1 2.134c-.277.306-.306 1.276-.306 10.083 0 9.204.018 9.761.339 10.051.299.271.967.307 5.63.307 4.89 0 5.315-.025 5.598-.339.278-.307.307-1.277.307-10.084 0-9.204-.018-9.76-.339-10.05-.299-.271-.967-.308-5.63-.308-4.89 0-5.315.026-5.598.34Zm-27.82 8.56-.702 1.288.424.27c1.052.668 20.793 12.008 20.968 12.045.109.022.516-.502.905-1.165.543-.925.656-1.253.483-1.408-.21-.19-21.21-12.324-21.323-12.321-.03 0-.369.581-.755 1.29Zm56.552-.632c-7.654.336-13.979.618-14.056.625-.076.007-.139.674-.139 1.482v1.468l1.346.108c.74.059 7.556.36 15.147.67l13.803.561.798-.386c.842-.408 1.563-1.517 1.563-2.405 0-.885-.72-1.998-1.555-2.401-.956-.463.477-.487-16.907.278Zm-34.174.859c-.606.293-.9 1.136-.627 1.796.272.656.885.952 1.968.952h.826v-2.969l-.882.013c-.484.007-1.063.1-1.285.208Zm23.917 9.915-1.722 1.026.592 1.053c.922 1.64.817 1.592 1.993.926a63.11 63.11 0 0 0 1.747-1.028l.703-.437-.703-1.29c-.387-.71-.745-1.288-.796-1.284-.05.004-.867.47-1.814 1.034Zm14.955.132c-2.314.631-4.25 1.19-4.304 1.243-.194.195.557 2.683.823 2.727.147.025 2.23-.486 4.627-1.134 4.923-1.331 4.547-1.046 3.974-3.018-.206-.706-.38-.99-.6-.98-.172.009-2.206.532-4.52 1.162Zm-58.284-.48c-.155.28-.741 2.651-.669 2.707.041.032 1.453.418 3.136.86 1.684.44 3.159.837 3.277.88.192.07.503-.752.9-2.377l.116-.48-3.23-.865c-3.547-.948-3.42-.922-3.53-.725Zm-8.109 9.51v1.484H28.72v-2.969H10.906v1.484Zm21.237-1.03c-.439.439-.456.548-.456 2.97v2.512h-3.255c-3.21 0-3.262.007-3.71.456-.251.25-.456.584-.456.742 0 .253-.734.287-6.224.287h-6.225l-.455.455c-.364.364-.456.645-.456 1.4 0 1.624.537 3.716 1.427 5.56.725 1.504 1.092 2 2.54 3.44 2.398 2.382 4.983 3.632 8.116 3.923l1.277.119v.973c0 .681.106 1.105.354 1.411.341.422.47.442 3.572.536 2.812.086 3.31.148 3.96.494 2.074 1.105 3.008 3.5 2.17 5.564-.174.426-1.359 2.574-2.635 4.772l-2.319 3.996-1.353.007c-1.186.005-1.41.063-1.81.462-.451.451-.455.484-.455 3.997 0 3.514.004 3.546.456 3.998l.455.455h51.616l.455-.455c.452-.452.456-.484.456-3.998 0-3.513-.004-3.546-.456-3.998-.42-.42-.593-.455-2.24-.455h-1.784l.067-6.262c.066-6.227.069-6.271.567-7.761 1.54-4.603 5.607-7.772 10.509-8.186 1.107-.093 1.48-.205 1.818-.543.422-.421.425-.46.425-5.451v-5.027l-.456-.455-.455-.456H67.312v-2.513c0-2.421-.016-2.53-.455-2.969l-.455-.455H32.598l-.455.455Zm38.138 1.03v1.484h17.813v-2.969H70.28v1.484ZM34.656 50.5v1.484h29.688v-2.968H34.656V50.5Zm-7.422 11.133v6.68h14.844v2.968h-2.891c-1.59 0-2.86.063-2.82.14.964 1.897 1.144 2.456 1.221 3.782.14 2.408-.1 2.987-3.877 9.391l-.904 1.531h38.959V80.18c0-6.631.129-7.75 1.178-10.199.814-1.9 1.827-3.382 3.328-4.87l1.264-1.252H70.28v-2.968h14.844v-5.938h-57.89v6.68ZM14.06 56.696c0 .668.808 2.754 1.45 3.744.946 1.459 2.722 3.072 4.16 3.778 1.093.537 3.245 1.115 4.178 1.123l.418.003v-8.906h-5.103c-4.24 0-5.103.043-5.103.258Zm14.66 33.882v1.484h47.5v-2.968h-47.5v1.484Z" fill="#06CAC6"/><path fill-rule="evenodd" clip-rule="evenodd" d="M48.016 9.68v3.71h2.968V5.97h-2.968v3.71Zm-8.29 1.456c-.631.168-1.2.361-1.267.428-.1.103.589 3.08.761 3.287.091.11 2.667-.558 2.764-.717.145-.233-.721-3.343-.925-3.323-.103.01-.703.156-1.334.325Zm-10.77.928c-.635.373-1.157.723-1.16.778-.006.122 6.46 11.344 6.648 11.54.188.193 2.542-1.235 2.482-1.506-.084-.384-6.568-11.528-6.695-11.508-.067.01-.64.324-1.275.696Zm38.294 1.733c-.716 1.133-4.39 7.586-4.389 7.71.001.077.56.457 1.24.845.943.535 1.273.646 1.382.464 3.11-5.216 4.548-7.874 4.361-8.06-.117-.118-.687-.478-1.267-.8l-1.056-.588-.271.429Zm-25.481 3.737-1.175 1.176v6.508l-1.438.085c-1.575.094-2.292.38-3.187 1.276-.969.969-1.213 1.6-1.213 3.14s.244 2.17 1.213 3.14c.895.895 1.612 1.182 3.187 1.275l1.438.086v6.508l1.175 1.175 1.175 1.175h13.112l1.175-1.175 1.175-1.175v-6.465l15.277.631c15.041.621 15.293.626 16.374.29 1.498-.467 3.195-2.13 3.658-3.585.722-2.27.25-4.185-1.453-5.902-1.954-1.969-.71-1.892-18.594-1.153l-15.262.63V18.71l-1.175-1.176-1.175-1.175H42.944l-1.175 1.175Zm2.1 2.134c-.277.306-.306 1.276-.306 10.083 0 9.204.018 9.761.339 10.051.299.271.967.307 5.63.307 4.89 0 5.315-.025 5.598-.339.278-.307.307-1.277.307-10.084 0-9.204-.018-9.76-.339-10.05-.299-.271-.967-.308-5.63-.308-4.89 0-5.315.026-5.598.34Zm-27.82 8.56-.702 1.288.424.27c1.052.668 20.793 12.008 20.968 12.045.109.022.516-.502.905-1.165.543-.925.656-1.253.483-1.408-.21-.19-21.21-12.324-21.323-12.321-.03 0-.369.581-.755 1.29Zm56.552-.632c-7.654.336-13.979.618-14.056.625-.076.007-.139.674-.139 1.482v1.468l1.346.108c.74.059 7.556.36 15.147.67l13.803.561.798-.386c.842-.408 1.563-1.517 1.563-2.405 0-.885-.72-1.998-1.555-2.401-.956-.463.477-.487-16.907.278Zm-34.174.859c-.606.293-.9 1.136-.627 1.796.272.656.885.952 1.968.952h.826v-2.969l-.882.013c-.484.007-1.063.1-1.285.208Zm23.917 9.915-1.722 1.026.592 1.053c.922 1.64.817 1.592 1.993.926a63.11 63.11 0 0 0 1.747-1.028l.703-.437-.703-1.29c-.387-.71-.745-1.288-.796-1.284-.05.004-.867.47-1.814 1.034Zm14.955.132c-2.314.631-4.25 1.19-4.304 1.243-.194.195.557 2.683.823 2.727.147.025 2.23-.486 4.627-1.134 4.923-1.331 4.547-1.046 3.974-3.018-.206-.706-.38-.99-.6-.98-.172.009-2.206.532-4.52 1.162Zm-58.284-.48c-.155.28-.741 2.651-.669 2.707.041.032 1.453.418 3.136.86 1.684.44 3.159.837 3.277.88.192.07.503-.752.9-2.377l.116-.48-3.23-.865c-3.547-.948-3.42-.922-3.53-.725Zm-8.109 9.51v1.484H28.72v-2.969H10.906v1.484Zm21.237-1.03c-.439.439-.456.548-.456 2.97v2.512h-3.255c-3.21 0-3.262.007-3.71.456-.251.25-.456.584-.456.742 0 .253-.734.287-6.224.287h-6.225l-.455.455c-.364.364-.456.645-.456 1.4 0 1.624.537 3.716 1.427 5.56.725 1.504 1.092 2 2.54 3.44 2.398 2.382 4.983 3.632 8.116 3.923l1.277.119v.973c0 .681.106 1.105.354 1.411.341.422.47.442 3.572.536 2.812.086 3.31.148 3.96.494 2.074 1.105 3.008 3.5 2.17 5.564-.174.426-1.359 2.574-2.635 4.772l-2.319 3.996-1.353.007c-1.186.005-1.41.063-1.81.462-.451.451-.455.484-.455 3.997 0 3.514.004 3.546.456 3.998l.455.455h51.616l.455-.455c.452-.452.456-.484.456-3.998 0-3.513-.004-3.546-.456-3.998-.42-.42-.593-.455-2.24-.455h-1.784l.067-6.262c.066-6.227.069-6.271.567-7.761 1.54-4.603 5.607-7.772 10.509-8.186 1.107-.093 1.48-.205 1.818-.543.422-.421.425-.46.425-5.451v-5.027l-.456-.455-.455-.456H67.312v-2.513c0-2.421-.016-2.53-.455-2.969l-.455-.455H32.598l-.455.455Zm38.138 1.03v1.484h17.813v-2.969H70.28v1.484ZM34.656 50.5v1.484h29.688v-2.968H34.656V50.5Zm-7.422 11.133v6.68h14.844v2.968h-2.891c-1.59 0-2.86.063-2.82.14.964 1.897 1.144 2.456 1.221 3.782.14 2.408-.1 2.987-3.877 9.391l-.904 1.531h38.959V80.18c0-6.631.129-7.75 1.178-10.199.814-1.9 1.827-3.382 3.328-4.87l1.264-1.252H70.28v-2.968h14.844v-5.938h-57.89v6.68ZM14.06 56.696c0 .668.808 2.754 1.45 3.744.946 1.459 2.722 3.072 4.16 3.778 1.093.537 3.245 1.115 4.178 1.123l.418.003v-8.906h-5.103c-4.24 0-5.103.043-5.103.258Zm14.66 33.882v1.484h47.5v-2.968h-47.5v1.484Z" fill="url(#a)"/><defs><linearGradient id="a" x1="83.511" y1="-19.266" x2="48.163" y2="121.259" gradientUnits="userSpaceOnUse"><stop stop-color="#fff" stop-opacity="0"/><stop offset="1" stop-color="#0A0B43"/></linearGradient></defs></svg>