<svg width="100" height="100" fill="none" xmlns="http://www.w3.org/2000/svg"><path fill-rule="evenodd" clip-rule="evenodd" d="M5.544 11.512c-1.095.571-2.062 1.7-2.352 2.744-.124.444-.19 5.823-.19 15.39L3 44.352l.45.45a1.567 1.567 0 0 0 2.216 0l.45-.45v-14.49c0-10.666.056-14.597.213-14.891.395-.742.722-.846 2.673-.852l1.879-.006v6.862c0 6.576.016 6.905.394 7.916.476 1.269 1.832 2.704 3.18 3.364l.916.45h69.093l1.045-.514c1.309-.642 2.571-2.02 3.069-3.35.355-.948.376-1.393.376-7.866v-6.862l1.879.006c1.951.006 2.278.11 2.673.852.28.523.306 33.405.029 34.866-.575 3.027-3.051 5.582-6.01 6.2-.534.113-2.153.204-3.598.204h-2.626l-.078-2.244c-.07-1.972-.141-2.382-.596-3.386-.6-1.325-1.879-2.62-3.179-3.22-.85-.393-1.036-.4-10.717-.452l-9.854-.052-.456.456c-.627.627-.615 1.545.028 2.187l.483.483h9.283c9.263 0 9.285.001 10.1.412.448.227 1.002.692 1.23 1.035.368.554.413.849.413 2.702v2.079h-17.94l-.469.412c-.717.631-.788 1.412-.193 2.119l.49.583H73.63c14.884 0 14.717.01 16.883-.99 2.184-1.007 4.375-3.218 5.348-5.397 1.03-2.304 1.003-1.792 1.107-20.884.064-11.756.035-17.616-.087-17.54-.101.061-.23-.121-.287-.407-.17-.851-1.24-2.072-2.302-2.626L93.31 11H6.524l-.98.512ZM14 20.754c.003 6.531.01 6.651.413 7.358.255.448.713.88 1.217 1.145l.808.426h66.961l.808-.426c.504-.265.962-.697 1.218-1.145.402-.707.409-.827.412-7.358l.003-6.64H13.997l.002 6.64ZM3.087 29.5c0 8.21.023 11.569.05 7.464.028-4.105.028-10.823 0-14.928-.027-4.105-.05-.747-.05 7.464Zm14.475-11.823c-.742.741-.594 1.936.296 2.396.783.405 63.336.405 64.119 0 .89-.46 1.038-1.655.296-2.396l-.45-.45H18.012l-.45.45Zm0 6.228a1.565 1.565 0 0 0 0 2.214l.45.45h63.811l.45-.45a1.565 1.565 0 0 0 0-2.214l-.45-.45H18.012l-.45.45Zm9.63 12.127c-6.393.63-11.873 3.243-16.407 7.82-3.88 3.917-6.108 8.01-7.272 13.363-.58 2.66-.582 7.997-.005 10.605 1.134 5.129 3.559 9.664 7.067 13.215 4.194 4.246 9.09 6.78 14.965 7.743 2.373.39 7.495.246 9.716-.273 10.519-2.454 18.132-10.234 20.46-20.907.508-2.328.472-8.03-.065-10.443-2.229-10.005-9.566-17.758-19.242-20.333-2.735-.728-6.538-1.054-9.217-.79Zm.183 3.178c-5.432.504-10.474 2.906-14.387 6.855-2.691 2.717-4.6 5.86-5.732 9.444-.816 2.58-1.04 4.166-1.024 7.235.016 2.971.382 5.134 1.3 7.69 2.942 8.187 10.27 14.063 19.097 15.314 2.287.323 6.064.115 8.406-.464 8.999-2.226 15.58-9.074 17.566-18.278.456-2.112.457-6.782.002-8.932-1.56-7.387-6.1-13.298-12.724-16.572-3.724-1.841-8.307-2.681-12.504-2.292Zm52.787 1.825c-.804.803-.629 1.981.38 2.546.956.537 2.181-.227 2.181-1.36 0-1.311-1.664-2.083-2.561-1.186Zm6.394-.127c-.85.652-.915 1.61-.159 2.366.483.482.65.543 1.237.45 1.293-.208 1.787-1.685.87-2.601-.494-.495-1.447-.6-1.948-.215ZM28.53 44.045c-.514.441-.514.445-.578 3.127l-.063 2.684-2.076-2.027c-1.925-1.88-2.128-2.028-2.791-2.028-.732 0-1.318.43-1.575 1.155-.234.66.447 1.556 3.434 4.522l3.043 3.02v2.998c0 2.321-.052 2.979-.23 2.914-.125-.047-1.383-.47-2.794-.94l-2.566-.855-2.014-3.946c-1.108-2.17-2.155-4.072-2.326-4.227-.171-.155-.623-.281-1.003-.281-.803 0-1.53.676-1.53 1.423 0 .247.578 1.603 1.285 3.012.706 1.409 1.221 2.56 1.145 2.56-.076-.002-1.17-.33-2.43-.731-2.977-.946-3.438-.932-4.002.125-.66 1.24-.03 1.86 2.859 2.816 1.284.424 2.405.812 2.492.861.086.05-.982.69-2.373 1.424-1.39.733-2.636 1.48-2.768 1.66-.408.558-.288 1.336.296 1.92.295.295.707.535.916.535.208 0 2.215-.916 4.458-2.035l4.079-2.035 2.806.898 2.806.898-1.75 2.4-1.749 2.4-1.148.193c-.632.106-2.592.413-4.356.683-1.764.27-3.396.609-3.628.752-1.3.808-.74 2.807.785 2.807.351 0 1.719-.172 3.039-.382 1.32-.21 2.432-.35 2.47-.311.04.038-.627 1.043-1.48 2.231-.947 1.32-1.552 2.339-1.552 2.615 0 .61.934 1.525 1.556 1.525.785 0 1.052-.242 2.564-2.324.79-1.09 1.495-2.048 1.566-2.13.071-.082.31 1.03.531 2.473.492 3.203.635 3.601 1.411 3.925.692.29 1.25.144 1.803-.469.465-.516.444-.863-.351-5.737l-.651-3.987 1.492-2.058c.822-1.131 1.615-2.198 1.764-2.37.248-.286.418-.11 2 2.06l1.73 2.373-.651 4.094c-.359 2.252-.652 4.38-.652 4.731 0 .65.464 1.252 1.155 1.496.371.132 1.475-.271 1.688-.615.076-.124.354-1.541.618-3.151l.48-2.927 1.371 1.895c.754 1.044 1.554 2.082 1.778 2.309.585.592 1.42.543 2.087-.123.908-.907.86-1.034-1.812-4.77-.45-.628-.687-1.104-.55-1.103.132.002 1.23.166 2.44.363 2.96.484 3.483.474 4.04-.083.62-.619.598-1.448-.054-2.089-.467-.459-.829-.546-4.949-1.198l-4.445-.703-1.649-2.267c-.907-1.246-1.648-2.331-1.648-2.411 0-.08 1.228-.549 2.729-1.041l2.729-.896 4.032 2.047c2.218 1.126 4.243 2.047 4.5 2.047.756 0 1.478-.75 1.478-1.537 0-.919-.319-1.184-3.193-2.664-2.825-1.454-2.874-1.22.458-2.234 2.2-.67 2.845-1.141 2.845-2.08 0-.773-.716-1.559-1.42-1.559-.287 0-1.504.33-2.704.733-1.2.403-2.294.733-2.43.733-.157 0 .226-.916 1.046-2.505.71-1.377 1.292-2.727 1.292-2.998 0-.807-.644-1.458-1.444-1.458-.377 0-.829.105-1.005.234-.175.129-1.254 2.043-2.397 4.253l-2.077 4.02-2.724.871a215.9 215.9 0 0 1-2.77.876c-.024.002-.045-1.333-.045-2.966v-2.97l3.207-3.224c2.92-2.935 3.207-3.28 3.202-3.853-.007-.697-.25-1.102-.853-1.424-.841-.447-1.163-.264-3.372 1.916l-2.157 2.13-.06-2.787-.059-2.786-.514-.442c-.657-.564-1.43-.564-2.087 0Zm34.83 18.606c-.535.216-.981.896-.981 1.496 0 .798-.288 1.346-1.288 2.449-1.311 1.447-1.7 2.398-1.72 4.207-.019 1.727.474 3.002 1.628 4.213 1.001 1.05 1.379 1.737 1.38 2.507 0 1-.286 1.585-1.297 2.654-1.473 1.556-2.178 3.78-1.57 4.954.32.618.62.784 1.424.784.612 0 1.443-.706 1.444-1.229.003-.835.462-1.805 1.287-2.715 1.47-1.622 1.73-2.27 1.734-4.299.002-2.068-.33-2.912-1.772-4.488-1.576-1.723-1.569-3.046.024-4.742 1.104-1.175 1.661-2.267 1.79-3.507.135-1.308-.034-1.856-.675-2.188-.601-.31-.836-.326-1.407-.096Zm10.551.354c-.336.335-.537.729-.54 1.053-.006.767-.594 1.898-1.364 2.624-.374.353-.9 1.053-1.166 1.557-.422.795-.486 1.134-.487 2.564-.001 2.013.313 2.79 1.795 4.44 1.645 1.83 1.61 3.082-.137 4.98-1.653 1.798-2.269 4.276-1.302 5.242.939.939 2.665.294 2.665-.995 0-.87.322-1.495 1.304-2.532 1.356-1.433 1.718-2.353 1.718-4.357 0-1.937-.322-2.715-1.746-4.231-1.654-1.76-1.67-3.113-.055-4.868 1.2-1.304 1.715-2.373 1.848-3.83.09-1 .063-1.096-.464-1.623-.72-.72-1.365-.727-2.069-.024Zm9.347 0c-.355.355-.536.721-.536 1.087 0 .856-.27 1.382-1.295 2.513-1.348 1.487-1.723 2.399-1.726 4.198-.003 1.802.5 3.01 1.89 4.544 1.55 1.71 1.526 2.913-.092 4.725-1.166 1.307-1.63 2.223-1.808 3.57-.134 1.012.19 1.944.749 2.159.952.365 2.28-.283 2.283-1.115.003-.835.462-1.805 1.287-2.715 1.47-1.622 1.731-2.27 1.734-4.299.002-2.072-.34-2.939-1.76-4.448-1.606-1.707-1.6-3.013.025-4.806 1.14-1.258 1.65-2.258 1.777-3.483.135-1.308-.034-1.856-.675-2.188-.789-.407-1.252-.343-1.853.258Z" fill="#06CAC6"/><path fill-rule="evenodd" clip-rule="evenodd" d="M5.544 11.512c-1.095.571-2.062 1.7-2.352 2.744-.124.444-.19 5.823-.19 15.39L3 44.352l.45.45a1.567 1.567 0 0 0 2.216 0l.45-.45v-14.49c0-10.666.056-14.597.213-14.891.395-.742.722-.846 2.673-.852l1.879-.006v6.862c0 6.576.016 6.905.394 7.916.476 1.269 1.832 2.704 3.18 3.364l.916.45h69.093l1.045-.514c1.309-.642 2.571-2.02 3.069-3.35.355-.948.376-1.393.376-7.866v-6.862l1.879.006c1.951.006 2.278.11 2.673.852.28.523.306 33.405.029 34.866-.575 3.027-3.051 5.582-6.01 6.2-.534.113-2.153.204-3.598.204h-2.626l-.078-2.244c-.07-1.972-.141-2.382-.596-3.386-.6-1.325-1.879-2.62-3.179-3.22-.85-.393-1.036-.4-10.717-.452l-9.854-.052-.456.456c-.627.627-.615 1.545.028 2.187l.483.483h9.283c9.263 0 9.285.001 10.1.412.448.227 1.002.692 1.23 1.035.368.554.413.849.413 2.702v2.079h-17.94l-.469.412c-.717.631-.788 1.412-.193 2.119l.49.583H73.63c14.884 0 14.717.01 16.883-.99 2.184-1.007 4.375-3.218 5.348-5.397 1.03-2.304 1.003-1.792 1.107-20.884.064-11.756.035-17.616-.087-17.54-.101.061-.23-.121-.287-.407-.17-.851-1.24-2.072-2.302-2.626L93.31 11H6.524l-.98.512ZM14 20.754c.003 6.531.01 6.651.413 7.358.255.448.713.88 1.217 1.145l.808.426h66.961l.808-.426c.504-.265.962-.697 1.218-1.145.402-.707.409-.827.412-7.358l.003-6.64H13.997l.002 6.64ZM3.087 29.5c0 8.21.023 11.569.05 7.464.028-4.105.028-10.823 0-14.928-.027-4.105-.05-.747-.05 7.464Zm14.475-11.823c-.742.741-.594 1.936.296 2.396.783.405 63.336.405 64.119 0 .89-.46 1.038-1.655.296-2.396l-.45-.45H18.012l-.45.45Zm0 6.228a1.565 1.565 0 0 0 0 2.214l.45.45h63.811l.45-.45a1.565 1.565 0 0 0 0-2.214l-.45-.45H18.012l-.45.45Zm9.63 12.127c-6.393.63-11.873 3.243-16.407 7.82-3.88 3.917-6.108 8.01-7.272 13.363-.58 2.66-.582 7.997-.005 10.605 1.134 5.129 3.559 9.664 7.067 13.215 4.194 4.246 9.09 6.78 14.965 7.743 2.373.39 7.495.246 9.716-.273 10.519-2.454 18.132-10.234 20.46-20.907.508-2.328.472-8.03-.065-10.443-2.229-10.005-9.566-17.758-19.242-20.333-2.735-.728-6.538-1.054-9.217-.79Zm.183 3.178c-5.432.504-10.474 2.906-14.387 6.855-2.691 2.717-4.6 5.86-5.732 9.444-.816 2.58-1.04 4.166-1.024 7.235.016 2.971.382 5.134 1.3 7.69 2.942 8.187 10.27 14.063 19.097 15.314 2.287.323 6.064.115 8.406-.464 8.999-2.226 15.58-9.074 17.566-18.278.456-2.112.457-6.782.002-8.932-1.56-7.387-6.1-13.298-12.724-16.572-3.724-1.841-8.307-2.681-12.504-2.292Zm52.787 1.825c-.804.803-.629 1.981.38 2.546.956.537 2.181-.227 2.181-1.36 0-1.311-1.664-2.083-2.561-1.186Zm6.394-.127c-.85.652-.915 1.61-.159 2.366.483.482.65.543 1.237.45 1.293-.208 1.787-1.685.87-2.601-.494-.495-1.447-.6-1.948-.215ZM28.53 44.045c-.514.441-.514.445-.578 3.127l-.063 2.684-2.076-2.027c-1.925-1.88-2.128-2.028-2.791-2.028-.732 0-1.318.43-1.575 1.155-.234.66.447 1.556 3.434 4.522l3.043 3.02v2.998c0 2.321-.052 2.979-.23 2.914-.125-.047-1.383-.47-2.794-.94l-2.566-.855-2.014-3.946c-1.108-2.17-2.155-4.072-2.326-4.227-.171-.155-.623-.281-1.003-.281-.803 0-1.53.676-1.53 1.423 0 .247.578 1.603 1.285 3.012.706 1.409 1.221 2.56 1.145 2.56-.076-.002-1.17-.33-2.43-.731-2.977-.946-3.438-.932-4.002.125-.66 1.24-.03 1.86 2.859 2.816 1.284.424 2.405.812 2.492.861.086.05-.982.69-2.373 1.424-1.39.733-2.636 1.48-2.768 1.66-.408.558-.288 1.336.296 1.92.295.295.707.535.916.535.208 0 2.215-.916 4.458-2.035l4.079-2.035 2.806.898 2.806.898-1.75 2.4-1.749 2.4-1.148.193c-.632.106-2.592.413-4.356.683-1.764.27-3.396.609-3.628.752-1.3.808-.74 2.807.785 2.807.351 0 1.719-.172 3.039-.382 1.32-.21 2.432-.35 2.47-.311.04.038-.627 1.043-1.48 2.231-.947 1.32-1.552 2.339-1.552 2.615 0 .61.934 1.525 1.556 1.525.785 0 1.052-.242 2.564-2.324.79-1.09 1.495-2.048 1.566-2.13.071-.082.31 1.03.531 2.473.492 3.203.635 3.601 1.411 3.925.692.29 1.25.144 1.803-.469.465-.516.444-.863-.351-5.737l-.651-3.987 1.492-2.058c.822-1.131 1.615-2.198 1.764-2.37.248-.286.418-.11 2 2.06l1.73 2.373-.651 4.094c-.359 2.252-.652 4.38-.652 4.731 0 .65.464 1.252 1.155 1.496.371.132 1.475-.271 1.688-.615.076-.124.354-1.541.618-3.151l.48-2.927 1.371 1.895c.754 1.044 1.554 2.082 1.778 2.309.585.592 1.42.543 2.087-.123.908-.907.86-1.034-1.812-4.77-.45-.628-.687-1.104-.55-1.103.132.002 1.23.166 2.44.363 2.96.484 3.483.474 4.04-.083.62-.619.598-1.448-.054-2.089-.467-.459-.829-.546-4.949-1.198l-4.445-.703-1.649-2.267c-.907-1.246-1.648-2.331-1.648-2.411 0-.08 1.228-.549 2.729-1.041l2.729-.896 4.032 2.047c2.218 1.126 4.243 2.047 4.5 2.047.756 0 1.478-.75 1.478-1.537 0-.919-.319-1.184-3.193-2.664-2.825-1.454-2.874-1.22.458-2.234 2.2-.67 2.845-1.141 2.845-2.08 0-.773-.716-1.559-1.42-1.559-.287 0-1.504.33-2.704.733-1.2.403-2.294.733-2.43.733-.157 0 .226-.916 1.046-2.505.71-1.377 1.292-2.727 1.292-2.998 0-.807-.644-1.458-1.444-1.458-.377 0-.829.105-1.005.234-.175.129-1.254 2.043-2.397 4.253l-2.077 4.02-2.724.871a215.9 215.9 0 0 1-2.77.876c-.024.002-.045-1.333-.045-2.966v-2.97l3.207-3.224c2.92-2.935 3.207-3.28 3.202-3.853-.007-.697-.25-1.102-.853-1.424-.841-.447-1.163-.264-3.372 1.916l-2.157 2.13-.06-2.787-.059-2.786-.514-.442c-.657-.564-1.43-.564-2.087 0Zm34.83 18.606c-.535.216-.981.896-.981 1.496 0 .798-.288 1.346-1.288 2.449-1.311 1.447-1.7 2.398-1.72 4.207-.019 1.727.474 3.002 1.628 4.213 1.001 1.05 1.379 1.737 1.38 2.507 0 1-.286 1.585-1.297 2.654-1.473 1.556-2.178 3.78-1.57 4.954.32.618.62.784 1.424.784.612 0 1.443-.706 1.444-1.229.003-.835.462-1.805 1.287-2.715 1.47-1.622 1.73-2.27 1.734-4.299.002-2.068-.33-2.912-1.772-4.488-1.576-1.723-1.569-3.046.024-4.742 1.104-1.175 1.661-2.267 1.79-3.507.135-1.308-.034-1.856-.675-2.188-.601-.31-.836-.326-1.407-.096Zm10.551.354c-.336.335-.537.729-.54 1.053-.006.767-.594 1.898-1.364 2.624-.374.353-.9 1.053-1.166 1.557-.422.795-.486 1.134-.487 2.564-.001 2.013.313 2.79 1.795 4.44 1.645 1.83 1.61 3.082-.137 4.98-1.653 1.798-2.269 4.276-1.302 5.242.939.939 2.665.294 2.665-.995 0-.87.322-1.495 1.304-2.532 1.356-1.433 1.718-2.353 1.718-4.357 0-1.937-.322-2.715-1.746-4.231-1.654-1.76-1.67-3.113-.055-4.868 1.2-1.304 1.715-2.373 1.848-3.83.09-1 .063-1.096-.464-1.623-.72-.72-1.365-.727-2.069-.024Zm9.347 0c-.355.355-.536.721-.536 1.087 0 .856-.27 1.382-1.295 2.513-1.348 1.487-1.723 2.399-1.726 4.198-.003 1.802.5 3.01 1.89 4.544 1.55 1.71 1.526 2.913-.092 4.725-1.166 1.307-1.63 2.223-1.808 3.57-.134 1.012.19 1.944.749 2.159.952.365 2.28-.283 2.283-1.115.003-.835.462-1.805 1.287-2.715 1.47-1.622 1.731-2.27 1.734-4.299.002-2.072-.34-2.939-1.76-4.448-1.606-1.707-1.6-3.013.025-4.806 1.14-1.258 1.65-2.258 1.777-3.483.135-1.308-.034-1.856-.675-2.188-.789-.407-1.252-.343-1.853.258Z" fill="url(#a)"/><defs><linearGradient id="a" x1="85.093" y1="-11.1" x2="60.53" y2="114.972" gradientUnits="userSpaceOnUse"><stop stop-color="#fff" stop-opacity="0"/><stop offset="1" stop-color="#0A0B43"/></linearGradient></defs></svg>