<svg width="100" height="100" fill="none" xmlns="http://www.w3.org/2000/svg"><path fill-rule="evenodd" clip-rule="evenodd" d="M48.441 19.887v-6.36a3.936 3.936 0 0 1-2.649-2.888H15.121V8.284h30.874a3.928 3.928 0 0 1 3.624-2.423 3.927 3.927 0 0 1 3.923 3.923 3.93 3.93 0 0 1-2.746 3.742v6.361h2.98c.65 0 1.177.528 1.177 1.178v5.886a2.939 2.939 0 0 1 1.89 2.74v4.158c0 .65-.528 1.177-1.178 1.177H43.703c-.65 0-1.177-.527-1.177-1.177V29.69c0-1.2.724-2.233 1.759-2.688v-5.938c0-.65.527-1.178 1.177-1.178h2.98Zm-3.56 12.784h9.607v-2.98a.582.582 0 0 0-.582-.581h-8.444c-.32 0-.582.26-.582.581v2.98Zm1.758-6.151h5.96v-4.278h-5.96v4.278Zm4.548-16.736a1.57 1.57 0 0 0-1.568-1.568 1.57 1.57 0 0 0-1.569 1.569 1.57 1.57 0 0 0 1.569 1.568 1.57 1.57 0 0 0 1.568-1.569ZM91.05 76.237h-3.465a5.877 5.877 0 0 0 1.39-3.8V51.604c0-2.9-1.11-5.645-3.128-7.729-1.714-1.77-2.466-2.77-2.466-4.913v-1.75c0-.65-.527-1.176-1.177-1.176h-9.992c-.65 0-1.178.527-1.178 1.177v1.749c0 2.143-.75 3.143-2.465 4.913a11.054 11.054 0 0 0-3.129 7.729v20.833c0 1.447.524 2.772 1.39 3.8h-6.767a5.877 5.877 0 0 0 1.39-3.8V51.604c0-2.9-1.11-5.645-3.128-7.729-1.715-1.77-2.466-2.77-2.466-4.913v-1.75c0-.65-.527-1.176-1.177-1.176h-9.993c-.65 0-1.177.527-1.177 1.177v1.749c0 2.143-.752 3.143-2.466 4.913a11.054 11.054 0 0 0-3.129 7.729v20.833c0 1.447.524 2.772 1.39 3.8H32.54a5.877 5.877 0 0 0 1.39-3.8V51.604c0-2.9-1.11-5.645-3.128-7.729-1.715-1.77-2.466-2.77-2.466-4.913v-.688c.558-.092.985-.573.985-1.158V32.96a2.94 2.94 0 0 0-2.936-2.936H17.94a2.94 2.94 0 0 0-2.936 2.936v4.157c0 .584.427 1.066.985 1.158v.688c0 2.143-.752 3.143-2.466 4.913a11.054 11.054 0 0 0-3.129 7.729v20.833c0 1.447.524 2.772 1.39 3.8H8.952C4.015 76.237 0 80.253 0 85.188s4.015 8.95 8.95 8.95h82.1c4.935 0 8.95-4.015 8.95-8.95s-4.015-8.95-8.95-8.95ZM67.793 51.604c0-2.286.876-4.449 2.466-6.09 1.832-1.893 3.129-3.47 3.129-6.552v-.572h7.638v.572c0 3.082 1.296 4.66 3.129 6.551a8.71 8.71 0 0 1 2.465 6.09v20.834a3.554 3.554 0 0 1-3.55 3.55H71.343a3.554 3.554 0 0 1-3.55-3.55V51.604Zm-27.522 0c0-2.286.875-4.449 2.465-6.09 1.832-1.893 3.129-3.47 3.129-6.552v-.572h7.638v.572c0 3.082 1.297 4.66 3.129 6.551a8.713 8.713 0 0 1 2.465 6.09v20.834a3.554 3.554 0 0 1-3.55 3.55H43.82a3.554 3.554 0 0 1-3.55-3.55V51.604ZM17.357 32.959c0-.32.261-.582.582-.582h8.444c.321 0 .582.261.582.582v2.98h-9.608v-2.98Zm-4.61 18.645c0-2.286.877-4.449 2.466-6.09 1.832-1.893 3.13-3.47 3.13-6.552v-.572h7.637v.572c0 3.082 1.297 4.66 3.129 6.551a8.71 8.71 0 0 1 2.466 6.09v20.834a3.554 3.554 0 0 1-3.55 3.55H16.298a3.554 3.554 0 0 1-3.55-3.55V51.604Zm78.302 40.18H8.951a6.604 6.604 0 0 1-6.596-6.596 6.603 6.603 0 0 1 6.596-6.596h82.098a6.603 6.603 0 0 1 6.596 6.596 6.604 6.604 0 0 1-6.596 6.596ZM15.465 73.287c.221.221.52.345.833.345h11.727c.31 0 .609-.123.83-.342l.018-.018c.222-.22.347-.521.347-.835V51.604c0-.65-.527-1.178-1.177-1.178H16.28c-.65 0-1.178.528-1.178 1.178v20.833c0 .312.124.612.345.833l.018.017Zm1.992-20.506h9.409v18.497h-9.41V52.78Zm25.531 20.506c.22.221.52.345.833.345h11.727c.312 0 .611-.124.832-.345l.018-.017c.221-.221.345-.52.345-.833V51.604c0-.65-.527-1.178-1.177-1.178H43.803c-.65 0-1.177.528-1.177 1.178v20.833c0 .312.124.612.344.833l.018.017Zm1.992-20.506h9.408v18.497H44.98V52.78Zm26.363 20.851a1.18 1.18 0 0 1-.83-.342l-.017-.018a1.177 1.177 0 0 1-.348-.835V51.604c0-.65.527-1.177 1.177-1.177h11.763c.65 0 1.177.527 1.177 1.177v20.833c0 .313-.123.612-.344.833l-.018.018a1.18 1.18 0 0 1-.833.344H71.343Zm10.568-20.85h-9.409v18.496h9.409V52.78ZM10.442 85.187a3.927 3.927 0 0 1 3.923-3.923 3.927 3.927 0 0 1 3.923 3.923 3.928 3.928 0 0 1-3.923 3.923 3.928 3.928 0 0 1-3.923-3.923Zm2.355 0a1.57 1.57 0 0 0 1.568 1.568 1.57 1.57 0 0 0 1.569-1.568 1.57 1.57 0 0 0-1.569-1.569 1.57 1.57 0 0 0-1.568 1.569Zm25.114-3.923a3.927 3.927 0 0 0-3.923 3.923 3.928 3.928 0 0 0 3.923 3.923 3.928 3.928 0 0 0 3.923-3.923 3.927 3.927 0 0 0-3.923-3.923Zm0 5.491a1.57 1.57 0 0 1-1.568-1.568 1.57 1.57 0 0 1 1.568-1.569 1.57 1.57 0 0 1 1.568 1.569 1.57 1.57 0 0 1-1.568 1.568Zm19.623-1.568a3.927 3.927 0 0 1 3.923-3.923 3.927 3.927 0 0 1 3.923 3.923 3.928 3.928 0 0 1-3.923 3.923 3.928 3.928 0 0 1-3.923-3.923Zm2.354 0a1.57 1.57 0 0 0 1.569 1.568 1.57 1.57 0 0 0 1.568-1.568 1.57 1.57 0 0 0-1.568-1.569 1.57 1.57 0 0 0-1.569 1.569Zm25.114-3.923a3.927 3.927 0 0 0-3.923 3.923 3.928 3.928 0 0 0 3.923 3.923 3.928 3.928 0 0 0 3.923-3.923 3.927 3.927 0 0 0-3.923-3.923Zm0 5.491a1.57 1.57 0 0 1-1.568-1.568 1.57 1.57 0 0 1 1.568-1.569 1.57 1.57 0 0 1 1.569 1.569 1.57 1.57 0 0 1-1.569 1.568Z" fill="#06CAC6"/><path fill-rule="evenodd" clip-rule="evenodd" d="M48.441 19.887v-6.36a3.936 3.936 0 0 1-2.649-2.888H15.121V8.284h30.874a3.928 3.928 0 0 1 3.624-2.423 3.927 3.927 0 0 1 3.923 3.923 3.93 3.93 0 0 1-2.746 3.742v6.361h2.98c.65 0 1.177.528 1.177 1.178v5.886a2.939 2.939 0 0 1 1.89 2.74v4.158c0 .65-.528 1.177-1.178 1.177H43.703c-.65 0-1.177-.527-1.177-1.177V29.69c0-1.2.724-2.233 1.759-2.688v-5.938c0-.65.527-1.178 1.177-1.178h2.98Zm-3.56 12.784h9.607v-2.98a.582.582 0 0 0-.582-.581h-8.444c-.32 0-.582.26-.582.581v2.98Zm1.758-6.151h5.96v-4.278h-5.96v4.278Zm4.548-16.736a1.57 1.57 0 0 0-1.568-1.568 1.57 1.57 0 0 0-1.569 1.569 1.57 1.57 0 0 0 1.569 1.568 1.57 1.57 0 0 0 1.568-1.569ZM91.05 76.237h-3.465a5.877 5.877 0 0 0 1.39-3.8V51.604c0-2.9-1.11-5.645-3.128-7.729-1.714-1.77-2.466-2.77-2.466-4.913v-1.75c0-.65-.527-1.176-1.177-1.176h-9.992c-.65 0-1.178.527-1.178 1.177v1.749c0 2.143-.75 3.143-2.465 4.913a11.054 11.054 0 0 0-3.129 7.729v20.833c0 1.447.524 2.772 1.39 3.8h-6.767a5.877 5.877 0 0 0 1.39-3.8V51.604c0-2.9-1.11-5.645-3.128-7.729-1.715-1.77-2.466-2.77-2.466-4.913v-1.75c0-.65-.527-1.176-1.177-1.176h-9.993c-.65 0-1.177.527-1.177 1.177v1.749c0 2.143-.752 3.143-2.466 4.913a11.054 11.054 0 0 0-3.129 7.729v20.833c0 1.447.524 2.772 1.39 3.8H32.54a5.877 5.877 0 0 0 1.39-3.8V51.604c0-2.9-1.11-5.645-3.128-7.729-1.715-1.77-2.466-2.77-2.466-4.913v-.688c.558-.092.985-.573.985-1.158V32.96a2.94 2.94 0 0 0-2.936-2.936H17.94a2.94 2.94 0 0 0-2.936 2.936v4.157c0 .584.427 1.066.985 1.158v.688c0 2.143-.752 3.143-2.466 4.913a11.054 11.054 0 0 0-3.129 7.729v20.833c0 1.447.524 2.772 1.39 3.8H8.952C4.015 76.237 0 80.253 0 85.188s4.015 8.95 8.95 8.95h82.1c4.935 0 8.95-4.015 8.95-8.95s-4.015-8.95-8.95-8.95ZM67.793 51.604c0-2.286.876-4.449 2.466-6.09 1.832-1.893 3.129-3.47 3.129-6.552v-.572h7.638v.572c0 3.082 1.296 4.66 3.129 6.551a8.71 8.71 0 0 1 2.465 6.09v20.834a3.554 3.554 0 0 1-3.55 3.55H71.343a3.554 3.554 0 0 1-3.55-3.55V51.604Zm-27.522 0c0-2.286.875-4.449 2.465-6.09 1.832-1.893 3.129-3.47 3.129-6.552v-.572h7.638v.572c0 3.082 1.297 4.66 3.129 6.551a8.713 8.713 0 0 1 2.465 6.09v20.834a3.554 3.554 0 0 1-3.55 3.55H43.82a3.554 3.554 0 0 1-3.55-3.55V51.604ZM17.357 32.959c0-.32.261-.582.582-.582h8.444c.321 0 .582.261.582.582v2.98h-9.608v-2.98Zm-4.61 18.645c0-2.286.877-4.449 2.466-6.09 1.832-1.893 3.13-3.47 3.13-6.552v-.572h7.637v.572c0 3.082 1.297 4.66 3.129 6.551a8.71 8.71 0 0 1 2.466 6.09v20.834a3.554 3.554 0 0 1-3.55 3.55H16.298a3.554 3.554 0 0 1-3.55-3.55V51.604Zm78.302 40.18H8.951a6.604 6.604 0 0 1-6.596-6.596 6.603 6.603 0 0 1 6.596-6.596h82.098a6.603 6.603 0 0 1 6.596 6.596 6.604 6.604 0 0 1-6.596 6.596ZM15.465 73.287c.221.221.52.345.833.345h11.727c.31 0 .609-.123.83-.342l.018-.018c.222-.22.347-.521.347-.835V51.604c0-.65-.527-1.178-1.177-1.178H16.28c-.65 0-1.178.528-1.178 1.178v20.833c0 .312.124.612.345.833l.018.017Zm1.992-20.506h9.409v18.497h-9.41V52.78Zm25.531 20.506c.22.221.52.345.833.345h11.727c.312 0 .611-.124.832-.345l.018-.017c.221-.221.345-.52.345-.833V51.604c0-.65-.527-1.178-1.177-1.178H43.803c-.65 0-1.177.528-1.177 1.178v20.833c0 .312.124.612.344.833l.018.017Zm1.992-20.506h9.408v18.497H44.98V52.78Zm26.363 20.851a1.18 1.18 0 0 1-.83-.342l-.017-.018a1.177 1.177 0 0 1-.348-.835V51.604c0-.65.527-1.177 1.177-1.177h11.763c.65 0 1.177.527 1.177 1.177v20.833c0 .313-.123.612-.344.833l-.018.018a1.18 1.18 0 0 1-.833.344H71.343Zm10.568-20.85h-9.409v18.496h9.409V52.78ZM10.442 85.187a3.927 3.927 0 0 1 3.923-3.923 3.927 3.927 0 0 1 3.923 3.923 3.928 3.928 0 0 1-3.923 3.923 3.928 3.928 0 0 1-3.923-3.923Zm2.355 0a1.57 1.57 0 0 0 1.568 1.568 1.57 1.57 0 0 0 1.569-1.568 1.57 1.57 0 0 0-1.569-1.569 1.57 1.57 0 0 0-1.568 1.569Zm25.114-3.923a3.927 3.927 0 0 0-3.923 3.923 3.928 3.928 0 0 0 3.923 3.923 3.928 3.928 0 0 0 3.923-3.923 3.927 3.927 0 0 0-3.923-3.923Zm0 5.491a1.57 1.57 0 0 1-1.568-1.568 1.57 1.57 0 0 1 1.568-1.569 1.57 1.57 0 0 1 1.568 1.569 1.57 1.57 0 0 1-1.568 1.568Zm19.623-1.568a3.927 3.927 0 0 1 3.923-3.923 3.927 3.927 0 0 1 3.923 3.923 3.928 3.928 0 0 1-3.923 3.923 3.928 3.928 0 0 1-3.923-3.923Zm2.354 0a1.57 1.57 0 0 0 1.569 1.568 1.57 1.57 0 0 0 1.568-1.568 1.57 1.57 0 0 0-1.568-1.569 1.57 1.57 0 0 0-1.569 1.569Zm25.114-3.923a3.927 3.927 0 0 0-3.923 3.923 3.928 3.928 0 0 0 3.923 3.923 3.928 3.928 0 0 0 3.923-3.923 3.927 3.927 0 0 0-3.923-3.923Zm0 5.491a1.57 1.57 0 0 1-1.568-1.568 1.57 1.57 0 0 1 1.568-1.569 1.57 1.57 0 0 1 1.569 1.569 1.57 1.57 0 0 1-1.569 1.568Z" fill="url(#a)"/><defs><linearGradient id="a" x1="87.333" y1="-19.151" x2="57.9" y2="122.848" gradientUnits="userSpaceOnUse"><stop stop-color="#fff" stop-opacity="0"/><stop offset="1" stop-color="#0A0B43"/></linearGradient></defs></svg>