<svg width="100" height="100" fill="none" xmlns="http://www.w3.org/2000/svg"><path fill-rule="evenodd" clip-rule="evenodd" d="M40.984 6.25c-2.254.634-4.066 2.134-4.988 4.132-.654 1.417-.806 4.225-.283 5.233.412.797 1.105 1.079 1.87.762.77-.319.969-.882.844-2.375-.09-1.062-.038-1.428.314-2.247 1.027-2.387 3.97-3.459 6.26-2.281.88.452 1.56 1.182 2.094 2.246.23.46.552.94.716 1.07.375.298 1.303.19 2.617-.303 1.814-.68 5.69-.441 7.477.462.984.496 1.426 1.023 1.726 2.057.313 1.076.643 1.354 1.61 1.354.858 0 1.267-.505 1.467-1.809.32-2.075 1.713-3.569 3.698-3.963 1.519-.302 2.791.106 4.12 1.32 1.262 1.153 1.845 1.215 2.863.301a6.591 6.591 0 0 1 5.561-1.608c2.981.52 4.862 2.464 4.872 5.04.008 2.145-.96 3.688-2.925 4.655-1.137.56-1.382.61-3.004.61-1.54 0-1.907-.066-2.859-.512-.661-.31-1.478-.914-2.071-1.53-1.168-1.216-1.534-1.269-2.8-.403-1.078.738-1.926 1.053-2.837 1.053-.92 0-1.411.396-1.98 1.6-.864 1.824-2.926 2.892-5.606 2.902-1.42.006-1.645-.047-2.839-.67-.713-.373-1.408-.678-1.545-.678-.136 0-.798.257-1.47.572-2.141 1.002-4.747 1.03-6.666.07-1.718-.858-2.574-1.968-2.785-3.61-.178-1.39-1.332-2.07-2.327-1.373-.675.472-.827 1.117-.577 2.443.657 3.485 4.793 6.345 9.175 6.345 1.159 0 3.211-.426 3.99-.829.553-.286.633-.283 1.36.057 3.011 1.406 7.292.804 10.087-1.417.53-.422 1.18-1.135 1.444-1.585.39-.666.61-.843 1.17-.948.38-.07 1.083-.297 1.565-.503l.875-.376.702.553c1.667 1.312 3.454 1.895 5.804 1.895 2.902 0 4.954-.84 6.976-2.857 1.756-1.751 2.183-2.8 2.198-5.395.01-1.719-.034-1.949-.591-3.126-2.214-4.674-9.243-6.643-13.436-3.763l-.62.426-.743-.494c-2.268-1.51-5.15-1.673-7.683-.435-.993.485-2.562 1.852-2.944 2.564-.182.34-.222.345-.537.068-.563-.497-2.148-1.223-3.414-1.564-1.477-.398-5.053-.46-6.404-.112l-.944.243-1.283-1.28c-.98-.979-1.546-1.38-2.396-1.7-1.438-.54-3.553-.664-4.898-.286Zm-6.956 22.782c-.483.482-.514.727-.883 6.977l-.223 3.786.609.543c.695.621 1.302.59 1.999-.1.374-.372.426-.692.609-3.747.11-1.837.243-3.694.297-4.128l.099-.789h8.326l.002.51c0 .281.21 3.725.463 7.654.255 3.93.463 7.457.463 7.84v.695h-1.404c-.772 0-1.556.082-1.743.182-.49.263-.778 1.205-.55 1.805.385 1.011-.238.97 14.678.976 13.033.006 13.863.026 13.957.331.626 2.05 1.966 6.844 1.966 7.035 0 .205-2.86.248-16.429.248h-16.43l-.455.455c-.287.287-.455.668-.455 1.03 0 .36.168.74.455 1.028l.456.456H73.25V87.41l-8.808.053c-8.697.053-8.814.059-9.203.448-.549.55-.558 1.621-.019 2.161l.413.413 18.41.052c10.126.029 18.597.007 18.823-.048.227-.056.582-.283.789-.505.372-.4.376-.582.376-17.608V55.172l-.57-.48-.571-.481H74.616l-.719-2.55c-.483-1.71-.857-2.687-1.139-2.968l-.419-.42H60.641c-6.434 0-11.702-.02-11.708-.046-.006-.025-.283-4.254-.616-9.397l-.606-9.352-.508-.436-.507-.436H34.454l-.426.426ZM18.766 43.816c-.933.383-.994.706-.994 5.25V53.3l.455.456c.375.374.639.455 1.49.455h1.034l-.052 8.767-.052 8.767-.44.896c-.4.81-1.063 1.363-6.963 5.795-5.582 4.193-6.619 5.047-7.201 5.931-2.165 3.286-.769 8.307 2.796 10.058l1.047.514 18.15.05c11.576.031 18.398-.017 18.833-.135.376-.1 1.139-.457 1.697-.792 3.451-2.07 4.337-7.412 1.715-10.347-.378-.423-3.485-2.873-6.904-5.442-5.727-4.305-6.26-4.753-6.773-5.693l-.556-1.02-.055-8.675-.055-8.674h1.122c1.29 0 1.77-.326 1.958-1.335.063-.337.088-2.344.056-4.459-.055-3.715-.072-3.86-.48-4.267l-.422-.422-9.505-.038c-5.227-.02-9.683.037-9.902.126Zm1.974 5.2v2.226h15.215V46.79H20.74v2.227Zm3.111 13.962c-.067 9.781-.054 9.67-1.393 11.734-.58.894-1.33 1.55-4.484 3.924l-3.787 2.85h14.17c11.994 0 14.13-.038 13.9-.253-.15-.14-1.782-1.384-3.629-2.766-3.543-2.65-4.396-3.541-5.151-5.382-.385-.937-.4-1.261-.453-9.921l-.054-8.953h-9.06l-.06 8.767Zm51.811-5.425c0 .104.167.79.371 1.527.356 1.283.371 1.91.371 14.842v13.502h14.659V57.365h-7.7c-5.075 0-7.7.064-7.7.188ZM56.23 66.398c-.228.046-.583.298-.789.56-.363.462-.375.731-.375 8.532v8.054l.456.456.455.455h6.58c3.62 0 6.716-.052 6.881-.115.802-.308.843-.756.843-9.05v-7.884l-.447-.521-.448-.52-6.371-.026c-3.504-.014-6.558.012-6.785.059Zm1.805 5.255v2.226h9.278v-4.453h-9.278v2.227Zm.127 5.315c-.07.07-.127 1.115-.127 2.323v2.195h9.289l-.052-2.273-.052-2.272-4.466-.05c-2.456-.027-4.522.007-4.592.077Zm-48.574 7.96c-2.515 1.79-1.836 6.103 1.095 6.953.474.138 6.061.182 18.036.144 17.18-.055 17.356-.059 18.09-.443.409-.213.99-.738 1.294-1.167.45-.639.564-1.01.622-2.041.085-1.507-.307-2.447-1.396-3.344l-.697-.575h-36.38l-.664.473Z" fill="#06CAC6"/><path fill-rule="evenodd" clip-rule="evenodd" d="M40.984 6.25c-2.254.634-4.066 2.134-4.988 4.132-.654 1.417-.806 4.225-.283 5.233.412.797 1.105 1.079 1.87.762.77-.319.969-.882.844-2.375-.09-1.062-.038-1.428.314-2.247 1.027-2.387 3.97-3.459 6.26-2.281.88.452 1.56 1.182 2.094 2.246.23.46.552.94.716 1.07.375.298 1.303.19 2.617-.303 1.814-.68 5.69-.441 7.477.462.984.496 1.426 1.023 1.726 2.057.313 1.076.643 1.354 1.61 1.354.858 0 1.267-.505 1.467-1.809.32-2.075 1.713-3.569 3.698-3.963 1.519-.302 2.791.106 4.12 1.32 1.262 1.153 1.845 1.215 2.863.301a6.591 6.591 0 0 1 5.561-1.608c2.981.52 4.862 2.464 4.872 5.04.008 2.145-.96 3.688-2.925 4.655-1.137.56-1.382.61-3.004.61-1.54 0-1.907-.066-2.859-.512-.661-.31-1.478-.914-2.071-1.53-1.168-1.216-1.534-1.269-2.8-.403-1.078.738-1.926 1.053-2.837 1.053-.92 0-1.411.396-1.98 1.6-.864 1.824-2.926 2.892-5.606 2.902-1.42.006-1.645-.047-2.839-.67-.713-.373-1.408-.678-1.545-.678-.136 0-.798.257-1.47.572-2.141 1.002-4.747 1.03-6.666.07-1.718-.858-2.574-1.968-2.785-3.61-.178-1.39-1.332-2.07-2.327-1.373-.675.472-.827 1.117-.577 2.443.657 3.485 4.793 6.345 9.175 6.345 1.159 0 3.211-.426 3.99-.829.553-.286.633-.283 1.36.057 3.011 1.406 7.292.804 10.087-1.417.53-.422 1.18-1.135 1.444-1.585.39-.666.61-.843 1.17-.948.38-.07 1.083-.297 1.565-.503l.875-.376.702.553c1.667 1.312 3.454 1.895 5.804 1.895 2.902 0 4.954-.84 6.976-2.857 1.756-1.751 2.183-2.8 2.198-5.395.01-1.719-.034-1.949-.591-3.126-2.214-4.674-9.243-6.643-13.436-3.763l-.62.426-.743-.494c-2.268-1.51-5.15-1.673-7.683-.435-.993.485-2.562 1.852-2.944 2.564-.182.34-.222.345-.537.068-.563-.497-2.148-1.223-3.414-1.564-1.477-.398-5.053-.46-6.404-.112l-.944.243-1.283-1.28c-.98-.979-1.546-1.38-2.396-1.7-1.438-.54-3.553-.664-4.898-.286Zm-6.956 22.782c-.483.482-.514.727-.883 6.977l-.223 3.786.609.543c.695.621 1.302.59 1.999-.1.374-.372.426-.692.609-3.747.11-1.837.243-3.694.297-4.128l.099-.789h8.326l.002.51c0 .281.21 3.725.463 7.654.255 3.93.463 7.457.463 7.84v.695h-1.404c-.772 0-1.556.082-1.743.182-.49.263-.778 1.205-.55 1.805.385 1.011-.238.97 14.678.976 13.033.006 13.863.026 13.957.331.626 2.05 1.966 6.844 1.966 7.035 0 .205-2.86.248-16.429.248h-16.43l-.455.455c-.287.287-.455.668-.455 1.03 0 .36.168.74.455 1.028l.456.456H73.25V87.41l-8.808.053c-8.697.053-8.814.059-9.203.448-.549.55-.558 1.621-.019 2.161l.413.413 18.41.052c10.126.029 18.597.007 18.823-.048.227-.056.582-.283.789-.505.372-.4.376-.582.376-17.608V55.172l-.57-.48-.571-.481H74.616l-.719-2.55c-.483-1.71-.857-2.687-1.139-2.968l-.419-.42H60.641c-6.434 0-11.702-.02-11.708-.046-.006-.025-.283-4.254-.616-9.397l-.606-9.352-.508-.436-.507-.436H34.454l-.426.426ZM18.766 43.816c-.933.383-.994.706-.994 5.25V53.3l.455.456c.375.374.639.455 1.49.455h1.034l-.052 8.767-.052 8.767-.44.896c-.4.81-1.063 1.363-6.963 5.795-5.582 4.193-6.619 5.047-7.201 5.931-2.165 3.286-.769 8.307 2.796 10.058l1.047.514 18.15.05c11.576.031 18.398-.017 18.833-.135.376-.1 1.139-.457 1.697-.792 3.451-2.07 4.337-7.412 1.715-10.347-.378-.423-3.485-2.873-6.904-5.442-5.727-4.305-6.26-4.753-6.773-5.693l-.556-1.02-.055-8.675-.055-8.674h1.122c1.29 0 1.77-.326 1.958-1.335.063-.337.088-2.344.056-4.459-.055-3.715-.072-3.86-.48-4.267l-.422-.422-9.505-.038c-5.227-.02-9.683.037-9.902.126Zm1.974 5.2v2.226h15.215V46.79H20.74v2.227Zm3.111 13.962c-.067 9.781-.054 9.67-1.393 11.734-.58.894-1.33 1.55-4.484 3.924l-3.787 2.85h14.17c11.994 0 14.13-.038 13.9-.253-.15-.14-1.782-1.384-3.629-2.766-3.543-2.65-4.396-3.541-5.151-5.382-.385-.937-.4-1.261-.453-9.921l-.054-8.953h-9.06l-.06 8.767Zm51.811-5.425c0 .104.167.79.371 1.527.356 1.283.371 1.91.371 14.842v13.502h14.659V57.365h-7.7c-5.075 0-7.7.064-7.7.188ZM56.23 66.398c-.228.046-.583.298-.789.56-.363.462-.375.731-.375 8.532v8.054l.456.456.455.455h6.58c3.62 0 6.716-.052 6.881-.115.802-.308.843-.756.843-9.05v-7.884l-.447-.521-.448-.52-6.371-.026c-3.504-.014-6.558.012-6.785.059Zm1.805 5.255v2.226h9.278v-4.453h-9.278v2.227Zm.127 5.315c-.07.07-.127 1.115-.127 2.323v2.195h9.289l-.052-2.273-.052-2.272-4.466-.05c-2.456-.027-4.522.007-4.592.077Zm-48.574 7.96c-2.515 1.79-1.836 6.103 1.095 6.953.474.138 6.061.182 18.036.144 17.18-.055 17.356-.059 18.09-.443.409-.213.99-.738 1.294-1.167.45-.639.564-1.01.622-2.041.085-1.507-.307-2.447-1.396-3.344l-.697-.575h-36.38l-.664.473Z" fill="url(#a)"/><defs><linearGradient id="a" x1="82.756" y1="-19.174" x2="49.559" y2="122.29" gradientUnits="userSpaceOnUse"><stop stop-color="#fff" stop-opacity="0"/><stop offset="1" stop-color="#0A0B43"/></linearGradient></defs></svg>