<svg width="100" height="100" fill="none" xmlns="http://www.w3.org/2000/svg"><path fill-rule="evenodd" clip-rule="evenodd" d="M42.628 5.273c-.844.377-1.6 1.27-1.848 2.182-.118.434-.21 2.206-.206 3.94.007 3.273.182 4.247.905 5.062.516.582 1.81 1.132 2.673 1.137l.737.004v4.866l-1.032-.273c-.611-.162-1.4-.225-1.934-.154-1.89.25-3.801 1.865-4.34 3.668l-.227.756H29.57l-.056-7.337-.056-7.336-.518-1.107c-.729-1.557-1.768-2.624-3.283-3.371-1.165-.575-1.479-.642-2.977-.638-1.391.003-1.859.091-2.756.517-1.6.758-2.643 1.769-3.383 3.273l-.647 1.317-.058 7.321-.058 7.321-3.289.07c-3.26.068-3.3.074-4.602.716-1.488.735-2.45 1.737-3.245 3.382-.45.93-.529 1.353-.535 2.867-.008 1.615.05 1.894.632 3.08.746 1.519 1.811 2.56 3.366 3.29 1.02.48 1.341.524 4.2.586l3.097.066v37.386l-1.327.003c-4.769.01-8.613 2.927-9.782 7.422-.204.785-.293 2.143-.292 4.482 0 2.981.044 3.427.385 3.986.819 1.347-3.064 1.241 45.615 1.241s44.796.106 45.615-1.24c.341-.56.384-1.006.385-3.987 0-2.38-.087-3.692-.3-4.514-.683-2.627-2.47-4.95-4.736-6.157-2.427-1.293-.753-1.23-32.658-1.233l-28.947-.003v-37.42h7.8l.227.756c.528 1.765 2.411 3.387 4.253 3.664.746.112 2.056-.065 2.908-.392.284-.11.32.548.379 6.739l.065 6.86.648 1.87c2.409 6.947 8.855 11.376 15.956 10.964 2.5-.145 3.912-.502 6.034-1.522 4.012-1.93 6.987-5.396 8.44-9.835l.549-1.674.074-6.76c.07-6.22.102-6.75.403-6.625 2.987 1.24 6.14-.383 7.186-3.7.096-.303.392-.345 2.431-.345 1.292 0 2.768-.116 3.327-.261 2.066-.537 3.958-2.263 4.709-4.297.471-1.277.422-3.555-.107-4.935-.597-1.556-1.907-2.953-3.514-3.746-1.243-.613-1.449-.651-4.036-.744l-2.726-.099-.255-.745c-.997-2.91-4.104-4.319-7.03-3.186-.317.122-.344-.065-.344-2.322v-2.456l1.084-.112c1.399-.145 2.322-.726 2.833-1.785.368-.762.407-1.199.404-4.572-.003-3.502-.03-3.776-.446-4.513-.249-.439-.787-.978-1.226-1.227L78.603 5l-17.693.005c-14.35.003-17.804.054-18.282.268Zm.972 2.73c-.053.14-.073 1.714-.043 3.497l.054 3.242h34.795V7.85L61.052 7.8c-14.051-.04-17.373-.002-17.452.204ZM21.104 9.586c-.94.3-2.218 1.632-2.512 2.619-.171.572-.242 2.784-.242 7.533v6.723h8.453v-6.93c0-6.626-.018-6.966-.41-7.78-.942-1.947-3.145-2.85-5.289-2.165Zm26.537 16.57v8.36l.65.496c2.246 1.716 4.196 1.62 11.047-.546 4.56-1.443 5.471-1.6 9.24-1.603 1.837 0 3.761.07 4.275.158l.934.16V17.795H47.64v8.36Zm6.885-5.821c-2.18.778-3.77 3.281-3.471 5.465.263 1.924 1.75 3.817 3.535 4.5.669.256 1.247.324 2.15.251 2.725-.22 4.594-2.083 4.811-4.8.312-3.894-3.36-6.725-7.025-5.416Zm.169 3.345c-.61.61-.763.91-.763 1.487 0 1.455 1.014 2.53 2.386 2.53 2.462 0 3.31-3.368 1.133-4.496-1.019-.528-1.905-.374-2.756.48Zm23.44 1.338c-1.391.701-1.398.743-1.398 8.336 0 6.392.023 6.832.384 7.425.733 1.205 2.135 1.56 3.312.841 1.169-.713 1.217-1.042 1.217-8.28 0-5.549-.047-6.623-.312-7.183-.578-1.22-2.022-1.733-3.203-1.139Zm-36.999.316c-1.156.78-1.156.78-1.158 8.315-.001 6.485.021 6.928.379 7.471a2.4 2.4 0 0 0 4.26-.407c.363-.868.375-13.198.015-14.245-.285-.829-1.334-1.583-2.2-1.583-.347 0-.93.202-1.296.45ZM9.195 29.591c-2.824 1.285-3.265 5.236-.804 7.198l.756.602 13.939.053 13.94.053v-8.28l-13.516.005c-12.722.004-13.562.026-14.315.369Zm75.404 4.075v4.25l2.31-.066c1.755-.05 2.486-.154 3.044-.431 2.642-1.314 3.27-4.692 1.25-6.716-1.027-1.028-1.96-1.288-4.627-1.288h-1.977v4.25Zm-18.362 1.882c-1.716.22-3 .55-6.8 1.748-4.73 1.49-5.411 1.638-7.57 1.646-1.579.005-2.178-.079-3.046-.427-.595-.24-1.11-.434-1.143-.434-.033 0-.029 4.276.01 9.502.08 10.565.077 10.533 1.462 13.306.784 1.569 2.723 3.82 4.123 4.784 2.385 1.644 4.616 2.336 7.547 2.34 2.281.004 3.696-.335 5.887-1.41 3.206-1.572 5.872-4.924 6.783-8.524.246-.974.297-2.948.297-11.564V36.126l-.836-.227c-2.008-.548-4.269-.666-6.714-.351ZM18.35 59.154v18.71h8.256v-37.42H18.35v18.71ZM62.429 45.18c-2.645.528-4.527 2.655-4.718 5.328-.125 1.746.31 3.023 1.471 4.316 1.191 1.327 2.171 1.808 3.915 1.922 1.832.12 3.096-.297 4.366-1.442 2.478-2.23 2.556-6.18.17-8.52-1.381-1.353-3.379-1.97-5.204-1.604Zm-.2 3.064c-1.834.937-2.256 3.27-.861 4.767 1.185 1.271 3.09 1.249 4.349-.052.546-.564.68-.872.748-1.727.091-1.144-.331-2.008-1.355-2.767-.715-.531-2.07-.635-2.88-.22ZM11.06 81.278c-1.44.596-2.391 1.342-3.127 2.454-.958 1.45-1.182 2.525-1.182 5.689v2.82H93.1l-.082-3.102c-.074-2.834-.126-3.199-.595-4.22-.685-1.488-1.918-2.79-3.274-3.457l-1.109-.546-37.94-.045-37.941-.046-1.098.453Z" fill="#06CAC6"/><path fill-rule="evenodd" clip-rule="evenodd" d="M42.628 5.273c-.844.377-1.6 1.27-1.848 2.182-.118.434-.21 2.206-.206 3.94.007 3.273.182 4.247.905 5.062.516.582 1.81 1.132 2.673 1.137l.737.004v4.866l-1.032-.273c-.611-.162-1.4-.225-1.934-.154-1.89.25-3.801 1.865-4.34 3.668l-.227.756H29.57l-.056-7.337-.056-7.336-.518-1.107c-.729-1.557-1.768-2.624-3.283-3.371-1.165-.575-1.479-.642-2.977-.638-1.391.003-1.859.091-2.756.517-1.6.758-2.643 1.769-3.383 3.273l-.647 1.317-.058 7.321-.058 7.321-3.289.07c-3.26.068-3.3.074-4.602.716-1.488.735-2.45 1.737-3.245 3.382-.45.93-.529 1.353-.535 2.867-.008 1.615.05 1.894.632 3.08.746 1.519 1.811 2.56 3.366 3.29 1.02.48 1.341.524 4.2.586l3.097.066v37.386l-1.327.003c-4.769.01-8.613 2.927-9.782 7.422-.204.785-.293 2.143-.292 4.482 0 2.981.044 3.427.385 3.986.819 1.347-3.064 1.241 45.615 1.241s44.796.106 45.615-1.24c.341-.56.384-1.006.385-3.987 0-2.38-.087-3.692-.3-4.514-.683-2.627-2.47-4.95-4.736-6.157-2.427-1.293-.753-1.23-32.658-1.233l-28.947-.003v-37.42h7.8l.227.756c.528 1.765 2.411 3.387 4.253 3.664.746.112 2.056-.065 2.908-.392.284-.11.32.548.379 6.739l.065 6.86.648 1.87c2.409 6.947 8.855 11.376 15.956 10.964 2.5-.145 3.912-.502 6.034-1.522 4.012-1.93 6.987-5.396 8.44-9.835l.549-1.674.074-6.76c.07-6.22.102-6.75.403-6.625 2.987 1.24 6.14-.383 7.186-3.7.096-.303.392-.345 2.431-.345 1.292 0 2.768-.116 3.327-.261 2.066-.537 3.958-2.263 4.709-4.297.471-1.277.422-3.555-.107-4.935-.597-1.556-1.907-2.953-3.514-3.746-1.243-.613-1.449-.651-4.036-.744l-2.726-.099-.255-.745c-.997-2.91-4.104-4.319-7.03-3.186-.317.122-.344-.065-.344-2.322v-2.456l1.084-.112c1.399-.145 2.322-.726 2.833-1.785.368-.762.407-1.199.404-4.572-.003-3.502-.03-3.776-.446-4.513-.249-.439-.787-.978-1.226-1.227L78.603 5l-17.693.005c-14.35.003-17.804.054-18.282.268Zm.972 2.73c-.053.14-.073 1.714-.043 3.497l.054 3.242h34.795V7.85L61.052 7.8c-14.051-.04-17.373-.002-17.452.204ZM21.104 9.586c-.94.3-2.218 1.632-2.512 2.619-.171.572-.242 2.784-.242 7.533v6.723h8.453v-6.93c0-6.626-.018-6.966-.41-7.78-.942-1.947-3.145-2.85-5.289-2.165Zm26.537 16.57v8.36l.65.496c2.246 1.716 4.196 1.62 11.047-.546 4.56-1.443 5.471-1.6 9.24-1.603 1.837 0 3.761.07 4.275.158l.934.16V17.795H47.64v8.36Zm6.885-5.821c-2.18.778-3.77 3.281-3.471 5.465.263 1.924 1.75 3.817 3.535 4.5.669.256 1.247.324 2.15.251 2.725-.22 4.594-2.083 4.811-4.8.312-3.894-3.36-6.725-7.025-5.416Zm.169 3.345c-.61.61-.763.91-.763 1.487 0 1.455 1.014 2.53 2.386 2.53 2.462 0 3.31-3.368 1.133-4.496-1.019-.528-1.905-.374-2.756.48Zm23.44 1.338c-1.391.701-1.398.743-1.398 8.336 0 6.392.023 6.832.384 7.425.733 1.205 2.135 1.56 3.312.841 1.169-.713 1.217-1.042 1.217-8.28 0-5.549-.047-6.623-.312-7.183-.578-1.22-2.022-1.733-3.203-1.139Zm-36.999.316c-1.156.78-1.156.78-1.158 8.315-.001 6.485.021 6.928.379 7.471a2.4 2.4 0 0 0 4.26-.407c.363-.868.375-13.198.015-14.245-.285-.829-1.334-1.583-2.2-1.583-.347 0-.93.202-1.296.45ZM9.195 29.591c-2.824 1.285-3.265 5.236-.804 7.198l.756.602 13.939.053 13.94.053v-8.28l-13.516.005c-12.722.004-13.562.026-14.315.369Zm75.404 4.075v4.25l2.31-.066c1.755-.05 2.486-.154 3.044-.431 2.642-1.314 3.27-4.692 1.25-6.716-1.027-1.028-1.96-1.288-4.627-1.288h-1.977v4.25Zm-18.362 1.882c-1.716.22-3 .55-6.8 1.748-4.73 1.49-5.411 1.638-7.57 1.646-1.579.005-2.178-.079-3.046-.427-.595-.24-1.11-.434-1.143-.434-.033 0-.029 4.276.01 9.502.08 10.565.077 10.533 1.462 13.306.784 1.569 2.723 3.82 4.123 4.784 2.385 1.644 4.616 2.336 7.547 2.34 2.281.004 3.696-.335 5.887-1.41 3.206-1.572 5.872-4.924 6.783-8.524.246-.974.297-2.948.297-11.564V36.126l-.836-.227c-2.008-.548-4.269-.666-6.714-.351ZM18.35 59.154v18.71h8.256v-37.42H18.35v18.71ZM62.429 45.18c-2.645.528-4.527 2.655-4.718 5.328-.125 1.746.31 3.023 1.471 4.316 1.191 1.327 2.171 1.808 3.915 1.922 1.832.12 3.096-.297 4.366-1.442 2.478-2.23 2.556-6.18.17-8.52-1.381-1.353-3.379-1.97-5.204-1.604Zm-.2 3.064c-1.834.937-2.256 3.27-.861 4.767 1.185 1.271 3.09 1.249 4.349-.052.546-.564.68-.872.748-1.727.091-1.144-.331-2.008-1.355-2.767-.715-.531-2.07-.635-2.88-.22ZM11.06 81.278c-1.44.596-2.391 1.342-3.127 2.454-.958 1.45-1.182 2.525-1.182 5.689v2.82H93.1l-.082-3.102c-.074-2.834-.126-3.199-.595-4.22-.685-1.488-1.918-2.79-3.274-3.457l-1.109-.546-37.94-.045-37.941-.046-1.098.453Z" fill="url(#a)"/><defs><linearGradient id="a" x1="84.347" y1="-20.5" x2="51.403" y2="122.922" gradientUnits="userSpaceOnUse"><stop stop-color="#fff" stop-opacity="0"/><stop offset="1" stop-color="#0A0B43"/></linearGradient></defs></svg>