<svg width="176" height="110" viewBox="0 0 176 110" fill="none" xmlns="http://www.w3.org/2000/svg">
<g opacity="0.8">
<g filter="url(#filter0_b_1_663)">
<mask id="path-1-inside-1_1_663" fill="white">
<path fill-rule="evenodd" clip-rule="evenodd" d="M42.9194 10.5195C42.4355 11.0033 42.3996 11.1329 42.3996 12.3994C42.3996 13.6659 42.4355 13.7955 42.9194 14.2792C43.6184 14.9777 44.382 14.9777 45.0809 14.2792C45.5648 13.7955 45.6008 13.6659 45.6008 12.3994C45.6008 11.1329 45.5648 11.0033 45.0809 10.5195C44.7261 10.1649 44.3829 10 44.0002 10C43.6175 10 43.2742 10.1649 42.9194 10.5195ZM27.625 11.9414C27.32 12.2462 27.1052 12.6498 27.1052 12.9178C27.1052 13.6296 29.0429 18.2123 29.5352 18.6644C30.4964 19.5476 32.0847 18.8571 32.0847 17.5563C32.0847 16.6875 30.2539 12.3352 29.6723 11.8217C29.0328 11.2571 28.2649 11.3019 27.625 11.9414ZM58.3281 11.8217C57.7465 12.3352 55.9156 16.6875 55.9156 17.5563C55.9156 18.8571 57.5039 19.5476 58.4652 18.6644C58.9574 18.2123 60.8952 13.6296 60.8952 12.9178C60.8952 12.6498 60.6804 12.2462 60.3754 11.9414C59.7355 11.3019 58.9676 11.2571 58.3281 11.8217ZM15.4723 21.5662C14.7302 22.4476 14.8472 23.0059 16.0345 24.25C16.5968 24.8393 17.2829 25.4383 17.5591 25.5812C18.6091 26.124 19.8136 25.3194 19.8136 24.0751C19.8136 23.5352 19.6422 23.275 18.5993 22.2329C17.4955 21.1296 17.3192 21.0194 16.6589 21.0194C16.0663 21.0194 15.8479 21.12 15.4723 21.5662ZM69.401 22.2329C68.297 23.3361 68.1867 23.5122 68.1867 24.1721C68.1867 24.7702 68.2867 24.9819 68.755 25.3756C69.6566 26.1339 70.3191 25.9258 71.788 24.4226C73.1676 23.011 73.3033 22.4869 72.5281 21.5662C72.1525 21.12 71.9341 21.0194 71.3415 21.0194C70.6812 21.0194 70.5049 21.1296 69.401 22.2329ZM36.1035 26.3401C33.7019 27.1292 31.8404 29.0393 31.0289 31.5471C30.6083 32.8469 29.3502 33.3115 28.4189 32.511C27.9005 32.0652 27.7861 31.3541 28.074 30.3672L28.2247 29.8508L27.2243 29.9539C25.3662 30.1457 23.7029 31.4078 23.1154 33.0719L22.8649 33.7817L23.5177 33.9038C24.6531 34.1162 25.9661 34.8574 26.8163 35.7659C27.501 36.4975 27.6387 36.7596 27.6387 37.3321C27.6387 38.2302 27.0715 38.7925 26.166 38.7925C25.6492 38.7925 25.3342 38.6308 24.6244 38.0007C23.4871 36.9914 22.5659 36.6935 21.4789 36.9841C20.3701 37.2806 19.8732 37.6501 19.3235 38.5874C18.9687 39.1928 18.8513 39.627 18.8611 40.2997C18.8775 41.4377 19.2348 42.1289 20.2588 43.0037C21.3641 43.9478 21.5177 44.7593 20.7384 45.5381C20.0315 46.2446 19.3799 46.242 18.3946 45.5285C17.4878 44.8722 17.4567 44.9006 17.037 46.7744C16.549 48.9529 16.8911 51.303 18.0174 53.5094C18.2275 53.9209 18.9182 54.8072 19.5526 55.4792C21.5369 57.5814 24.0546 58.6062 26.956 58.4923C27.8044 58.4591 28.5437 58.3869 28.5987 58.3318C28.6536 58.2767 28.6383 57.8798 28.5649 57.4497C28.4484 56.7674 28.3638 56.6537 27.9017 56.5584C25.6022 56.0842 23.7025 53.8334 23.6575 51.53C23.6394 50.6024 23.6897 50.4483 24.1363 50.0637C24.862 49.4388 25.7027 49.4845 26.289 50.181C26.5423 50.4818 26.7495 50.9295 26.7495 51.1761C26.7495 52.2079 27.5453 53.2025 28.5782 53.4616C28.9764 53.5615 29.0534 53.4883 29.3405 52.737C29.7748 51.6006 30.6455 50.7005 31.3104 50.7005C31.9731 50.7005 32.5117 51.0807 32.7858 51.742C32.9791 52.2082 32.9386 52.4057 32.4106 53.5709C31.8667 54.7713 31.8187 55.0214 31.8183 56.6545C31.818 58.2113 31.877 58.5579 32.2946 59.4481C34.4084 63.9552 40.2614 64.8547 43.7222 61.2045C44.3495 60.543 44.8553 60.5081 46.4742 61.0152C48.1405 61.5372 50.3458 61.6458 52.1948 61.2969C54.2396 60.911 54.6074 60.9295 55.1233 61.4453C55.649 61.9705 55.7075 62.9217 55.2487 63.4832C54.946 63.8537 53.3883 64.3795 52.5811 64.3837C51.9704 64.3869 52.1 64.7993 52.9609 65.5923C53.9128 66.4692 54.3202 66.6841 56.9553 67.6995C59.3384 68.6178 60.3051 69.1896 61.4287 70.3452C61.8689 70.7979 62.4588 71.2888 62.7396 71.4363C63.8413 72.0145 65.1634 71.2067 65.1634 69.9551C65.1634 69.3387 64.4103 67.3152 64.0352 66.9237C63.8719 66.7533 63.5852 66.782 62.701 67.057C61.1392 67.5427 60.2783 67.5179 59.7312 66.971C59.2055 66.4458 59.1468 65.493 59.6059 64.9368C59.7937 64.7093 60.4401 64.4159 61.2352 64.1977C62.9125 63.7368 64.1529 63.1282 65.3855 62.1616C66.4988 61.2882 67.4443 60.1294 66.8439 60.3741C66.2195 60.6286 63.327 60.7036 62.3064 60.492C61.1798 60.2581 59.3087 59.4192 58.4424 58.7594C57.9306 58.3697 57.7874 58.3377 57.3044 58.506C54.8391 59.3648 51.2012 57.4476 50.8179 55.0877C50.7292 54.5411 50.7922 54.3716 51.2561 53.9079C52.1294 53.0352 52.7424 53.1472 53.8891 54.3885L54.8333 55.4104H55.9046C56.8772 55.4104 57.0293 55.3569 57.5573 54.8296C58.0876 54.2998 58.1365 54.1592 58.1136 53.23C58.0999 52.6696 58.0314 51.9137 57.9613 51.5499C57.8489 50.9655 57.8968 50.826 58.3729 50.3502C60.3841 48.3403 62.3256 52.2201 60.9094 55.4195C60.4497 56.4583 60.5317 56.5795 62.0576 57.1174C63.6649 57.684 65.7814 57.5464 67.353 56.7731C69.188 55.8702 70.5542 54.1263 71.0253 52.0852C71.2543 51.0931 71.2533 50.386 71.021 49.3041L70.832 48.4233L70.0873 48.8489C69.1784 49.3683 68.5554 49.391 67.9639 48.9261C66.995 48.1643 67.1992 46.9511 68.4267 46.1757C69.5035 45.4953 70.0189 44.6529 70.1076 43.4274C70.2213 41.8564 69.5414 40.7168 68.1416 40.1323C67.1978 39.7382 66.2403 39.7944 65.2379 40.3025C63.565 41.1507 62.3179 40.6779 62.3179 39.1953C62.3179 38.4401 63.0218 37.7164 64.1904 37.2704C64.6278 37.1035 64.9856 36.9397 64.9856 36.9063C64.9856 36.8728 64.7898 36.326 64.5506 35.6907C63.7176 33.4787 61.9765 31.4334 59.9486 30.284C58.8776 29.6772 56.8363 29.0173 56.0303 29.0175C55.5558 29.0175 55.4671 29.0864 55.4447 29.4721C55.3869 30.4718 54.2974 31.1182 53.3428 30.7196C52.6654 30.4368 52.3605 29.9838 52.3549 29.2512C52.3495 28.56 51.7932 27.4232 51.1807 26.8514C49.2935 25.0898 46.0228 26.2281 45.6678 28.7702C45.5021 29.9571 45.2223 30.4669 44.592 30.7299C44.0866 30.941 43.9138 30.941 43.4083 30.7299C42.435 30.3236 42.2207 29.3619 42.6866 27.4916C42.7645 27.1792 42.6039 27.042 41.6557 26.612C40.1575 25.9329 37.7081 25.813 36.1035 26.3401ZM6.02427 33.51C5.37674 34.0666 5.34242 35.0792 5.95099 35.6724C6.41303 36.1228 10.9164 38.0816 11.4897 38.0816C12.5763 38.0816 13.3668 36.9569 13.0128 35.9147C12.7851 35.2446 12.6957 35.1899 10.0312 34.0889C7.39685 33.0001 6.72959 32.9037 6.02427 33.51ZM77.7902 34.15C75.63 35.0653 75.3581 35.2302 75.0772 35.7958C74.8256 36.3027 74.8023 36.5305 74.9572 36.9745C75.1765 37.6033 75.8066 38.0816 76.4155 38.0816C77.0609 38.0816 81.5608 36.1626 82.0494 35.679C82.6163 35.1179 82.6142 34.1406 82.0446 33.5347C81.4072 32.8566 80.5502 32.9805 77.7902 34.15ZM36.6795 35.9344C35.3851 36.348 34.6843 36.7911 33.6503 37.8489C32.5635 38.9608 31.7536 40.6973 31.6113 42.2204C31.5046 43.362 31.5162 43.4059 32.0684 43.9576C32.5598 44.4488 32.7205 44.5098 33.2829 44.4186C34.2148 44.2675 34.5689 43.822 34.7447 42.5789C34.9336 41.2431 35.2452 40.6308 36.1525 39.8116C36.8463 39.1853 37.5048 38.9192 38.9071 38.699C40.4707 38.4536 40.9664 36.7564 39.7474 35.8212C39.3384 35.5073 37.8431 35.5624 36.6795 35.9344ZM52.546 42.3377C52.3556 42.5281 52.1073 43.0266 51.9944 43.4457C51.3926 45.6794 49.7625 47.4313 47.7043 48.0561C45.3872 48.7594 43.1556 48.2686 41.2772 46.6424C40.5998 46.0559 40.2824 45.9018 39.7521 45.9018C38.8653 45.9018 38.2381 46.5407 38.2381 47.4441C38.2381 48.0011 38.3795 48.2198 39.2843 49.0615C40.2715 49.9798 42.486 51.2337 43.1208 51.2337C43.9337 51.2337 43.6116 51.8784 42.4154 52.6455C41.7857 53.0493 41.1823 53.2606 40.3203 53.3791C39.3692 53.5098 39.0236 53.6429 38.7094 53.9991C38.1488 54.6346 38.175 55.559 38.7702 56.1539C39.2066 56.59 39.3019 56.6092 40.5637 56.5138C43.1465 56.3186 45.798 54.5545 46.8263 52.347C47.2045 51.535 47.326 51.4216 47.9273 51.3201C49.0671 51.1276 51.0728 50.0483 52.1262 49.0603C53.4006 47.865 54.4024 46.326 54.8512 44.874C55.3065 43.4007 55.2971 43.1956 54.7438 42.5386C54.3743 42.0996 54.1463 41.9917 53.5878 41.9917C53.1358 41.9917 52.7712 42.1127 52.546 42.3377ZM14.3066 55.9091C13.9674 56.0259 13.5852 56.3213 13.4574 56.5657C13.2653 56.9322 7.72035 89.6243 7.72035 90.3898C7.72035 90.5709 8.23218 90.4827 9.80466 90.0309C20.1389 87.0623 31.4365 87.1954 41.5549 90.4052L42.3996 90.6731V80.5422C42.3996 69.8421 42.4172 69.5982 43.2079 69.295C43.578 69.1532 44.4224 69.1532 44.7925 69.295C45.5832 69.5982 45.6008 69.8421 45.6008 80.5422V90.6731L46.4455 90.4097C56.7901 87.1833 67.9433 87.0582 78.2464 90.053C79.8176 90.5096 80.28 90.5878 80.28 90.3969C80.28 90.0267 74.7939 57.0946 74.6293 56.4768C74.5064 56.0156 74.3856 55.9299 73.7345 55.8423C73.0406 55.749 72.947 55.7865 72.5369 56.324C72.2922 56.6444 71.9245 57.4499 71.7196 58.1137C70.9819 60.5039 69.5424 62.747 67.7235 64.3416L66.7503 65.1947L67.3674 66.5298C68.1764 68.2796 68.4354 69.3606 68.3064 70.4494C68.0105 72.9467 65.9598 74.7659 63.4618 74.7474C61.9977 74.7366 60.9969 74.259 59.5057 72.8594C58.1376 71.5751 57.771 71.3556 55.7525 70.6118C53.8888 69.9251 52.2867 69.1126 51.2339 68.32C50.2924 67.6112 49.0756 65.938 48.8912 65.098C48.8092 64.7253 48.668 64.5636 48.4245 64.5636C48.2327 64.5636 47.4905 64.4427 46.7754 64.2952L45.4754 64.0269L44.3048 64.8114C42.0683 66.3102 39.5365 66.9214 37.1088 66.5483C34.4607 66.1417 31.6666 64.3777 30.2779 62.2359L29.7104 61.3605L28.8078 61.4958C27.5035 61.6913 24.6579 61.6269 23.7262 61.381C20.6925 60.5797 18.0041 58.8236 16.3368 56.5536C15.6457 55.6127 15.3974 55.5338 14.3066 55.9091ZM7.52259 60.2092C7.26703 60.3478 6.96825 60.6846 6.85852 60.9574C6.47385 61.9134 -0.112361 96.1961 0.00145816 96.6497C0.0628138 96.8941 0.314994 97.2529 0.561661 97.4468C1.002 97.7928 1.32425 97.7994 17.7924 97.7994C33.6517 97.7994 34.5753 97.7823 34.5877 97.4884C34.595 97.3174 34.7029 96.0576 34.8278 94.6891C34.9525 93.3206 35.003 92.1413 34.9402 92.0688C34.7412 91.8386 31.3976 91.4046 28.1423 91.1866C21.9129 90.7691 16.6733 91.4228 8.62201 93.622C7.53824 93.9181 6.58945 93.7658 5.73652 93.1588C5.14786 92.7399 4.51919 91.4798 4.51919 90.7189C4.51919 90.4056 5.63959 83.4344 7.00898 75.2275C8.37837 67.0206 9.49877 60.2241 9.49877 60.1242C9.49877 59.8555 8.05985 59.9173 7.52259 60.2092ZM78.5016 60.1242C78.5016 60.2241 79.6279 67.0424 81.0045 75.2758C82.6071 84.8609 83.4785 90.5186 83.4269 91.0044C83.2612 92.565 81.916 93.7788 80.3689 93.7637C79.9777 93.7599 78.8573 93.5163 77.8792 93.2223C70.8033 91.0956 62.1479 90.514 54.8694 91.676C53.9517 91.8227 53.1486 91.9746 53.0849 92.0141C53.0212 92.0534 53.0661 93.1912 53.1843 94.5425C53.3026 95.894 53.4054 97.1795 53.4127 97.3995L53.4258 97.7994H70.2079C86.6761 97.7994 86.9984 97.7928 87.4387 97.4468C87.6854 97.2529 87.9374 96.8948 87.9986 96.6509C88.1118 96.2 81.5247 61.9172 81.1402 60.9562C81.0309 60.6827 80.7164 60.3428 80.4417 60.2008C79.8706 59.9056 78.5016 59.8516 78.5016 60.1242ZM48.4462 93.0885C47.7126 93.3092 46.4722 93.7391 45.6897 94.0441C44.9072 94.3491 44.1514 94.599 44.0101 94.5993C43.8689 94.5999 42.9486 94.2894 41.965 93.9096C40.0619 93.1747 38.3757 92.6973 38.2228 92.8501C38.1718 92.9011 38.009 94.3722 37.8614 96.1191C37.5506 99.7984 37.5114 99.6789 39.2185 100.279C41.9571 101.24 46.0432 101.24 48.7818 100.279C50.4893 99.6787 50.4457 99.8168 50.1261 96.0226C49.9743 94.2199 49.8343 92.7319 49.8151 92.7161C49.7959 92.7003 49.1798 92.8679 48.4462 93.0885Z"/>
</mask>
<path fill-rule="evenodd" clip-rule="evenodd" d="M42.9194 10.5195C42.4355 11.0033 42.3996 11.1329 42.3996 12.3994C42.3996 13.6659 42.4355 13.7955 42.9194 14.2792C43.6184 14.9777 44.382 14.9777 45.0809 14.2792C45.5648 13.7955 45.6008 13.6659 45.6008 12.3994C45.6008 11.1329 45.5648 11.0033 45.0809 10.5195C44.7261 10.1649 44.3829 10 44.0002 10C43.6175 10 43.2742 10.1649 42.9194 10.5195ZM27.625 11.9414C27.32 12.2462 27.1052 12.6498 27.1052 12.9178C27.1052 13.6296 29.0429 18.2123 29.5352 18.6644C30.4964 19.5476 32.0847 18.8571 32.0847 17.5563C32.0847 16.6875 30.2539 12.3352 29.6723 11.8217C29.0328 11.2571 28.2649 11.3019 27.625 11.9414ZM58.3281 11.8217C57.7465 12.3352 55.9156 16.6875 55.9156 17.5563C55.9156 18.8571 57.5039 19.5476 58.4652 18.6644C58.9574 18.2123 60.8952 13.6296 60.8952 12.9178C60.8952 12.6498 60.6804 12.2462 60.3754 11.9414C59.7355 11.3019 58.9676 11.2571 58.3281 11.8217ZM15.4723 21.5662C14.7302 22.4476 14.8472 23.0059 16.0345 24.25C16.5968 24.8393 17.2829 25.4383 17.5591 25.5812C18.6091 26.124 19.8136 25.3194 19.8136 24.0751C19.8136 23.5352 19.6422 23.275 18.5993 22.2329C17.4955 21.1296 17.3192 21.0194 16.6589 21.0194C16.0663 21.0194 15.8479 21.12 15.4723 21.5662ZM69.401 22.2329C68.297 23.3361 68.1867 23.5122 68.1867 24.1721C68.1867 24.7702 68.2867 24.9819 68.755 25.3756C69.6566 26.1339 70.3191 25.9258 71.788 24.4226C73.1676 23.011 73.3033 22.4869 72.5281 21.5662C72.1525 21.12 71.9341 21.0194 71.3415 21.0194C70.6812 21.0194 70.5049 21.1296 69.401 22.2329ZM36.1035 26.3401C33.7019 27.1292 31.8404 29.0393 31.0289 31.5471C30.6083 32.8469 29.3502 33.3115 28.4189 32.511C27.9005 32.0652 27.7861 31.3541 28.074 30.3672L28.2247 29.8508L27.2243 29.9539C25.3662 30.1457 23.7029 31.4078 23.1154 33.0719L22.8649 33.7817L23.5177 33.9038C24.6531 34.1162 25.9661 34.8574 26.8163 35.7659C27.501 36.4975 27.6387 36.7596 27.6387 37.3321C27.6387 38.2302 27.0715 38.7925 26.166 38.7925C25.6492 38.7925 25.3342 38.6308 24.6244 38.0007C23.4871 36.9914 22.5659 36.6935 21.4789 36.9841C20.3701 37.2806 19.8732 37.6501 19.3235 38.5874C18.9687 39.1928 18.8513 39.627 18.8611 40.2997C18.8775 41.4377 19.2348 42.1289 20.2588 43.0037C21.3641 43.9478 21.5177 44.7593 20.7384 45.5381C20.0315 46.2446 19.3799 46.242 18.3946 45.5285C17.4878 44.8722 17.4567 44.9006 17.037 46.7744C16.549 48.9529 16.8911 51.303 18.0174 53.5094C18.2275 53.9209 18.9182 54.8072 19.5526 55.4792C21.5369 57.5814 24.0546 58.6062 26.956 58.4923C27.8044 58.4591 28.5437 58.3869 28.5987 58.3318C28.6536 58.2767 28.6383 57.8798 28.5649 57.4497C28.4484 56.7674 28.3638 56.6537 27.9017 56.5584C25.6022 56.0842 23.7025 53.8334 23.6575 51.53C23.6394 50.6024 23.6897 50.4483 24.1363 50.0637C24.862 49.4388 25.7027 49.4845 26.289 50.181C26.5423 50.4818 26.7495 50.9295 26.7495 51.1761C26.7495 52.2079 27.5453 53.2025 28.5782 53.4616C28.9764 53.5615 29.0534 53.4883 29.3405 52.737C29.7748 51.6006 30.6455 50.7005 31.3104 50.7005C31.9731 50.7005 32.5117 51.0807 32.7858 51.742C32.9791 52.2082 32.9386 52.4057 32.4106 53.5709C31.8667 54.7713 31.8187 55.0214 31.8183 56.6545C31.818 58.2113 31.877 58.5579 32.2946 59.4481C34.4084 63.9552 40.2614 64.8547 43.7222 61.2045C44.3495 60.543 44.8553 60.5081 46.4742 61.0152C48.1405 61.5372 50.3458 61.6458 52.1948 61.2969C54.2396 60.911 54.6074 60.9295 55.1233 61.4453C55.649 61.9705 55.7075 62.9217 55.2487 63.4832C54.946 63.8537 53.3883 64.3795 52.5811 64.3837C51.9704 64.3869 52.1 64.7993 52.9609 65.5923C53.9128 66.4692 54.3202 66.6841 56.9553 67.6995C59.3384 68.6178 60.3051 69.1896 61.4287 70.3452C61.8689 70.7979 62.4588 71.2888 62.7396 71.4363C63.8413 72.0145 65.1634 71.2067 65.1634 69.9551C65.1634 69.3387 64.4103 67.3152 64.0352 66.9237C63.8719 66.7533 63.5852 66.782 62.701 67.057C61.1392 67.5427 60.2783 67.5179 59.7312 66.971C59.2055 66.4458 59.1468 65.493 59.6059 64.9368C59.7937 64.7093 60.4401 64.4159 61.2352 64.1977C62.9125 63.7368 64.1529 63.1282 65.3855 62.1616C66.4988 61.2882 67.4443 60.1294 66.8439 60.3741C66.2195 60.6286 63.327 60.7036 62.3064 60.492C61.1798 60.2581 59.3087 59.4192 58.4424 58.7594C57.9306 58.3697 57.7874 58.3377 57.3044 58.506C54.8391 59.3648 51.2012 57.4476 50.8179 55.0877C50.7292 54.5411 50.7922 54.3716 51.2561 53.9079C52.1294 53.0352 52.7424 53.1472 53.8891 54.3885L54.8333 55.4104H55.9046C56.8772 55.4104 57.0293 55.3569 57.5573 54.8296C58.0876 54.2998 58.1365 54.1592 58.1136 53.23C58.0999 52.6696 58.0314 51.9137 57.9613 51.5499C57.8489 50.9655 57.8968 50.826 58.3729 50.3502C60.3841 48.3403 62.3256 52.2201 60.9094 55.4195C60.4497 56.4583 60.5317 56.5795 62.0576 57.1174C63.6649 57.684 65.7814 57.5464 67.353 56.7731C69.188 55.8702 70.5542 54.1263 71.0253 52.0852C71.2543 51.0931 71.2533 50.386 71.021 49.3041L70.832 48.4233L70.0873 48.8489C69.1784 49.3683 68.5554 49.391 67.9639 48.9261C66.995 48.1643 67.1992 46.9511 68.4267 46.1757C69.5035 45.4953 70.0189 44.6529 70.1076 43.4274C70.2213 41.8564 69.5414 40.7168 68.1416 40.1323C67.1978 39.7382 66.2403 39.7944 65.2379 40.3025C63.565 41.1507 62.3179 40.6779 62.3179 39.1953C62.3179 38.4401 63.0218 37.7164 64.1904 37.2704C64.6278 37.1035 64.9856 36.9397 64.9856 36.9063C64.9856 36.8728 64.7898 36.326 64.5506 35.6907C63.7176 33.4787 61.9765 31.4334 59.9486 30.284C58.8776 29.6772 56.8363 29.0173 56.0303 29.0175C55.5558 29.0175 55.4671 29.0864 55.4447 29.4721C55.3869 30.4718 54.2974 31.1182 53.3428 30.7196C52.6654 30.4368 52.3605 29.9838 52.3549 29.2512C52.3495 28.56 51.7932 27.4232 51.1807 26.8514C49.2935 25.0898 46.0228 26.2281 45.6678 28.7702C45.5021 29.9571 45.2223 30.4669 44.592 30.7299C44.0866 30.941 43.9138 30.941 43.4083 30.7299C42.435 30.3236 42.2207 29.3619 42.6866 27.4916C42.7645 27.1792 42.6039 27.042 41.6557 26.612C40.1575 25.9329 37.7081 25.813 36.1035 26.3401ZM6.02427 33.51C5.37674 34.0666 5.34242 35.0792 5.95099 35.6724C6.41303 36.1228 10.9164 38.0816 11.4897 38.0816C12.5763 38.0816 13.3668 36.9569 13.0128 35.9147C12.7851 35.2446 12.6957 35.1899 10.0312 34.0889C7.39685 33.0001 6.72959 32.9037 6.02427 33.51ZM77.7902 34.15C75.63 35.0653 75.3581 35.2302 75.0772 35.7958C74.8256 36.3027 74.8023 36.5305 74.9572 36.9745C75.1765 37.6033 75.8066 38.0816 76.4155 38.0816C77.0609 38.0816 81.5608 36.1626 82.0494 35.679C82.6163 35.1179 82.6142 34.1406 82.0446 33.5347C81.4072 32.8566 80.5502 32.9805 77.7902 34.15ZM36.6795 35.9344C35.3851 36.348 34.6843 36.7911 33.6503 37.8489C32.5635 38.9608 31.7536 40.6973 31.6113 42.2204C31.5046 43.362 31.5162 43.4059 32.0684 43.9576C32.5598 44.4488 32.7205 44.5098 33.2829 44.4186C34.2148 44.2675 34.5689 43.822 34.7447 42.5789C34.9336 41.2431 35.2452 40.6308 36.1525 39.8116C36.8463 39.1853 37.5048 38.9192 38.9071 38.699C40.4707 38.4536 40.9664 36.7564 39.7474 35.8212C39.3384 35.5073 37.8431 35.5624 36.6795 35.9344ZM52.546 42.3377C52.3556 42.5281 52.1073 43.0266 51.9944 43.4457C51.3926 45.6794 49.7625 47.4313 47.7043 48.0561C45.3872 48.7594 43.1556 48.2686 41.2772 46.6424C40.5998 46.0559 40.2824 45.9018 39.7521 45.9018C38.8653 45.9018 38.2381 46.5407 38.2381 47.4441C38.2381 48.0011 38.3795 48.2198 39.2843 49.0615C40.2715 49.9798 42.486 51.2337 43.1208 51.2337C43.9337 51.2337 43.6116 51.8784 42.4154 52.6455C41.7857 53.0493 41.1823 53.2606 40.3203 53.3791C39.3692 53.5098 39.0236 53.6429 38.7094 53.9991C38.1488 54.6346 38.175 55.559 38.7702 56.1539C39.2066 56.59 39.3019 56.6092 40.5637 56.5138C43.1465 56.3186 45.798 54.5545 46.8263 52.347C47.2045 51.535 47.326 51.4216 47.9273 51.3201C49.0671 51.1276 51.0728 50.0483 52.1262 49.0603C53.4006 47.865 54.4024 46.326 54.8512 44.874C55.3065 43.4007 55.2971 43.1956 54.7438 42.5386C54.3743 42.0996 54.1463 41.9917 53.5878 41.9917C53.1358 41.9917 52.7712 42.1127 52.546 42.3377ZM14.3066 55.9091C13.9674 56.0259 13.5852 56.3213 13.4574 56.5657C13.2653 56.9322 7.72035 89.6243 7.72035 90.3898C7.72035 90.5709 8.23218 90.4827 9.80466 90.0309C20.1389 87.0623 31.4365 87.1954 41.5549 90.4052L42.3996 90.6731V80.5422C42.3996 69.8421 42.4172 69.5982 43.2079 69.295C43.578 69.1532 44.4224 69.1532 44.7925 69.295C45.5832 69.5982 45.6008 69.8421 45.6008 80.5422V90.6731L46.4455 90.4097C56.7901 87.1833 67.9433 87.0582 78.2464 90.053C79.8176 90.5096 80.28 90.5878 80.28 90.3969C80.28 90.0267 74.7939 57.0946 74.6293 56.4768C74.5064 56.0156 74.3856 55.9299 73.7345 55.8423C73.0406 55.749 72.947 55.7865 72.5369 56.324C72.2922 56.6444 71.9245 57.4499 71.7196 58.1137C70.9819 60.5039 69.5424 62.747 67.7235 64.3416L66.7503 65.1947L67.3674 66.5298C68.1764 68.2796 68.4354 69.3606 68.3064 70.4494C68.0105 72.9467 65.9598 74.7659 63.4618 74.7474C61.9977 74.7366 60.9969 74.259 59.5057 72.8594C58.1376 71.5751 57.771 71.3556 55.7525 70.6118C53.8888 69.9251 52.2867 69.1126 51.2339 68.32C50.2924 67.6112 49.0756 65.938 48.8912 65.098C48.8092 64.7253 48.668 64.5636 48.4245 64.5636C48.2327 64.5636 47.4905 64.4427 46.7754 64.2952L45.4754 64.0269L44.3048 64.8114C42.0683 66.3102 39.5365 66.9214 37.1088 66.5483C34.4607 66.1417 31.6666 64.3777 30.2779 62.2359L29.7104 61.3605L28.8078 61.4958C27.5035 61.6913 24.6579 61.6269 23.7262 61.381C20.6925 60.5797 18.0041 58.8236 16.3368 56.5536C15.6457 55.6127 15.3974 55.5338 14.3066 55.9091ZM7.52259 60.2092C7.26703 60.3478 6.96825 60.6846 6.85852 60.9574C6.47385 61.9134 -0.112361 96.1961 0.00145816 96.6497C0.0628138 96.8941 0.314994 97.2529 0.561661 97.4468C1.002 97.7928 1.32425 97.7994 17.7924 97.7994C33.6517 97.7994 34.5753 97.7823 34.5877 97.4884C34.595 97.3174 34.7029 96.0576 34.8278 94.6891C34.9525 93.3206 35.003 92.1413 34.9402 92.0688C34.7412 91.8386 31.3976 91.4046 28.1423 91.1866C21.9129 90.7691 16.6733 91.4228 8.62201 93.622C7.53824 93.9181 6.58945 93.7658 5.73652 93.1588C5.14786 92.7399 4.51919 91.4798 4.51919 90.7189C4.51919 90.4056 5.63959 83.4344 7.00898 75.2275C8.37837 67.0206 9.49877 60.2241 9.49877 60.1242C9.49877 59.8555 8.05985 59.9173 7.52259 60.2092ZM78.5016 60.1242C78.5016 60.2241 79.6279 67.0424 81.0045 75.2758C82.6071 84.8609 83.4785 90.5186 83.4269 91.0044C83.2612 92.565 81.916 93.7788 80.3689 93.7637C79.9777 93.7599 78.8573 93.5163 77.8792 93.2223C70.8033 91.0956 62.1479 90.514 54.8694 91.676C53.9517 91.8227 53.1486 91.9746 53.0849 92.0141C53.0212 92.0534 53.0661 93.1912 53.1843 94.5425C53.3026 95.894 53.4054 97.1795 53.4127 97.3995L53.4258 97.7994H70.2079C86.6761 97.7994 86.9984 97.7928 87.4387 97.4468C87.6854 97.2529 87.9374 96.8948 87.9986 96.6509C88.1118 96.2 81.5247 61.9172 81.1402 60.9562C81.0309 60.6827 80.7164 60.3428 80.4417 60.2008C79.8706 59.9056 78.5016 59.8516 78.5016 60.1242ZM48.4462 93.0885C47.7126 93.3092 46.4722 93.7391 45.6897 94.0441C44.9072 94.3491 44.1514 94.599 44.0101 94.5993C43.8689 94.5999 42.9486 94.2894 41.965 93.9096C40.0619 93.1747 38.3757 92.6973 38.2228 92.8501C38.1718 92.9011 38.009 94.3722 37.8614 96.1191C37.5506 99.7984 37.5114 99.6789 39.2185 100.279C41.9571 101.24 46.0432 101.24 48.7818 100.279C50.4893 99.6787 50.4457 99.8168 50.1261 96.0226C49.9743 94.2199 49.8343 92.7319 49.8151 92.7161C49.7959 92.7003 49.1798 92.8679 48.4462 93.0885Z" fill="#06CAC6"/>
<path fill-rule="evenodd" clip-rule="evenodd" d="M42.9194 10.5195C42.4355 11.0033 42.3996 11.1329 42.3996 12.3994C42.3996 13.6659 42.4355 13.7955 42.9194 14.2792C43.6184 14.9777 44.382 14.9777 45.0809 14.2792C45.5648 13.7955 45.6008 13.6659 45.6008 12.3994C45.6008 11.1329 45.5648 11.0033 45.0809 10.5195C44.7261 10.1649 44.3829 10 44.0002 10C43.6175 10 43.2742 10.1649 42.9194 10.5195ZM27.625 11.9414C27.32 12.2462 27.1052 12.6498 27.1052 12.9178C27.1052 13.6296 29.0429 18.2123 29.5352 18.6644C30.4964 19.5476 32.0847 18.8571 32.0847 17.5563C32.0847 16.6875 30.2539 12.3352 29.6723 11.8217C29.0328 11.2571 28.2649 11.3019 27.625 11.9414ZM58.3281 11.8217C57.7465 12.3352 55.9156 16.6875 55.9156 17.5563C55.9156 18.8571 57.5039 19.5476 58.4652 18.6644C58.9574 18.2123 60.8952 13.6296 60.8952 12.9178C60.8952 12.6498 60.6804 12.2462 60.3754 11.9414C59.7355 11.3019 58.9676 11.2571 58.3281 11.8217ZM15.4723 21.5662C14.7302 22.4476 14.8472 23.0059 16.0345 24.25C16.5968 24.8393 17.2829 25.4383 17.5591 25.5812C18.6091 26.124 19.8136 25.3194 19.8136 24.0751C19.8136 23.5352 19.6422 23.275 18.5993 22.2329C17.4955 21.1296 17.3192 21.0194 16.6589 21.0194C16.0663 21.0194 15.8479 21.12 15.4723 21.5662ZM69.401 22.2329C68.297 23.3361 68.1867 23.5122 68.1867 24.1721C68.1867 24.7702 68.2867 24.9819 68.755 25.3756C69.6566 26.1339 70.3191 25.9258 71.788 24.4226C73.1676 23.011 73.3033 22.4869 72.5281 21.5662C72.1525 21.12 71.9341 21.0194 71.3415 21.0194C70.6812 21.0194 70.5049 21.1296 69.401 22.2329ZM36.1035 26.3401C33.7019 27.1292 31.8404 29.0393 31.0289 31.5471C30.6083 32.8469 29.3502 33.3115 28.4189 32.511C27.9005 32.0652 27.7861 31.3541 28.074 30.3672L28.2247 29.8508L27.2243 29.9539C25.3662 30.1457 23.7029 31.4078 23.1154 33.0719L22.8649 33.7817L23.5177 33.9038C24.6531 34.1162 25.9661 34.8574 26.8163 35.7659C27.501 36.4975 27.6387 36.7596 27.6387 37.3321C27.6387 38.2302 27.0715 38.7925 26.166 38.7925C25.6492 38.7925 25.3342 38.6308 24.6244 38.0007C23.4871 36.9914 22.5659 36.6935 21.4789 36.9841C20.3701 37.2806 19.8732 37.6501 19.3235 38.5874C18.9687 39.1928 18.8513 39.627 18.8611 40.2997C18.8775 41.4377 19.2348 42.1289 20.2588 43.0037C21.3641 43.9478 21.5177 44.7593 20.7384 45.5381C20.0315 46.2446 19.3799 46.242 18.3946 45.5285C17.4878 44.8722 17.4567 44.9006 17.037 46.7744C16.549 48.9529 16.8911 51.303 18.0174 53.5094C18.2275 53.9209 18.9182 54.8072 19.5526 55.4792C21.5369 57.5814 24.0546 58.6062 26.956 58.4923C27.8044 58.4591 28.5437 58.3869 28.5987 58.3318C28.6536 58.2767 28.6383 57.8798 28.5649 57.4497C28.4484 56.7674 28.3638 56.6537 27.9017 56.5584C25.6022 56.0842 23.7025 53.8334 23.6575 51.53C23.6394 50.6024 23.6897 50.4483 24.1363 50.0637C24.862 49.4388 25.7027 49.4845 26.289 50.181C26.5423 50.4818 26.7495 50.9295 26.7495 51.1761C26.7495 52.2079 27.5453 53.2025 28.5782 53.4616C28.9764 53.5615 29.0534 53.4883 29.3405 52.737C29.7748 51.6006 30.6455 50.7005 31.3104 50.7005C31.9731 50.7005 32.5117 51.0807 32.7858 51.742C32.9791 52.2082 32.9386 52.4057 32.4106 53.5709C31.8667 54.7713 31.8187 55.0214 31.8183 56.6545C31.818 58.2113 31.877 58.5579 32.2946 59.4481C34.4084 63.9552 40.2614 64.8547 43.7222 61.2045C44.3495 60.543 44.8553 60.5081 46.4742 61.0152C48.1405 61.5372 50.3458 61.6458 52.1948 61.2969C54.2396 60.911 54.6074 60.9295 55.1233 61.4453C55.649 61.9705 55.7075 62.9217 55.2487 63.4832C54.946 63.8537 53.3883 64.3795 52.5811 64.3837C51.9704 64.3869 52.1 64.7993 52.9609 65.5923C53.9128 66.4692 54.3202 66.6841 56.9553 67.6995C59.3384 68.6178 60.3051 69.1896 61.4287 70.3452C61.8689 70.7979 62.4588 71.2888 62.7396 71.4363C63.8413 72.0145 65.1634 71.2067 65.1634 69.9551C65.1634 69.3387 64.4103 67.3152 64.0352 66.9237C63.8719 66.7533 63.5852 66.782 62.701 67.057C61.1392 67.5427 60.2783 67.5179 59.7312 66.971C59.2055 66.4458 59.1468 65.493 59.6059 64.9368C59.7937 64.7093 60.4401 64.4159 61.2352 64.1977C62.9125 63.7368 64.1529 63.1282 65.3855 62.1616C66.4988 61.2882 67.4443 60.1294 66.8439 60.3741C66.2195 60.6286 63.327 60.7036 62.3064 60.492C61.1798 60.2581 59.3087 59.4192 58.4424 58.7594C57.9306 58.3697 57.7874 58.3377 57.3044 58.506C54.8391 59.3648 51.2012 57.4476 50.8179 55.0877C50.7292 54.5411 50.7922 54.3716 51.2561 53.9079C52.1294 53.0352 52.7424 53.1472 53.8891 54.3885L54.8333 55.4104H55.9046C56.8772 55.4104 57.0293 55.3569 57.5573 54.8296C58.0876 54.2998 58.1365 54.1592 58.1136 53.23C58.0999 52.6696 58.0314 51.9137 57.9613 51.5499C57.8489 50.9655 57.8968 50.826 58.3729 50.3502C60.3841 48.3403 62.3256 52.2201 60.9094 55.4195C60.4497 56.4583 60.5317 56.5795 62.0576 57.1174C63.6649 57.684 65.7814 57.5464 67.353 56.7731C69.188 55.8702 70.5542 54.1263 71.0253 52.0852C71.2543 51.0931 71.2533 50.386 71.021 49.3041L70.832 48.4233L70.0873 48.8489C69.1784 49.3683 68.5554 49.391 67.9639 48.9261C66.995 48.1643 67.1992 46.9511 68.4267 46.1757C69.5035 45.4953 70.0189 44.6529 70.1076 43.4274C70.2213 41.8564 69.5414 40.7168 68.1416 40.1323C67.1978 39.7382 66.2403 39.7944 65.2379 40.3025C63.565 41.1507 62.3179 40.6779 62.3179 39.1953C62.3179 38.4401 63.0218 37.7164 64.1904 37.2704C64.6278 37.1035 64.9856 36.9397 64.9856 36.9063C64.9856 36.8728 64.7898 36.326 64.5506 35.6907C63.7176 33.4787 61.9765 31.4334 59.9486 30.284C58.8776 29.6772 56.8363 29.0173 56.0303 29.0175C55.5558 29.0175 55.4671 29.0864 55.4447 29.4721C55.3869 30.4718 54.2974 31.1182 53.3428 30.7196C52.6654 30.4368 52.3605 29.9838 52.3549 29.2512C52.3495 28.56 51.7932 27.4232 51.1807 26.8514C49.2935 25.0898 46.0228 26.2281 45.6678 28.7702C45.5021 29.9571 45.2223 30.4669 44.592 30.7299C44.0866 30.941 43.9138 30.941 43.4083 30.7299C42.435 30.3236 42.2207 29.3619 42.6866 27.4916C42.7645 27.1792 42.6039 27.042 41.6557 26.612C40.1575 25.9329 37.7081 25.813 36.1035 26.3401ZM6.02427 33.51C5.37674 34.0666 5.34242 35.0792 5.95099 35.6724C6.41303 36.1228 10.9164 38.0816 11.4897 38.0816C12.5763 38.0816 13.3668 36.9569 13.0128 35.9147C12.7851 35.2446 12.6957 35.1899 10.0312 34.0889C7.39685 33.0001 6.72959 32.9037 6.02427 33.51ZM77.7902 34.15C75.63 35.0653 75.3581 35.2302 75.0772 35.7958C74.8256 36.3027 74.8023 36.5305 74.9572 36.9745C75.1765 37.6033 75.8066 38.0816 76.4155 38.0816C77.0609 38.0816 81.5608 36.1626 82.0494 35.679C82.6163 35.1179 82.6142 34.1406 82.0446 33.5347C81.4072 32.8566 80.5502 32.9805 77.7902 34.15ZM36.6795 35.9344C35.3851 36.348 34.6843 36.7911 33.6503 37.8489C32.5635 38.9608 31.7536 40.6973 31.6113 42.2204C31.5046 43.362 31.5162 43.4059 32.0684 43.9576C32.5598 44.4488 32.7205 44.5098 33.2829 44.4186C34.2148 44.2675 34.5689 43.822 34.7447 42.5789C34.9336 41.2431 35.2452 40.6308 36.1525 39.8116C36.8463 39.1853 37.5048 38.9192 38.9071 38.699C40.4707 38.4536 40.9664 36.7564 39.7474 35.8212C39.3384 35.5073 37.8431 35.5624 36.6795 35.9344ZM52.546 42.3377C52.3556 42.5281 52.1073 43.0266 51.9944 43.4457C51.3926 45.6794 49.7625 47.4313 47.7043 48.0561C45.3872 48.7594 43.1556 48.2686 41.2772 46.6424C40.5998 46.0559 40.2824 45.9018 39.7521 45.9018C38.8653 45.9018 38.2381 46.5407 38.2381 47.4441C38.2381 48.0011 38.3795 48.2198 39.2843 49.0615C40.2715 49.9798 42.486 51.2337 43.1208 51.2337C43.9337 51.2337 43.6116 51.8784 42.4154 52.6455C41.7857 53.0493 41.1823 53.2606 40.3203 53.3791C39.3692 53.5098 39.0236 53.6429 38.7094 53.9991C38.1488 54.6346 38.175 55.559 38.7702 56.1539C39.2066 56.59 39.3019 56.6092 40.5637 56.5138C43.1465 56.3186 45.798 54.5545 46.8263 52.347C47.2045 51.535 47.326 51.4216 47.9273 51.3201C49.0671 51.1276 51.0728 50.0483 52.1262 49.0603C53.4006 47.865 54.4024 46.326 54.8512 44.874C55.3065 43.4007 55.2971 43.1956 54.7438 42.5386C54.3743 42.0996 54.1463 41.9917 53.5878 41.9917C53.1358 41.9917 52.7712 42.1127 52.546 42.3377ZM14.3066 55.9091C13.9674 56.0259 13.5852 56.3213 13.4574 56.5657C13.2653 56.9322 7.72035 89.6243 7.72035 90.3898C7.72035 90.5709 8.23218 90.4827 9.80466 90.0309C20.1389 87.0623 31.4365 87.1954 41.5549 90.4052L42.3996 90.6731V80.5422C42.3996 69.8421 42.4172 69.5982 43.2079 69.295C43.578 69.1532 44.4224 69.1532 44.7925 69.295C45.5832 69.5982 45.6008 69.8421 45.6008 80.5422V90.6731L46.4455 90.4097C56.7901 87.1833 67.9433 87.0582 78.2464 90.053C79.8176 90.5096 80.28 90.5878 80.28 90.3969C80.28 90.0267 74.7939 57.0946 74.6293 56.4768C74.5064 56.0156 74.3856 55.9299 73.7345 55.8423C73.0406 55.749 72.947 55.7865 72.5369 56.324C72.2922 56.6444 71.9245 57.4499 71.7196 58.1137C70.9819 60.5039 69.5424 62.747 67.7235 64.3416L66.7503 65.1947L67.3674 66.5298C68.1764 68.2796 68.4354 69.3606 68.3064 70.4494C68.0105 72.9467 65.9598 74.7659 63.4618 74.7474C61.9977 74.7366 60.9969 74.259 59.5057 72.8594C58.1376 71.5751 57.771 71.3556 55.7525 70.6118C53.8888 69.9251 52.2867 69.1126 51.2339 68.32C50.2924 67.6112 49.0756 65.938 48.8912 65.098C48.8092 64.7253 48.668 64.5636 48.4245 64.5636C48.2327 64.5636 47.4905 64.4427 46.7754 64.2952L45.4754 64.0269L44.3048 64.8114C42.0683 66.3102 39.5365 66.9214 37.1088 66.5483C34.4607 66.1417 31.6666 64.3777 30.2779 62.2359L29.7104 61.3605L28.8078 61.4958C27.5035 61.6913 24.6579 61.6269 23.7262 61.381C20.6925 60.5797 18.0041 58.8236 16.3368 56.5536C15.6457 55.6127 15.3974 55.5338 14.3066 55.9091ZM7.52259 60.2092C7.26703 60.3478 6.96825 60.6846 6.85852 60.9574C6.47385 61.9134 -0.112361 96.1961 0.00145816 96.6497C0.0628138 96.8941 0.314994 97.2529 0.561661 97.4468C1.002 97.7928 1.32425 97.7994 17.7924 97.7994C33.6517 97.7994 34.5753 97.7823 34.5877 97.4884C34.595 97.3174 34.7029 96.0576 34.8278 94.6891C34.9525 93.3206 35.003 92.1413 34.9402 92.0688C34.7412 91.8386 31.3976 91.4046 28.1423 91.1866C21.9129 90.7691 16.6733 91.4228 8.62201 93.622C7.53824 93.9181 6.58945 93.7658 5.73652 93.1588C5.14786 92.7399 4.51919 91.4798 4.51919 90.7189C4.51919 90.4056 5.63959 83.4344 7.00898 75.2275C8.37837 67.0206 9.49877 60.2241 9.49877 60.1242C9.49877 59.8555 8.05985 59.9173 7.52259 60.2092ZM78.5016 60.1242C78.5016 60.2241 79.6279 67.0424 81.0045 75.2758C82.6071 84.8609 83.4785 90.5186 83.4269 91.0044C83.2612 92.565 81.916 93.7788 80.3689 93.7637C79.9777 93.7599 78.8573 93.5163 77.8792 93.2223C70.8033 91.0956 62.1479 90.514 54.8694 91.676C53.9517 91.8227 53.1486 91.9746 53.0849 92.0141C53.0212 92.0534 53.0661 93.1912 53.1843 94.5425C53.3026 95.894 53.4054 97.1795 53.4127 97.3995L53.4258 97.7994H70.2079C86.6761 97.7994 86.9984 97.7928 87.4387 97.4468C87.6854 97.2529 87.9374 96.8948 87.9986 96.6509C88.1118 96.2 81.5247 61.9172 81.1402 60.9562C81.0309 60.6827 80.7164 60.3428 80.4417 60.2008C79.8706 59.9056 78.5016 59.8516 78.5016 60.1242ZM48.4462 93.0885C47.7126 93.3092 46.4722 93.7391 45.6897 94.0441C44.9072 94.3491 44.1514 94.599 44.0101 94.5993C43.8689 94.5999 42.9486 94.2894 41.965 93.9096C40.0619 93.1747 38.3757 92.6973 38.2228 92.8501C38.1718 92.9011 38.009 94.3722 37.8614 96.1191C37.5506 99.7984 37.5114 99.6789 39.2185 100.279C41.9571 101.24 46.0432 101.24 48.7818 100.279C50.4893 99.6787 50.4457 99.8168 50.1261 96.0226C49.9743 94.2199 49.8343 92.7319 49.8151 92.7161C49.7959 92.7003 49.1798 92.8679 48.4462 93.0885Z" fill="url(#paint0_linear_1_663)"/>
<path fill-rule="evenodd" clip-rule="evenodd" d="M42.9194 10.5195C42.4355 11.0033 42.3996 11.1329 42.3996 12.3994C42.3996 13.6659 42.4355 13.7955 42.9194 14.2792C43.6184 14.9777 44.382 14.9777 45.0809 14.2792C45.5648 13.7955 45.6008 13.6659 45.6008 12.3994C45.6008 11.1329 45.5648 11.0033 45.0809 10.5195C44.7261 10.1649 44.3829 10 44.0002 10C43.6175 10 43.2742 10.1649 42.9194 10.5195ZM27.625 11.9414C27.32 12.2462 27.1052 12.6498 27.1052 12.9178C27.1052 13.6296 29.0429 18.2123 29.5352 18.6644C30.4964 19.5476 32.0847 18.8571 32.0847 17.5563C32.0847 16.6875 30.2539 12.3352 29.6723 11.8217C29.0328 11.2571 28.2649 11.3019 27.625 11.9414ZM58.3281 11.8217C57.7465 12.3352 55.9156 16.6875 55.9156 17.5563C55.9156 18.8571 57.5039 19.5476 58.4652 18.6644C58.9574 18.2123 60.8952 13.6296 60.8952 12.9178C60.8952 12.6498 60.6804 12.2462 60.3754 11.9414C59.7355 11.3019 58.9676 11.2571 58.3281 11.8217ZM15.4723 21.5662C14.7302 22.4476 14.8472 23.0059 16.0345 24.25C16.5968 24.8393 17.2829 25.4383 17.5591 25.5812C18.6091 26.124 19.8136 25.3194 19.8136 24.0751C19.8136 23.5352 19.6422 23.275 18.5993 22.2329C17.4955 21.1296 17.3192 21.0194 16.6589 21.0194C16.0663 21.0194 15.8479 21.12 15.4723 21.5662ZM69.401 22.2329C68.297 23.3361 68.1867 23.5122 68.1867 24.1721C68.1867 24.7702 68.2867 24.9819 68.755 25.3756C69.6566 26.1339 70.3191 25.9258 71.788 24.4226C73.1676 23.011 73.3033 22.4869 72.5281 21.5662C72.1525 21.12 71.9341 21.0194 71.3415 21.0194C70.6812 21.0194 70.5049 21.1296 69.401 22.2329ZM36.1035 26.3401C33.7019 27.1292 31.8404 29.0393 31.0289 31.5471C30.6083 32.8469 29.3502 33.3115 28.4189 32.511C27.9005 32.0652 27.7861 31.3541 28.074 30.3672L28.2247 29.8508L27.2243 29.9539C25.3662 30.1457 23.7029 31.4078 23.1154 33.0719L22.8649 33.7817L23.5177 33.9038C24.6531 34.1162 25.9661 34.8574 26.8163 35.7659C27.501 36.4975 27.6387 36.7596 27.6387 37.3321C27.6387 38.2302 27.0715 38.7925 26.166 38.7925C25.6492 38.7925 25.3342 38.6308 24.6244 38.0007C23.4871 36.9914 22.5659 36.6935 21.4789 36.9841C20.3701 37.2806 19.8732 37.6501 19.3235 38.5874C18.9687 39.1928 18.8513 39.627 18.8611 40.2997C18.8775 41.4377 19.2348 42.1289 20.2588 43.0037C21.3641 43.9478 21.5177 44.7593 20.7384 45.5381C20.0315 46.2446 19.3799 46.242 18.3946 45.5285C17.4878 44.8722 17.4567 44.9006 17.037 46.7744C16.549 48.9529 16.8911 51.303 18.0174 53.5094C18.2275 53.9209 18.9182 54.8072 19.5526 55.4792C21.5369 57.5814 24.0546 58.6062 26.956 58.4923C27.8044 58.4591 28.5437 58.3869 28.5987 58.3318C28.6536 58.2767 28.6383 57.8798 28.5649 57.4497C28.4484 56.7674 28.3638 56.6537 27.9017 56.5584C25.6022 56.0842 23.7025 53.8334 23.6575 51.53C23.6394 50.6024 23.6897 50.4483 24.1363 50.0637C24.862 49.4388 25.7027 49.4845 26.289 50.181C26.5423 50.4818 26.7495 50.9295 26.7495 51.1761C26.7495 52.2079 27.5453 53.2025 28.5782 53.4616C28.9764 53.5615 29.0534 53.4883 29.3405 52.737C29.7748 51.6006 30.6455 50.7005 31.3104 50.7005C31.9731 50.7005 32.5117 51.0807 32.7858 51.742C32.9791 52.2082 32.9386 52.4057 32.4106 53.5709C31.8667 54.7713 31.8187 55.0214 31.8183 56.6545C31.818 58.2113 31.877 58.5579 32.2946 59.4481C34.4084 63.9552 40.2614 64.8547 43.7222 61.2045C44.3495 60.543 44.8553 60.5081 46.4742 61.0152C48.1405 61.5372 50.3458 61.6458 52.1948 61.2969C54.2396 60.911 54.6074 60.9295 55.1233 61.4453C55.649 61.9705 55.7075 62.9217 55.2487 63.4832C54.946 63.8537 53.3883 64.3795 52.5811 64.3837C51.9704 64.3869 52.1 64.7993 52.9609 65.5923C53.9128 66.4692 54.3202 66.6841 56.9553 67.6995C59.3384 68.6178 60.3051 69.1896 61.4287 70.3452C61.8689 70.7979 62.4588 71.2888 62.7396 71.4363C63.8413 72.0145 65.1634 71.2067 65.1634 69.9551C65.1634 69.3387 64.4103 67.3152 64.0352 66.9237C63.8719 66.7533 63.5852 66.782 62.701 67.057C61.1392 67.5427 60.2783 67.5179 59.7312 66.971C59.2055 66.4458 59.1468 65.493 59.6059 64.9368C59.7937 64.7093 60.4401 64.4159 61.2352 64.1977C62.9125 63.7368 64.1529 63.1282 65.3855 62.1616C66.4988 61.2882 67.4443 60.1294 66.8439 60.3741C66.2195 60.6286 63.327 60.7036 62.3064 60.492C61.1798 60.2581 59.3087 59.4192 58.4424 58.7594C57.9306 58.3697 57.7874 58.3377 57.3044 58.506C54.8391 59.3648 51.2012 57.4476 50.8179 55.0877C50.7292 54.5411 50.7922 54.3716 51.2561 53.9079C52.1294 53.0352 52.7424 53.1472 53.8891 54.3885L54.8333 55.4104H55.9046C56.8772 55.4104 57.0293 55.3569 57.5573 54.8296C58.0876 54.2998 58.1365 54.1592 58.1136 53.23C58.0999 52.6696 58.0314 51.9137 57.9613 51.5499C57.8489 50.9655 57.8968 50.826 58.3729 50.3502C60.3841 48.3403 62.3256 52.2201 60.9094 55.4195C60.4497 56.4583 60.5317 56.5795 62.0576 57.1174C63.6649 57.684 65.7814 57.5464 67.353 56.7731C69.188 55.8702 70.5542 54.1263 71.0253 52.0852C71.2543 51.0931 71.2533 50.386 71.021 49.3041L70.832 48.4233L70.0873 48.8489C69.1784 49.3683 68.5554 49.391 67.9639 48.9261C66.995 48.1643 67.1992 46.9511 68.4267 46.1757C69.5035 45.4953 70.0189 44.6529 70.1076 43.4274C70.2213 41.8564 69.5414 40.7168 68.1416 40.1323C67.1978 39.7382 66.2403 39.7944 65.2379 40.3025C63.565 41.1507 62.3179 40.6779 62.3179 39.1953C62.3179 38.4401 63.0218 37.7164 64.1904 37.2704C64.6278 37.1035 64.9856 36.9397 64.9856 36.9063C64.9856 36.8728 64.7898 36.326 64.5506 35.6907C63.7176 33.4787 61.9765 31.4334 59.9486 30.284C58.8776 29.6772 56.8363 29.0173 56.0303 29.0175C55.5558 29.0175 55.4671 29.0864 55.4447 29.4721C55.3869 30.4718 54.2974 31.1182 53.3428 30.7196C52.6654 30.4368 52.3605 29.9838 52.3549 29.2512C52.3495 28.56 51.7932 27.4232 51.1807 26.8514C49.2935 25.0898 46.0228 26.2281 45.6678 28.7702C45.5021 29.9571 45.2223 30.4669 44.592 30.7299C44.0866 30.941 43.9138 30.941 43.4083 30.7299C42.435 30.3236 42.2207 29.3619 42.6866 27.4916C42.7645 27.1792 42.6039 27.042 41.6557 26.612C40.1575 25.9329 37.7081 25.813 36.1035 26.3401ZM6.02427 33.51C5.37674 34.0666 5.34242 35.0792 5.95099 35.6724C6.41303 36.1228 10.9164 38.0816 11.4897 38.0816C12.5763 38.0816 13.3668 36.9569 13.0128 35.9147C12.7851 35.2446 12.6957 35.1899 10.0312 34.0889C7.39685 33.0001 6.72959 32.9037 6.02427 33.51ZM77.7902 34.15C75.63 35.0653 75.3581 35.2302 75.0772 35.7958C74.8256 36.3027 74.8023 36.5305 74.9572 36.9745C75.1765 37.6033 75.8066 38.0816 76.4155 38.0816C77.0609 38.0816 81.5608 36.1626 82.0494 35.679C82.6163 35.1179 82.6142 34.1406 82.0446 33.5347C81.4072 32.8566 80.5502 32.9805 77.7902 34.15ZM36.6795 35.9344C35.3851 36.348 34.6843 36.7911 33.6503 37.8489C32.5635 38.9608 31.7536 40.6973 31.6113 42.2204C31.5046 43.362 31.5162 43.4059 32.0684 43.9576C32.5598 44.4488 32.7205 44.5098 33.2829 44.4186C34.2148 44.2675 34.5689 43.822 34.7447 42.5789C34.9336 41.2431 35.2452 40.6308 36.1525 39.8116C36.8463 39.1853 37.5048 38.9192 38.9071 38.699C40.4707 38.4536 40.9664 36.7564 39.7474 35.8212C39.3384 35.5073 37.8431 35.5624 36.6795 35.9344ZM52.546 42.3377C52.3556 42.5281 52.1073 43.0266 51.9944 43.4457C51.3926 45.6794 49.7625 47.4313 47.7043 48.0561C45.3872 48.7594 43.1556 48.2686 41.2772 46.6424C40.5998 46.0559 40.2824 45.9018 39.7521 45.9018C38.8653 45.9018 38.2381 46.5407 38.2381 47.4441C38.2381 48.0011 38.3795 48.2198 39.2843 49.0615C40.2715 49.9798 42.486 51.2337 43.1208 51.2337C43.9337 51.2337 43.6116 51.8784 42.4154 52.6455C41.7857 53.0493 41.1823 53.2606 40.3203 53.3791C39.3692 53.5098 39.0236 53.6429 38.7094 53.9991C38.1488 54.6346 38.175 55.559 38.7702 56.1539C39.2066 56.59 39.3019 56.6092 40.5637 56.5138C43.1465 56.3186 45.798 54.5545 46.8263 52.347C47.2045 51.535 47.326 51.4216 47.9273 51.3201C49.0671 51.1276 51.0728 50.0483 52.1262 49.0603C53.4006 47.865 54.4024 46.326 54.8512 44.874C55.3065 43.4007 55.2971 43.1956 54.7438 42.5386C54.3743 42.0996 54.1463 41.9917 53.5878 41.9917C53.1358 41.9917 52.7712 42.1127 52.546 42.3377ZM14.3066 55.9091C13.9674 56.0259 13.5852 56.3213 13.4574 56.5657C13.2653 56.9322 7.72035 89.6243 7.72035 90.3898C7.72035 90.5709 8.23218 90.4827 9.80466 90.0309C20.1389 87.0623 31.4365 87.1954 41.5549 90.4052L42.3996 90.6731V80.5422C42.3996 69.8421 42.4172 69.5982 43.2079 69.295C43.578 69.1532 44.4224 69.1532 44.7925 69.295C45.5832 69.5982 45.6008 69.8421 45.6008 80.5422V90.6731L46.4455 90.4097C56.7901 87.1833 67.9433 87.0582 78.2464 90.053C79.8176 90.5096 80.28 90.5878 80.28 90.3969C80.28 90.0267 74.7939 57.0946 74.6293 56.4768C74.5064 56.0156 74.3856 55.9299 73.7345 55.8423C73.0406 55.749 72.947 55.7865 72.5369 56.324C72.2922 56.6444 71.9245 57.4499 71.7196 58.1137C70.9819 60.5039 69.5424 62.747 67.7235 64.3416L66.7503 65.1947L67.3674 66.5298C68.1764 68.2796 68.4354 69.3606 68.3064 70.4494C68.0105 72.9467 65.9598 74.7659 63.4618 74.7474C61.9977 74.7366 60.9969 74.259 59.5057 72.8594C58.1376 71.5751 57.771 71.3556 55.7525 70.6118C53.8888 69.9251 52.2867 69.1126 51.2339 68.32C50.2924 67.6112 49.0756 65.938 48.8912 65.098C48.8092 64.7253 48.668 64.5636 48.4245 64.5636C48.2327 64.5636 47.4905 64.4427 46.7754 64.2952L45.4754 64.0269L44.3048 64.8114C42.0683 66.3102 39.5365 66.9214 37.1088 66.5483C34.4607 66.1417 31.6666 64.3777 30.2779 62.2359L29.7104 61.3605L28.8078 61.4958C27.5035 61.6913 24.6579 61.6269 23.7262 61.381C20.6925 60.5797 18.0041 58.8236 16.3368 56.5536C15.6457 55.6127 15.3974 55.5338 14.3066 55.9091ZM7.52259 60.2092C7.26703 60.3478 6.96825 60.6846 6.85852 60.9574C6.47385 61.9134 -0.112361 96.1961 0.00145816 96.6497C0.0628138 96.8941 0.314994 97.2529 0.561661 97.4468C1.002 97.7928 1.32425 97.7994 17.7924 97.7994C33.6517 97.7994 34.5753 97.7823 34.5877 97.4884C34.595 97.3174 34.7029 96.0576 34.8278 94.6891C34.9525 93.3206 35.003 92.1413 34.9402 92.0688C34.7412 91.8386 31.3976 91.4046 28.1423 91.1866C21.9129 90.7691 16.6733 91.4228 8.62201 93.622C7.53824 93.9181 6.58945 93.7658 5.73652 93.1588C5.14786 92.7399 4.51919 91.4798 4.51919 90.7189C4.51919 90.4056 5.63959 83.4344 7.00898 75.2275C8.37837 67.0206 9.49877 60.2241 9.49877 60.1242C9.49877 59.8555 8.05985 59.9173 7.52259 60.2092ZM78.5016 60.1242C78.5016 60.2241 79.6279 67.0424 81.0045 75.2758C82.6071 84.8609 83.4785 90.5186 83.4269 91.0044C83.2612 92.565 81.916 93.7788 80.3689 93.7637C79.9777 93.7599 78.8573 93.5163 77.8792 93.2223C70.8033 91.0956 62.1479 90.514 54.8694 91.676C53.9517 91.8227 53.1486 91.9746 53.0849 92.0141C53.0212 92.0534 53.0661 93.1912 53.1843 94.5425C53.3026 95.894 53.4054 97.1795 53.4127 97.3995L53.4258 97.7994H70.2079C86.6761 97.7994 86.9984 97.7928 87.4387 97.4468C87.6854 97.2529 87.9374 96.8948 87.9986 96.6509C88.1118 96.2 81.5247 61.9172 81.1402 60.9562C81.0309 60.6827 80.7164 60.3428 80.4417 60.2008C79.8706 59.9056 78.5016 59.8516 78.5016 60.1242ZM48.4462 93.0885C47.7126 93.3092 46.4722 93.7391 45.6897 94.0441C44.9072 94.3491 44.1514 94.599 44.0101 94.5993C43.8689 94.5999 42.9486 94.2894 41.965 93.9096C40.0619 93.1747 38.3757 92.6973 38.2228 92.8501C38.1718 92.9011 38.009 94.3722 37.8614 96.1191C37.5506 99.7984 37.5114 99.6789 39.2185 100.279C41.9571 101.24 46.0432 101.24 48.7818 100.279C50.4893 99.6787 50.4457 99.8168 50.1261 96.0226C49.9743 94.2199 49.8343 92.7319 49.8151 92.7161C49.7959 92.7003 49.1798 92.8679 48.4462 93.0885Z" stroke="white" stroke-opacity="0.03" stroke-width="2" mask="url(#path-1-inside-1_1_663)"/>
</g>
</g>
<defs>
<filter id="filter0_b_1_663" x="-4" y="6" width="96" height="99" filterUnits="userSpaceOnUse" color-interpolation-filters="sRGB">
<feFlood flood-opacity="0" result="BackgroundImageFix"/>
<feGaussianBlur in="BackgroundImageFix" stdDeviation="2"/>
<feComposite in2="SourceAlpha" operator="in" result="effect1_backgroundBlur_1_663"/>
<feBlend mode="normal" in="SourceGraphic" in2="effect1_backgroundBlur_1_663" result="shape"/>
</filter>
<linearGradient id="paint0_linear_1_663" x1="76.8533" y1="-15.7833" x2="41.8486" y2="128.384" gradientUnits="userSpaceOnUse">
<stop stop-color="white" stop-opacity="0"/>
<stop offset="1" stop-color="#0A0B43"/>
</linearGradient>
</defs>
</svg>
