<svg width="176" height="110" viewBox="0 0 176 110" fill="none" xmlns="http://www.w3.org/2000/svg">
<g opacity="0.8">
<g filter="url(#filter0_b_1_655)">
<mask id="path-1-inside-1_1_655" fill="white">
<path fill-rule="evenodd" clip-rule="evenodd" d="M48.2159 14.5359C46.0782 15.7596 45.5869 16.1213 45.7986 16.3154C45.9883 16.4892 62.4825 26.2411 63.7352 26.9203C63.909 27.0145 69.4661 23.7208 69.3421 23.5973C69.2896 23.5451 65.1185 21.1393 60.073 18.2512L50.8989 13L48.2159 14.5359ZM41.1982 18.5368C40.2042 19.1397 39.3155 19.7098 39.2233 19.8036C39.0757 19.9539 56.6177 30.4616 57.2717 30.6144C57.5278 30.6742 61.4701 28.4117 61.4526 28.2151C61.4416 28.0922 43.5317 17.5527 43.2213 17.4866C43.1026 17.4611 42.1922 17.9338 41.1982 18.5368ZM33.8812 22.7849C32.3401 23.6917 31.147 24.4964 31.23 24.5731C31.3132 24.6499 35.4464 27.0593 40.4151 29.9275L49.4491 35.1424L52.1149 33.6549C53.5812 32.8368 54.7804 32.0842 54.78 31.9822C54.7794 31.838 45.8243 26.4629 37.6012 21.671L36.6835 21.1363L33.8812 22.7849ZM67.4779 27.4818L64.8267 28.9728L64.8053 32.3519C64.7902 34.7703 64.7099 35.8203 64.5233 36.0448C64.1203 36.529 57.5223 40.2186 57.0592 40.2186C56.2585 40.2186 56.1594 39.8556 56.1594 36.9225C56.1594 35.3782 56.1199 34.1147 56.0713 34.1147C56.023 34.1147 54.7382 34.85 53.2162 35.7489L50.4492 37.3831V48.762V60.1408L54.171 57.991C56.2181 56.8085 60.6691 54.2392 64.062 52.2815L70.231 48.7217V37.349C70.231 31.0939 70.208 25.9795 70.18 25.9835C70.1521 25.9874 68.936 26.6617 67.4779 27.4818ZM30.0556 37.7418V49.1176L36.3266 52.7419C39.7756 54.7354 43.9061 57.1237 45.5054 58.0494L48.4133 59.7325L48.3605 48.3268L48.3079 36.9211L40.0484 32.146C35.5058 29.5195 31.3991 27.1447 30.9223 26.8684L30.0556 26.3661V37.7418ZM16.7624 36.4185L6.22213 42.5584L7.01626 42.9027C7.45309 43.0921 12.0127 45.6669 17.1486 48.6246C28.5481 55.1894 28.1704 54.9721 39.8445 61.6837C58.8194 72.5927 57.379 71.7044 59.4387 73.7675C62.2226 76.5558 64.4825 80.5125 65.462 84.3136C65.901 86.0172 65.9655 86.6607 65.9104 88.7952C65.8751 90.1662 65.8554 91.2877 65.8662 91.2877C66.0974 91.2871 98.0306 72.5785 98.4103 72.2212C100.403 70.3467 100.54 65.3678 98.7215 60.9718C97.0901 57.0287 94.5721 53.8325 91.6313 51.9718C89.9659 50.9181 73.4459 41.2815 73.0392 41.1264C72.7123 41.0019 72.6823 41.3189 72.6314 45.4272L72.5763 49.8623L68.1917 52.3899C58.2206 58.1373 50.1196 62.7464 49.7615 62.8752C49.4852 62.9747 47.1254 61.7024 41.1962 58.2564C34.3711 54.2896 29.852 51.6992 28.2201 50.8178C27.9556 50.6749 27.9071 49.2733 27.8614 40.4507C27.82 32.4842 27.7531 30.2522 27.5555 30.2638C27.4162 30.2719 22.5593 33.0417 16.7624 36.4185ZM60.3911 31.4225L58.4027 32.5741V34.8824C58.4027 36.152 58.4714 37.153 58.5557 37.107C58.6399 37.0611 59.6494 36.4967 60.799 35.8527L62.8893 34.6822V32.4657C62.8893 30.8221 62.8234 30.2518 62.6344 30.2597C62.4943 30.2658 61.4848 30.7889 60.3911 31.4225ZM3.6458 44.1843C3.53364 44.2217 3.19123 44.3074 2.88471 44.3747C2.0347 44.5617 0.997688 45.5906 0.461743 46.7788C0.0418385 47.7097 -0.017507 48.1386 0.00370233 50.0865C0.0567258 54.9696 2.34693 59.8729 6.30268 63.5714C7.72963 64.9057 8.76338 65.5863 13.1562 68.0832C20.3288 72.1602 38.732 82.7583 48.5118 88.4439C52.9984 91.0523 57.1281 93.3673 57.6889 93.5884C58.2993 93.8291 59.2136 93.9943 59.9663 93.9998C61.6653 94.0122 62.6258 93.3898 63.4302 91.7558C63.9718 90.6553 64.0108 90.4105 64.0067 88.134C64.0018 85.3718 63.5996 83.6057 62.3727 80.956C60.8526 77.6738 57.8572 74.0013 55.4456 72.4635C54.8848 72.1058 49.0114 68.72 42.3937 64.9397C35.776 61.1592 25.4517 55.2528 19.4509 51.8143C13.45 48.3758 8.08142 45.3328 7.52059 45.0522C6.20316 44.3928 4.30003 43.9666 3.6458 44.1843ZM5.98903 50.2391C4.86493 51.0023 4.48949 51.6811 4.39792 53.1144C4.19704 56.262 6.35489 60.0088 9.10375 61.2855C11.4215 62.362 13.1227 61.5394 13.8679 58.9821C14.1402 58.0476 14.1532 57.6716 13.9497 56.6236C13.0515 52.0007 8.62409 48.4499 5.98903 50.2391ZM21.2894 59.0901C20.8929 59.2885 20.3712 59.8055 20.1094 60.2596C19.7078 60.9561 19.6487 61.3085 19.6989 62.7012C19.7488 64.09 19.8685 64.561 20.5148 65.9118C22.1987 69.4319 25.6002 71.4369 27.6083 70.0932C28.0009 69.8305 28.5352 69.2043 28.7954 68.7017C29.2009 67.9192 29.2571 67.5617 29.1866 66.217C29.0722 64.04 28.1118 62.0987 26.3233 60.4295C24.5368 58.7622 22.8442 58.3117 21.2894 59.0901ZM36.4267 67.8885C35.1062 68.6915 34.565 70.329 34.9466 72.3657C35.4266 74.9289 37.4652 77.7715 39.5543 78.7912C43.0235 80.4846 45.5415 77.368 44.1155 73.1453C42.7247 69.026 38.8789 66.3967 36.4267 67.8885ZM51.6885 76.7926C49.1827 78.1776 49.7289 82.9404 52.7631 86.162C55.1244 88.6695 58.1649 88.7824 59.3714 86.4076C59.9451 85.2786 59.9616 84.0228 59.4255 82.2912C58.7255 80.0309 57.0204 77.8087 55.3078 76.925C54.2859 76.3977 52.52 76.3332 51.6885 76.7926Z"/>
</mask>
<path fill-rule="evenodd" clip-rule="evenodd" d="M48.2159 14.5359C46.0782 15.7596 45.5869 16.1213 45.7986 16.3154C45.9883 16.4892 62.4825 26.2411 63.7352 26.9203C63.909 27.0145 69.4661 23.7208 69.3421 23.5973C69.2896 23.5451 65.1185 21.1393 60.073 18.2512L50.8989 13L48.2159 14.5359ZM41.1982 18.5368C40.2042 19.1397 39.3155 19.7098 39.2233 19.8036C39.0757 19.9539 56.6177 30.4616 57.2717 30.6144C57.5278 30.6742 61.4701 28.4117 61.4526 28.2151C61.4416 28.0922 43.5317 17.5527 43.2213 17.4866C43.1026 17.4611 42.1922 17.9338 41.1982 18.5368ZM33.8812 22.7849C32.3401 23.6917 31.147 24.4964 31.23 24.5731C31.3132 24.6499 35.4464 27.0593 40.4151 29.9275L49.4491 35.1424L52.1149 33.6549C53.5812 32.8368 54.7804 32.0842 54.78 31.9822C54.7794 31.838 45.8243 26.4629 37.6012 21.671L36.6835 21.1363L33.8812 22.7849ZM67.4779 27.4818L64.8267 28.9728L64.8053 32.3519C64.7902 34.7703 64.7099 35.8203 64.5233 36.0448C64.1203 36.529 57.5223 40.2186 57.0592 40.2186C56.2585 40.2186 56.1594 39.8556 56.1594 36.9225C56.1594 35.3782 56.1199 34.1147 56.0713 34.1147C56.023 34.1147 54.7382 34.85 53.2162 35.7489L50.4492 37.3831V48.762V60.1408L54.171 57.991C56.2181 56.8085 60.6691 54.2392 64.062 52.2815L70.231 48.7217V37.349C70.231 31.0939 70.208 25.9795 70.18 25.9835C70.1521 25.9874 68.936 26.6617 67.4779 27.4818ZM30.0556 37.7418V49.1176L36.3266 52.7419C39.7756 54.7354 43.9061 57.1237 45.5054 58.0494L48.4133 59.7325L48.3605 48.3268L48.3079 36.9211L40.0484 32.146C35.5058 29.5195 31.3991 27.1447 30.9223 26.8684L30.0556 26.3661V37.7418ZM16.7624 36.4185L6.22213 42.5584L7.01626 42.9027C7.45309 43.0921 12.0127 45.6669 17.1486 48.6246C28.5481 55.1894 28.1704 54.9721 39.8445 61.6837C58.8194 72.5927 57.379 71.7044 59.4387 73.7675C62.2226 76.5558 64.4825 80.5125 65.462 84.3136C65.901 86.0172 65.9655 86.6607 65.9104 88.7952C65.8751 90.1662 65.8554 91.2877 65.8662 91.2877C66.0974 91.2871 98.0306 72.5785 98.4103 72.2212C100.403 70.3467 100.54 65.3678 98.7215 60.9718C97.0901 57.0287 94.5721 53.8325 91.6313 51.9718C89.9659 50.9181 73.4459 41.2815 73.0392 41.1264C72.7123 41.0019 72.6823 41.3189 72.6314 45.4272L72.5763 49.8623L68.1917 52.3899C58.2206 58.1373 50.1196 62.7464 49.7615 62.8752C49.4852 62.9747 47.1254 61.7024 41.1962 58.2564C34.3711 54.2896 29.852 51.6992 28.2201 50.8178C27.9556 50.6749 27.9071 49.2733 27.8614 40.4507C27.82 32.4842 27.7531 30.2522 27.5555 30.2638C27.4162 30.2719 22.5593 33.0417 16.7624 36.4185ZM60.3911 31.4225L58.4027 32.5741V34.8824C58.4027 36.152 58.4714 37.153 58.5557 37.107C58.6399 37.0611 59.6494 36.4967 60.799 35.8527L62.8893 34.6822V32.4657C62.8893 30.8221 62.8234 30.2518 62.6344 30.2597C62.4943 30.2658 61.4848 30.7889 60.3911 31.4225ZM3.6458 44.1843C3.53364 44.2217 3.19123 44.3074 2.88471 44.3747C2.0347 44.5617 0.997688 45.5906 0.461743 46.7788C0.0418385 47.7097 -0.017507 48.1386 0.00370233 50.0865C0.0567258 54.9696 2.34693 59.8729 6.30268 63.5714C7.72963 64.9057 8.76338 65.5863 13.1562 68.0832C20.3288 72.1602 38.732 82.7583 48.5118 88.4439C52.9984 91.0523 57.1281 93.3673 57.6889 93.5884C58.2993 93.8291 59.2136 93.9943 59.9663 93.9998C61.6653 94.0122 62.6258 93.3898 63.4302 91.7558C63.9718 90.6553 64.0108 90.4105 64.0067 88.134C64.0018 85.3718 63.5996 83.6057 62.3727 80.956C60.8526 77.6738 57.8572 74.0013 55.4456 72.4635C54.8848 72.1058 49.0114 68.72 42.3937 64.9397C35.776 61.1592 25.4517 55.2528 19.4509 51.8143C13.45 48.3758 8.08142 45.3328 7.52059 45.0522C6.20316 44.3928 4.30003 43.9666 3.6458 44.1843ZM5.98903 50.2391C4.86493 51.0023 4.48949 51.6811 4.39792 53.1144C4.19704 56.262 6.35489 60.0088 9.10375 61.2855C11.4215 62.362 13.1227 61.5394 13.8679 58.9821C14.1402 58.0476 14.1532 57.6716 13.9497 56.6236C13.0515 52.0007 8.62409 48.4499 5.98903 50.2391ZM21.2894 59.0901C20.8929 59.2885 20.3712 59.8055 20.1094 60.2596C19.7078 60.9561 19.6487 61.3085 19.6989 62.7012C19.7488 64.09 19.8685 64.561 20.5148 65.9118C22.1987 69.4319 25.6002 71.4369 27.6083 70.0932C28.0009 69.8305 28.5352 69.2043 28.7954 68.7017C29.2009 67.9192 29.2571 67.5617 29.1866 66.217C29.0722 64.04 28.1118 62.0987 26.3233 60.4295C24.5368 58.7622 22.8442 58.3117 21.2894 59.0901ZM36.4267 67.8885C35.1062 68.6915 34.565 70.329 34.9466 72.3657C35.4266 74.9289 37.4652 77.7715 39.5543 78.7912C43.0235 80.4846 45.5415 77.368 44.1155 73.1453C42.7247 69.026 38.8789 66.3967 36.4267 67.8885ZM51.6885 76.7926C49.1827 78.1776 49.7289 82.9404 52.7631 86.162C55.1244 88.6695 58.1649 88.7824 59.3714 86.4076C59.9451 85.2786 59.9616 84.0228 59.4255 82.2912C58.7255 80.0309 57.0204 77.8087 55.3078 76.925C54.2859 76.3977 52.52 76.3332 51.6885 76.7926Z" fill="#06CAC6"/>
<path fill-rule="evenodd" clip-rule="evenodd" d="M48.2159 14.5359C46.0782 15.7596 45.5869 16.1213 45.7986 16.3154C45.9883 16.4892 62.4825 26.2411 63.7352 26.9203C63.909 27.0145 69.4661 23.7208 69.3421 23.5973C69.2896 23.5451 65.1185 21.1393 60.073 18.2512L50.8989 13L48.2159 14.5359ZM41.1982 18.5368C40.2042 19.1397 39.3155 19.7098 39.2233 19.8036C39.0757 19.9539 56.6177 30.4616 57.2717 30.6144C57.5278 30.6742 61.4701 28.4117 61.4526 28.2151C61.4416 28.0922 43.5317 17.5527 43.2213 17.4866C43.1026 17.4611 42.1922 17.9338 41.1982 18.5368ZM33.8812 22.7849C32.3401 23.6917 31.147 24.4964 31.23 24.5731C31.3132 24.6499 35.4464 27.0593 40.4151 29.9275L49.4491 35.1424L52.1149 33.6549C53.5812 32.8368 54.7804 32.0842 54.78 31.9822C54.7794 31.838 45.8243 26.4629 37.6012 21.671L36.6835 21.1363L33.8812 22.7849ZM67.4779 27.4818L64.8267 28.9728L64.8053 32.3519C64.7902 34.7703 64.7099 35.8203 64.5233 36.0448C64.1203 36.529 57.5223 40.2186 57.0592 40.2186C56.2585 40.2186 56.1594 39.8556 56.1594 36.9225C56.1594 35.3782 56.1199 34.1147 56.0713 34.1147C56.023 34.1147 54.7382 34.85 53.2162 35.7489L50.4492 37.3831V48.762V60.1408L54.171 57.991C56.2181 56.8085 60.6691 54.2392 64.062 52.2815L70.231 48.7217V37.349C70.231 31.0939 70.208 25.9795 70.18 25.9835C70.1521 25.9874 68.936 26.6617 67.4779 27.4818ZM30.0556 37.7418V49.1176L36.3266 52.7419C39.7756 54.7354 43.9061 57.1237 45.5054 58.0494L48.4133 59.7325L48.3605 48.3268L48.3079 36.9211L40.0484 32.146C35.5058 29.5195 31.3991 27.1447 30.9223 26.8684L30.0556 26.3661V37.7418ZM16.7624 36.4185L6.22213 42.5584L7.01626 42.9027C7.45309 43.0921 12.0127 45.6669 17.1486 48.6246C28.5481 55.1894 28.1704 54.9721 39.8445 61.6837C58.8194 72.5927 57.379 71.7044 59.4387 73.7675C62.2226 76.5558 64.4825 80.5125 65.462 84.3136C65.901 86.0172 65.9655 86.6607 65.9104 88.7952C65.8751 90.1662 65.8554 91.2877 65.8662 91.2877C66.0974 91.2871 98.0306 72.5785 98.4103 72.2212C100.403 70.3467 100.54 65.3678 98.7215 60.9718C97.0901 57.0287 94.5721 53.8325 91.6313 51.9718C89.9659 50.9181 73.4459 41.2815 73.0392 41.1264C72.7123 41.0019 72.6823 41.3189 72.6314 45.4272L72.5763 49.8623L68.1917 52.3899C58.2206 58.1373 50.1196 62.7464 49.7615 62.8752C49.4852 62.9747 47.1254 61.7024 41.1962 58.2564C34.3711 54.2896 29.852 51.6992 28.2201 50.8178C27.9556 50.6749 27.9071 49.2733 27.8614 40.4507C27.82 32.4842 27.7531 30.2522 27.5555 30.2638C27.4162 30.2719 22.5593 33.0417 16.7624 36.4185ZM60.3911 31.4225L58.4027 32.5741V34.8824C58.4027 36.152 58.4714 37.153 58.5557 37.107C58.6399 37.0611 59.6494 36.4967 60.799 35.8527L62.8893 34.6822V32.4657C62.8893 30.8221 62.8234 30.2518 62.6344 30.2597C62.4943 30.2658 61.4848 30.7889 60.3911 31.4225ZM3.6458 44.1843C3.53364 44.2217 3.19123 44.3074 2.88471 44.3747C2.0347 44.5617 0.997688 45.5906 0.461743 46.7788C0.0418385 47.7097 -0.017507 48.1386 0.00370233 50.0865C0.0567258 54.9696 2.34693 59.8729 6.30268 63.5714C7.72963 64.9057 8.76338 65.5863 13.1562 68.0832C20.3288 72.1602 38.732 82.7583 48.5118 88.4439C52.9984 91.0523 57.1281 93.3673 57.6889 93.5884C58.2993 93.8291 59.2136 93.9943 59.9663 93.9998C61.6653 94.0122 62.6258 93.3898 63.4302 91.7558C63.9718 90.6553 64.0108 90.4105 64.0067 88.134C64.0018 85.3718 63.5996 83.6057 62.3727 80.956C60.8526 77.6738 57.8572 74.0013 55.4456 72.4635C54.8848 72.1058 49.0114 68.72 42.3937 64.9397C35.776 61.1592 25.4517 55.2528 19.4509 51.8143C13.45 48.3758 8.08142 45.3328 7.52059 45.0522C6.20316 44.3928 4.30003 43.9666 3.6458 44.1843ZM5.98903 50.2391C4.86493 51.0023 4.48949 51.6811 4.39792 53.1144C4.19704 56.262 6.35489 60.0088 9.10375 61.2855C11.4215 62.362 13.1227 61.5394 13.8679 58.9821C14.1402 58.0476 14.1532 57.6716 13.9497 56.6236C13.0515 52.0007 8.62409 48.4499 5.98903 50.2391ZM21.2894 59.0901C20.8929 59.2885 20.3712 59.8055 20.1094 60.2596C19.7078 60.9561 19.6487 61.3085 19.6989 62.7012C19.7488 64.09 19.8685 64.561 20.5148 65.9118C22.1987 69.4319 25.6002 71.4369 27.6083 70.0932C28.0009 69.8305 28.5352 69.2043 28.7954 68.7017C29.2009 67.9192 29.2571 67.5617 29.1866 66.217C29.0722 64.04 28.1118 62.0987 26.3233 60.4295C24.5368 58.7622 22.8442 58.3117 21.2894 59.0901ZM36.4267 67.8885C35.1062 68.6915 34.565 70.329 34.9466 72.3657C35.4266 74.9289 37.4652 77.7715 39.5543 78.7912C43.0235 80.4846 45.5415 77.368 44.1155 73.1453C42.7247 69.026 38.8789 66.3967 36.4267 67.8885ZM51.6885 76.7926C49.1827 78.1776 49.7289 82.9404 52.7631 86.162C55.1244 88.6695 58.1649 88.7824 59.3714 86.4076C59.9451 85.2786 59.9616 84.0228 59.4255 82.2912C58.7255 80.0309 57.0204 77.8087 55.3078 76.925C54.2859 76.3977 52.52 76.3332 51.6885 76.7926Z" fill="url(#paint0_linear_1_655)"/>
<path fill-rule="evenodd" clip-rule="evenodd" d="M48.2159 14.5359C46.0782 15.7596 45.5869 16.1213 45.7986 16.3154C45.9883 16.4892 62.4825 26.2411 63.7352 26.9203C63.909 27.0145 69.4661 23.7208 69.3421 23.5973C69.2896 23.5451 65.1185 21.1393 60.073 18.2512L50.8989 13L48.2159 14.5359ZM41.1982 18.5368C40.2042 19.1397 39.3155 19.7098 39.2233 19.8036C39.0757 19.9539 56.6177 30.4616 57.2717 30.6144C57.5278 30.6742 61.4701 28.4117 61.4526 28.2151C61.4416 28.0922 43.5317 17.5527 43.2213 17.4866C43.1026 17.4611 42.1922 17.9338 41.1982 18.5368ZM33.8812 22.7849C32.3401 23.6917 31.147 24.4964 31.23 24.5731C31.3132 24.6499 35.4464 27.0593 40.4151 29.9275L49.4491 35.1424L52.1149 33.6549C53.5812 32.8368 54.7804 32.0842 54.78 31.9822C54.7794 31.838 45.8243 26.4629 37.6012 21.671L36.6835 21.1363L33.8812 22.7849ZM67.4779 27.4818L64.8267 28.9728L64.8053 32.3519C64.7902 34.7703 64.7099 35.8203 64.5233 36.0448C64.1203 36.529 57.5223 40.2186 57.0592 40.2186C56.2585 40.2186 56.1594 39.8556 56.1594 36.9225C56.1594 35.3782 56.1199 34.1147 56.0713 34.1147C56.023 34.1147 54.7382 34.85 53.2162 35.7489L50.4492 37.3831V48.762V60.1408L54.171 57.991C56.2181 56.8085 60.6691 54.2392 64.062 52.2815L70.231 48.7217V37.349C70.231 31.0939 70.208 25.9795 70.18 25.9835C70.1521 25.9874 68.936 26.6617 67.4779 27.4818ZM30.0556 37.7418V49.1176L36.3266 52.7419C39.7756 54.7354 43.9061 57.1237 45.5054 58.0494L48.4133 59.7325L48.3605 48.3268L48.3079 36.9211L40.0484 32.146C35.5058 29.5195 31.3991 27.1447 30.9223 26.8684L30.0556 26.3661V37.7418ZM16.7624 36.4185L6.22213 42.5584L7.01626 42.9027C7.45309 43.0921 12.0127 45.6669 17.1486 48.6246C28.5481 55.1894 28.1704 54.9721 39.8445 61.6837C58.8194 72.5927 57.379 71.7044 59.4387 73.7675C62.2226 76.5558 64.4825 80.5125 65.462 84.3136C65.901 86.0172 65.9655 86.6607 65.9104 88.7952C65.8751 90.1662 65.8554 91.2877 65.8662 91.2877C66.0974 91.2871 98.0306 72.5785 98.4103 72.2212C100.403 70.3467 100.54 65.3678 98.7215 60.9718C97.0901 57.0287 94.5721 53.8325 91.6313 51.9718C89.9659 50.9181 73.4459 41.2815 73.0392 41.1264C72.7123 41.0019 72.6823 41.3189 72.6314 45.4272L72.5763 49.8623L68.1917 52.3899C58.2206 58.1373 50.1196 62.7464 49.7615 62.8752C49.4852 62.9747 47.1254 61.7024 41.1962 58.2564C34.3711 54.2896 29.852 51.6992 28.2201 50.8178C27.9556 50.6749 27.9071 49.2733 27.8614 40.4507C27.82 32.4842 27.7531 30.2522 27.5555 30.2638C27.4162 30.2719 22.5593 33.0417 16.7624 36.4185ZM60.3911 31.4225L58.4027 32.5741V34.8824C58.4027 36.152 58.4714 37.153 58.5557 37.107C58.6399 37.0611 59.6494 36.4967 60.799 35.8527L62.8893 34.6822V32.4657C62.8893 30.8221 62.8234 30.2518 62.6344 30.2597C62.4943 30.2658 61.4848 30.7889 60.3911 31.4225ZM3.6458 44.1843C3.53364 44.2217 3.19123 44.3074 2.88471 44.3747C2.0347 44.5617 0.997688 45.5906 0.461743 46.7788C0.0418385 47.7097 -0.017507 48.1386 0.00370233 50.0865C0.0567258 54.9696 2.34693 59.8729 6.30268 63.5714C7.72963 64.9057 8.76338 65.5863 13.1562 68.0832C20.3288 72.1602 38.732 82.7583 48.5118 88.4439C52.9984 91.0523 57.1281 93.3673 57.6889 93.5884C58.2993 93.8291 59.2136 93.9943 59.9663 93.9998C61.6653 94.0122 62.6258 93.3898 63.4302 91.7558C63.9718 90.6553 64.0108 90.4105 64.0067 88.134C64.0018 85.3718 63.5996 83.6057 62.3727 80.956C60.8526 77.6738 57.8572 74.0013 55.4456 72.4635C54.8848 72.1058 49.0114 68.72 42.3937 64.9397C35.776 61.1592 25.4517 55.2528 19.4509 51.8143C13.45 48.3758 8.08142 45.3328 7.52059 45.0522C6.20316 44.3928 4.30003 43.9666 3.6458 44.1843ZM5.98903 50.2391C4.86493 51.0023 4.48949 51.6811 4.39792 53.1144C4.19704 56.262 6.35489 60.0088 9.10375 61.2855C11.4215 62.362 13.1227 61.5394 13.8679 58.9821C14.1402 58.0476 14.1532 57.6716 13.9497 56.6236C13.0515 52.0007 8.62409 48.4499 5.98903 50.2391ZM21.2894 59.0901C20.8929 59.2885 20.3712 59.8055 20.1094 60.2596C19.7078 60.9561 19.6487 61.3085 19.6989 62.7012C19.7488 64.09 19.8685 64.561 20.5148 65.9118C22.1987 69.4319 25.6002 71.4369 27.6083 70.0932C28.0009 69.8305 28.5352 69.2043 28.7954 68.7017C29.2009 67.9192 29.2571 67.5617 29.1866 66.217C29.0722 64.04 28.1118 62.0987 26.3233 60.4295C24.5368 58.7622 22.8442 58.3117 21.2894 59.0901ZM36.4267 67.8885C35.1062 68.6915 34.565 70.329 34.9466 72.3657C35.4266 74.9289 37.4652 77.7715 39.5543 78.7912C43.0235 80.4846 45.5415 77.368 44.1155 73.1453C42.7247 69.026 38.8789 66.3967 36.4267 67.8885ZM51.6885 76.7926C49.1827 78.1776 49.7289 82.9404 52.7631 86.162C55.1244 88.6695 58.1649 88.7824 59.3714 86.4076C59.9451 85.2786 59.9616 84.0228 59.4255 82.2912C58.7255 80.0309 57.0204 77.8087 55.3078 76.925C54.2859 76.3977 52.52 76.3332 51.6885 76.7926Z" stroke="white" stroke-opacity="0.03" stroke-width="2" mask="url(#path-1-inside-1_1_655)"/>
</g>
</g>
<defs>
<filter id="filter0_b_1_655" x="-4" y="9" width="108" height="89" filterUnits="userSpaceOnUse" color-interpolation-filters="sRGB">
<feFlood flood-opacity="0" result="BackgroundImageFix"/>
<feGaussianBlur in="BackgroundImageFix" stdDeviation="2"/>
<feComposite in2="SourceAlpha" operator="in" result="effect1_backgroundBlur_1_655"/>
<feBlend mode="normal" in="SourceGraphic" in2="effect1_backgroundBlur_1_655" result="shape"/>
</filter>
<linearGradient id="paint0_linear_1_655" x1="87.3333" y1="-9.95" x2="62.3907" y2="121.197" gradientUnits="userSpaceOnUse">
<stop stop-color="white" stop-opacity="0"/>
<stop offset="1" stop-color="#0A0B43"/>
</linearGradient>
</defs>
</svg>
