<svg width="176" height="110" viewBox="0 0 176 110" fill="none" xmlns="http://www.w3.org/2000/svg">
<g opacity="0.8">
<g filter="url(#filter0_b_1_659)">
<mask id="path-1-inside-1_1_659" fill="white">
<path fill-rule="evenodd" clip-rule="evenodd" d="M34.4285 16.5129C30.9307 18.5458 28.0253 20.2534 27.9721 20.3075C27.9191 20.3617 35.6409 24.918 45.1316 30.4327L62.3873 40.4594L68.7814 36.7537C72.2981 34.7155 75.1754 32.9954 75.1754 32.9311C75.1754 32.8667 67.6033 28.417 58.3487 23.0426C49.0941 17.6681 41.3569 13.1687 41.1551 13.0439C40.8292 12.8419 40.0786 13.2292 34.4285 16.5129ZM21.032 24.2228C18.3364 25.7446 16.1494 27.0506 16.172 27.1252C16.2252 27.3004 50.2607 47.0997 50.5266 47.1102C50.8503 47.1226 60.1546 41.7036 60.0972 41.5359C60.0686 41.4523 52.6175 37.0451 43.5393 31.7422C34.4611 26.4392 26.7859 21.9554 26.4833 21.7783L25.9331 21.456L21.032 24.2228ZM7.76723 31.8517C4.27002 33.8466 1.33107 35.5565 1.23607 35.6514C1.12805 35.7593 2.18369 36.466 4.05324 37.5373C8.27175 39.9549 18.719 46.0225 27.7965 51.327L35.5285 55.8455L42.0494 52.1383C45.6359 50.0995 48.5732 48.3886 48.5765 48.3364C48.58 48.2841 45.0133 46.1684 40.6508 43.635C36.2881 41.1014 28.5354 36.5976 23.4222 33.6265L14.1254 28.2245L7.76723 31.8517ZM69.9486 38.1742L63.5297 41.912L63.438 49.2906L63.3463 56.6695L62.861 56.8399C62.4601 56.9806 61.9381 56.83 59.8588 55.9736C58.4745 55.4035 57.2798 54.9371 57.2039 54.9371C57.1282 54.9371 55.8875 56.8133 54.4467 59.1063C53.0061 61.3993 51.6769 63.4364 51.4929 63.633C51.2198 63.9248 51.0649 63.9576 50.65 63.8119L50.1416 63.6334L50.0499 56.8245L49.9582 50.0156L43.4476 53.7309L36.937 57.4463L36.9812 78.3036C37.0056 89.7753 37.0591 99.1947 37.1004 99.2358C37.1415 99.2768 40.6902 97.2641 44.9865 94.7627C50.8965 91.3218 52.7706 90.148 52.6865 89.94C52.1181 88.5368 52.1663 85.1802 52.8 82.0502C53.9524 76.3563 57.0143 70.0957 60.9065 65.4746C65.3988 60.1408 70.3985 57.009 75.2501 56.4899L76.4592 56.3605V45.3862C76.4592 39.3503 76.4385 34.4173 76.4133 34.4241C76.3882 34.4309 73.479 36.1185 69.9486 38.1742ZM0.0441678 45.2543C0.111108 49.5041 0.165761 58.8963 0.165761 66.1257V79.2702L17.4183 89.2957C26.9073 94.8096 34.7028 99.2891 34.7417 99.2502C34.7808 99.2114 34.7542 89.7963 34.6827 78.328L34.5528 57.4764L17.4051 47.5049C7.97392 42.0206 0.182083 37.532 0.0900172 37.5304C-0.0101179 37.5285 -0.0286411 40.628 0.0441678 45.2543ZM56.4799 45.9751C53.9136 47.4752 51.746 48.7707 51.6627 48.8539C51.5795 48.9371 51.5333 51.3494 51.56 54.2145L51.6088 59.4235L53.7102 56.1726C54.866 54.3846 55.9563 52.8758 56.1332 52.8197C56.3111 52.7632 57.5239 53.1638 58.8461 53.7156L61.2372 54.7137V48.9609C61.2372 45.7971 61.2165 43.2172 61.1913 43.2278C61.1662 43.2386 59.046 44.4747 56.4799 45.9751ZM73.7082 58.7856C70.748 59.5811 67.2891 61.7509 64.3592 64.6499C57.9181 71.0234 53.8949 80.4212 54.3249 88.0885C54.5619 92.3129 56.1131 95.4941 58.5981 96.8528L59.3427 97.26L58.9999 96.2451C58.5423 94.8908 58.1218 92.0186 58.1205 90.2384C58.1143 81.8849 63.6032 70.9012 70.7684 64.9294C73.5844 62.5822 76.992 60.7936 79.7191 60.2308C81.0562 59.9548 81.0084 59.7994 79.3584 59.0594C77.8136 58.3666 75.6557 58.262 73.7082 58.7856ZM79.6131 62.1768C72.9537 64.0351 66.3076 70.6714 62.6794 79.0851C60.7701 83.5127 60.027 87.1684 60.1933 91.3145C60.3059 94.1211 60.5905 95.4441 61.4455 97.1365C64.3784 102.942 72.3241 102.115 79.4627 95.2601C85.1526 89.7967 89.0373 82.0633 89.8553 74.5715C90.5075 68.5979 88.9383 64.2935 85.4902 62.5972C84.3957 62.0588 84.0913 61.9947 82.4303 61.9523C81.2257 61.9217 80.2482 61.9996 79.6131 62.1768ZM74.7492 73.0442C74.4965 73.3233 74.4418 73.9578 74.3998 77.0982L74.3501 80.8215L71.2357 82.6238C69.5227 83.6153 68.0161 84.5699 67.8877 84.7453C67.6409 85.0827 67.7506 85.7255 68.0935 85.9513C68.5329 86.2405 69.0648 86.0428 71.3894 84.7257C72.7151 83.9745 73.9445 83.3059 74.1209 83.24C74.4189 83.1287 74.4418 83.3485 74.4418 86.3102C74.4418 89.6765 74.5034 89.94 75.2908 89.94C76.2103 89.94 76.2758 89.6538 76.2758 85.6341V81.9042L78.8892 80.4038C82.8031 78.1569 82.8781 78.1024 82.8781 77.5123C82.8781 76.9061 82.5797 76.5603 82.062 76.5661C81.8553 76.5685 80.4894 77.2594 79.0268 78.1017L76.3675 79.6328L76.3173 76.5033C76.2756 73.916 76.2151 73.3166 75.9679 73.0437C75.5866 72.6227 75.1308 72.6229 74.7492 73.0442Z"/>
</mask>
<path fill-rule="evenodd" clip-rule="evenodd" d="M34.4285 16.5129C30.9307 18.5458 28.0253 20.2534 27.9721 20.3075C27.9191 20.3617 35.6409 24.918 45.1316 30.4327L62.3873 40.4594L68.7814 36.7537C72.2981 34.7155 75.1754 32.9954 75.1754 32.9311C75.1754 32.8667 67.6033 28.417 58.3487 23.0426C49.0941 17.6681 41.3569 13.1687 41.1551 13.0439C40.8292 12.8419 40.0786 13.2292 34.4285 16.5129ZM21.032 24.2228C18.3364 25.7446 16.1494 27.0506 16.172 27.1252C16.2252 27.3004 50.2607 47.0997 50.5266 47.1102C50.8503 47.1226 60.1546 41.7036 60.0972 41.5359C60.0686 41.4523 52.6175 37.0451 43.5393 31.7422C34.4611 26.4392 26.7859 21.9554 26.4833 21.7783L25.9331 21.456L21.032 24.2228ZM7.76723 31.8517C4.27002 33.8466 1.33107 35.5565 1.23607 35.6514C1.12805 35.7593 2.18369 36.466 4.05324 37.5373C8.27175 39.9549 18.719 46.0225 27.7965 51.327L35.5285 55.8455L42.0494 52.1383C45.6359 50.0995 48.5732 48.3886 48.5765 48.3364C48.58 48.2841 45.0133 46.1684 40.6508 43.635C36.2881 41.1014 28.5354 36.5976 23.4222 33.6265L14.1254 28.2245L7.76723 31.8517ZM69.9486 38.1742L63.5297 41.912L63.438 49.2906L63.3463 56.6695L62.861 56.8399C62.4601 56.9806 61.9381 56.83 59.8588 55.9736C58.4745 55.4035 57.2798 54.9371 57.2039 54.9371C57.1282 54.9371 55.8875 56.8133 54.4467 59.1063C53.0061 61.3993 51.6769 63.4364 51.4929 63.633C51.2198 63.9248 51.0649 63.9576 50.65 63.8119L50.1416 63.6334L50.0499 56.8245L49.9582 50.0156L43.4476 53.7309L36.937 57.4463L36.9812 78.3036C37.0056 89.7753 37.0591 99.1947 37.1004 99.2358C37.1415 99.2768 40.6902 97.2641 44.9865 94.7627C50.8965 91.3218 52.7706 90.148 52.6865 89.94C52.1181 88.5368 52.1663 85.1802 52.8 82.0502C53.9524 76.3563 57.0143 70.0957 60.9065 65.4746C65.3988 60.1408 70.3985 57.009 75.2501 56.4899L76.4592 56.3605V45.3862C76.4592 39.3503 76.4385 34.4173 76.4133 34.4241C76.3882 34.4309 73.479 36.1185 69.9486 38.1742ZM0.0441678 45.2543C0.111108 49.5041 0.165761 58.8963 0.165761 66.1257V79.2702L17.4183 89.2957C26.9073 94.8096 34.7028 99.2891 34.7417 99.2502C34.7808 99.2114 34.7542 89.7963 34.6827 78.328L34.5528 57.4764L17.4051 47.5049C7.97392 42.0206 0.182083 37.532 0.0900172 37.5304C-0.0101179 37.5285 -0.0286411 40.628 0.0441678 45.2543ZM56.4799 45.9751C53.9136 47.4752 51.746 48.7707 51.6627 48.8539C51.5795 48.9371 51.5333 51.3494 51.56 54.2145L51.6088 59.4235L53.7102 56.1726C54.866 54.3846 55.9563 52.8758 56.1332 52.8197C56.3111 52.7632 57.5239 53.1638 58.8461 53.7156L61.2372 54.7137V48.9609C61.2372 45.7971 61.2165 43.2172 61.1913 43.2278C61.1662 43.2386 59.046 44.4747 56.4799 45.9751ZM73.7082 58.7856C70.748 59.5811 67.2891 61.7509 64.3592 64.6499C57.9181 71.0234 53.8949 80.4212 54.3249 88.0885C54.5619 92.3129 56.1131 95.4941 58.5981 96.8528L59.3427 97.26L58.9999 96.2451C58.5423 94.8908 58.1218 92.0186 58.1205 90.2384C58.1143 81.8849 63.6032 70.9012 70.7684 64.9294C73.5844 62.5822 76.992 60.7936 79.7191 60.2308C81.0562 59.9548 81.0084 59.7994 79.3584 59.0594C77.8136 58.3666 75.6557 58.262 73.7082 58.7856ZM79.6131 62.1768C72.9537 64.0351 66.3076 70.6714 62.6794 79.0851C60.7701 83.5127 60.027 87.1684 60.1933 91.3145C60.3059 94.1211 60.5905 95.4441 61.4455 97.1365C64.3784 102.942 72.3241 102.115 79.4627 95.2601C85.1526 89.7967 89.0373 82.0633 89.8553 74.5715C90.5075 68.5979 88.9383 64.2935 85.4902 62.5972C84.3957 62.0588 84.0913 61.9947 82.4303 61.9523C81.2257 61.9217 80.2482 61.9996 79.6131 62.1768ZM74.7492 73.0442C74.4965 73.3233 74.4418 73.9578 74.3998 77.0982L74.3501 80.8215L71.2357 82.6238C69.5227 83.6153 68.0161 84.5699 67.8877 84.7453C67.6409 85.0827 67.7506 85.7255 68.0935 85.9513C68.5329 86.2405 69.0648 86.0428 71.3894 84.7257C72.7151 83.9745 73.9445 83.3059 74.1209 83.24C74.4189 83.1287 74.4418 83.3485 74.4418 86.3102C74.4418 89.6765 74.5034 89.94 75.2908 89.94C76.2103 89.94 76.2758 89.6538 76.2758 85.6341V81.9042L78.8892 80.4038C82.8031 78.1569 82.8781 78.1024 82.8781 77.5123C82.8781 76.9061 82.5797 76.5603 82.062 76.5661C81.8553 76.5685 80.4894 77.2594 79.0268 78.1017L76.3675 79.6328L76.3173 76.5033C76.2756 73.916 76.2151 73.3166 75.9679 73.0437C75.5866 72.6227 75.1308 72.6229 74.7492 73.0442Z" fill="#06CAC6"/>
<path fill-rule="evenodd" clip-rule="evenodd" d="M34.4285 16.5129C30.9307 18.5458 28.0253 20.2534 27.9721 20.3075C27.9191 20.3617 35.6409 24.918 45.1316 30.4327L62.3873 40.4594L68.7814 36.7537C72.2981 34.7155 75.1754 32.9954 75.1754 32.9311C75.1754 32.8667 67.6033 28.417 58.3487 23.0426C49.0941 17.6681 41.3569 13.1687 41.1551 13.0439C40.8292 12.8419 40.0786 13.2292 34.4285 16.5129ZM21.032 24.2228C18.3364 25.7446 16.1494 27.0506 16.172 27.1252C16.2252 27.3004 50.2607 47.0997 50.5266 47.1102C50.8503 47.1226 60.1546 41.7036 60.0972 41.5359C60.0686 41.4523 52.6175 37.0451 43.5393 31.7422C34.4611 26.4392 26.7859 21.9554 26.4833 21.7783L25.9331 21.456L21.032 24.2228ZM7.76723 31.8517C4.27002 33.8466 1.33107 35.5565 1.23607 35.6514C1.12805 35.7593 2.18369 36.466 4.05324 37.5373C8.27175 39.9549 18.719 46.0225 27.7965 51.327L35.5285 55.8455L42.0494 52.1383C45.6359 50.0995 48.5732 48.3886 48.5765 48.3364C48.58 48.2841 45.0133 46.1684 40.6508 43.635C36.2881 41.1014 28.5354 36.5976 23.4222 33.6265L14.1254 28.2245L7.76723 31.8517ZM69.9486 38.1742L63.5297 41.912L63.438 49.2906L63.3463 56.6695L62.861 56.8399C62.4601 56.9806 61.9381 56.83 59.8588 55.9736C58.4745 55.4035 57.2798 54.9371 57.2039 54.9371C57.1282 54.9371 55.8875 56.8133 54.4467 59.1063C53.0061 61.3993 51.6769 63.4364 51.4929 63.633C51.2198 63.9248 51.0649 63.9576 50.65 63.8119L50.1416 63.6334L50.0499 56.8245L49.9582 50.0156L43.4476 53.7309L36.937 57.4463L36.9812 78.3036C37.0056 89.7753 37.0591 99.1947 37.1004 99.2358C37.1415 99.2768 40.6902 97.2641 44.9865 94.7627C50.8965 91.3218 52.7706 90.148 52.6865 89.94C52.1181 88.5368 52.1663 85.1802 52.8 82.0502C53.9524 76.3563 57.0143 70.0957 60.9065 65.4746C65.3988 60.1408 70.3985 57.009 75.2501 56.4899L76.4592 56.3605V45.3862C76.4592 39.3503 76.4385 34.4173 76.4133 34.4241C76.3882 34.4309 73.479 36.1185 69.9486 38.1742ZM0.0441678 45.2543C0.111108 49.5041 0.165761 58.8963 0.165761 66.1257V79.2702L17.4183 89.2957C26.9073 94.8096 34.7028 99.2891 34.7417 99.2502C34.7808 99.2114 34.7542 89.7963 34.6827 78.328L34.5528 57.4764L17.4051 47.5049C7.97392 42.0206 0.182083 37.532 0.0900172 37.5304C-0.0101179 37.5285 -0.0286411 40.628 0.0441678 45.2543ZM56.4799 45.9751C53.9136 47.4752 51.746 48.7707 51.6627 48.8539C51.5795 48.9371 51.5333 51.3494 51.56 54.2145L51.6088 59.4235L53.7102 56.1726C54.866 54.3846 55.9563 52.8758 56.1332 52.8197C56.3111 52.7632 57.5239 53.1638 58.8461 53.7156L61.2372 54.7137V48.9609C61.2372 45.7971 61.2165 43.2172 61.1913 43.2278C61.1662 43.2386 59.046 44.4747 56.4799 45.9751ZM73.7082 58.7856C70.748 59.5811 67.2891 61.7509 64.3592 64.6499C57.9181 71.0234 53.8949 80.4212 54.3249 88.0885C54.5619 92.3129 56.1131 95.4941 58.5981 96.8528L59.3427 97.26L58.9999 96.2451C58.5423 94.8908 58.1218 92.0186 58.1205 90.2384C58.1143 81.8849 63.6032 70.9012 70.7684 64.9294C73.5844 62.5822 76.992 60.7936 79.7191 60.2308C81.0562 59.9548 81.0084 59.7994 79.3584 59.0594C77.8136 58.3666 75.6557 58.262 73.7082 58.7856ZM79.6131 62.1768C72.9537 64.0351 66.3076 70.6714 62.6794 79.0851C60.7701 83.5127 60.027 87.1684 60.1933 91.3145C60.3059 94.1211 60.5905 95.4441 61.4455 97.1365C64.3784 102.942 72.3241 102.115 79.4627 95.2601C85.1526 89.7967 89.0373 82.0633 89.8553 74.5715C90.5075 68.5979 88.9383 64.2935 85.4902 62.5972C84.3957 62.0588 84.0913 61.9947 82.4303 61.9523C81.2257 61.9217 80.2482 61.9996 79.6131 62.1768ZM74.7492 73.0442C74.4965 73.3233 74.4418 73.9578 74.3998 77.0982L74.3501 80.8215L71.2357 82.6238C69.5227 83.6153 68.0161 84.5699 67.8877 84.7453C67.6409 85.0827 67.7506 85.7255 68.0935 85.9513C68.5329 86.2405 69.0648 86.0428 71.3894 84.7257C72.7151 83.9745 73.9445 83.3059 74.1209 83.24C74.4189 83.1287 74.4418 83.3485 74.4418 86.3102C74.4418 89.6765 74.5034 89.94 75.2908 89.94C76.2103 89.94 76.2758 89.6538 76.2758 85.6341V81.9042L78.8892 80.4038C82.8031 78.1569 82.8781 78.1024 82.8781 77.5123C82.8781 76.9061 82.5797 76.5603 82.062 76.5661C81.8553 76.5685 80.4894 77.2594 79.0268 78.1017L76.3675 79.6328L76.3173 76.5033C76.2756 73.916 76.2151 73.3166 75.9679 73.0437C75.5866 72.6227 75.1308 72.6229 74.7492 73.0442Z" fill="url(#paint0_linear_1_659)"/>
<path fill-rule="evenodd" clip-rule="evenodd" d="M34.4285 16.5129C30.9307 18.5458 28.0253 20.2534 27.9721 20.3075C27.9191 20.3617 35.6409 24.918 45.1316 30.4327L62.3873 40.4594L68.7814 36.7537C72.2981 34.7155 75.1754 32.9954 75.1754 32.9311C75.1754 32.8667 67.6033 28.417 58.3487 23.0426C49.0941 17.6681 41.3569 13.1687 41.1551 13.0439C40.8292 12.8419 40.0786 13.2292 34.4285 16.5129ZM21.032 24.2228C18.3364 25.7446 16.1494 27.0506 16.172 27.1252C16.2252 27.3004 50.2607 47.0997 50.5266 47.1102C50.8503 47.1226 60.1546 41.7036 60.0972 41.5359C60.0686 41.4523 52.6175 37.0451 43.5393 31.7422C34.4611 26.4392 26.7859 21.9554 26.4833 21.7783L25.9331 21.456L21.032 24.2228ZM7.76723 31.8517C4.27002 33.8466 1.33107 35.5565 1.23607 35.6514C1.12805 35.7593 2.18369 36.466 4.05324 37.5373C8.27175 39.9549 18.719 46.0225 27.7965 51.327L35.5285 55.8455L42.0494 52.1383C45.6359 50.0995 48.5732 48.3886 48.5765 48.3364C48.58 48.2841 45.0133 46.1684 40.6508 43.635C36.2881 41.1014 28.5354 36.5976 23.4222 33.6265L14.1254 28.2245L7.76723 31.8517ZM69.9486 38.1742L63.5297 41.912L63.438 49.2906L63.3463 56.6695L62.861 56.8399C62.4601 56.9806 61.9381 56.83 59.8588 55.9736C58.4745 55.4035 57.2798 54.9371 57.2039 54.9371C57.1282 54.9371 55.8875 56.8133 54.4467 59.1063C53.0061 61.3993 51.6769 63.4364 51.4929 63.633C51.2198 63.9248 51.0649 63.9576 50.65 63.8119L50.1416 63.6334L50.0499 56.8245L49.9582 50.0156L43.4476 53.7309L36.937 57.4463L36.9812 78.3036C37.0056 89.7753 37.0591 99.1947 37.1004 99.2358C37.1415 99.2768 40.6902 97.2641 44.9865 94.7627C50.8965 91.3218 52.7706 90.148 52.6865 89.94C52.1181 88.5368 52.1663 85.1802 52.8 82.0502C53.9524 76.3563 57.0143 70.0957 60.9065 65.4746C65.3988 60.1408 70.3985 57.009 75.2501 56.4899L76.4592 56.3605V45.3862C76.4592 39.3503 76.4385 34.4173 76.4133 34.4241C76.3882 34.4309 73.479 36.1185 69.9486 38.1742ZM0.0441678 45.2543C0.111108 49.5041 0.165761 58.8963 0.165761 66.1257V79.2702L17.4183 89.2957C26.9073 94.8096 34.7028 99.2891 34.7417 99.2502C34.7808 99.2114 34.7542 89.7963 34.6827 78.328L34.5528 57.4764L17.4051 47.5049C7.97392 42.0206 0.182083 37.532 0.0900172 37.5304C-0.0101179 37.5285 -0.0286411 40.628 0.0441678 45.2543ZM56.4799 45.9751C53.9136 47.4752 51.746 48.7707 51.6627 48.8539C51.5795 48.9371 51.5333 51.3494 51.56 54.2145L51.6088 59.4235L53.7102 56.1726C54.866 54.3846 55.9563 52.8758 56.1332 52.8197C56.3111 52.7632 57.5239 53.1638 58.8461 53.7156L61.2372 54.7137V48.9609C61.2372 45.7971 61.2165 43.2172 61.1913 43.2278C61.1662 43.2386 59.046 44.4747 56.4799 45.9751ZM73.7082 58.7856C70.748 59.5811 67.2891 61.7509 64.3592 64.6499C57.9181 71.0234 53.8949 80.4212 54.3249 88.0885C54.5619 92.3129 56.1131 95.4941 58.5981 96.8528L59.3427 97.26L58.9999 96.2451C58.5423 94.8908 58.1218 92.0186 58.1205 90.2384C58.1143 81.8849 63.6032 70.9012 70.7684 64.9294C73.5844 62.5822 76.992 60.7936 79.7191 60.2308C81.0562 59.9548 81.0084 59.7994 79.3584 59.0594C77.8136 58.3666 75.6557 58.262 73.7082 58.7856ZM79.6131 62.1768C72.9537 64.0351 66.3076 70.6714 62.6794 79.0851C60.7701 83.5127 60.027 87.1684 60.1933 91.3145C60.3059 94.1211 60.5905 95.4441 61.4455 97.1365C64.3784 102.942 72.3241 102.115 79.4627 95.2601C85.1526 89.7967 89.0373 82.0633 89.8553 74.5715C90.5075 68.5979 88.9383 64.2935 85.4902 62.5972C84.3957 62.0588 84.0913 61.9947 82.4303 61.9523C81.2257 61.9217 80.2482 61.9996 79.6131 62.1768ZM74.7492 73.0442C74.4965 73.3233 74.4418 73.9578 74.3998 77.0982L74.3501 80.8215L71.2357 82.6238C69.5227 83.6153 68.0161 84.5699 67.8877 84.7453C67.6409 85.0827 67.7506 85.7255 68.0935 85.9513C68.5329 86.2405 69.0648 86.0428 71.3894 84.7257C72.7151 83.9745 73.9445 83.3059 74.1209 83.24C74.4189 83.1287 74.4418 83.3485 74.4418 86.3102C74.4418 89.6765 74.5034 89.94 75.2908 89.94C76.2103 89.94 76.2758 89.6538 76.2758 85.6341V81.9042L78.8892 80.4038C82.8031 78.1569 82.8781 78.1024 82.8781 77.5123C82.8781 76.9061 82.5797 76.5603 82.062 76.5661C81.8553 76.5685 80.4894 77.2594 79.0268 78.1017L76.3675 79.6328L76.3173 76.5033C76.2756 73.916 76.2151 73.3166 75.9679 73.0437C75.5866 72.6227 75.1308 72.6229 74.7492 73.0442Z" stroke="white" stroke-opacity="0.03" stroke-width="2" mask="url(#path-1-inside-1_1_659)"/>
</g>
</g>
<defs>
<filter id="filter0_b_1_659" x="-4" y="9" width="98" height="96" filterUnits="userSpaceOnUse" color-interpolation-filters="sRGB">
<feFlood flood-opacity="0" result="BackgroundImageFix"/>
<feGaussianBlur in="BackgroundImageFix" stdDeviation="2"/>
<feComposite in2="SourceAlpha" operator="in" result="effect1_backgroundBlur_1_659"/>
<feBlend mode="normal" in="SourceGraphic" in2="effect1_backgroundBlur_1_659" result="shape"/>
</filter>
<linearGradient id="paint0_linear_1_659" x1="78.6" y1="-11.9333" x2="46.4028" y2="128.309" gradientUnits="userSpaceOnUse">
<stop stop-color="white" stop-opacity="0"/>
<stop offset="1" stop-color="#0A0B43"/>
</linearGradient>
</defs>
</svg>
