<svg width="176" height="110" viewBox="0 0 176 110" fill="none" xmlns="http://www.w3.org/2000/svg">
<g opacity="0.8">
<g filter="url(#filter0_b_1_667)">
<mask id="path-1-inside-1_1_667" fill="white">
<path fill-rule="evenodd" clip-rule="evenodd" d="M23.2279 13.5714C23.0867 13.9114 22.6109 15.1547 22.1705 16.3342C21.7301 17.5137 21.2931 18.5627 21.1993 18.6653C21.1057 18.7679 19.6273 18.9357 17.9144 19.0383C15.3418 19.1923 14.7904 19.2753 14.7449 19.5149C14.7102 19.6977 15.5906 20.521 17.1211 21.737C18.4584 22.7996 19.5512 23.7598 19.5496 23.8711C19.5479 23.9825 19.2122 25.2899 18.8035 26.7766C18.3948 28.2633 18.0604 29.5877 18.0604 29.7196C18.0604 30.3096 18.7306 30.05 20.9729 28.5909C22.2947 27.7307 23.4718 26.9715 23.5888 26.904C23.7055 26.8363 24.9541 27.5354 26.363 28.4576C27.7721 29.3798 29.0009 30.1343 29.094 30.1343C29.5205 30.1343 29.4306 29.3436 28.6969 26.6375C28.023 24.1516 27.9465 23.6947 28.1761 23.5257C30.1495 22.0726 32.7986 19.7523 32.7536 19.5164C32.6932 19.1988 30.9746 18.9993 27.9894 18.9635L26.4477 18.945L26.1713 18.339C26.0194 18.0055 25.4931 16.6844 25.0018 15.4031C24.0245 12.8536 23.6755 12.4933 23.2279 13.5714ZM58.0357 17.38L57.2902 19.3583L55.7209 19.867C54.8577 20.147 53.4862 20.7126 52.6736 21.1242L51.1956 21.8725L49.4095 21.0645C48.427 20.6201 47.538 20.2551 47.434 20.2534C47.3299 20.2518 46.2251 21.2786 44.979 22.5349L42.7132 24.8194L43.5581 26.7201L44.4029 28.621L43.5574 30.3566C43.0922 31.3114 42.534 32.6831 42.3169 33.4049L41.9222 34.7173L39.969 35.4563L38.0156 36.1952L38.0634 39.5274L38.1109 42.8597L40.0212 43.5965L41.9317 44.3335L42.2316 45.3928C42.3965 45.9754 42.9549 47.352 43.4723 48.4519L44.4129 50.4518L43.5524 52.3682L42.6918 54.2845L45.0025 56.5996L47.3135 58.9148L49.2506 58.0503L51.1878 57.1857L52.6695 57.924C53.4845 58.33 54.8549 58.8984 55.7149 59.1871L57.2785 59.7119L58.0464 61.6605L58.8143 63.6089L62.0803 63.6597L65.3464 63.7104L66.1039 61.723L66.8611 59.7356L68.8423 59.0387C69.9319 58.6553 71.2978 58.074 71.8775 57.7467L72.9319 57.1518L74.8935 58.0273L76.8552 58.9027L79.1697 56.5886L81.4844 54.2743L80.6197 52.349L79.7552 50.4235L80.5171 48.8863C80.9362 48.0407 81.5042 46.6656 81.7793 45.8307L82.2795 44.3124L84.1626 43.5861L86.0456 42.8597L86.0964 39.5268L86.1469 36.1939L84.1913 35.4578L82.2357 34.7216L81.8434 33.407C81.6278 32.684 81.0726 31.3062 80.6094 30.3454L79.7677 28.5984L80.6156 26.7089L81.4635 24.8194L79.1876 22.5349C77.9361 21.2786 76.8267 20.2518 76.7226 20.2534C76.6185 20.2551 75.7229 20.6231 74.7325 21.071L72.9317 21.8856L72.1213 21.4229C70.993 20.7788 68.465 19.749 67.6313 19.5938C66.9439 19.4661 66.9273 19.4418 66.1574 17.4332L65.3787 15.4018H62.08H58.7814L58.0357 17.38ZM58.7613 26.9569C56.0568 27.6865 53.1343 29.725 51.6037 31.949C48.6541 36.2355 48.5031 41.6011 51.2068 46.0513C52.6311 48.3952 55.302 50.51 57.9511 51.391C61.2274 52.4806 64.4901 52.2531 67.6738 50.7133C69.1706 49.9893 69.6939 49.6059 71.0443 48.2445C73.8079 45.4579 74.8912 42.6259 74.7148 38.6479C74.5607 35.1758 73.5089 32.7983 71.0311 30.3208C69.4528 28.7427 68.1445 27.9056 66.1509 27.1981C64.2564 26.5258 60.7798 26.4124 58.7613 26.9569ZM66.8345 33.462C66.5267 33.6619 64.8936 35.2163 63.205 36.9163L60.1352 40.007L58.7193 38.6294C57.6679 37.6063 57.128 37.2188 56.6214 37.1239C55.1143 36.8412 53.6979 38.2501 53.9796 39.7515C54.0795 40.2847 54.5242 40.8697 55.9669 42.3676C58.2189 44.7052 59.2375 45.4263 60.2875 45.4263C61.0267 45.4263 61.1476 45.3228 65.5712 40.8997L70.0985 36.3733V35.489C70.0985 34.7512 69.998 34.495 69.4921 33.9432C68.722 33.1028 67.6783 32.9139 66.8345 33.462ZM23.4123 39.0289C23.3618 39.1115 22.88 40.3539 22.3415 41.7898C21.8031 43.2258 21.2512 44.4924 21.1148 44.6043C20.9749 44.7196 19.5934 44.8607 17.936 44.929C16.324 44.9956 14.9342 45.1207 14.8479 45.207C14.5494 45.5054 14.9199 45.8997 17.1553 47.6625C18.3896 48.636 19.4425 49.5019 19.4947 49.5865C19.5471 49.6712 19.2362 51.0342 18.8041 52.6153C18.0755 55.2798 17.9838 56.0562 18.3975 56.0562C18.4866 56.0562 19.7107 55.3009 21.1174 54.3778C22.5243 53.4547 23.7124 52.6994 23.7579 52.6994C23.8033 52.6994 25.0132 53.4614 26.4464 54.3927C27.8796 55.324 29.1391 56.0323 29.2451 55.9668C29.5483 55.7794 29.4866 55.3925 28.6948 52.512C28.2862 51.0253 27.9505 49.7598 27.9488 49.6997C27.9471 49.6397 29.0399 48.7214 30.3772 47.6588C31.9076 46.4429 32.7883 45.6195 32.7534 45.4368C32.6911 45.1084 31.3529 44.9269 28.6919 44.8861C26.369 44.8505 26.3623 44.8467 25.7831 43.309C24.4126 39.6689 24.1084 38.994 23.8131 38.9377C23.6432 38.9052 23.4629 38.9463 23.4123 39.0289ZM31.1166 64.6346C29.4071 64.9252 27.2376 65.987 21.0012 69.5861C17.486 71.6147 14.5888 73.2888 14.5629 73.3063C14.5114 73.3412 22.6633 87.7612 22.8268 87.9249C22.8826 87.9805 23.5324 87.7058 24.2712 87.3144L25.6143 86.6029L37.5514 89.8051L49.4884 93.0071L51.3536 92.9308C52.6943 92.876 53.5194 92.7378 54.2879 92.4394C55.2565 92.0631 86.1242 73.2179 86.9579 72.4938C87.5229 72.0031 87.9955 70.7701 88 69.7753C88.0056 68.53 87.4113 67.3521 86.4601 66.7227C84.9152 65.7006 81.877 66.2007 78.3985 68.05C77.5778 68.4863 73.2555 70.9728 68.7933 73.5756C59.6873 78.887 59.02 79.2338 57.0685 79.6678C54.1898 80.3082 51.1315 79.8683 43.1534 77.6664C38.1184 76.2767 37.8312 76.1316 37.8312 74.9776C37.8312 74.313 38.5151 73.586 39.1405 73.586C39.3201 73.586 40.9245 73.9991 42.706 74.5041C48.7877 76.2282 50.5118 76.6146 51.672 76.5132C52.977 76.3992 53.7833 75.8711 54.2623 74.8167C54.9278 73.3513 54.6187 72.0436 53.3503 70.9579C52.7239 70.4219 52.2625 70.2371 50.6682 69.8841C47.5503 69.1933 44.0026 68.118 39.2336 66.4184C33.7604 64.4675 33.0362 64.3084 31.1166 64.6346ZM3.52931 70.569C0.320291 72.3968 -0.120634 72.8582 0.0235435 74.2388C0.0815501 74.7941 1.93161 78.2173 7.26243 87.6325C14.9549 101.219 14.8063 101 16.3126 101C17.3151 101 22.5969 98.0458 23.1159 97.1947C23.9187 95.8783 24.0099 96.0791 16.9303 83.5622C8.7167 69.0406 9.01587 69.5419 8.36288 69.2043C7.25945 68.6337 6.60048 68.8198 3.52931 70.569ZM5.8436 73.9448C4.7066 74.4224 4.41694 75.8129 5.27566 76.6715C6.25543 77.6513 7.98854 76.9434 7.98854 75.5636C7.98854 74.4288 6.80957 73.5391 5.8436 73.9448Z"/>
</mask>
<path fill-rule="evenodd" clip-rule="evenodd" d="M23.2279 13.5714C23.0867 13.9114 22.6109 15.1547 22.1705 16.3342C21.7301 17.5137 21.2931 18.5627 21.1993 18.6653C21.1057 18.7679 19.6273 18.9357 17.9144 19.0383C15.3418 19.1923 14.7904 19.2753 14.7449 19.5149C14.7102 19.6977 15.5906 20.521 17.1211 21.737C18.4584 22.7996 19.5512 23.7598 19.5496 23.8711C19.5479 23.9825 19.2122 25.2899 18.8035 26.7766C18.3948 28.2633 18.0604 29.5877 18.0604 29.7196C18.0604 30.3096 18.7306 30.05 20.9729 28.5909C22.2947 27.7307 23.4718 26.9715 23.5888 26.904C23.7055 26.8363 24.9541 27.5354 26.363 28.4576C27.7721 29.3798 29.0009 30.1343 29.094 30.1343C29.5205 30.1343 29.4306 29.3436 28.6969 26.6375C28.023 24.1516 27.9465 23.6947 28.1761 23.5257C30.1495 22.0726 32.7986 19.7523 32.7536 19.5164C32.6932 19.1988 30.9746 18.9993 27.9894 18.9635L26.4477 18.945L26.1713 18.339C26.0194 18.0055 25.4931 16.6844 25.0018 15.4031C24.0245 12.8536 23.6755 12.4933 23.2279 13.5714ZM58.0357 17.38L57.2902 19.3583L55.7209 19.867C54.8577 20.147 53.4862 20.7126 52.6736 21.1242L51.1956 21.8725L49.4095 21.0645C48.427 20.6201 47.538 20.2551 47.434 20.2534C47.3299 20.2518 46.2251 21.2786 44.979 22.5349L42.7132 24.8194L43.5581 26.7201L44.4029 28.621L43.5574 30.3566C43.0922 31.3114 42.534 32.6831 42.3169 33.4049L41.9222 34.7173L39.969 35.4563L38.0156 36.1952L38.0634 39.5274L38.1109 42.8597L40.0212 43.5965L41.9317 44.3335L42.2316 45.3928C42.3965 45.9754 42.9549 47.352 43.4723 48.4519L44.4129 50.4518L43.5524 52.3682L42.6918 54.2845L45.0025 56.5996L47.3135 58.9148L49.2506 58.0503L51.1878 57.1857L52.6695 57.924C53.4845 58.33 54.8549 58.8984 55.7149 59.1871L57.2785 59.7119L58.0464 61.6605L58.8143 63.6089L62.0803 63.6597L65.3464 63.7104L66.1039 61.723L66.8611 59.7356L68.8423 59.0387C69.9319 58.6553 71.2978 58.074 71.8775 57.7467L72.9319 57.1518L74.8935 58.0273L76.8552 58.9027L79.1697 56.5886L81.4844 54.2743L80.6197 52.349L79.7552 50.4235L80.5171 48.8863C80.9362 48.0407 81.5042 46.6656 81.7793 45.8307L82.2795 44.3124L84.1626 43.5861L86.0456 42.8597L86.0964 39.5268L86.1469 36.1939L84.1913 35.4578L82.2357 34.7216L81.8434 33.407C81.6278 32.684 81.0726 31.3062 80.6094 30.3454L79.7677 28.5984L80.6156 26.7089L81.4635 24.8194L79.1876 22.5349C77.9361 21.2786 76.8267 20.2518 76.7226 20.2534C76.6185 20.2551 75.7229 20.6231 74.7325 21.071L72.9317 21.8856L72.1213 21.4229C70.993 20.7788 68.465 19.749 67.6313 19.5938C66.9439 19.4661 66.9273 19.4418 66.1574 17.4332L65.3787 15.4018H62.08H58.7814L58.0357 17.38ZM58.7613 26.9569C56.0568 27.6865 53.1343 29.725 51.6037 31.949C48.6541 36.2355 48.5031 41.6011 51.2068 46.0513C52.6311 48.3952 55.302 50.51 57.9511 51.391C61.2274 52.4806 64.4901 52.2531 67.6738 50.7133C69.1706 49.9893 69.6939 49.6059 71.0443 48.2445C73.8079 45.4579 74.8912 42.6259 74.7148 38.6479C74.5607 35.1758 73.5089 32.7983 71.0311 30.3208C69.4528 28.7427 68.1445 27.9056 66.1509 27.1981C64.2564 26.5258 60.7798 26.4124 58.7613 26.9569ZM66.8345 33.462C66.5267 33.6619 64.8936 35.2163 63.205 36.9163L60.1352 40.007L58.7193 38.6294C57.6679 37.6063 57.128 37.2188 56.6214 37.1239C55.1143 36.8412 53.6979 38.2501 53.9796 39.7515C54.0795 40.2847 54.5242 40.8697 55.9669 42.3676C58.2189 44.7052 59.2375 45.4263 60.2875 45.4263C61.0267 45.4263 61.1476 45.3228 65.5712 40.8997L70.0985 36.3733V35.489C70.0985 34.7512 69.998 34.495 69.4921 33.9432C68.722 33.1028 67.6783 32.9139 66.8345 33.462ZM23.4123 39.0289C23.3618 39.1115 22.88 40.3539 22.3415 41.7898C21.8031 43.2258 21.2512 44.4924 21.1148 44.6043C20.9749 44.7196 19.5934 44.8607 17.936 44.929C16.324 44.9956 14.9342 45.1207 14.8479 45.207C14.5494 45.5054 14.9199 45.8997 17.1553 47.6625C18.3896 48.636 19.4425 49.5019 19.4947 49.5865C19.5471 49.6712 19.2362 51.0342 18.8041 52.6153C18.0755 55.2798 17.9838 56.0562 18.3975 56.0562C18.4866 56.0562 19.7107 55.3009 21.1174 54.3778C22.5243 53.4547 23.7124 52.6994 23.7579 52.6994C23.8033 52.6994 25.0132 53.4614 26.4464 54.3927C27.8796 55.324 29.1391 56.0323 29.2451 55.9668C29.5483 55.7794 29.4866 55.3925 28.6948 52.512C28.2862 51.0253 27.9505 49.7598 27.9488 49.6997C27.9471 49.6397 29.0399 48.7214 30.3772 47.6588C31.9076 46.4429 32.7883 45.6195 32.7534 45.4368C32.6911 45.1084 31.3529 44.9269 28.6919 44.8861C26.369 44.8505 26.3623 44.8467 25.7831 43.309C24.4126 39.6689 24.1084 38.994 23.8131 38.9377C23.6432 38.9052 23.4629 38.9463 23.4123 39.0289ZM31.1166 64.6346C29.4071 64.9252 27.2376 65.987 21.0012 69.5861C17.486 71.6147 14.5888 73.2888 14.5629 73.3063C14.5114 73.3412 22.6633 87.7612 22.8268 87.9249C22.8826 87.9805 23.5324 87.7058 24.2712 87.3144L25.6143 86.6029L37.5514 89.8051L49.4884 93.0071L51.3536 92.9308C52.6943 92.876 53.5194 92.7378 54.2879 92.4394C55.2565 92.0631 86.1242 73.2179 86.9579 72.4938C87.5229 72.0031 87.9955 70.7701 88 69.7753C88.0056 68.53 87.4113 67.3521 86.4601 66.7227C84.9152 65.7006 81.877 66.2007 78.3985 68.05C77.5778 68.4863 73.2555 70.9728 68.7933 73.5756C59.6873 78.887 59.02 79.2338 57.0685 79.6678C54.1898 80.3082 51.1315 79.8683 43.1534 77.6664C38.1184 76.2767 37.8312 76.1316 37.8312 74.9776C37.8312 74.313 38.5151 73.586 39.1405 73.586C39.3201 73.586 40.9245 73.9991 42.706 74.5041C48.7877 76.2282 50.5118 76.6146 51.672 76.5132C52.977 76.3992 53.7833 75.8711 54.2623 74.8167C54.9278 73.3513 54.6187 72.0436 53.3503 70.9579C52.7239 70.4219 52.2625 70.2371 50.6682 69.8841C47.5503 69.1933 44.0026 68.118 39.2336 66.4184C33.7604 64.4675 33.0362 64.3084 31.1166 64.6346ZM3.52931 70.569C0.320291 72.3968 -0.120634 72.8582 0.0235435 74.2388C0.0815501 74.7941 1.93161 78.2173 7.26243 87.6325C14.9549 101.219 14.8063 101 16.3126 101C17.3151 101 22.5969 98.0458 23.1159 97.1947C23.9187 95.8783 24.0099 96.0791 16.9303 83.5622C8.7167 69.0406 9.01587 69.5419 8.36288 69.2043C7.25945 68.6337 6.60048 68.8198 3.52931 70.569ZM5.8436 73.9448C4.7066 74.4224 4.41694 75.8129 5.27566 76.6715C6.25543 77.6513 7.98854 76.9434 7.98854 75.5636C7.98854 74.4288 6.80957 73.5391 5.8436 73.9448Z" fill="#06CAC6"/>
<path fill-rule="evenodd" clip-rule="evenodd" d="M23.2279 13.5714C23.0867 13.9114 22.6109 15.1547 22.1705 16.3342C21.7301 17.5137 21.2931 18.5627 21.1993 18.6653C21.1057 18.7679 19.6273 18.9357 17.9144 19.0383C15.3418 19.1923 14.7904 19.2753 14.7449 19.5149C14.7102 19.6977 15.5906 20.521 17.1211 21.737C18.4584 22.7996 19.5512 23.7598 19.5496 23.8711C19.5479 23.9825 19.2122 25.2899 18.8035 26.7766C18.3948 28.2633 18.0604 29.5877 18.0604 29.7196C18.0604 30.3096 18.7306 30.05 20.9729 28.5909C22.2947 27.7307 23.4718 26.9715 23.5888 26.904C23.7055 26.8363 24.9541 27.5354 26.363 28.4576C27.7721 29.3798 29.0009 30.1343 29.094 30.1343C29.5205 30.1343 29.4306 29.3436 28.6969 26.6375C28.023 24.1516 27.9465 23.6947 28.1761 23.5257C30.1495 22.0726 32.7986 19.7523 32.7536 19.5164C32.6932 19.1988 30.9746 18.9993 27.9894 18.9635L26.4477 18.945L26.1713 18.339C26.0194 18.0055 25.4931 16.6844 25.0018 15.4031C24.0245 12.8536 23.6755 12.4933 23.2279 13.5714ZM58.0357 17.38L57.2902 19.3583L55.7209 19.867C54.8577 20.147 53.4862 20.7126 52.6736 21.1242L51.1956 21.8725L49.4095 21.0645C48.427 20.6201 47.538 20.2551 47.434 20.2534C47.3299 20.2518 46.2251 21.2786 44.979 22.5349L42.7132 24.8194L43.5581 26.7201L44.4029 28.621L43.5574 30.3566C43.0922 31.3114 42.534 32.6831 42.3169 33.4049L41.9222 34.7173L39.969 35.4563L38.0156 36.1952L38.0634 39.5274L38.1109 42.8597L40.0212 43.5965L41.9317 44.3335L42.2316 45.3928C42.3965 45.9754 42.9549 47.352 43.4723 48.4519L44.4129 50.4518L43.5524 52.3682L42.6918 54.2845L45.0025 56.5996L47.3135 58.9148L49.2506 58.0503L51.1878 57.1857L52.6695 57.924C53.4845 58.33 54.8549 58.8984 55.7149 59.1871L57.2785 59.7119L58.0464 61.6605L58.8143 63.6089L62.0803 63.6597L65.3464 63.7104L66.1039 61.723L66.8611 59.7356L68.8423 59.0387C69.9319 58.6553 71.2978 58.074 71.8775 57.7467L72.9319 57.1518L74.8935 58.0273L76.8552 58.9027L79.1697 56.5886L81.4844 54.2743L80.6197 52.349L79.7552 50.4235L80.5171 48.8863C80.9362 48.0407 81.5042 46.6656 81.7793 45.8307L82.2795 44.3124L84.1626 43.5861L86.0456 42.8597L86.0964 39.5268L86.1469 36.1939L84.1913 35.4578L82.2357 34.7216L81.8434 33.407C81.6278 32.684 81.0726 31.3062 80.6094 30.3454L79.7677 28.5984L80.6156 26.7089L81.4635 24.8194L79.1876 22.5349C77.9361 21.2786 76.8267 20.2518 76.7226 20.2534C76.6185 20.2551 75.7229 20.6231 74.7325 21.071L72.9317 21.8856L72.1213 21.4229C70.993 20.7788 68.465 19.749 67.6313 19.5938C66.9439 19.4661 66.9273 19.4418 66.1574 17.4332L65.3787 15.4018H62.08H58.7814L58.0357 17.38ZM58.7613 26.9569C56.0568 27.6865 53.1343 29.725 51.6037 31.949C48.6541 36.2355 48.5031 41.6011 51.2068 46.0513C52.6311 48.3952 55.302 50.51 57.9511 51.391C61.2274 52.4806 64.4901 52.2531 67.6738 50.7133C69.1706 49.9893 69.6939 49.6059 71.0443 48.2445C73.8079 45.4579 74.8912 42.6259 74.7148 38.6479C74.5607 35.1758 73.5089 32.7983 71.0311 30.3208C69.4528 28.7427 68.1445 27.9056 66.1509 27.1981C64.2564 26.5258 60.7798 26.4124 58.7613 26.9569ZM66.8345 33.462C66.5267 33.6619 64.8936 35.2163 63.205 36.9163L60.1352 40.007L58.7193 38.6294C57.6679 37.6063 57.128 37.2188 56.6214 37.1239C55.1143 36.8412 53.6979 38.2501 53.9796 39.7515C54.0795 40.2847 54.5242 40.8697 55.9669 42.3676C58.2189 44.7052 59.2375 45.4263 60.2875 45.4263C61.0267 45.4263 61.1476 45.3228 65.5712 40.8997L70.0985 36.3733V35.489C70.0985 34.7512 69.998 34.495 69.4921 33.9432C68.722 33.1028 67.6783 32.9139 66.8345 33.462ZM23.4123 39.0289C23.3618 39.1115 22.88 40.3539 22.3415 41.7898C21.8031 43.2258 21.2512 44.4924 21.1148 44.6043C20.9749 44.7196 19.5934 44.8607 17.936 44.929C16.324 44.9956 14.9342 45.1207 14.8479 45.207C14.5494 45.5054 14.9199 45.8997 17.1553 47.6625C18.3896 48.636 19.4425 49.5019 19.4947 49.5865C19.5471 49.6712 19.2362 51.0342 18.8041 52.6153C18.0755 55.2798 17.9838 56.0562 18.3975 56.0562C18.4866 56.0562 19.7107 55.3009 21.1174 54.3778C22.5243 53.4547 23.7124 52.6994 23.7579 52.6994C23.8033 52.6994 25.0132 53.4614 26.4464 54.3927C27.8796 55.324 29.1391 56.0323 29.2451 55.9668C29.5483 55.7794 29.4866 55.3925 28.6948 52.512C28.2862 51.0253 27.9505 49.7598 27.9488 49.6997C27.9471 49.6397 29.0399 48.7214 30.3772 47.6588C31.9076 46.4429 32.7883 45.6195 32.7534 45.4368C32.6911 45.1084 31.3529 44.9269 28.6919 44.8861C26.369 44.8505 26.3623 44.8467 25.7831 43.309C24.4126 39.6689 24.1084 38.994 23.8131 38.9377C23.6432 38.9052 23.4629 38.9463 23.4123 39.0289ZM31.1166 64.6346C29.4071 64.9252 27.2376 65.987 21.0012 69.5861C17.486 71.6147 14.5888 73.2888 14.5629 73.3063C14.5114 73.3412 22.6633 87.7612 22.8268 87.9249C22.8826 87.9805 23.5324 87.7058 24.2712 87.3144L25.6143 86.6029L37.5514 89.8051L49.4884 93.0071L51.3536 92.9308C52.6943 92.876 53.5194 92.7378 54.2879 92.4394C55.2565 92.0631 86.1242 73.2179 86.9579 72.4938C87.5229 72.0031 87.9955 70.7701 88 69.7753C88.0056 68.53 87.4113 67.3521 86.4601 66.7227C84.9152 65.7006 81.877 66.2007 78.3985 68.05C77.5778 68.4863 73.2555 70.9728 68.7933 73.5756C59.6873 78.887 59.02 79.2338 57.0685 79.6678C54.1898 80.3082 51.1315 79.8683 43.1534 77.6664C38.1184 76.2767 37.8312 76.1316 37.8312 74.9776C37.8312 74.313 38.5151 73.586 39.1405 73.586C39.3201 73.586 40.9245 73.9991 42.706 74.5041C48.7877 76.2282 50.5118 76.6146 51.672 76.5132C52.977 76.3992 53.7833 75.8711 54.2623 74.8167C54.9278 73.3513 54.6187 72.0436 53.3503 70.9579C52.7239 70.4219 52.2625 70.2371 50.6682 69.8841C47.5503 69.1933 44.0026 68.118 39.2336 66.4184C33.7604 64.4675 33.0362 64.3084 31.1166 64.6346ZM3.52931 70.569C0.320291 72.3968 -0.120634 72.8582 0.0235435 74.2388C0.0815501 74.7941 1.93161 78.2173 7.26243 87.6325C14.9549 101.219 14.8063 101 16.3126 101C17.3151 101 22.5969 98.0458 23.1159 97.1947C23.9187 95.8783 24.0099 96.0791 16.9303 83.5622C8.7167 69.0406 9.01587 69.5419 8.36288 69.2043C7.25945 68.6337 6.60048 68.8198 3.52931 70.569ZM5.8436 73.9448C4.7066 74.4224 4.41694 75.8129 5.27566 76.6715C6.25543 77.6513 7.98854 76.9434 7.98854 75.5636C7.98854 74.4288 6.80957 73.5391 5.8436 73.9448Z" fill="url(#paint0_linear_1_667)"/>
<path fill-rule="evenodd" clip-rule="evenodd" d="M23.2279 13.5714C23.0867 13.9114 22.6109 15.1547 22.1705 16.3342C21.7301 17.5137 21.2931 18.5627 21.1993 18.6653C21.1057 18.7679 19.6273 18.9357 17.9144 19.0383C15.3418 19.1923 14.7904 19.2753 14.7449 19.5149C14.7102 19.6977 15.5906 20.521 17.1211 21.737C18.4584 22.7996 19.5512 23.7598 19.5496 23.8711C19.5479 23.9825 19.2122 25.2899 18.8035 26.7766C18.3948 28.2633 18.0604 29.5877 18.0604 29.7196C18.0604 30.3096 18.7306 30.05 20.9729 28.5909C22.2947 27.7307 23.4718 26.9715 23.5888 26.904C23.7055 26.8363 24.9541 27.5354 26.363 28.4576C27.7721 29.3798 29.0009 30.1343 29.094 30.1343C29.5205 30.1343 29.4306 29.3436 28.6969 26.6375C28.023 24.1516 27.9465 23.6947 28.1761 23.5257C30.1495 22.0726 32.7986 19.7523 32.7536 19.5164C32.6932 19.1988 30.9746 18.9993 27.9894 18.9635L26.4477 18.945L26.1713 18.339C26.0194 18.0055 25.4931 16.6844 25.0018 15.4031C24.0245 12.8536 23.6755 12.4933 23.2279 13.5714ZM58.0357 17.38L57.2902 19.3583L55.7209 19.867C54.8577 20.147 53.4862 20.7126 52.6736 21.1242L51.1956 21.8725L49.4095 21.0645C48.427 20.6201 47.538 20.2551 47.434 20.2534C47.3299 20.2518 46.2251 21.2786 44.979 22.5349L42.7132 24.8194L43.5581 26.7201L44.4029 28.621L43.5574 30.3566C43.0922 31.3114 42.534 32.6831 42.3169 33.4049L41.9222 34.7173L39.969 35.4563L38.0156 36.1952L38.0634 39.5274L38.1109 42.8597L40.0212 43.5965L41.9317 44.3335L42.2316 45.3928C42.3965 45.9754 42.9549 47.352 43.4723 48.4519L44.4129 50.4518L43.5524 52.3682L42.6918 54.2845L45.0025 56.5996L47.3135 58.9148L49.2506 58.0503L51.1878 57.1857L52.6695 57.924C53.4845 58.33 54.8549 58.8984 55.7149 59.1871L57.2785 59.7119L58.0464 61.6605L58.8143 63.6089L62.0803 63.6597L65.3464 63.7104L66.1039 61.723L66.8611 59.7356L68.8423 59.0387C69.9319 58.6553 71.2978 58.074 71.8775 57.7467L72.9319 57.1518L74.8935 58.0273L76.8552 58.9027L79.1697 56.5886L81.4844 54.2743L80.6197 52.349L79.7552 50.4235L80.5171 48.8863C80.9362 48.0407 81.5042 46.6656 81.7793 45.8307L82.2795 44.3124L84.1626 43.5861L86.0456 42.8597L86.0964 39.5268L86.1469 36.1939L84.1913 35.4578L82.2357 34.7216L81.8434 33.407C81.6278 32.684 81.0726 31.3062 80.6094 30.3454L79.7677 28.5984L80.6156 26.7089L81.4635 24.8194L79.1876 22.5349C77.9361 21.2786 76.8267 20.2518 76.7226 20.2534C76.6185 20.2551 75.7229 20.6231 74.7325 21.071L72.9317 21.8856L72.1213 21.4229C70.993 20.7788 68.465 19.749 67.6313 19.5938C66.9439 19.4661 66.9273 19.4418 66.1574 17.4332L65.3787 15.4018H62.08H58.7814L58.0357 17.38ZM58.7613 26.9569C56.0568 27.6865 53.1343 29.725 51.6037 31.949C48.6541 36.2355 48.5031 41.6011 51.2068 46.0513C52.6311 48.3952 55.302 50.51 57.9511 51.391C61.2274 52.4806 64.4901 52.2531 67.6738 50.7133C69.1706 49.9893 69.6939 49.6059 71.0443 48.2445C73.8079 45.4579 74.8912 42.6259 74.7148 38.6479C74.5607 35.1758 73.5089 32.7983 71.0311 30.3208C69.4528 28.7427 68.1445 27.9056 66.1509 27.1981C64.2564 26.5258 60.7798 26.4124 58.7613 26.9569ZM66.8345 33.462C66.5267 33.6619 64.8936 35.2163 63.205 36.9163L60.1352 40.007L58.7193 38.6294C57.6679 37.6063 57.128 37.2188 56.6214 37.1239C55.1143 36.8412 53.6979 38.2501 53.9796 39.7515C54.0795 40.2847 54.5242 40.8697 55.9669 42.3676C58.2189 44.7052 59.2375 45.4263 60.2875 45.4263C61.0267 45.4263 61.1476 45.3228 65.5712 40.8997L70.0985 36.3733V35.489C70.0985 34.7512 69.998 34.495 69.4921 33.9432C68.722 33.1028 67.6783 32.9139 66.8345 33.462ZM23.4123 39.0289C23.3618 39.1115 22.88 40.3539 22.3415 41.7898C21.8031 43.2258 21.2512 44.4924 21.1148 44.6043C20.9749 44.7196 19.5934 44.8607 17.936 44.929C16.324 44.9956 14.9342 45.1207 14.8479 45.207C14.5494 45.5054 14.9199 45.8997 17.1553 47.6625C18.3896 48.636 19.4425 49.5019 19.4947 49.5865C19.5471 49.6712 19.2362 51.0342 18.8041 52.6153C18.0755 55.2798 17.9838 56.0562 18.3975 56.0562C18.4866 56.0562 19.7107 55.3009 21.1174 54.3778C22.5243 53.4547 23.7124 52.6994 23.7579 52.6994C23.8033 52.6994 25.0132 53.4614 26.4464 54.3927C27.8796 55.324 29.1391 56.0323 29.2451 55.9668C29.5483 55.7794 29.4866 55.3925 28.6948 52.512C28.2862 51.0253 27.9505 49.7598 27.9488 49.6997C27.9471 49.6397 29.0399 48.7214 30.3772 47.6588C31.9076 46.4429 32.7883 45.6195 32.7534 45.4368C32.6911 45.1084 31.3529 44.9269 28.6919 44.8861C26.369 44.8505 26.3623 44.8467 25.7831 43.309C24.4126 39.6689 24.1084 38.994 23.8131 38.9377C23.6432 38.9052 23.4629 38.9463 23.4123 39.0289ZM31.1166 64.6346C29.4071 64.9252 27.2376 65.987 21.0012 69.5861C17.486 71.6147 14.5888 73.2888 14.5629 73.3063C14.5114 73.3412 22.6633 87.7612 22.8268 87.9249C22.8826 87.9805 23.5324 87.7058 24.2712 87.3144L25.6143 86.6029L37.5514 89.8051L49.4884 93.0071L51.3536 92.9308C52.6943 92.876 53.5194 92.7378 54.2879 92.4394C55.2565 92.0631 86.1242 73.2179 86.9579 72.4938C87.5229 72.0031 87.9955 70.7701 88 69.7753C88.0056 68.53 87.4113 67.3521 86.4601 66.7227C84.9152 65.7006 81.877 66.2007 78.3985 68.05C77.5778 68.4863 73.2555 70.9728 68.7933 73.5756C59.6873 78.887 59.02 79.2338 57.0685 79.6678C54.1898 80.3082 51.1315 79.8683 43.1534 77.6664C38.1184 76.2767 37.8312 76.1316 37.8312 74.9776C37.8312 74.313 38.5151 73.586 39.1405 73.586C39.3201 73.586 40.9245 73.9991 42.706 74.5041C48.7877 76.2282 50.5118 76.6146 51.672 76.5132C52.977 76.3992 53.7833 75.8711 54.2623 74.8167C54.9278 73.3513 54.6187 72.0436 53.3503 70.9579C52.7239 70.4219 52.2625 70.2371 50.6682 69.8841C47.5503 69.1933 44.0026 68.118 39.2336 66.4184C33.7604 64.4675 33.0362 64.3084 31.1166 64.6346ZM3.52931 70.569C0.320291 72.3968 -0.120634 72.8582 0.0235435 74.2388C0.0815501 74.7941 1.93161 78.2173 7.26243 87.6325C14.9549 101.219 14.8063 101 16.3126 101C17.3151 101 22.5969 98.0458 23.1159 97.1947C23.9187 95.8783 24.0099 96.0791 16.9303 83.5622C8.7167 69.0406 9.01587 69.5419 8.36288 69.2043C7.25945 68.6337 6.60048 68.8198 3.52931 70.569ZM5.8436 73.9448C4.7066 74.4224 4.41694 75.8129 5.27566 76.6715C6.25543 77.6513 7.98854 76.9434 7.98854 75.5636C7.98854 74.4288 6.80957 73.5391 5.8436 73.9448Z" stroke="white" stroke-opacity="0.03" stroke-width="2" mask="url(#path-1-inside-1_1_667)"/>
</g>
</g>
<defs>
<filter id="filter0_b_1_667" x="-4" y="9" width="96" height="96" filterUnits="userSpaceOnUse" color-interpolation-filters="sRGB">
<feFlood flood-opacity="0" result="BackgroundImageFix"/>
<feGaussianBlur in="BackgroundImageFix" stdDeviation="2"/>
<feComposite in2="SourceAlpha" operator="in" result="effect1_backgroundBlur_1_667"/>
<feBlend mode="normal" in="SourceGraphic" in2="effect1_backgroundBlur_1_667" result="shape"/>
</filter>
<linearGradient id="paint0_linear_1_667" x1="76.8533" y1="-11.9333" x2="44" y2="127.987" gradientUnits="userSpaceOnUse">
<stop stop-color="white" stop-opacity="0"/>
<stop offset="1" stop-color="#0A0B43"/>
</linearGradient>
</defs>
</svg>
