<svg width="176" height="110" viewBox="0 0 176 110" fill="none" xmlns="http://www.w3.org/2000/svg">
<g opacity="0.8" filter="url(#filter0_b_1_651)">
<g filter="url(#filter1_b_1_651)">
<mask id="path-1-inside-1_1_651" fill="white">
<path fill-rule="evenodd" clip-rule="evenodd" d="M38.9269 4.2918C37.8528 4.81845 37.5556 5.46454 37.4861 7.42397L37.4244 9.16317L36.2351 9.76003C35.5811 10.0881 34.6164 10.6446 34.0918 10.9966L33.1377 11.6363L31.858 10.8823C30.7698 10.2412 30.4312 10.1283 29.5954 10.1283C28.8772 10.1283 28.4681 10.2307 28.0763 10.5089C27.718 10.763 26.5687 12.5611 24.6112 15.93C22.2752 19.9501 21.6671 21.1325 21.607 21.7704C21.4916 22.9966 21.9485 23.6573 23.6008 24.6532L24.9924 25.4921V27.9914V30.4906L23.6008 31.3295C21.9485 32.3254 21.4916 32.9861 21.607 34.2123C21.6671 34.8502 22.2752 36.0326 24.6112 40.0527C26.5687 43.4217 27.718 45.2197 28.0763 45.4739C28.4681 45.752 28.8772 45.8544 29.5954 45.8544C30.4312 45.8544 30.7698 45.7415 31.858 45.1004L33.1377 44.3464L34.0918 44.9861C34.6164 45.3381 35.5811 45.8946 36.2351 46.2227L37.4244 46.8195L37.4861 48.5587C37.5375 50.0121 37.6133 50.3893 37.9462 50.8537C38.7368 51.9561 38.9396 51.9865 45.5 51.9865C52.0604 51.9865 52.2632 51.9561 53.0538 50.8537C53.3867 50.3893 53.4625 50.0121 53.514 48.5587L53.5756 46.8195L54.7649 46.2227C55.4189 45.8946 56.3836 45.3381 56.9082 44.9861L57.8623 44.3464L59.142 45.1004C60.2302 45.7415 60.5688 45.8544 61.4046 45.8544C62.1257 45.8544 62.5302 45.7524 62.9236 45.4717C63.2799 45.2174 64.4422 43.3996 66.3895 40.0506C68.7302 36.0249 69.3342 34.8513 69.3937 34.2123C69.5081 32.9857 69.0508 32.3251 67.3992 31.3295L66.0076 30.4906V27.9914V25.4921L67.3992 24.6532C69.0515 23.6573 69.5084 22.9966 69.393 21.7704C69.3329 21.1325 68.7248 19.9501 66.3888 15.93C64.4313 12.5611 63.2821 10.763 62.9238 10.5089C62.5319 10.2307 62.1228 10.1283 61.4046 10.1283C60.5677 10.1283 60.2303 10.2412 59.1324 10.888L57.843 11.6475L56.9879 11.0415C56.5176 10.7083 55.5574 10.1495 54.8542 9.79949L53.5756 9.16317L53.514 7.42397C53.4625 5.97057 53.3867 5.5934 53.0538 5.12896C52.2621 4.02519 52.0643 3.99586 45.473 4.0003C40.3496 4.00368 39.4312 4.04456 38.9269 4.2918ZM43.911 20.1853C39.8519 20.978 36.9296 25.1343 37.6003 29.1605C38.1812 32.6473 40.8189 35.2708 44.3245 35.8486C49.4919 36.7002 54.2559 31.9618 53.3998 26.8222C52.6451 22.2933 48.3827 19.3119 43.911 20.1853ZM8.65657 40.0911C-0.0941703 44.4547 0.020021 44.3749 0.020021 46.121C0.020021 47.9706 -1.53756 47.0776 22.8238 59.193C40.8525 68.1592 44.9151 70.1161 45.5 70.1161C46.0849 70.1161 50.1475 68.1592 68.1762 59.193C92.5376 47.0776 90.98 47.9706 90.98 46.121C90.98 44.374 91.0967 44.4554 82.3222 40.0844L74.4967 36.1863L74.2146 36.9008C73.8291 37.8766 68.4373 47.172 67.654 48.2113C66.8933 49.2203 65.4633 50.2459 64.1037 50.7578C63.0177 51.1666 61.0416 51.2922 59.5895 51.045L58.7573 50.9032L58.5377 51.5782C57.5952 54.4727 55.2265 56.5872 52.3102 57.1373C51.0579 57.3735 39.9422 57.3735 38.6898 57.1373C35.7693 56.5864 33.4052 54.4735 32.4591 51.5683C32.2508 50.9282 32.2002 50.8907 31.6846 50.9933C29.5125 51.4254 27.9204 51.2553 26.0683 50.3932C24.131 49.4915 23.4109 48.581 20.0875 42.8328C18.4484 39.9978 16.962 37.3456 16.7842 36.9389L16.4607 36.1996L8.65657 40.0911ZM1.84136 55.9331C0.454449 56.6815 0.020021 57.3086 0.020021 58.5629C0.020021 60.4125 -1.53756 59.5196 22.8238 71.635C40.8525 80.6011 44.9151 82.5581 45.5 82.5581C46.0849 82.5581 50.1475 80.6011 68.1762 71.635C92.5376 59.5196 90.98 60.4125 90.98 58.5629C90.98 57.2747 90.5234 56.6479 89.0203 55.8732L87.8593 55.2747L67.886 65.1957C45.8379 76.1471 46.8456 75.7152 44.2938 75.3089C43.2365 75.1407 40.6323 73.8973 23.205 65.2403C12.2696 59.808 3.22274 55.3657 3.10087 55.3684C2.97899 55.3709 2.41214 55.625 1.84136 55.9331ZM1.84136 68.375C0.454449 69.1235 0.020021 69.7505 0.020021 71.0049C0.020021 72.8544 -1.53756 71.9615 22.8238 84.0769C40.8525 93.0431 44.9151 95 45.5 95C46.0849 95 50.1475 93.0431 68.1762 84.0769C92.5376 71.9615 90.98 72.8544 90.98 71.0049C90.98 69.7166 90.5234 69.0899 89.0203 68.3151L87.8593 67.7166L67.886 77.6376C45.8379 88.589 46.8456 88.1571 44.2938 87.7508C43.2365 87.5827 40.6323 86.3392 23.205 77.6823C12.2696 72.2499 3.22274 67.8076 3.10087 67.8103C2.97899 67.8128 2.41214 68.067 1.84136 68.375Z"/>
</mask>
<path fill-rule="evenodd" clip-rule="evenodd" d="M38.9269 4.2918C37.8528 4.81845 37.5556 5.46454 37.4861 7.42397L37.4244 9.16317L36.2351 9.76003C35.5811 10.0881 34.6164 10.6446 34.0918 10.9966L33.1377 11.6363L31.858 10.8823C30.7698 10.2412 30.4312 10.1283 29.5954 10.1283C28.8772 10.1283 28.4681 10.2307 28.0763 10.5089C27.718 10.763 26.5687 12.5611 24.6112 15.93C22.2752 19.9501 21.6671 21.1325 21.607 21.7704C21.4916 22.9966 21.9485 23.6573 23.6008 24.6532L24.9924 25.4921V27.9914V30.4906L23.6008 31.3295C21.9485 32.3254 21.4916 32.9861 21.607 34.2123C21.6671 34.8502 22.2752 36.0326 24.6112 40.0527C26.5687 43.4217 27.718 45.2197 28.0763 45.4739C28.4681 45.752 28.8772 45.8544 29.5954 45.8544C30.4312 45.8544 30.7698 45.7415 31.858 45.1004L33.1377 44.3464L34.0918 44.9861C34.6164 45.3381 35.5811 45.8946 36.2351 46.2227L37.4244 46.8195L37.4861 48.5587C37.5375 50.0121 37.6133 50.3893 37.9462 50.8537C38.7368 51.9561 38.9396 51.9865 45.5 51.9865C52.0604 51.9865 52.2632 51.9561 53.0538 50.8537C53.3867 50.3893 53.4625 50.0121 53.514 48.5587L53.5756 46.8195L54.7649 46.2227C55.4189 45.8946 56.3836 45.3381 56.9082 44.9861L57.8623 44.3464L59.142 45.1004C60.2302 45.7415 60.5688 45.8544 61.4046 45.8544C62.1257 45.8544 62.5302 45.7524 62.9236 45.4717C63.2799 45.2174 64.4422 43.3996 66.3895 40.0506C68.7302 36.0249 69.3342 34.8513 69.3937 34.2123C69.5081 32.9857 69.0508 32.3251 67.3992 31.3295L66.0076 30.4906V27.9914V25.4921L67.3992 24.6532C69.0515 23.6573 69.5084 22.9966 69.393 21.7704C69.3329 21.1325 68.7248 19.9501 66.3888 15.93C64.4313 12.5611 63.2821 10.763 62.9238 10.5089C62.5319 10.2307 62.1228 10.1283 61.4046 10.1283C60.5677 10.1283 60.2303 10.2412 59.1324 10.888L57.843 11.6475L56.9879 11.0415C56.5176 10.7083 55.5574 10.1495 54.8542 9.79949L53.5756 9.16317L53.514 7.42397C53.4625 5.97057 53.3867 5.5934 53.0538 5.12896C52.2621 4.02519 52.0643 3.99586 45.473 4.0003C40.3496 4.00368 39.4312 4.04456 38.9269 4.2918ZM43.911 20.1853C39.8519 20.978 36.9296 25.1343 37.6003 29.1605C38.1812 32.6473 40.8189 35.2708 44.3245 35.8486C49.4919 36.7002 54.2559 31.9618 53.3998 26.8222C52.6451 22.2933 48.3827 19.3119 43.911 20.1853ZM8.65657 40.0911C-0.0941703 44.4547 0.020021 44.3749 0.020021 46.121C0.020021 47.9706 -1.53756 47.0776 22.8238 59.193C40.8525 68.1592 44.9151 70.1161 45.5 70.1161C46.0849 70.1161 50.1475 68.1592 68.1762 59.193C92.5376 47.0776 90.98 47.9706 90.98 46.121C90.98 44.374 91.0967 44.4554 82.3222 40.0844L74.4967 36.1863L74.2146 36.9008C73.8291 37.8766 68.4373 47.172 67.654 48.2113C66.8933 49.2203 65.4633 50.2459 64.1037 50.7578C63.0177 51.1666 61.0416 51.2922 59.5895 51.045L58.7573 50.9032L58.5377 51.5782C57.5952 54.4727 55.2265 56.5872 52.3102 57.1373C51.0579 57.3735 39.9422 57.3735 38.6898 57.1373C35.7693 56.5864 33.4052 54.4735 32.4591 51.5683C32.2508 50.9282 32.2002 50.8907 31.6846 50.9933C29.5125 51.4254 27.9204 51.2553 26.0683 50.3932C24.131 49.4915 23.4109 48.581 20.0875 42.8328C18.4484 39.9978 16.962 37.3456 16.7842 36.9389L16.4607 36.1996L8.65657 40.0911ZM1.84136 55.9331C0.454449 56.6815 0.020021 57.3086 0.020021 58.5629C0.020021 60.4125 -1.53756 59.5196 22.8238 71.635C40.8525 80.6011 44.9151 82.5581 45.5 82.5581C46.0849 82.5581 50.1475 80.6011 68.1762 71.635C92.5376 59.5196 90.98 60.4125 90.98 58.5629C90.98 57.2747 90.5234 56.6479 89.0203 55.8732L87.8593 55.2747L67.886 65.1957C45.8379 76.1471 46.8456 75.7152 44.2938 75.3089C43.2365 75.1407 40.6323 73.8973 23.205 65.2403C12.2696 59.808 3.22274 55.3657 3.10087 55.3684C2.97899 55.3709 2.41214 55.625 1.84136 55.9331ZM1.84136 68.375C0.454449 69.1235 0.020021 69.7505 0.020021 71.0049C0.020021 72.8544 -1.53756 71.9615 22.8238 84.0769C40.8525 93.0431 44.9151 95 45.5 95C46.0849 95 50.1475 93.0431 68.1762 84.0769C92.5376 71.9615 90.98 72.8544 90.98 71.0049C90.98 69.7166 90.5234 69.0899 89.0203 68.3151L87.8593 67.7166L67.886 77.6376C45.8379 88.589 46.8456 88.1571 44.2938 87.7508C43.2365 87.5827 40.6323 86.3392 23.205 77.6823C12.2696 72.2499 3.22274 67.8076 3.10087 67.8103C2.97899 67.8128 2.41214 68.067 1.84136 68.375Z" fill="#06CAC6"/>
<path fill-rule="evenodd" clip-rule="evenodd" d="M38.9269 4.2918C37.8528 4.81845 37.5556 5.46454 37.4861 7.42397L37.4244 9.16317L36.2351 9.76003C35.5811 10.0881 34.6164 10.6446 34.0918 10.9966L33.1377 11.6363L31.858 10.8823C30.7698 10.2412 30.4312 10.1283 29.5954 10.1283C28.8772 10.1283 28.4681 10.2307 28.0763 10.5089C27.718 10.763 26.5687 12.5611 24.6112 15.93C22.2752 19.9501 21.6671 21.1325 21.607 21.7704C21.4916 22.9966 21.9485 23.6573 23.6008 24.6532L24.9924 25.4921V27.9914V30.4906L23.6008 31.3295C21.9485 32.3254 21.4916 32.9861 21.607 34.2123C21.6671 34.8502 22.2752 36.0326 24.6112 40.0527C26.5687 43.4217 27.718 45.2197 28.0763 45.4739C28.4681 45.752 28.8772 45.8544 29.5954 45.8544C30.4312 45.8544 30.7698 45.7415 31.858 45.1004L33.1377 44.3464L34.0918 44.9861C34.6164 45.3381 35.5811 45.8946 36.2351 46.2227L37.4244 46.8195L37.4861 48.5587C37.5375 50.0121 37.6133 50.3893 37.9462 50.8537C38.7368 51.9561 38.9396 51.9865 45.5 51.9865C52.0604 51.9865 52.2632 51.9561 53.0538 50.8537C53.3867 50.3893 53.4625 50.0121 53.514 48.5587L53.5756 46.8195L54.7649 46.2227C55.4189 45.8946 56.3836 45.3381 56.9082 44.9861L57.8623 44.3464L59.142 45.1004C60.2302 45.7415 60.5688 45.8544 61.4046 45.8544C62.1257 45.8544 62.5302 45.7524 62.9236 45.4717C63.2799 45.2174 64.4422 43.3996 66.3895 40.0506C68.7302 36.0249 69.3342 34.8513 69.3937 34.2123C69.5081 32.9857 69.0508 32.3251 67.3992 31.3295L66.0076 30.4906V27.9914V25.4921L67.3992 24.6532C69.0515 23.6573 69.5084 22.9966 69.393 21.7704C69.3329 21.1325 68.7248 19.9501 66.3888 15.93C64.4313 12.5611 63.2821 10.763 62.9238 10.5089C62.5319 10.2307 62.1228 10.1283 61.4046 10.1283C60.5677 10.1283 60.2303 10.2412 59.1324 10.888L57.843 11.6475L56.9879 11.0415C56.5176 10.7083 55.5574 10.1495 54.8542 9.79949L53.5756 9.16317L53.514 7.42397C53.4625 5.97057 53.3867 5.5934 53.0538 5.12896C52.2621 4.02519 52.0643 3.99586 45.473 4.0003C40.3496 4.00368 39.4312 4.04456 38.9269 4.2918ZM43.911 20.1853C39.8519 20.978 36.9296 25.1343 37.6003 29.1605C38.1812 32.6473 40.8189 35.2708 44.3245 35.8486C49.4919 36.7002 54.2559 31.9618 53.3998 26.8222C52.6451 22.2933 48.3827 19.3119 43.911 20.1853ZM8.65657 40.0911C-0.0941703 44.4547 0.020021 44.3749 0.020021 46.121C0.020021 47.9706 -1.53756 47.0776 22.8238 59.193C40.8525 68.1592 44.9151 70.1161 45.5 70.1161C46.0849 70.1161 50.1475 68.1592 68.1762 59.193C92.5376 47.0776 90.98 47.9706 90.98 46.121C90.98 44.374 91.0967 44.4554 82.3222 40.0844L74.4967 36.1863L74.2146 36.9008C73.8291 37.8766 68.4373 47.172 67.654 48.2113C66.8933 49.2203 65.4633 50.2459 64.1037 50.7578C63.0177 51.1666 61.0416 51.2922 59.5895 51.045L58.7573 50.9032L58.5377 51.5782C57.5952 54.4727 55.2265 56.5872 52.3102 57.1373C51.0579 57.3735 39.9422 57.3735 38.6898 57.1373C35.7693 56.5864 33.4052 54.4735 32.4591 51.5683C32.2508 50.9282 32.2002 50.8907 31.6846 50.9933C29.5125 51.4254 27.9204 51.2553 26.0683 50.3932C24.131 49.4915 23.4109 48.581 20.0875 42.8328C18.4484 39.9978 16.962 37.3456 16.7842 36.9389L16.4607 36.1996L8.65657 40.0911ZM1.84136 55.9331C0.454449 56.6815 0.020021 57.3086 0.020021 58.5629C0.020021 60.4125 -1.53756 59.5196 22.8238 71.635C40.8525 80.6011 44.9151 82.5581 45.5 82.5581C46.0849 82.5581 50.1475 80.6011 68.1762 71.635C92.5376 59.5196 90.98 60.4125 90.98 58.5629C90.98 57.2747 90.5234 56.6479 89.0203 55.8732L87.8593 55.2747L67.886 65.1957C45.8379 76.1471 46.8456 75.7152 44.2938 75.3089C43.2365 75.1407 40.6323 73.8973 23.205 65.2403C12.2696 59.808 3.22274 55.3657 3.10087 55.3684C2.97899 55.3709 2.41214 55.625 1.84136 55.9331ZM1.84136 68.375C0.454449 69.1235 0.020021 69.7505 0.020021 71.0049C0.020021 72.8544 -1.53756 71.9615 22.8238 84.0769C40.8525 93.0431 44.9151 95 45.5 95C46.0849 95 50.1475 93.0431 68.1762 84.0769C92.5376 71.9615 90.98 72.8544 90.98 71.0049C90.98 69.7166 90.5234 69.0899 89.0203 68.3151L87.8593 67.7166L67.886 77.6376C45.8379 88.589 46.8456 88.1571 44.2938 87.7508C43.2365 87.5827 40.6323 86.3392 23.205 77.6823C12.2696 72.2499 3.22274 67.8076 3.10087 67.8103C2.97899 67.8128 2.41214 68.067 1.84136 68.375Z" fill="url(#paint0_linear_1_651)"/>
<path fill-rule="evenodd" clip-rule="evenodd" d="M38.9269 4.2918C37.8528 4.81845 37.5556 5.46454 37.4861 7.42397L37.4244 9.16317L36.2351 9.76003C35.5811 10.0881 34.6164 10.6446 34.0918 10.9966L33.1377 11.6363L31.858 10.8823C30.7698 10.2412 30.4312 10.1283 29.5954 10.1283C28.8772 10.1283 28.4681 10.2307 28.0763 10.5089C27.718 10.763 26.5687 12.5611 24.6112 15.93C22.2752 19.9501 21.6671 21.1325 21.607 21.7704C21.4916 22.9966 21.9485 23.6573 23.6008 24.6532L24.9924 25.4921V27.9914V30.4906L23.6008 31.3295C21.9485 32.3254 21.4916 32.9861 21.607 34.2123C21.6671 34.8502 22.2752 36.0326 24.6112 40.0527C26.5687 43.4217 27.718 45.2197 28.0763 45.4739C28.4681 45.752 28.8772 45.8544 29.5954 45.8544C30.4312 45.8544 30.7698 45.7415 31.858 45.1004L33.1377 44.3464L34.0918 44.9861C34.6164 45.3381 35.5811 45.8946 36.2351 46.2227L37.4244 46.8195L37.4861 48.5587C37.5375 50.0121 37.6133 50.3893 37.9462 50.8537C38.7368 51.9561 38.9396 51.9865 45.5 51.9865C52.0604 51.9865 52.2632 51.9561 53.0538 50.8537C53.3867 50.3893 53.4625 50.0121 53.514 48.5587L53.5756 46.8195L54.7649 46.2227C55.4189 45.8946 56.3836 45.3381 56.9082 44.9861L57.8623 44.3464L59.142 45.1004C60.2302 45.7415 60.5688 45.8544 61.4046 45.8544C62.1257 45.8544 62.5302 45.7524 62.9236 45.4717C63.2799 45.2174 64.4422 43.3996 66.3895 40.0506C68.7302 36.0249 69.3342 34.8513 69.3937 34.2123C69.5081 32.9857 69.0508 32.3251 67.3992 31.3295L66.0076 30.4906V27.9914V25.4921L67.3992 24.6532C69.0515 23.6573 69.5084 22.9966 69.393 21.7704C69.3329 21.1325 68.7248 19.9501 66.3888 15.93C64.4313 12.5611 63.2821 10.763 62.9238 10.5089C62.5319 10.2307 62.1228 10.1283 61.4046 10.1283C60.5677 10.1283 60.2303 10.2412 59.1324 10.888L57.843 11.6475L56.9879 11.0415C56.5176 10.7083 55.5574 10.1495 54.8542 9.79949L53.5756 9.16317L53.514 7.42397C53.4625 5.97057 53.3867 5.5934 53.0538 5.12896C52.2621 4.02519 52.0643 3.99586 45.473 4.0003C40.3496 4.00368 39.4312 4.04456 38.9269 4.2918ZM43.911 20.1853C39.8519 20.978 36.9296 25.1343 37.6003 29.1605C38.1812 32.6473 40.8189 35.2708 44.3245 35.8486C49.4919 36.7002 54.2559 31.9618 53.3998 26.8222C52.6451 22.2933 48.3827 19.3119 43.911 20.1853ZM8.65657 40.0911C-0.0941703 44.4547 0.020021 44.3749 0.020021 46.121C0.020021 47.9706 -1.53756 47.0776 22.8238 59.193C40.8525 68.1592 44.9151 70.1161 45.5 70.1161C46.0849 70.1161 50.1475 68.1592 68.1762 59.193C92.5376 47.0776 90.98 47.9706 90.98 46.121C90.98 44.374 91.0967 44.4554 82.3222 40.0844L74.4967 36.1863L74.2146 36.9008C73.8291 37.8766 68.4373 47.172 67.654 48.2113C66.8933 49.2203 65.4633 50.2459 64.1037 50.7578C63.0177 51.1666 61.0416 51.2922 59.5895 51.045L58.7573 50.9032L58.5377 51.5782C57.5952 54.4727 55.2265 56.5872 52.3102 57.1373C51.0579 57.3735 39.9422 57.3735 38.6898 57.1373C35.7693 56.5864 33.4052 54.4735 32.4591 51.5683C32.2508 50.9282 32.2002 50.8907 31.6846 50.9933C29.5125 51.4254 27.9204 51.2553 26.0683 50.3932C24.131 49.4915 23.4109 48.581 20.0875 42.8328C18.4484 39.9978 16.962 37.3456 16.7842 36.9389L16.4607 36.1996L8.65657 40.0911ZM1.84136 55.9331C0.454449 56.6815 0.020021 57.3086 0.020021 58.5629C0.020021 60.4125 -1.53756 59.5196 22.8238 71.635C40.8525 80.6011 44.9151 82.5581 45.5 82.5581C46.0849 82.5581 50.1475 80.6011 68.1762 71.635C92.5376 59.5196 90.98 60.4125 90.98 58.5629C90.98 57.2747 90.5234 56.6479 89.0203 55.8732L87.8593 55.2747L67.886 65.1957C45.8379 76.1471 46.8456 75.7152 44.2938 75.3089C43.2365 75.1407 40.6323 73.8973 23.205 65.2403C12.2696 59.808 3.22274 55.3657 3.10087 55.3684C2.97899 55.3709 2.41214 55.625 1.84136 55.9331ZM1.84136 68.375C0.454449 69.1235 0.020021 69.7505 0.020021 71.0049C0.020021 72.8544 -1.53756 71.9615 22.8238 84.0769C40.8525 93.0431 44.9151 95 45.5 95C46.0849 95 50.1475 93.0431 68.1762 84.0769C92.5376 71.9615 90.98 72.8544 90.98 71.0049C90.98 69.7166 90.5234 69.0899 89.0203 68.3151L87.8593 67.7166L67.886 77.6376C45.8379 88.589 46.8456 88.1571 44.2938 87.7508C43.2365 87.5827 40.6323 86.3392 23.205 77.6823C12.2696 72.2499 3.22274 67.8076 3.10087 67.8103C2.97899 67.8128 2.41214 68.067 1.84136 68.375Z" stroke="white" stroke-opacity="0.03" stroke-width="2" mask="url(#path-1-inside-1_1_651)"/>
</g>
</g>
<defs>
<filter id="filter0_b_1_651" x="-80" y="-80" width="336" height="270" filterUnits="userSpaceOnUse" color-interpolation-filters="sRGB">
<feFlood flood-opacity="0" result="BackgroundImageFix"/>
<feGaussianBlur in="BackgroundImageFix" stdDeviation="40"/>
<feComposite in2="SourceAlpha" operator="in" result="effect1_backgroundBlur_1_651"/>
<feBlend mode="normal" in="SourceGraphic" in2="effect1_backgroundBlur_1_651" result="shape"/>
</filter>
<filter id="filter1_b_1_651" x="-4" y="0" width="99" height="99" filterUnits="userSpaceOnUse" color-interpolation-filters="sRGB">
<feFlood flood-opacity="0" result="BackgroundImageFix"/>
<feGaussianBlur in="BackgroundImageFix" stdDeviation="2"/>
<feComposite in2="SourceAlpha" operator="in" result="effect1_backgroundBlur_1_651"/>
<feBlend mode="normal" in="SourceGraphic" in2="effect1_backgroundBlur_1_651" result="shape"/>
</filter>
<linearGradient id="paint0_linear_1_651" x1="79.4733" y1="-21.7833" x2="45.5" y2="122.907" gradientUnits="userSpaceOnUse">
<stop stop-color="white" stop-opacity="0"/>
<stop offset="1" stop-color="#0A0B43"/>
</linearGradient>
</defs>
</svg>
