<svg width="100" height="100" viewBox="0 0 100 100" fill="none" xmlns="http://www.w3.org/2000/svg">
<path fill-rule="evenodd" clip-rule="evenodd" d="M42.6281 5.27257C41.7836 5.65032 41.0275 6.54327 40.78 7.45533C40.6624 7.88861 40.5694 9.66113 40.5736 11.3943C40.5814 14.6675 40.7558 15.6424 41.479 16.4572C41.9951 17.0388 43.2884 17.5886 44.1516 17.5937L44.8888 17.5981V20.0312V22.464L43.8567 22.1907C43.2459 22.029 42.4567 21.966 41.9229 22.0367C40.0332 22.2868 38.1216 23.9021 37.5825 25.7046L37.3563 26.4607H33.4625H29.569L29.5129 19.1244L29.4569 11.7882L28.9389 10.6813C28.2102 9.12445 27.1706 8.05661 25.6556 7.30959C24.4914 6.7353 24.1772 6.66794 22.6789 6.67188C21.2878 6.67542 20.8204 6.76307 19.9226 7.18886C18.3235 7.9473 17.2795 8.95764 16.5397 10.4623L15.8926 11.7787L15.8346 19.1L15.7766 26.4213L12.4881 26.4902C9.22836 26.5586 9.18807 26.5649 7.8855 27.2075C6.39774 27.9415 5.43566 28.944 4.64067 30.5893C4.19148 31.5187 4.11245 31.9419 4.10557 33.4558C4.0983 35.071 4.1555 35.3499 4.73837 36.5365C5.48402 38.0549 6.54931 39.0962 8.1039 39.8265C9.12418 40.3058 9.44539 40.3505 12.3049 40.412L15.4011 40.4785V59.1711V77.8637L14.0742 77.8667C9.30523 77.8771 5.46063 80.7945 4.29193 85.2892C4.08788 86.074 3.99941 87.4322 4 89.7711C4.00059 92.7521 4.04364 93.1976 4.38452 93.7575C5.20369 95.1036 1.32095 94.9981 50 94.9981C98.679 94.9981 94.7963 95.1036 95.6155 93.7575C95.9564 93.1976 95.9994 92.7521 96 89.7711C96.0006 87.391 95.9133 86.0786 95.6998 85.2575C95.0167 82.6302 93.2297 80.3064 90.9641 79.0996C88.5371 77.8066 90.2112 77.8698 58.3057 77.8667L29.3586 77.8637V59.1538V40.4439H33.2593H37.1597L37.386 41.2C37.9136 42.9646 39.7971 44.5872 41.6391 44.8639C42.3849 44.976 43.6955 44.7993 44.5467 44.4722C44.8306 44.3629 44.8676 45.0197 44.926 51.2109L44.9906 58.0706L45.6394 59.9416C48.0479 66.8875 54.4943 71.3168 61.5949 70.9048C64.0941 70.7597 65.507 70.4034 67.6285 69.3832C71.641 67.4535 74.6165 63.9867 76.0697 59.5477L76.6177 57.8736L76.6924 51.1133C76.7612 44.8931 76.7935 44.3637 77.0954 44.4892C80.0819 45.7289 83.2342 44.1055 84.2812 40.7885C84.3767 40.4858 84.673 40.4439 86.7124 40.4439C88.0039 40.4439 89.4803 40.3281 90.0388 40.1829C92.1049 39.646 93.9966 37.9196 94.7476 35.8859C95.219 34.6091 95.1696 32.3309 94.6408 30.9507C94.0444 29.3946 92.7343 27.9982 91.1271 27.2053C89.8842 26.592 89.6782 26.554 87.091 26.4607L84.3645 26.3622L84.1096 25.6173C83.1131 22.7067 80.0057 21.2981 77.0795 22.4308C76.7632 22.5533 76.7355 22.3664 76.7355 20.1086V17.6532L77.8202 17.541C79.2186 17.3964 80.1415 16.8148 80.6532 15.756C81.0214 14.9939 81.06 14.5574 81.0572 11.1843C81.0541 7.68162 81.0269 7.40787 80.6108 6.67149C80.3623 6.2321 79.824 5.69286 79.3855 5.44392L78.603 5L60.9104 5.00453C46.5607 5.00807 43.1064 5.05869 42.6281 5.27257ZM43.6002 8.00343C43.5465 8.14366 43.5271 9.71726 43.5567 11.5002L43.611 14.7424H61.0087H78.4065V11.2958V7.84923L61.0522 7.799C47.0005 7.75824 43.6792 7.79703 43.6002 8.00343ZM21.104 9.58551C20.1642 9.88526 18.886 11.2178 18.5917 12.2049C18.4209 12.7774 18.3499 14.9895 18.3499 19.7381V26.4607H22.5765H26.803V19.5313C26.803 12.905 26.7851 12.5647 26.3922 11.7517C25.4511 9.80412 23.2478 8.90151 21.104 9.58551ZM47.641 26.1552V34.5154L48.2905 35.0117C50.5371 36.7285 52.487 36.632 59.3378 34.4656C63.8985 33.0233 64.8093 32.8654 68.5772 32.8632C70.4153 32.8622 72.3393 32.9333 72.853 33.0212L73.7867 33.1811V25.488V17.795H60.7139H47.641V26.1552ZM54.5258 20.3347C52.3456 21.113 50.7559 23.616 51.0547 25.8001C51.3179 27.7241 52.8053 29.6173 54.59 30.3001C55.2588 30.5562 55.8374 30.6237 56.7393 30.5513C59.4653 30.3319 61.3337 28.4683 61.5513 25.7511C61.8633 21.857 58.1915 19.0263 54.5258 20.3347ZM54.6948 23.6802C54.0858 24.2905 53.9317 24.5907 53.9317 25.1671C53.9317 26.622 54.9455 27.6961 56.3182 27.6961C58.7795 27.6961 59.6279 24.3289 57.4507 23.201C56.4322 22.6732 55.5462 22.8274 54.6948 23.6802ZM78.1354 25.018C76.7439 25.7192 76.7369 25.7607 76.7369 33.3538C76.7369 39.7461 76.7597 40.1859 77.1208 40.7789C77.8539 41.9836 79.2559 42.3397 80.4333 41.6204C81.6017 40.9069 81.6501 40.5776 81.6501 33.3406C81.6501 27.791 81.6035 26.7173 81.3383 26.1574C80.7604 24.9373 79.3159 24.4235 78.1354 25.018ZM41.1364 25.3341C39.9801 26.1148 39.9801 26.1144 39.9783 33.6492C39.9769 40.1339 39.9994 40.5766 40.3567 41.12C41.4462 42.7753 43.8534 42.5453 44.6177 40.7125C44.9796 39.8446 44.992 27.5147 44.6321 26.4676C44.3472 25.6392 43.2984 24.8851 42.4315 24.8851C42.0851 24.8851 41.5022 25.0872 41.1364 25.3341ZM9.19475 29.5907C6.37121 30.8756 5.93007 34.8266 8.39131 36.7889L9.14678 37.3912L23.086 37.4444L37.0254 37.4974V33.3577V29.2179L23.5102 29.2223C10.7881 29.2264 9.94806 29.2479 9.19475 29.5907ZM84.5989 33.6658V37.9165L86.9087 37.8505C88.6638 37.8003 89.3951 37.6965 89.953 37.419C92.5947 36.1046 93.2232 32.7271 91.2029 30.7031C90.1764 29.6746 89.2432 29.4149 86.5759 29.4149H84.5989V33.6658ZM66.2373 35.5476C64.5207 35.7682 63.237 36.0982 59.4361 37.2957C54.7062 38.786 54.0257 38.9339 51.8676 38.9416C50.2882 38.9471 49.6892 38.8632 48.8205 38.5146C48.2258 38.2759 47.7118 38.0807 47.6781 38.0807C47.6445 38.0805 47.6492 42.3566 47.6886 47.5832C47.7682 58.1476 47.7648 58.1163 49.1498 60.8885C49.9338 62.4578 51.8734 64.7085 53.2731 65.6733C55.6579 67.317 57.8889 68.0089 60.82 68.0134C63.101 68.017 64.5162 67.678 66.7073 66.6031C69.913 65.0305 72.5793 61.6792 73.4899 58.0785C73.736 57.105 73.7867 55.1312 73.7867 46.5153V36.1262L72.9512 35.8985C70.9429 35.3514 68.682 35.2333 66.2373 35.5476ZM18.3499 59.1538V77.8637H22.4782H26.6064V59.1538V40.4439H22.4782H18.3499V59.1538ZM62.4287 45.1806C59.7842 45.7094 57.9019 47.8357 57.7108 50.5094C57.5862 52.255 58.0216 53.5318 59.1821 54.8249C60.373 56.1519 61.3531 56.6333 63.0967 56.7473C64.9288 56.8673 66.1927 56.4499 67.4634 55.3053C69.9406 53.0741 70.0188 49.1259 67.6321 46.7854C66.2516 45.4317 64.2541 44.8157 62.4287 45.1806ZM62.2293 48.2453C60.3946 49.1824 59.9727 51.5158 61.3675 53.0116C62.5533 54.2833 64.4586 54.2609 65.7169 52.96C66.2628 52.396 66.3963 52.0876 66.4647 51.233C66.5565 50.0887 66.1339 49.2251 65.1103 48.4659C64.3947 47.9349 63.04 47.8311 62.2293 48.2453ZM11.0605 81.2782C9.61917 81.8737 8.66869 82.6196 7.93287 83.7325C6.97472 85.1815 6.7514 86.2572 6.7514 89.4209V92.2408H49.9251H93.099L93.0174 89.1389C92.9429 86.3052 92.8914 85.9403 92.4218 84.9193C91.7374 83.4314 90.5045 82.1294 89.1482 81.4619L88.0391 80.9164L50.0983 80.8707L12.1575 80.8252L11.0605 81.2782Z" fill="#06CAC6"/>
<path fill-rule="evenodd" clip-rule="evenodd" d="M42.6281 5.27257C41.7836 5.65032 41.0275 6.54327 40.78 7.45533C40.6624 7.88861 40.5694 9.66113 40.5736 11.3943C40.5814 14.6675 40.7558 15.6424 41.479 16.4572C41.9951 17.0388 43.2884 17.5886 44.1516 17.5937L44.8888 17.5981V20.0312V22.464L43.8567 22.1907C43.2459 22.029 42.4567 21.966 41.9229 22.0367C40.0332 22.2868 38.1216 23.9021 37.5825 25.7046L37.3563 26.4607H33.4625H29.569L29.5129 19.1244L29.4569 11.7882L28.9389 10.6813C28.2102 9.12445 27.1706 8.05661 25.6556 7.30959C24.4914 6.7353 24.1772 6.66794 22.6789 6.67188C21.2878 6.67542 20.8204 6.76307 19.9226 7.18886C18.3235 7.9473 17.2795 8.95764 16.5397 10.4623L15.8926 11.7787L15.8346 19.1L15.7766 26.4213L12.4881 26.4902C9.22836 26.5586 9.18807 26.5649 7.8855 27.2075C6.39774 27.9415 5.43566 28.944 4.64067 30.5893C4.19148 31.5187 4.11245 31.9419 4.10557 33.4558C4.0983 35.071 4.1555 35.3499 4.73837 36.5365C5.48402 38.0549 6.54931 39.0962 8.1039 39.8265C9.12418 40.3058 9.44539 40.3505 12.3049 40.412L15.4011 40.4785V59.1711V77.8637L14.0742 77.8667C9.30523 77.8771 5.46063 80.7945 4.29193 85.2892C4.08788 86.074 3.99941 87.4322 4 89.7711C4.00059 92.7521 4.04364 93.1976 4.38452 93.7575C5.20369 95.1036 1.32095 94.9981 50 94.9981C98.679 94.9981 94.7963 95.1036 95.6155 93.7575C95.9564 93.1976 95.9994 92.7521 96 89.7711C96.0006 87.391 95.9133 86.0786 95.6998 85.2575C95.0167 82.6302 93.2297 80.3064 90.9641 79.0996C88.5371 77.8066 90.2112 77.8698 58.3057 77.8667L29.3586 77.8637V59.1538V40.4439H33.2593H37.1597L37.386 41.2C37.9136 42.9646 39.7971 44.5872 41.6391 44.8639C42.3849 44.976 43.6955 44.7993 44.5467 44.4722C44.8306 44.3629 44.8676 45.0197 44.926 51.2109L44.9906 58.0706L45.6394 59.9416C48.0479 66.8875 54.4943 71.3168 61.5949 70.9048C64.0941 70.7597 65.507 70.4034 67.6285 69.3832C71.641 67.4535 74.6165 63.9867 76.0697 59.5477L76.6177 57.8736L76.6924 51.1133C76.7612 44.8931 76.7935 44.3637 77.0954 44.4892C80.0819 45.7289 83.2342 44.1055 84.2812 40.7885C84.3767 40.4858 84.673 40.4439 86.7124 40.4439C88.0039 40.4439 89.4803 40.3281 90.0388 40.1829C92.1049 39.646 93.9966 37.9196 94.7476 35.8859C95.219 34.6091 95.1696 32.3309 94.6408 30.9507C94.0444 29.3946 92.7343 27.9982 91.1271 27.2053C89.8842 26.592 89.6782 26.554 87.091 26.4607L84.3645 26.3622L84.1096 25.6173C83.1131 22.7067 80.0057 21.2981 77.0795 22.4308C76.7632 22.5533 76.7355 22.3664 76.7355 20.1086V17.6532L77.8202 17.541C79.2186 17.3964 80.1415 16.8148 80.6532 15.756C81.0214 14.9939 81.06 14.5574 81.0572 11.1843C81.0541 7.68162 81.0269 7.40787 80.6108 6.67149C80.3623 6.2321 79.824 5.69286 79.3855 5.44392L78.603 5L60.9104 5.00453C46.5607 5.00807 43.1064 5.05869 42.6281 5.27257ZM43.6002 8.00343C43.5465 8.14366 43.5271 9.71726 43.5567 11.5002L43.611 14.7424H61.0087H78.4065V11.2958V7.84923L61.0522 7.799C47.0005 7.75824 43.6792 7.79703 43.6002 8.00343ZM21.104 9.58551C20.1642 9.88526 18.886 11.2178 18.5917 12.2049C18.4209 12.7774 18.3499 14.9895 18.3499 19.7381V26.4607H22.5765H26.803V19.5313C26.803 12.905 26.7851 12.5647 26.3922 11.7517C25.4511 9.80412 23.2478 8.90151 21.104 9.58551ZM47.641 26.1552V34.5154L48.2905 35.0117C50.5371 36.7285 52.487 36.632 59.3378 34.4656C63.8985 33.0233 64.8093 32.8654 68.5772 32.8632C70.4153 32.8622 72.3393 32.9333 72.853 33.0212L73.7867 33.1811V25.488V17.795H60.7139H47.641V26.1552ZM54.5258 20.3347C52.3456 21.113 50.7559 23.616 51.0547 25.8001C51.3179 27.7241 52.8053 29.6173 54.59 30.3001C55.2588 30.5562 55.8374 30.6237 56.7393 30.5513C59.4653 30.3319 61.3337 28.4683 61.5513 25.7511C61.8633 21.857 58.1915 19.0263 54.5258 20.3347ZM54.6948 23.6802C54.0858 24.2905 53.9317 24.5907 53.9317 25.1671C53.9317 26.622 54.9455 27.6961 56.3182 27.6961C58.7795 27.6961 59.6279 24.3289 57.4507 23.201C56.4322 22.6732 55.5462 22.8274 54.6948 23.6802ZM78.1354 25.018C76.7439 25.7192 76.7369 25.7607 76.7369 33.3538C76.7369 39.7461 76.7597 40.1859 77.1208 40.7789C77.8539 41.9836 79.2559 42.3397 80.4333 41.6204C81.6017 40.9069 81.6501 40.5776 81.6501 33.3406C81.6501 27.791 81.6035 26.7173 81.3383 26.1574C80.7604 24.9373 79.3159 24.4235 78.1354 25.018ZM41.1364 25.3341C39.9801 26.1148 39.9801 26.1144 39.9783 33.6492C39.9769 40.1339 39.9994 40.5766 40.3567 41.12C41.4462 42.7753 43.8534 42.5453 44.6177 40.7125C44.9796 39.8446 44.992 27.5147 44.6321 26.4676C44.3472 25.6392 43.2984 24.8851 42.4315 24.8851C42.0851 24.8851 41.5022 25.0872 41.1364 25.3341ZM9.19475 29.5907C6.37121 30.8756 5.93007 34.8266 8.39131 36.7889L9.14678 37.3912L23.086 37.4444L37.0254 37.4974V33.3577V29.2179L23.5102 29.2223C10.7881 29.2264 9.94806 29.2479 9.19475 29.5907ZM84.5989 33.6658V37.9165L86.9087 37.8505C88.6638 37.8003 89.3951 37.6965 89.953 37.419C92.5947 36.1046 93.2232 32.7271 91.2029 30.7031C90.1764 29.6746 89.2432 29.4149 86.5759 29.4149H84.5989V33.6658ZM66.2373 35.5476C64.5207 35.7682 63.237 36.0982 59.4361 37.2957C54.7062 38.786 54.0257 38.9339 51.8676 38.9416C50.2882 38.9471 49.6892 38.8632 48.8205 38.5146C48.2258 38.2759 47.7118 38.0807 47.6781 38.0807C47.6445 38.0805 47.6492 42.3566 47.6886 47.5832C47.7682 58.1476 47.7648 58.1163 49.1498 60.8885C49.9338 62.4578 51.8734 64.7085 53.2731 65.6733C55.6579 67.317 57.8889 68.0089 60.82 68.0134C63.101 68.017 64.5162 67.678 66.7073 66.6031C69.913 65.0305 72.5793 61.6792 73.4899 58.0785C73.736 57.105 73.7867 55.1312 73.7867 46.5153V36.1262L72.9512 35.8985C70.9429 35.3514 68.682 35.2333 66.2373 35.5476ZM18.3499 59.1538V77.8637H22.4782H26.6064V59.1538V40.4439H22.4782H18.3499V59.1538ZM62.4287 45.1806C59.7842 45.7094 57.9019 47.8357 57.7108 50.5094C57.5862 52.255 58.0216 53.5318 59.1821 54.8249C60.373 56.1519 61.3531 56.6333 63.0967 56.7473C64.9288 56.8673 66.1927 56.4499 67.4634 55.3053C69.9406 53.0741 70.0188 49.1259 67.6321 46.7854C66.2516 45.4317 64.2541 44.8157 62.4287 45.1806ZM62.2293 48.2453C60.3946 49.1824 59.9727 51.5158 61.3675 53.0116C62.5533 54.2833 64.4586 54.2609 65.7169 52.96C66.2628 52.396 66.3963 52.0876 66.4647 51.233C66.5565 50.0887 66.1339 49.2251 65.1103 48.4659C64.3947 47.9349 63.04 47.8311 62.2293 48.2453ZM11.0605 81.2782C9.61917 81.8737 8.66869 82.6196 7.93287 83.7325C6.97472 85.1815 6.7514 86.2572 6.7514 89.4209V92.2408H49.9251H93.099L93.0174 89.1389C92.9429 86.3052 92.8914 85.9403 92.4218 84.9193C91.7374 83.4314 90.5045 82.1294 89.1482 81.4619L88.0391 80.9164L50.0983 80.8707L12.1575 80.8252L11.0605 81.2782Z" fill="url(#paint0_linear_1_463)"/>
<defs>
<linearGradient id="paint0_linear_1_463" x1="84.3467" y1="-20.5" x2="51.4031" y2="122.922" gradientUnits="userSpaceOnUse">
<stop stop-color="white" stop-opacity="0"/>
<stop offset="1" stop-color="#0A0B43"/>
</linearGradient>
</defs>
</svg>
