<svg width="100" height="100" viewBox="0 0 100 100" fill="none" xmlns="http://www.w3.org/2000/svg">
<path fill-rule="evenodd" clip-rule="evenodd" d="M48.4415 19.8875V13.5264C47.1182 13.1091 46.098 12.0074 45.7923 10.6387H15.1206V8.28417H45.9953C46.5856 6.86343 47.9868 5.86133 49.6187 5.86133C51.7819 5.86133 53.5417 7.62113 53.5417 9.78427C53.5417 11.5375 52.3856 13.0251 50.796 13.5264V19.8875H53.7755C54.4256 19.8875 54.9528 20.4147 54.9528 21.0647V26.9512C56.0559 27.374 56.8425 28.4414 56.8425 29.6914V33.8486C56.8425 34.4987 56.3154 35.0259 55.6653 35.0259H43.7029C43.0528 35.0259 42.5256 34.4987 42.5256 33.8486V29.6914C42.5256 28.491 43.2504 27.4581 44.2847 27.0032V21.0647C44.2847 20.4147 44.8119 19.8875 45.462 19.8875H48.4415ZM44.8802 32.6713H54.4877V29.6914C54.4877 29.3705 54.2269 29.1096 53.9059 29.1096H45.462C45.1411 29.1096 44.8802 29.3705 44.8802 29.6914V32.6713ZM46.6393 26.5196H52.5982V22.242H46.6393V26.5196ZM51.1871 9.7845C51.1871 8.91967 50.4836 8.21613 49.6187 8.21613C48.7539 8.21613 48.0504 8.91967 48.0504 9.7845C48.0504 10.6496 48.7539 11.3531 49.6187 11.3531C50.4836 11.3531 51.1871 10.6493 51.1871 9.7845ZM91.0494 76.2374H87.5841C88.4509 75.2096 88.9747 73.8835 88.9747 72.4369V51.6037C88.9747 48.7034 87.8636 45.9586 85.846 43.8753C84.1319 42.1049 83.3805 41.1052 83.3805 38.962V37.2128C83.3805 36.5627 82.8533 36.0356 82.2033 36.0356H72.2107C71.5606 36.0356 71.0334 36.5627 71.0334 37.2128V38.962C71.0334 41.1052 70.2821 42.1049 68.5677 43.8753C66.5501 45.9589 65.439 48.7034 65.439 51.6037V72.4369C65.439 73.8835 65.9629 75.2094 66.8296 76.2374H60.0616C60.9284 75.2096 61.4522 73.8835 61.4522 72.4369V51.6037C61.4522 48.7036 60.3411 45.9589 58.3235 43.8753C56.6091 42.1049 55.8578 41.1052 55.8578 38.962V37.2128C55.8578 36.5627 55.3306 36.0356 54.6805 36.0356H44.688C44.0379 36.0356 43.5107 36.5627 43.5107 37.2128V38.962C43.5107 41.1052 42.7594 42.1049 41.045 43.8753C39.0274 45.9589 37.9163 48.7034 37.9163 51.6037V72.4369C37.9163 73.8835 38.4401 75.2094 39.3069 76.2374H32.5389C33.4056 75.2096 33.9295 73.8835 33.9295 72.4369V51.6037C33.9295 48.7034 32.8184 45.9586 30.8008 43.8753C29.0864 42.1049 28.3351 41.1052 28.3351 38.962V38.2743C28.8931 38.182 29.32 37.7007 29.32 37.1163V32.9591C29.32 31.3401 28.0026 30.0227 26.3836 30.0227H17.9392C16.3202 30.0227 15.0028 31.3401 15.0028 32.9591V37.1163C15.0028 37.7005 15.4295 38.1817 15.9875 38.2743V38.962C15.9875 41.1052 15.2362 42.1049 13.522 43.8753C11.5044 45.9589 10.3933 48.7034 10.3933 51.6037V72.4369C10.3933 73.8835 10.9172 75.2094 11.7839 76.2374H8.95064C4.01524 76.2374 0 80.2526 0 85.188C0 90.1234 4.01524 94.1387 8.95064 94.1387H91.0494C95.9848 94.1387 100 90.1234 100 85.188C100 80.2526 95.9848 76.2374 91.0494 76.2374ZM67.7933 51.6037C67.7933 49.3181 68.669 47.155 70.259 45.5131C72.0911 43.6213 73.3878 42.0442 73.3878 38.962V38.3901H81.0257V38.962C81.0257 42.0439 82.3224 43.6215 84.1545 45.5134C85.7445 47.1552 86.6202 49.3181 86.6202 51.6037V72.4369C86.6202 74.3942 85.0278 75.9866 83.0704 75.9866H71.3433C69.3859 75.9866 67.7933 74.3942 67.7933 72.4369V51.6037ZM40.2706 51.6037C40.2706 49.3181 41.1462 47.155 42.7363 45.5131C44.5681 43.6213 45.865 42.0439 45.865 38.962V38.3901H53.503V38.962C53.503 42.0442 54.7997 43.6215 56.6317 45.5131C58.2215 47.1552 59.0972 49.3181 59.0972 51.6037V72.4369C59.0972 74.3942 57.5048 75.9866 55.5475 75.9866H43.8203C41.863 75.9866 40.2706 74.3942 40.2706 72.4369V51.6037ZM17.3574 32.9591C17.3574 32.6382 17.6183 32.3773 17.9392 32.3773H26.3831C26.7041 32.3773 26.9649 32.6382 26.9649 32.9591V35.939H17.3574V32.9591ZM12.7478 51.6037C12.7478 49.3181 13.6235 47.155 15.2135 45.5131C17.0454 43.6213 18.3423 42.0439 18.3423 38.962V38.3901H25.9803V38.962C25.9803 42.0442 27.2769 43.6215 29.109 45.5134C30.699 47.1552 31.5747 49.3181 31.5747 51.6037V72.4369C31.5747 74.3942 29.9823 75.9866 28.0247 75.9866H16.2976C14.3402 75.9866 12.7478 74.3942 12.7478 72.4369V51.6037ZM91.0494 91.7841H8.95064C5.31355 91.7841 2.35456 88.8251 2.35456 85.188C2.35456 81.5509 5.31355 78.592 8.95064 78.592H91.0494C94.6864 78.592 97.6454 81.5509 97.6454 85.188C97.6454 88.8251 94.6864 91.7841 91.0494 91.7841ZM15.4651 73.2875C15.686 73.5083 15.9853 73.6322 16.2977 73.6322H28.0249C28.3357 73.6322 28.634 73.5092 28.8546 73.29L28.8727 73.2721C29.095 73.0513 29.2203 72.7506 29.2203 72.437V51.6038C29.2203 50.9537 28.6931 50.4265 28.043 50.4265H16.2796C15.6295 50.4265 15.1023 50.9537 15.1023 51.6038V72.437C15.1023 72.7492 15.2264 73.0487 15.447 73.2696L15.4651 73.2875ZM17.4569 52.7811H26.8655V71.2778H17.4569V52.7811ZM42.9881 73.2875C43.2089 73.5083 43.5082 73.6322 43.8207 73.6322H55.5478C55.86 73.6322 56.1595 73.5081 56.3804 73.2875L56.3983 73.2696C56.6191 73.0487 56.743 72.7494 56.743 72.437V51.6038C56.743 50.9537 56.2158 50.4265 55.5657 50.4265H43.8028C43.1527 50.4265 42.6255 50.9537 42.6255 51.6038V72.437C42.6255 72.7492 42.7496 73.0487 42.9702 73.2696L42.9881 73.2875ZM44.9798 52.7811H54.3882V71.2778H44.9798V52.7811ZM71.3431 73.6324C71.0323 73.6324 70.734 73.5095 70.5134 73.2903L70.4955 73.2724C70.273 73.0513 70.1479 72.7509 70.1479 72.4372V51.604C70.1479 50.9539 70.6751 50.4268 71.3252 50.4268H83.0882C83.7383 50.4268 84.2654 50.9539 84.2654 51.604V72.4372C84.2654 72.7497 84.1416 73.0489 83.9207 73.2698L83.9028 73.2877C83.682 73.5083 83.3825 73.6324 83.0703 73.6324H71.3431ZM81.9109 52.7811H72.5025V71.2778H81.9109V52.7811ZM10.4424 85.1881C10.4424 83.0249 12.2022 81.2651 14.3653 81.2651C16.5285 81.2651 18.2883 83.0249 18.2883 85.1881C18.2883 87.3512 16.5285 89.1113 14.3653 89.1113C12.2022 89.1113 10.4424 87.3512 10.4424 85.1881ZM12.7969 85.1878C12.7969 86.0529 13.5005 86.7564 14.3653 86.7564C15.2302 86.7564 15.9337 86.0529 15.9337 85.1878C15.9337 84.323 15.2302 83.6195 14.3653 83.6195C13.5005 83.6195 12.7969 84.323 12.7969 85.1878ZM37.911 81.2651C35.7478 81.2651 33.988 83.0249 33.988 85.1881C33.988 87.3512 35.7478 89.1113 37.911 89.1113C40.0741 89.1113 41.8339 87.3512 41.8339 85.1881C41.8339 83.0249 40.0741 81.2651 37.911 81.2651ZM37.911 86.7564C37.0461 86.7564 36.3426 86.0529 36.3426 85.1878C36.3426 84.323 37.0461 83.6195 37.911 83.6195C38.7758 83.6195 39.4794 84.323 39.4794 85.1878C39.4794 86.0529 38.7758 86.7564 37.911 86.7564ZM57.5337 85.1881C57.5337 83.0249 59.2935 81.2651 61.4566 81.2651C63.6198 81.2651 65.3796 83.0249 65.3796 85.1881C65.3796 87.3512 63.6198 89.1113 61.4566 89.1113C59.2935 89.1113 57.5337 87.3512 57.5337 85.1881ZM59.8883 85.1878C59.8883 86.0529 60.5918 86.7564 61.4566 86.7564C62.3215 86.7564 63.025 86.0529 63.025 85.1878C63.025 84.323 62.3215 83.6195 61.4566 83.6195C60.5918 83.6195 59.8883 84.323 59.8883 85.1878ZM85.0023 81.2651C82.8391 81.2651 81.0793 83.0249 81.0793 85.1881C81.0793 87.3512 82.8391 89.1113 85.0023 89.1113C87.1654 89.1113 88.9252 87.3512 88.9252 85.1881C88.9252 83.0249 87.1654 81.2651 85.0023 81.2651ZM85.0023 86.7564C84.1375 86.7564 83.4339 86.0529 83.4339 85.1878C83.4339 84.323 84.1375 83.6195 85.0023 83.6195C85.8671 83.6195 86.5707 84.323 86.5707 85.1878C86.5707 86.0529 85.8671 86.7564 85.0023 86.7564Z" fill="#06CAC6"/>
<path fill-rule="evenodd" clip-rule="evenodd" d="M48.4415 19.8875V13.5264C47.1182 13.1091 46.098 12.0074 45.7923 10.6387H15.1206V8.28417H45.9953C46.5856 6.86343 47.9868 5.86133 49.6187 5.86133C51.7819 5.86133 53.5417 7.62113 53.5417 9.78427C53.5417 11.5375 52.3856 13.0251 50.796 13.5264V19.8875H53.7755C54.4256 19.8875 54.9528 20.4147 54.9528 21.0647V26.9512C56.0559 27.374 56.8425 28.4414 56.8425 29.6914V33.8486C56.8425 34.4987 56.3154 35.0259 55.6653 35.0259H43.7029C43.0528 35.0259 42.5256 34.4987 42.5256 33.8486V29.6914C42.5256 28.491 43.2504 27.4581 44.2847 27.0032V21.0647C44.2847 20.4147 44.8119 19.8875 45.462 19.8875H48.4415ZM44.8802 32.6713H54.4877V29.6914C54.4877 29.3705 54.2269 29.1096 53.9059 29.1096H45.462C45.1411 29.1096 44.8802 29.3705 44.8802 29.6914V32.6713ZM46.6393 26.5196H52.5982V22.242H46.6393V26.5196ZM51.1871 9.7845C51.1871 8.91967 50.4836 8.21613 49.6187 8.21613C48.7539 8.21613 48.0504 8.91967 48.0504 9.7845C48.0504 10.6496 48.7539 11.3531 49.6187 11.3531C50.4836 11.3531 51.1871 10.6493 51.1871 9.7845ZM91.0494 76.2374H87.5841C88.4509 75.2096 88.9747 73.8835 88.9747 72.4369V51.6037C88.9747 48.7034 87.8636 45.9586 85.846 43.8753C84.1319 42.1049 83.3805 41.1052 83.3805 38.962V37.2128C83.3805 36.5627 82.8533 36.0356 82.2033 36.0356H72.2107C71.5606 36.0356 71.0334 36.5627 71.0334 37.2128V38.962C71.0334 41.1052 70.2821 42.1049 68.5677 43.8753C66.5501 45.9589 65.439 48.7034 65.439 51.6037V72.4369C65.439 73.8835 65.9629 75.2094 66.8296 76.2374H60.0616C60.9284 75.2096 61.4522 73.8835 61.4522 72.4369V51.6037C61.4522 48.7036 60.3411 45.9589 58.3235 43.8753C56.6091 42.1049 55.8578 41.1052 55.8578 38.962V37.2128C55.8578 36.5627 55.3306 36.0356 54.6805 36.0356H44.688C44.0379 36.0356 43.5107 36.5627 43.5107 37.2128V38.962C43.5107 41.1052 42.7594 42.1049 41.045 43.8753C39.0274 45.9589 37.9163 48.7034 37.9163 51.6037V72.4369C37.9163 73.8835 38.4401 75.2094 39.3069 76.2374H32.5389C33.4056 75.2096 33.9295 73.8835 33.9295 72.4369V51.6037C33.9295 48.7034 32.8184 45.9586 30.8008 43.8753C29.0864 42.1049 28.3351 41.1052 28.3351 38.962V38.2743C28.8931 38.182 29.32 37.7007 29.32 37.1163V32.9591C29.32 31.3401 28.0026 30.0227 26.3836 30.0227H17.9392C16.3202 30.0227 15.0028 31.3401 15.0028 32.9591V37.1163C15.0028 37.7005 15.4295 38.1817 15.9875 38.2743V38.962C15.9875 41.1052 15.2362 42.1049 13.522 43.8753C11.5044 45.9589 10.3933 48.7034 10.3933 51.6037V72.4369C10.3933 73.8835 10.9172 75.2094 11.7839 76.2374H8.95064C4.01524 76.2374 0 80.2526 0 85.188C0 90.1234 4.01524 94.1387 8.95064 94.1387H91.0494C95.9848 94.1387 100 90.1234 100 85.188C100 80.2526 95.9848 76.2374 91.0494 76.2374ZM67.7933 51.6037C67.7933 49.3181 68.669 47.155 70.259 45.5131C72.0911 43.6213 73.3878 42.0442 73.3878 38.962V38.3901H81.0257V38.962C81.0257 42.0439 82.3224 43.6215 84.1545 45.5134C85.7445 47.1552 86.6202 49.3181 86.6202 51.6037V72.4369C86.6202 74.3942 85.0278 75.9866 83.0704 75.9866H71.3433C69.3859 75.9866 67.7933 74.3942 67.7933 72.4369V51.6037ZM40.2706 51.6037C40.2706 49.3181 41.1462 47.155 42.7363 45.5131C44.5681 43.6213 45.865 42.0439 45.865 38.962V38.3901H53.503V38.962C53.503 42.0442 54.7997 43.6215 56.6317 45.5131C58.2215 47.1552 59.0972 49.3181 59.0972 51.6037V72.4369C59.0972 74.3942 57.5048 75.9866 55.5475 75.9866H43.8203C41.863 75.9866 40.2706 74.3942 40.2706 72.4369V51.6037ZM17.3574 32.9591C17.3574 32.6382 17.6183 32.3773 17.9392 32.3773H26.3831C26.7041 32.3773 26.9649 32.6382 26.9649 32.9591V35.939H17.3574V32.9591ZM12.7478 51.6037C12.7478 49.3181 13.6235 47.155 15.2135 45.5131C17.0454 43.6213 18.3423 42.0439 18.3423 38.962V38.3901H25.9803V38.962C25.9803 42.0442 27.2769 43.6215 29.109 45.5134C30.699 47.1552 31.5747 49.3181 31.5747 51.6037V72.4369C31.5747 74.3942 29.9823 75.9866 28.0247 75.9866H16.2976C14.3402 75.9866 12.7478 74.3942 12.7478 72.4369V51.6037ZM91.0494 91.7841H8.95064C5.31355 91.7841 2.35456 88.8251 2.35456 85.188C2.35456 81.5509 5.31355 78.592 8.95064 78.592H91.0494C94.6864 78.592 97.6454 81.5509 97.6454 85.188C97.6454 88.8251 94.6864 91.7841 91.0494 91.7841ZM15.4651 73.2875C15.686 73.5083 15.9853 73.6322 16.2977 73.6322H28.0249C28.3357 73.6322 28.634 73.5092 28.8546 73.29L28.8727 73.2721C29.095 73.0513 29.2203 72.7506 29.2203 72.437V51.6038C29.2203 50.9537 28.6931 50.4265 28.043 50.4265H16.2796C15.6295 50.4265 15.1023 50.9537 15.1023 51.6038V72.437C15.1023 72.7492 15.2264 73.0487 15.447 73.2696L15.4651 73.2875ZM17.4569 52.7811H26.8655V71.2778H17.4569V52.7811ZM42.9881 73.2875C43.2089 73.5083 43.5082 73.6322 43.8207 73.6322H55.5478C55.86 73.6322 56.1595 73.5081 56.3804 73.2875L56.3983 73.2696C56.6191 73.0487 56.743 72.7494 56.743 72.437V51.6038C56.743 50.9537 56.2158 50.4265 55.5657 50.4265H43.8028C43.1527 50.4265 42.6255 50.9537 42.6255 51.6038V72.437C42.6255 72.7492 42.7496 73.0487 42.9702 73.2696L42.9881 73.2875ZM44.9798 52.7811H54.3882V71.2778H44.9798V52.7811ZM71.3431 73.6324C71.0323 73.6324 70.734 73.5095 70.5134 73.2903L70.4955 73.2724C70.273 73.0513 70.1479 72.7509 70.1479 72.4372V51.604C70.1479 50.9539 70.6751 50.4268 71.3252 50.4268H83.0882C83.7383 50.4268 84.2654 50.9539 84.2654 51.604V72.4372C84.2654 72.7497 84.1416 73.0489 83.9207 73.2698L83.9028 73.2877C83.682 73.5083 83.3825 73.6324 83.0703 73.6324H71.3431ZM81.9109 52.7811H72.5025V71.2778H81.9109V52.7811ZM10.4424 85.1881C10.4424 83.0249 12.2022 81.2651 14.3653 81.2651C16.5285 81.2651 18.2883 83.0249 18.2883 85.1881C18.2883 87.3512 16.5285 89.1113 14.3653 89.1113C12.2022 89.1113 10.4424 87.3512 10.4424 85.1881ZM12.7969 85.1878C12.7969 86.0529 13.5005 86.7564 14.3653 86.7564C15.2302 86.7564 15.9337 86.0529 15.9337 85.1878C15.9337 84.323 15.2302 83.6195 14.3653 83.6195C13.5005 83.6195 12.7969 84.323 12.7969 85.1878ZM37.911 81.2651C35.7478 81.2651 33.988 83.0249 33.988 85.1881C33.988 87.3512 35.7478 89.1113 37.911 89.1113C40.0741 89.1113 41.8339 87.3512 41.8339 85.1881C41.8339 83.0249 40.0741 81.2651 37.911 81.2651ZM37.911 86.7564C37.0461 86.7564 36.3426 86.0529 36.3426 85.1878C36.3426 84.323 37.0461 83.6195 37.911 83.6195C38.7758 83.6195 39.4794 84.323 39.4794 85.1878C39.4794 86.0529 38.7758 86.7564 37.911 86.7564ZM57.5337 85.1881C57.5337 83.0249 59.2935 81.2651 61.4566 81.2651C63.6198 81.2651 65.3796 83.0249 65.3796 85.1881C65.3796 87.3512 63.6198 89.1113 61.4566 89.1113C59.2935 89.1113 57.5337 87.3512 57.5337 85.1881ZM59.8883 85.1878C59.8883 86.0529 60.5918 86.7564 61.4566 86.7564C62.3215 86.7564 63.025 86.0529 63.025 85.1878C63.025 84.323 62.3215 83.6195 61.4566 83.6195C60.5918 83.6195 59.8883 84.323 59.8883 85.1878ZM85.0023 81.2651C82.8391 81.2651 81.0793 83.0249 81.0793 85.1881C81.0793 87.3512 82.8391 89.1113 85.0023 89.1113C87.1654 89.1113 88.9252 87.3512 88.9252 85.1881C88.9252 83.0249 87.1654 81.2651 85.0023 81.2651ZM85.0023 86.7564C84.1375 86.7564 83.4339 86.0529 83.4339 85.1878C83.4339 84.323 84.1375 83.6195 85.0023 83.6195C85.8671 83.6195 86.5707 84.323 86.5707 85.1878C86.5707 86.0529 85.8671 86.7564 85.0023 86.7564Z" fill="url(#paint0_linear_1_375)"/>
<defs>
<linearGradient id="paint0_linear_1_375" x1="87.3333" y1="-19.1506" x2="57.9004" y2="122.848" gradientUnits="userSpaceOnUse">
<stop stop-color="white" stop-opacity="0"/>
<stop offset="1" stop-color="#0A0B43"/>
</linearGradient>
</defs>
</svg>
