<svg width="100" height="100" viewBox="0 0 100 100" fill="none" xmlns="http://www.w3.org/2000/svg">
<path fill-rule="evenodd" clip-rule="evenodd" d="M40.9843 6.25051C38.7296 6.88379 36.9177 8.38449 35.9963 10.3815C35.3424 11.7989 35.1903 14.6068 35.7126 15.6152C36.1251 16.412 36.8179 16.6938 37.5836 16.3767C38.3522 16.0583 38.552 15.4954 38.427 14.0023C38.3379 12.9404 38.3891 12.5736 38.7413 11.7551C39.7679 9.36844 42.711 8.29598 45.0011 9.47383C45.8802 9.92601 46.5608 10.6561 47.0946 11.7203C47.3249 12.1791 47.6472 12.6606 47.8108 12.7903C48.1863 13.0877 49.1137 12.9803 50.4278 12.4871C52.2417 11.8062 56.1177 12.0455 57.9053 12.9486C58.8889 13.4455 59.331 13.9724 59.6314 15.0063C59.9441 16.0819 60.2744 16.3595 61.2412 16.3595C62.0985 16.3595 62.508 15.8546 62.7084 14.5513C63.0271 12.4764 64.4213 10.982 66.4059 10.5879C67.925 10.286 69.1973 10.6936 70.5256 11.9077C71.7877 13.061 72.3709 13.1226 73.3886 12.2092C74.917 10.8378 76.9439 10.2516 78.9504 10.601C81.9314 11.1202 83.8121 13.0655 83.8221 15.6403C83.8305 17.7863 82.8614 19.329 80.8973 20.2959C79.7605 20.8555 79.5146 20.9054 77.8926 20.9054C76.3522 20.9054 75.9863 20.8399 75.0341 20.3938C74.3728 20.0841 73.5556 19.4802 72.9626 18.8631C71.7948 17.6477 71.4285 17.5952 70.1629 18.4614C69.0849 19.1993 68.2369 19.5138 67.3261 19.5138C66.4052 19.5138 65.915 19.9097 65.3454 21.1141C64.4824 22.9382 62.4204 24.0059 59.7402 24.0164C58.3202 24.022 58.0953 23.9689 56.9015 23.3453C56.1884 22.9727 55.4932 22.6681 55.3564 22.6681C55.2199 22.6681 54.558 22.9254 53.8856 23.2401C51.745 24.2419 49.1386 24.2693 47.2204 23.3106C45.5017 22.4515 44.6456 21.3418 44.4348 19.6997C44.2565 18.3099 43.1029 17.6294 42.1076 18.3265C41.433 18.799 41.2809 19.4442 41.531 20.7701C42.1885 24.2549 46.3244 27.1147 50.7061 27.1147C51.865 27.1147 53.9173 26.6885 54.6951 26.2862C55.2492 25.9998 55.329 26.0031 56.0565 26.3428C59.0674 27.7487 63.3476 27.1474 66.143 24.9258C66.6733 24.5042 67.3233 23.7908 67.5871 23.3405C67.9773 22.6748 68.1961 22.4976 68.7566 22.3933C69.1361 22.3226 69.8402 22.096 70.3217 21.8895L71.1971 21.5142L71.8989 22.0665C73.5664 23.3787 75.3534 23.9624 77.7031 23.9624C80.6047 23.9624 82.6567 23.1219 84.6788 21.1052C86.4346 19.3538 86.8621 18.3044 86.8771 15.7101C86.887 13.9912 86.8434 13.7611 86.286 12.5842C84.0722 7.90986 77.0432 5.94102 72.8498 8.82071L72.2295 9.24654L71.4873 8.7528C69.2185 7.24338 66.3375 7.08028 63.8035 8.31825C62.8112 8.8029 61.2416 10.17 60.8601 10.8819C60.6777 11.2222 60.6384 11.2273 60.3233 10.9495C59.76 10.4528 58.1747 9.72692 56.9087 9.3857C55.4321 8.98807 51.8563 8.92536 50.5046 9.27363L49.5609 9.5167L48.278 8.23605C47.2985 7.2584 46.7318 6.85651 45.8819 6.537C44.4442 5.99669 42.3286 5.87293 40.9843 6.25051ZM34.0275 29.032C33.545 29.5144 33.514 29.7593 33.1455 36.0091L32.9223 39.7946L33.5309 40.3383C34.226 40.9593 34.8325 40.9287 35.5296 40.2373C35.9041 39.8659 35.956 39.546 36.1386 36.4913C36.2483 34.6544 36.3822 32.7967 36.4362 32.3629L36.5346 31.5743H40.6979H44.8614L44.8627 32.0846C44.8634 32.3651 45.0721 35.8094 45.3263 39.7384C45.5807 43.6673 45.7889 47.1951 45.7889 47.5777L45.7891 48.2735H44.3852C43.6132 48.2735 42.8287 48.3554 42.642 48.4552C42.1511 48.7179 41.8644 49.6596 42.0926 50.26C42.4773 51.2714 41.8538 51.23 56.7703 51.2364C69.8031 51.2419 70.6333 51.2616 70.7266 51.567C71.353 53.6169 72.6934 58.4114 72.6934 58.6022C72.6934 58.8067 69.8335 58.8497 56.2641 58.8497H39.8347L39.3794 59.3052C39.0921 59.5923 38.9239 59.9726 38.9239 60.3341C38.9239 60.6955 39.0921 61.0759 39.3794 61.3629L39.8347 61.8185H56.5424H73.25V74.6143V87.4102L64.4416 87.4635C55.7452 87.516 55.6281 87.5217 55.2394 87.9106C54.69 88.4602 54.6805 89.5325 55.2202 90.0722L55.6333 90.4855L74.0438 90.5374C84.1695 90.5658 92.6397 90.5439 92.8664 90.4886C93.0933 90.4335 93.4481 90.2064 93.655 89.9843C94.0274 89.5846 94.0313 89.4024 94.0313 72.3761V55.1718L93.4603 54.6914L92.8896 54.211H83.7529H74.6164L73.897 51.6616C73.4142 49.9505 73.0398 48.9742 72.7583 48.6929L72.3392 48.2735H60.6412C54.2073 48.2735 48.9387 48.2526 48.933 48.2272C48.9272 48.2017 48.6498 43.9728 48.3166 38.8296L47.7108 29.4784L47.2035 29.042L46.696 28.6056H40.575H34.4538L34.0275 29.032ZM18.7655 43.8163C17.8327 44.1987 17.7715 44.5218 17.7715 49.0655V53.3002L18.227 53.7555C18.6015 54.1301 18.8659 54.211 19.7166 54.211H20.7508L20.6991 62.9781L20.6475 71.7452L20.2064 72.641C19.8075 73.4515 19.1438 74.0039 13.2442 78.4357C7.66217 82.629 6.62496 83.4833 6.04272 84.3672C3.8785 87.6535 5.27437 92.674 8.83891 94.4246L9.88576 94.9386L28.0363 94.9885C39.6124 95.0204 46.434 94.9718 46.8693 94.8545C47.2447 94.7534 48.008 94.3968 48.5658 94.0624C52.0172 91.9925 52.9028 86.6504 50.281 83.7154C49.9025 83.2916 46.7957 80.8424 43.377 78.2728C37.6501 73.9681 37.1174 73.5203 36.6045 72.5802L36.0479 71.5597L35.993 62.8854L35.938 54.211H37.0598C38.3505 54.211 38.8294 53.8847 39.0177 52.8762C39.0808 52.5389 39.1062 50.5324 39.0745 48.4175C39.0185 44.7016 39.0023 44.5578 38.5941 44.1499L38.1716 43.7276L28.6674 43.6905C23.44 43.6699 18.9842 43.7267 18.7655 43.8163ZM20.7403 49.0157V51.2423H28.3477H35.9551V49.0157V46.7892H28.3477H20.7403V49.0157ZM23.8511 62.9781C23.784 72.7594 23.7971 72.6487 22.4575 74.7123C21.8771 75.6061 21.1279 76.2616 17.9738 78.6359L14.1867 81.4864H28.3577C40.3507 81.4864 42.4871 81.4475 42.257 81.2328C42.1077 81.0933 40.4747 79.8488 38.6281 78.4674C35.0847 75.8167 34.2323 74.9259 33.4766 73.0847C33.0921 72.148 33.0773 71.8235 33.0244 63.1637L32.9697 54.211H28.4406H23.9114L23.8511 62.9781ZM75.6621 57.5533C75.6621 57.6566 75.8291 58.3437 76.0332 59.0803C76.3887 60.3629 76.4043 60.9894 76.4043 73.9217V87.4239H83.7334H91.0625V72.3946V57.3653H83.3623C78.2884 57.3653 75.6621 57.4294 75.6621 57.5533ZM56.2298 66.3976C56.0021 66.444 55.6474 66.6963 55.4412 66.9585C55.0783 67.4199 55.0664 67.6894 55.0664 75.4896V83.5443L55.5219 83.9997L55.9773 84.4552H62.5575C66.1766 84.4552 69.2728 84.4032 69.438 84.34C70.2395 84.0323 70.2813 83.5844 70.2813 75.2901V67.4057L69.8337 66.885L69.386 66.3644L63.0149 66.3388C59.5107 66.3247 56.4573 66.3512 56.2298 66.3976ZM58.0352 71.6525V73.879H62.6739H67.3125V71.6525V69.4259H62.6739H58.0352V71.6525ZM58.1621 76.9682C58.0923 77.0381 58.0352 78.0831 58.0352 79.2909V81.4864H62.6796H67.324L67.2719 79.2135L67.2197 76.9405L62.7544 76.891C60.2985 76.8637 58.2319 76.8984 58.1621 76.9682ZM9.58796 84.928C7.07324 86.7172 7.75234 91.0312 10.6827 91.881C11.1571 92.0186 16.7445 92.0632 28.7188 92.0251C45.8995 91.9704 46.0746 91.9661 46.8096 91.5822C47.2178 91.369 47.7997 90.8436 48.1029 90.4146C48.5535 89.7765 48.6667 89.405 48.725 88.3739C48.8102 86.8673 48.4177 85.9269 47.3293 85.0298L46.6322 84.4552H28.4423H10.2524L9.58796 84.928Z" fill="#06CAC6"/>
<path fill-rule="evenodd" clip-rule="evenodd" d="M40.9843 6.25051C38.7296 6.88379 36.9177 8.38449 35.9963 10.3815C35.3424 11.7989 35.1903 14.6068 35.7126 15.6152C36.1251 16.412 36.8179 16.6938 37.5836 16.3767C38.3522 16.0583 38.552 15.4954 38.427 14.0023C38.3379 12.9404 38.3891 12.5736 38.7413 11.7551C39.7679 9.36844 42.711 8.29598 45.0011 9.47383C45.8802 9.92601 46.5608 10.6561 47.0946 11.7203C47.3249 12.1791 47.6472 12.6606 47.8108 12.7903C48.1863 13.0877 49.1137 12.9803 50.4278 12.4871C52.2417 11.8062 56.1177 12.0455 57.9053 12.9486C58.8889 13.4455 59.331 13.9724 59.6314 15.0063C59.9441 16.0819 60.2744 16.3595 61.2412 16.3595C62.0985 16.3595 62.508 15.8546 62.7084 14.5513C63.0271 12.4764 64.4213 10.982 66.4059 10.5879C67.925 10.286 69.1973 10.6936 70.5256 11.9077C71.7877 13.061 72.3709 13.1226 73.3886 12.2092C74.917 10.8378 76.9439 10.2516 78.9504 10.601C81.9314 11.1202 83.8121 13.0655 83.8221 15.6403C83.8305 17.7863 82.8614 19.329 80.8973 20.2959C79.7605 20.8555 79.5146 20.9054 77.8926 20.9054C76.3522 20.9054 75.9863 20.8399 75.0341 20.3938C74.3728 20.0841 73.5556 19.4802 72.9626 18.8631C71.7948 17.6477 71.4285 17.5952 70.1629 18.4614C69.0849 19.1993 68.2369 19.5138 67.3261 19.5138C66.4052 19.5138 65.915 19.9097 65.3454 21.1141C64.4824 22.9382 62.4204 24.0059 59.7402 24.0164C58.3202 24.022 58.0953 23.9689 56.9015 23.3453C56.1884 22.9727 55.4932 22.6681 55.3564 22.6681C55.2199 22.6681 54.558 22.9254 53.8856 23.2401C51.745 24.2419 49.1386 24.2693 47.2204 23.3106C45.5017 22.4515 44.6456 21.3418 44.4348 19.6997C44.2565 18.3099 43.1029 17.6294 42.1076 18.3265C41.433 18.799 41.2809 19.4442 41.531 20.7701C42.1885 24.2549 46.3244 27.1147 50.7061 27.1147C51.865 27.1147 53.9173 26.6885 54.6951 26.2862C55.2492 25.9998 55.329 26.0031 56.0565 26.3428C59.0674 27.7487 63.3476 27.1474 66.143 24.9258C66.6733 24.5042 67.3233 23.7908 67.5871 23.3405C67.9773 22.6748 68.1961 22.4976 68.7566 22.3933C69.1361 22.3226 69.8402 22.096 70.3217 21.8895L71.1971 21.5142L71.8989 22.0665C73.5664 23.3787 75.3534 23.9624 77.7031 23.9624C80.6047 23.9624 82.6567 23.1219 84.6788 21.1052C86.4346 19.3538 86.8621 18.3044 86.8771 15.7101C86.887 13.9912 86.8434 13.7611 86.286 12.5842C84.0722 7.90986 77.0432 5.94102 72.8498 8.82071L72.2295 9.24654L71.4873 8.7528C69.2185 7.24338 66.3375 7.08028 63.8035 8.31825C62.8112 8.8029 61.2416 10.17 60.8601 10.8819C60.6777 11.2222 60.6384 11.2273 60.3233 10.9495C59.76 10.4528 58.1747 9.72692 56.9087 9.3857C55.4321 8.98807 51.8563 8.92536 50.5046 9.27363L49.5609 9.5167L48.278 8.23605C47.2985 7.2584 46.7318 6.85651 45.8819 6.537C44.4442 5.99669 42.3286 5.87293 40.9843 6.25051ZM34.0275 29.032C33.545 29.5144 33.514 29.7593 33.1455 36.0091L32.9223 39.7946L33.5309 40.3383C34.226 40.9593 34.8325 40.9287 35.5296 40.2373C35.9041 39.8659 35.956 39.546 36.1386 36.4913C36.2483 34.6544 36.3822 32.7967 36.4362 32.3629L36.5346 31.5743H40.6979H44.8614L44.8627 32.0846C44.8634 32.3651 45.0721 35.8094 45.3263 39.7384C45.5807 43.6673 45.7889 47.1951 45.7889 47.5777L45.7891 48.2735H44.3852C43.6132 48.2735 42.8287 48.3554 42.642 48.4552C42.1511 48.7179 41.8644 49.6596 42.0926 50.26C42.4773 51.2714 41.8538 51.23 56.7703 51.2364C69.8031 51.2419 70.6333 51.2616 70.7266 51.567C71.353 53.6169 72.6934 58.4114 72.6934 58.6022C72.6934 58.8067 69.8335 58.8497 56.2641 58.8497H39.8347L39.3794 59.3052C39.0921 59.5923 38.9239 59.9726 38.9239 60.3341C38.9239 60.6955 39.0921 61.0759 39.3794 61.3629L39.8347 61.8185H56.5424H73.25V74.6143V87.4102L64.4416 87.4635C55.7452 87.516 55.6281 87.5217 55.2394 87.9106C54.69 88.4602 54.6805 89.5325 55.2202 90.0722L55.6333 90.4855L74.0438 90.5374C84.1695 90.5658 92.6397 90.5439 92.8664 90.4886C93.0933 90.4335 93.4481 90.2064 93.655 89.9843C94.0274 89.5846 94.0313 89.4024 94.0313 72.3761V55.1718L93.4603 54.6914L92.8896 54.211H83.7529H74.6164L73.897 51.6616C73.4142 49.9505 73.0398 48.9742 72.7583 48.6929L72.3392 48.2735H60.6412C54.2073 48.2735 48.9387 48.2526 48.933 48.2272C48.9272 48.2017 48.6498 43.9728 48.3166 38.8296L47.7108 29.4784L47.2035 29.042L46.696 28.6056H40.575H34.4538L34.0275 29.032ZM18.7655 43.8163C17.8327 44.1987 17.7715 44.5218 17.7715 49.0655V53.3002L18.227 53.7555C18.6015 54.1301 18.8659 54.211 19.7166 54.211H20.7508L20.6991 62.9781L20.6475 71.7452L20.2064 72.641C19.8075 73.4515 19.1438 74.0039 13.2442 78.4357C7.66217 82.629 6.62496 83.4833 6.04272 84.3672C3.8785 87.6535 5.27437 92.674 8.83891 94.4246L9.88576 94.9386L28.0363 94.9885C39.6124 95.0204 46.434 94.9718 46.8693 94.8545C47.2447 94.7534 48.008 94.3968 48.5658 94.0624C52.0172 91.9925 52.9028 86.6504 50.281 83.7154C49.9025 83.2916 46.7957 80.8424 43.377 78.2728C37.6501 73.9681 37.1174 73.5203 36.6045 72.5802L36.0479 71.5597L35.993 62.8854L35.938 54.211H37.0598C38.3505 54.211 38.8294 53.8847 39.0177 52.8762C39.0808 52.5389 39.1062 50.5324 39.0745 48.4175C39.0185 44.7016 39.0023 44.5578 38.5941 44.1499L38.1716 43.7276L28.6674 43.6905C23.44 43.6699 18.9842 43.7267 18.7655 43.8163ZM20.7403 49.0157V51.2423H28.3477H35.9551V49.0157V46.7892H28.3477H20.7403V49.0157ZM23.8511 62.9781C23.784 72.7594 23.7971 72.6487 22.4575 74.7123C21.8771 75.6061 21.1279 76.2616 17.9738 78.6359L14.1867 81.4864H28.3577C40.3507 81.4864 42.4871 81.4475 42.257 81.2328C42.1077 81.0933 40.4747 79.8488 38.6281 78.4674C35.0847 75.8167 34.2323 74.9259 33.4766 73.0847C33.0921 72.148 33.0773 71.8235 33.0244 63.1637L32.9697 54.211H28.4406H23.9114L23.8511 62.9781ZM75.6621 57.5533C75.6621 57.6566 75.8291 58.3437 76.0332 59.0803C76.3887 60.3629 76.4043 60.9894 76.4043 73.9217V87.4239H83.7334H91.0625V72.3946V57.3653H83.3623C78.2884 57.3653 75.6621 57.4294 75.6621 57.5533ZM56.2298 66.3976C56.0021 66.444 55.6474 66.6963 55.4412 66.9585C55.0783 67.4199 55.0664 67.6894 55.0664 75.4896V83.5443L55.5219 83.9997L55.9773 84.4552H62.5575C66.1766 84.4552 69.2728 84.4032 69.438 84.34C70.2395 84.0323 70.2813 83.5844 70.2813 75.2901V67.4057L69.8337 66.885L69.386 66.3644L63.0149 66.3388C59.5107 66.3247 56.4573 66.3512 56.2298 66.3976ZM58.0352 71.6525V73.879H62.6739H67.3125V71.6525V69.4259H62.6739H58.0352V71.6525ZM58.1621 76.9682C58.0923 77.0381 58.0352 78.0831 58.0352 79.2909V81.4864H62.6796H67.324L67.2719 79.2135L67.2197 76.9405L62.7544 76.891C60.2985 76.8637 58.2319 76.8984 58.1621 76.9682ZM9.58796 84.928C7.07324 86.7172 7.75234 91.0312 10.6827 91.881C11.1571 92.0186 16.7445 92.0632 28.7188 92.0251C45.8995 91.9704 46.0746 91.9661 46.8096 91.5822C47.2178 91.369 47.7997 90.8436 48.1029 90.4146C48.5535 89.7765 48.6667 89.405 48.725 88.3739C48.8102 86.8673 48.4177 85.9269 47.3293 85.0298L46.6322 84.4552H28.4423H10.2524L9.58796 84.928Z" fill="url(#paint0_linear_1_515)"/>
<defs>
<linearGradient id="paint0_linear_1_515" x1="82.7556" y1="-19.1745" x2="49.5594" y2="122.29" gradientUnits="userSpaceOnUse">
<stop stop-color="white" stop-opacity="0"/>
<stop offset="1" stop-color="#0A0B43"/>
</linearGradient>
</defs>
</svg>
