<svg width="100" height="100" viewBox="0 0 100 100" fill="none" xmlns="http://www.w3.org/2000/svg">
<path fill-rule="evenodd" clip-rule="evenodd" d="M48.0156 9.67969V13.3906H49.5H50.9844V9.67969V5.96875H49.5H48.0156V9.67969ZM39.7254 11.1357C39.0947 11.3043 38.5251 11.4973 38.4592 11.5643C38.3587 11.6671 39.048 14.6446 39.2201 14.8507C39.3114 14.9602 41.8866 14.2928 41.9844 14.1343C42.1288 13.9007 41.263 10.7913 41.0591 10.811C40.9563 10.8208 40.3561 10.9668 39.7254 11.1357ZM28.9557 12.0643C28.3206 12.4365 27.7986 12.7867 27.796 12.8423C27.7901 12.9639 34.256 24.1861 34.4444 24.3811C34.6318 24.5752 36.9856 23.1474 36.9262 22.8758C36.8422 22.4919 30.3584 11.3485 30.2308 11.3685C30.1645 11.3789 29.5908 11.6921 28.9557 12.0643ZM67.25 13.797C66.5336 14.9296 62.8596 21.3832 62.861 21.5068C62.862 21.5842 63.4201 21.9644 64.1014 22.3518C65.0436 22.8875 65.3743 22.9984 65.4834 22.8157C68.593 17.6001 70.0309 14.942 69.8443 14.7551C69.7274 14.6382 69.157 14.2785 68.5765 13.9554L67.5212 13.3684L67.25 13.797ZM41.7688 17.5344L40.5938 18.7097V21.9638V25.2179L39.1558 25.3033C37.5814 25.3966 36.8644 25.6837 35.9694 26.5787C35.0003 27.5479 34.7564 28.1791 34.7564 29.7188C34.7564 31.2584 35.0003 31.8896 35.9694 32.8588C36.8644 33.7538 37.5814 34.0409 39.1558 34.1342L40.5938 34.2196V37.4737V40.7278L41.7688 41.9031L42.9441 43.0781H49.5H56.0559L57.2312 41.9031L58.4063 40.7278V37.4958V34.2635L73.6825 34.8942C88.7242 35.5152 88.9757 35.5197 90.057 35.1833C91.5548 34.7174 93.2521 33.0543 93.7147 31.5993C94.4367 29.3291 93.9652 27.4143 92.2619 25.6974C90.3083 23.7284 91.552 23.8054 73.6679 24.5438L58.4063 25.174V21.9417V18.7097L57.2312 17.5344L56.0559 16.3594H49.5H42.9441L41.7688 17.5344ZM43.8696 19.6675C43.592 19.9742 43.5625 20.9442 43.5625 29.751C43.5625 38.9555 43.5812 39.5123 43.9019 39.8023C44.2008 40.073 44.8691 40.1094 49.5323 40.1094C54.4226 40.1094 54.8465 40.0836 55.1304 39.77C55.408 39.4633 55.4375 38.4933 55.4375 29.6865C55.4375 20.482 55.4188 19.9252 55.0981 19.6352C54.7992 19.3645 54.1309 19.3281 49.4677 19.3281C44.5774 19.3281 44.1535 19.3539 43.8696 19.6675ZM16.0489 28.2271L15.3468 29.5165L15.7705 29.7855C16.823 30.4539 36.5644 41.7941 36.7394 41.8309C36.8476 41.8535 37.2547 41.3293 37.6439 40.666C38.1868 39.7409 38.2995 39.413 38.1275 39.2583C37.9163 39.0683 16.9169 26.9341 16.8039 26.9368C16.7747 26.9374 16.435 27.5182 16.0489 28.2271ZM72.6006 27.5957C64.9468 27.9323 58.622 28.2136 58.5454 28.221C58.4688 28.2284 58.4063 28.8953 58.4063 29.703V31.1714L59.7515 31.2788C60.4914 31.3378 67.3079 31.639 74.8993 31.9481L88.702 32.5101L89.5 32.1238C90.3424 31.716 91.0625 30.6075 91.0625 29.7188C91.0625 28.8341 90.3422 27.7215 89.5084 27.3178C88.5521 26.8548 89.9847 26.8313 72.6006 27.5957ZM38.4268 28.455C37.8211 28.7478 37.5272 29.5913 37.8005 30.2513C38.072 30.9066 38.6848 31.2031 39.7675 31.2031H40.5938V29.7188V28.2344L39.7124 28.247C39.2276 28.2539 38.6492 28.3474 38.4268 28.455ZM62.3437 38.3697L60.6221 39.3959L61.2136 40.4486C62.1356 42.0892 62.0309 42.0405 63.2071 41.3748C63.7812 41.0499 64.5673 40.5875 64.9538 40.3471L65.6569 39.9101L64.9538 38.6194C64.5673 37.9095 64.2092 37.3319 64.1582 37.3362C64.1072 37.3403 63.2906 37.8054 62.3437 38.3697ZM77.2994 38.5024C74.9852 39.133 73.0485 39.6923 72.9954 39.7453C72.801 39.9398 73.5519 42.4282 73.8183 42.4723C73.9651 42.4966 76.0471 41.986 78.4453 41.3377C83.3681 40.007 82.9921 40.2923 82.419 38.3203C82.2134 37.6136 82.0399 37.3304 81.8184 37.3408C81.6471 37.349 79.6135 37.8717 77.2994 38.5024ZM19.0148 38.022C18.8597 38.3014 18.2738 40.6731 18.3463 40.7287C18.3873 40.7605 19.7986 41.1471 21.4824 41.5882C23.1663 42.0292 24.6406 42.4257 24.7588 42.4692C24.9507 42.5397 25.2618 41.7171 25.6582 40.0923L25.7754 39.6116L22.5445 38.7471C18.9985 37.7986 19.1247 37.8246 19.0148 38.022ZM10.9062 47.5312V49.0156H19.8125H28.7188V47.5312V46.0469H19.8125H10.9062V47.5312ZM32.143 46.5024C31.7042 46.941 31.6875 47.0499 31.6875 49.4711V51.9844H28.4321C25.2229 51.9844 25.17 51.9909 24.7211 52.4399C24.4707 52.6904 24.2656 53.0244 24.2656 53.1821C24.2656 53.435 23.5318 53.4688 18.0415 53.4688H11.8171L11.3618 53.9243C10.9975 54.2883 10.9062 54.5687 10.9062 55.3237C10.9062 56.9481 11.443 59.0403 12.3329 60.8847C13.058 62.3878 13.4249 62.8845 14.8729 64.3232C17.2711 66.7062 19.8561 67.9559 22.9887 68.2472L24.2656 68.3657V69.3391C24.2656 70.0203 24.3719 70.4439 24.6198 70.7504C24.9611 71.1725 25.0906 71.192 28.1916 71.2863C31.0043 71.3718 31.5025 71.434 32.1514 71.7796C34.2258 72.8848 35.1598 75.2796 34.3215 77.3442C34.1484 77.7704 32.9631 79.9175 31.6875 82.1157L29.3682 86.1124L28.0146 86.1187C26.8293 86.1243 26.6043 86.1816 26.2055 86.5805C25.7537 87.0321 25.75 87.0646 25.75 90.5781C25.75 94.0916 25.7537 94.1241 26.2055 94.5757L26.6609 95.0312H52.4688H78.2767L78.732 94.5757C79.1838 94.1241 79.1875 94.0916 79.1875 90.5781C79.1875 87.0646 79.1838 87.0321 78.732 86.5805C78.3117 86.1601 78.1394 86.125 76.4922 86.125H74.708L74.7746 79.8628C74.8409 73.6362 74.844 73.592 75.3424 72.1017C76.8815 67.4991 80.9493 64.3305 85.8509 63.9162C86.9576 63.8225 87.3313 63.7109 87.6689 63.3734C88.0908 62.9515 88.0938 62.9133 88.0938 57.9219V52.8952L87.6382 52.4399L87.1829 51.9844H77.2476H67.3125V49.4711C67.3125 47.0499 67.2958 46.941 66.857 46.5024L66.4017 46.0469H49.5H32.5984L32.143 46.5024ZM70.2813 47.5312V49.0156H79.1875H88.0938V47.5312V46.0469H79.1875H70.2813V47.5312ZM34.6563 50.5V51.9844H49.5H64.3438V50.5V49.0156H49.5H34.6563V50.5ZM27.2344 61.6328V68.3125H34.6563H42.0781V69.7969V71.2812H39.1868C37.5964 71.2812 36.3271 71.3438 36.3661 71.4204C37.3309 73.3184 37.5114 73.8772 37.5883 75.2026C37.7276 77.611 37.4884 78.1899 33.7105 84.5942L32.8075 86.125H52.2865H71.7656V80.1797C71.7656 73.5488 71.895 72.4292 72.944 69.9815C73.7584 68.0815 74.7713 66.5993 76.2722 65.1118L77.5358 63.8594H73.9085H70.2813V62.375V60.8906H77.7031H85.125V57.9219V54.9531H56.1797H27.2344V61.6328ZM14.0605 56.6963C14.0605 57.3639 14.8684 59.4499 15.5104 60.4401C16.456 61.8987 18.2324 63.5124 19.6691 64.218C20.7631 64.7552 22.9154 65.3334 23.8481 65.3406L24.2656 65.3438V60.8906V56.4375H19.1631C14.9224 56.4375 14.0605 56.4813 14.0605 56.6963ZM28.7188 90.5781V92.0625H52.4688H76.2188V90.5781V89.0938H52.4688H28.7188V90.5781Z" fill="#06CAC6"/>
<path fill-rule="evenodd" clip-rule="evenodd" d="M48.0156 9.67969V13.3906H49.5H50.9844V9.67969V5.96875H49.5H48.0156V9.67969ZM39.7254 11.1357C39.0947 11.3043 38.5251 11.4973 38.4592 11.5643C38.3587 11.6671 39.048 14.6446 39.2201 14.8507C39.3114 14.9602 41.8866 14.2928 41.9844 14.1343C42.1288 13.9007 41.263 10.7913 41.0591 10.811C40.9563 10.8208 40.3561 10.9668 39.7254 11.1357ZM28.9557 12.0643C28.3206 12.4365 27.7986 12.7867 27.796 12.8423C27.7901 12.9639 34.256 24.1861 34.4444 24.3811C34.6318 24.5752 36.9856 23.1474 36.9262 22.8758C36.8422 22.4919 30.3584 11.3485 30.2308 11.3685C30.1645 11.3789 29.5908 11.6921 28.9557 12.0643ZM67.25 13.797C66.5336 14.9296 62.8596 21.3832 62.861 21.5068C62.862 21.5842 63.4201 21.9644 64.1014 22.3518C65.0436 22.8875 65.3743 22.9984 65.4834 22.8157C68.593 17.6001 70.0309 14.942 69.8443 14.7551C69.7274 14.6382 69.157 14.2785 68.5765 13.9554L67.5212 13.3684L67.25 13.797ZM41.7688 17.5344L40.5938 18.7097V21.9638V25.2179L39.1558 25.3033C37.5814 25.3966 36.8644 25.6837 35.9694 26.5787C35.0003 27.5479 34.7564 28.1791 34.7564 29.7188C34.7564 31.2584 35.0003 31.8896 35.9694 32.8588C36.8644 33.7538 37.5814 34.0409 39.1558 34.1342L40.5938 34.2196V37.4737V40.7278L41.7688 41.9031L42.9441 43.0781H49.5H56.0559L57.2312 41.9031L58.4063 40.7278V37.4958V34.2635L73.6825 34.8942C88.7242 35.5152 88.9757 35.5197 90.057 35.1833C91.5548 34.7174 93.2521 33.0543 93.7147 31.5993C94.4367 29.3291 93.9652 27.4143 92.2619 25.6974C90.3083 23.7284 91.552 23.8054 73.6679 24.5438L58.4063 25.174V21.9417V18.7097L57.2312 17.5344L56.0559 16.3594H49.5H42.9441L41.7688 17.5344ZM43.8696 19.6675C43.592 19.9742 43.5625 20.9442 43.5625 29.751C43.5625 38.9555 43.5812 39.5123 43.9019 39.8023C44.2008 40.073 44.8691 40.1094 49.5323 40.1094C54.4226 40.1094 54.8465 40.0836 55.1304 39.77C55.408 39.4633 55.4375 38.4933 55.4375 29.6865C55.4375 20.482 55.4188 19.9252 55.0981 19.6352C54.7992 19.3645 54.1309 19.3281 49.4677 19.3281C44.5774 19.3281 44.1535 19.3539 43.8696 19.6675ZM16.0489 28.2271L15.3468 29.5165L15.7705 29.7855C16.823 30.4539 36.5644 41.7941 36.7394 41.8309C36.8476 41.8535 37.2547 41.3293 37.6439 40.666C38.1868 39.7409 38.2995 39.413 38.1275 39.2583C37.9163 39.0683 16.9169 26.9341 16.8039 26.9368C16.7747 26.9374 16.435 27.5182 16.0489 28.2271ZM72.6006 27.5957C64.9468 27.9323 58.622 28.2136 58.5454 28.221C58.4688 28.2284 58.4063 28.8953 58.4063 29.703V31.1714L59.7515 31.2788C60.4914 31.3378 67.3079 31.639 74.8993 31.9481L88.702 32.5101L89.5 32.1238C90.3424 31.716 91.0625 30.6075 91.0625 29.7188C91.0625 28.8341 90.3422 27.7215 89.5084 27.3178C88.5521 26.8548 89.9847 26.8313 72.6006 27.5957ZM38.4268 28.455C37.8211 28.7478 37.5272 29.5913 37.8005 30.2513C38.072 30.9066 38.6848 31.2031 39.7675 31.2031H40.5938V29.7188V28.2344L39.7124 28.247C39.2276 28.2539 38.6492 28.3474 38.4268 28.455ZM62.3437 38.3697L60.6221 39.3959L61.2136 40.4486C62.1356 42.0892 62.0309 42.0405 63.2071 41.3748C63.7812 41.0499 64.5673 40.5875 64.9538 40.3471L65.6569 39.9101L64.9538 38.6194C64.5673 37.9095 64.2092 37.3319 64.1582 37.3362C64.1072 37.3403 63.2906 37.8054 62.3437 38.3697ZM77.2994 38.5024C74.9852 39.133 73.0485 39.6923 72.9954 39.7453C72.801 39.9398 73.5519 42.4282 73.8183 42.4723C73.9651 42.4966 76.0471 41.986 78.4453 41.3377C83.3681 40.007 82.9921 40.2923 82.419 38.3203C82.2134 37.6136 82.0399 37.3304 81.8184 37.3408C81.6471 37.349 79.6135 37.8717 77.2994 38.5024ZM19.0148 38.022C18.8597 38.3014 18.2738 40.6731 18.3463 40.7287C18.3873 40.7605 19.7986 41.1471 21.4824 41.5882C23.1663 42.0292 24.6406 42.4257 24.7588 42.4692C24.9507 42.5397 25.2618 41.7171 25.6582 40.0923L25.7754 39.6116L22.5445 38.7471C18.9985 37.7986 19.1247 37.8246 19.0148 38.022ZM10.9062 47.5312V49.0156H19.8125H28.7188V47.5312V46.0469H19.8125H10.9062V47.5312ZM32.143 46.5024C31.7042 46.941 31.6875 47.0499 31.6875 49.4711V51.9844H28.4321C25.2229 51.9844 25.17 51.9909 24.7211 52.4399C24.4707 52.6904 24.2656 53.0244 24.2656 53.1821C24.2656 53.435 23.5318 53.4688 18.0415 53.4688H11.8171L11.3618 53.9243C10.9975 54.2883 10.9062 54.5687 10.9062 55.3237C10.9062 56.9481 11.443 59.0403 12.3329 60.8847C13.058 62.3878 13.4249 62.8845 14.8729 64.3232C17.2711 66.7062 19.8561 67.9559 22.9887 68.2472L24.2656 68.3657V69.3391C24.2656 70.0203 24.3719 70.4439 24.6198 70.7504C24.9611 71.1725 25.0906 71.192 28.1916 71.2863C31.0043 71.3718 31.5025 71.434 32.1514 71.7796C34.2258 72.8848 35.1598 75.2796 34.3215 77.3442C34.1484 77.7704 32.9631 79.9175 31.6875 82.1157L29.3682 86.1124L28.0146 86.1187C26.8293 86.1243 26.6043 86.1816 26.2055 86.5805C25.7537 87.0321 25.75 87.0646 25.75 90.5781C25.75 94.0916 25.7537 94.1241 26.2055 94.5757L26.6609 95.0312H52.4688H78.2767L78.732 94.5757C79.1838 94.1241 79.1875 94.0916 79.1875 90.5781C79.1875 87.0646 79.1838 87.0321 78.732 86.5805C78.3117 86.1601 78.1394 86.125 76.4922 86.125H74.708L74.7746 79.8628C74.8409 73.6362 74.844 73.592 75.3424 72.1017C76.8815 67.4991 80.9493 64.3305 85.8509 63.9162C86.9576 63.8225 87.3313 63.7109 87.6689 63.3734C88.0908 62.9515 88.0938 62.9133 88.0938 57.9219V52.8952L87.6382 52.4399L87.1829 51.9844H77.2476H67.3125V49.4711C67.3125 47.0499 67.2958 46.941 66.857 46.5024L66.4017 46.0469H49.5H32.5984L32.143 46.5024ZM70.2813 47.5312V49.0156H79.1875H88.0938V47.5312V46.0469H79.1875H70.2813V47.5312ZM34.6563 50.5V51.9844H49.5H64.3438V50.5V49.0156H49.5H34.6563V50.5ZM27.2344 61.6328V68.3125H34.6563H42.0781V69.7969V71.2812H39.1868C37.5964 71.2812 36.3271 71.3438 36.3661 71.4204C37.3309 73.3184 37.5114 73.8772 37.5883 75.2026C37.7276 77.611 37.4884 78.1899 33.7105 84.5942L32.8075 86.125H52.2865H71.7656V80.1797C71.7656 73.5488 71.895 72.4292 72.944 69.9815C73.7584 68.0815 74.7713 66.5993 76.2722 65.1118L77.5358 63.8594H73.9085H70.2813V62.375V60.8906H77.7031H85.125V57.9219V54.9531H56.1797H27.2344V61.6328ZM14.0605 56.6963C14.0605 57.3639 14.8684 59.4499 15.5104 60.4401C16.456 61.8987 18.2324 63.5124 19.6691 64.218C20.7631 64.7552 22.9154 65.3334 23.8481 65.3406L24.2656 65.3438V60.8906V56.4375H19.1631C14.9224 56.4375 14.0605 56.4813 14.0605 56.6963ZM28.7188 90.5781V92.0625H52.4688H76.2188V90.5781V89.0938H52.4688H28.7188V90.5781Z" fill="url(#paint0_linear_1_438)"/>
<defs>
<linearGradient id="paint0_linear_1_438" x1="83.5108" y1="-19.2656" x2="48.1628" y2="121.259" gradientUnits="userSpaceOnUse">
<stop stop-color="white" stop-opacity="0"/>
<stop offset="1" stop-color="#0A0B43"/>
</linearGradient>
</defs>
</svg>
