<svg width="100" height="100" viewBox="0 0 100 100" fill="none" xmlns="http://www.w3.org/2000/svg">
<path fill-rule="evenodd" clip-rule="evenodd" d="M5.54418 11.5116C4.44913 12.0832 3.48182 13.2117 3.1917 14.2558C3.06836 14.6996 3.00165 20.079 3.0011 29.6453L3 44.3528L3.44993 44.8023C4.06188 45.414 5.05374 45.414 5.66569 44.8023L6.11562 44.3528V29.8624C6.11562 19.197 6.17188 15.2663 6.32876 14.9718C6.72426 14.2299 7.05104 14.1257 9.00215 14.1197L10.8807 14.1138V20.9756C10.8807 27.5523 10.8972 27.8813 11.2754 28.8918C11.7505 30.1608 13.1067 31.596 14.4545 32.2562L15.3708 32.7051H49.9175H84.4642L85.5094 32.1922C86.818 31.5499 88.0804 30.1721 88.578 28.8429C88.9331 27.8944 88.9544 27.4488 88.9544 20.9756V14.1138L90.8329 14.1197C92.784 14.1257 93.1108 14.2299 93.5063 14.9718C93.7853 15.4952 93.812 48.3771 93.5347 49.8384C92.9605 52.8652 90.484 55.42 87.5251 56.0387C86.9908 56.1505 85.372 56.2419 83.9274 56.2419H81.3012L81.2227 53.9981C81.1538 52.0256 81.0818 51.6164 80.6271 50.6125C80.0267 49.2869 78.7484 47.9915 77.4481 47.3911C76.5986 46.999 76.4118 46.9911 66.7305 46.9402L56.8773 46.8883L56.4215 47.3439C55.7943 47.9707 55.8057 48.8889 56.4486 49.5314L56.9319 50.0142H66.2148C75.4777 50.0142 75.4997 50.0152 76.3142 50.4264C76.7632 50.6531 77.3167 51.1185 77.5443 51.4609C77.913 52.0153 77.9581 52.3099 77.9581 54.1626V56.2419H68.9881H60.018L59.5494 56.654C58.8319 57.285 58.7606 58.0656 59.356 58.7728L59.8468 59.3557H73.629C88.5133 59.3557 88.3459 59.3656 90.5122 58.3662C92.6961 57.359 94.8873 55.1476 95.8604 52.9694C96.8897 50.6654 96.8626 51.1773 96.9669 32.0851C97.031 20.329 97.002 14.4686 96.8798 14.5441C96.779 14.6063 96.6496 14.4237 96.5926 14.1384C96.4222 13.2868 95.3521 12.0657 94.2909 11.5116L93.3111 11H49.9175H6.52395L5.54418 11.5116ZM13.9992 20.7536C14.0023 27.2852 14.0089 27.405 14.4116 28.1122C14.6669 28.5604 15.1253 28.9916 15.6287 29.257L16.4366 29.6829H49.9175H83.3985L84.2064 29.257C84.7098 28.9916 85.1682 28.5604 85.4235 28.1122C85.8261 27.405 85.8327 27.2852 85.8359 20.7536L85.8388 14.1138H49.9175H13.9963L13.9992 20.7536ZM3.08742 29.4997C3.08742 37.7101 3.10996 41.069 3.13745 36.9637C3.16494 32.8586 3.16494 26.141 3.13745 22.0357C3.10996 17.9306 3.08742 21.2893 3.08742 29.4997ZM17.5618 17.6773C16.8201 18.4184 16.968 19.6134 17.8582 20.0735C18.6411 20.4783 81.1939 20.4783 81.9769 20.0735C82.867 19.6134 83.0149 18.4184 82.2732 17.6773L81.8235 17.2276H49.9175H18.0116L17.5618 17.6773ZM17.5618 23.9049C16.9497 24.5165 16.9497 25.5078 17.5618 26.1194L18.0116 26.5691H49.9175H81.8235L82.2732 26.1194C82.8854 25.5078 82.8854 24.5165 82.2732 23.9049L81.8235 23.4553H49.9175H18.0116L17.5618 23.9049ZM27.1919 36.0325C20.799 36.6629 15.3192 39.2747 10.785 43.852C6.90534 47.7686 4.67712 51.8626 3.51261 57.2148C2.93366 59.8753 2.93146 65.212 3.50803 67.8205C4.64175 72.9486 7.0668 77.4836 10.5746 81.0348C14.7686 85.2809 19.6654 87.8145 25.5402 88.7785C27.9128 89.1677 33.0351 89.0237 35.2558 88.5055C45.7747 86.0506 53.3882 78.2706 55.7163 67.5981C56.2241 65.2703 56.1884 59.5685 55.6508 57.1553C53.4222 47.1501 46.0855 39.3969 36.4095 36.8219C33.6736 36.0938 29.8711 35.7682 27.1919 36.0325ZM27.3751 39.2099C21.9433 39.7136 16.9012 42.1161 12.9883 46.0654C10.2968 48.7819 8.38855 51.9254 7.25557 55.5092C6.44019 58.0884 6.21587 59.6746 6.23236 62.7442C6.24849 65.715 6.61412 67.8784 7.53231 70.4333C10.4744 78.6207 17.8021 84.497 26.6292 85.7476C28.9157 86.0715 32.6931 85.8632 35.0353 85.2838C44.0338 83.0584 50.6158 76.2096 52.6014 67.0061C53.0568 64.8944 53.0579 60.2244 52.6034 58.0735C51.0421 50.6874 46.5034 44.7763 39.8792 41.5018C36.1549 39.6608 31.5715 38.8206 27.3751 39.2099ZM80.1619 41.0346C79.3581 41.8379 79.5335 43.016 80.5411 43.5813C81.4978 44.118 82.7232 43.3543 82.7232 42.2215C82.7232 40.9095 81.0589 40.1381 80.1619 41.0346ZM86.5559 40.9076C85.7052 41.5604 85.641 42.518 86.397 43.2738C86.8798 43.7562 87.0473 43.817 87.6341 43.7232C88.9267 43.5164 89.4212 42.0385 88.5045 41.1225C88.0102 40.6283 87.057 40.5232 86.5559 40.9076ZM28.5308 44.0452C28.0171 44.4865 28.0166 44.4903 27.9534 47.1717L27.8901 49.8562L25.814 47.8289C23.8886 45.9483 23.6862 45.8014 23.0228 45.8014C22.2906 45.8014 21.7047 46.2311 21.4479 46.9565C21.2143 47.6162 21.8949 48.5123 24.8823 51.4776L27.9249 54.4976V57.4958C27.9249 59.8171 27.8733 60.4748 27.6959 60.4096C27.5699 60.3633 26.3122 59.9405 24.901 59.47L22.3352 58.6146L20.3206 54.669C19.2126 52.4989 18.1661 50.5967 17.9951 50.4421C17.8239 50.2873 17.3725 50.1608 16.9919 50.1608C16.189 50.1608 15.4625 50.8368 15.4625 51.5838C15.4625 51.8314 16.0403 53.1868 16.7467 54.5958C17.4528 56.0048 17.9683 57.1566 17.8921 57.1553C17.8159 57.154 16.7225 56.8254 15.4625 56.425C12.4845 55.4788 12.0237 55.4933 11.4604 56.5503C10.7999 57.79 11.4303 58.4109 14.3189 59.3657C15.603 59.7903 16.7243 60.1781 16.8106 60.2274C16.8968 60.2766 15.8294 60.9172 14.4383 61.6506C13.0475 62.3839 11.8016 63.1313 11.67 63.3111C11.2621 63.8687 11.3823 64.6475 11.9662 65.2311C12.2609 65.5256 12.6727 65.7665 12.8815 65.7665C13.0902 65.7665 15.0967 64.8505 17.3399 63.7309L21.4188 61.6956L24.2251 62.594L27.0313 63.4925L25.2818 65.8923L23.5321 68.2921L22.3839 68.4846C21.7524 68.5905 19.7923 68.8981 18.0283 69.168C16.2643 69.4382 14.6317 69.7767 14.4002 69.9205C13.1008 70.7279 13.6598 72.7268 15.185 72.7268C15.5363 72.7268 16.9037 72.5549 18.2238 72.3449C19.5437 72.1348 20.6557 71.9946 20.6945 72.0335C20.7334 72.0723 20.0668 73.0766 19.2135 74.2655C18.2667 75.5843 17.6617 76.6036 17.6617 76.8804C17.6617 77.4891 18.5964 78.4049 19.2175 78.4049C20.0028 78.4049 20.2702 78.1626 21.7817 76.0811C22.5727 74.9918 23.2775 74.0333 23.3483 73.9512C23.419 73.8692 23.658 74.9819 23.8794 76.424C24.3709 79.627 24.5141 80.0253 25.2902 80.3494C25.9817 80.6382 26.5407 80.4926 27.0929 79.8801C27.558 79.3639 27.5368 79.0167 26.7416 74.143L26.0909 70.1558L27.5835 68.0985C28.4046 66.9669 29.1981 65.9004 29.3469 65.728C29.5947 65.4417 29.7655 65.6176 31.3477 67.7879L33.0778 70.1608L32.4257 74.2549C32.0671 76.5067 31.7736 78.6357 31.7736 78.9861C31.7736 79.6363 32.2382 80.2378 32.9294 80.4822C33.3003 80.6135 34.4036 80.2109 34.6166 79.8667C34.6928 79.7435 34.9712 78.3256 35.2351 76.7156L35.7153 73.7886L37.0861 75.6845C37.8401 76.7275 38.6403 77.7662 38.8641 77.9928C39.4492 78.5851 40.2846 78.5358 40.9513 77.8695C41.8589 76.9625 41.8107 76.8359 39.1386 73.0995C38.6898 72.472 38.4521 71.9956 38.5888 71.9974C38.7213 71.9992 39.8193 72.1626 41.0289 72.3604C43.9882 72.8443 44.5125 72.8335 45.0691 72.2771C45.6884 71.6584 45.6667 70.829 45.015 70.1884C44.5479 69.7293 44.1863 69.6417 40.066 68.99L35.6209 68.2868L33.9722 66.0205C33.0653 64.7741 32.3235 63.6886 32.3235 63.6088C32.3235 63.5287 33.5516 63.0602 35.0526 62.5677L37.7817 61.672L41.8142 63.7192C44.0321 64.8451 46.0571 65.7665 46.3141 65.7665C47.0702 65.7665 47.7916 65.0159 47.7916 64.2292C47.7916 63.31 47.4734 63.0446 44.5988 61.5652C41.7735 60.1112 41.7253 60.3459 45.0572 59.3311C47.2566 58.6613 47.9016 58.1898 47.9016 57.2511C47.9016 56.4776 47.1861 55.6924 46.4814 55.6924C46.1946 55.6924 44.978 56.0221 43.7779 56.425C42.5779 56.828 41.4845 57.1577 41.3481 57.1577C41.1912 57.1577 41.5736 56.2415 42.3935 54.6531C43.1046 53.2755 43.6863 51.9265 43.6863 51.6554C43.6863 50.8476 43.0421 50.1974 42.2419 50.1974C41.8653 50.1974 41.4132 50.3025 41.2374 50.4309C41.0617 50.5595 39.9829 52.4736 38.8402 54.6844L36.7627 58.7043L34.0391 59.5755C32.541 60.0546 31.2948 60.4484 31.2697 60.4506C31.2445 60.4528 31.2238 59.1181 31.2238 57.4846V54.5146L34.4311 51.2913C37.3513 48.3564 37.6378 48.0115 37.6325 47.4384C37.6261 46.7414 37.383 46.3355 36.7799 46.0145C35.9389 45.567 35.6169 45.75 33.4079 47.9305L31.251 50.0597L31.1916 47.2732L31.1322 44.4867L30.6179 44.0451C29.9607 43.4807 29.1879 43.4807 28.5308 44.0452ZM63.3618 62.6512C62.8261 62.8671 62.38 63.5467 62.38 64.1467C62.38 64.945 62.0921 65.4926 61.0923 66.596C59.781 68.0432 59.3923 68.994 59.3723 70.8035C59.3531 72.5295 59.8463 73.8054 61.0002 75.0163C62.0012 76.0668 62.3785 76.7527 62.3793 77.5229C62.3804 78.5225 62.0943 79.1082 61.0835 80.1765C59.6104 81.733 58.9054 83.9568 59.5127 85.1307C59.8327 85.7489 60.1337 85.9147 60.9371 85.9147C61.5492 85.9147 62.3795 85.2086 62.3811 84.6865C62.3837 83.8511 62.8433 82.8811 63.6682 81.9707C65.1379 80.3488 65.3989 79.7017 65.4016 77.6722C65.4044 75.6036 65.0714 74.7597 63.6301 73.1838C62.0545 71.4607 62.0611 70.1375 63.6539 68.4423C64.7585 67.267 65.3155 66.1753 65.4436 64.9351C65.5787 63.6269 65.4097 63.0787 64.769 62.7475C64.168 62.4369 63.9329 62.4208 63.3618 62.6512ZM73.912 63.0049C73.5764 63.3403 73.3748 63.7337 73.3723 64.0581C73.3664 64.8252 72.7783 65.956 72.0078 66.6823C71.6338 67.0349 71.1089 67.7355 70.8417 68.2392C70.42 69.0338 70.3556 69.3732 70.3549 70.8035C70.354 72.8158 70.6683 73.5929 72.1497 75.2423C73.7947 77.0736 73.7604 78.3245 72.0133 80.2239C70.3604 82.0209 69.7442 84.4994 70.7106 85.465C71.6497 86.4037 73.3763 85.7588 73.3763 84.4697C73.3763 83.6006 73.6985 82.9747 74.6797 81.9378C76.0358 80.5049 76.3985 79.5848 76.3981 77.5806C76.3975 75.6437 76.0765 74.8656 74.6519 73.3495C72.998 71.5895 72.9828 70.2368 74.5969 68.4821C75.7964 67.1781 76.3123 66.1088 76.4445 64.6528C76.5352 63.652 76.5079 63.5562 75.9808 63.0294C75.2603 62.3094 74.6156 62.3017 73.912 63.0049ZM83.2589 63.0049C82.9039 63.3597 82.7232 63.7264 82.7232 64.092C82.7232 64.9483 82.4521 65.4741 81.4276 66.6048C80.08 68.0918 79.7052 69.0039 79.7021 70.8035C79.6988 72.6046 80.2015 73.8133 81.5913 75.3469C83.1414 77.0577 83.1183 78.2604 81.5004 80.0724C80.3337 81.3793 79.8698 82.2946 79.6915 83.6418C79.5575 84.6536 79.8812 85.5864 80.4405 85.8009C81.393 86.1662 82.7215 85.5179 82.7243 84.6865C82.7268 83.8511 83.1865 82.8811 84.0114 81.9707C85.481 80.3488 85.742 79.7017 85.7448 77.6722C85.7475 75.5997 85.4046 74.733 83.9848 73.2239C82.379 71.5171 82.3858 70.2106 84.0099 68.4182C85.1502 67.1596 85.6603 66.1599 85.7867 64.9351C85.9218 63.6269 85.7528 63.0787 85.1121 62.7475C84.3233 62.3398 83.8598 62.4043 83.2589 63.0049Z" fill="#06CAC6"/>
<path fill-rule="evenodd" clip-rule="evenodd" d="M5.54418 11.5116C4.44913 12.0832 3.48182 13.2117 3.1917 14.2558C3.06836 14.6996 3.00165 20.079 3.0011 29.6453L3 44.3528L3.44993 44.8023C4.06188 45.414 5.05374 45.414 5.66569 44.8023L6.11562 44.3528V29.8624C6.11562 19.197 6.17188 15.2663 6.32876 14.9718C6.72426 14.2299 7.05104 14.1257 9.00215 14.1197L10.8807 14.1138V20.9756C10.8807 27.5523 10.8972 27.8813 11.2754 28.8918C11.7505 30.1608 13.1067 31.596 14.4545 32.2562L15.3708 32.7051H49.9175H84.4642L85.5094 32.1922C86.818 31.5499 88.0804 30.1721 88.578 28.8429C88.9331 27.8944 88.9544 27.4488 88.9544 20.9756V14.1138L90.8329 14.1197C92.784 14.1257 93.1108 14.2299 93.5063 14.9718C93.7853 15.4952 93.812 48.3771 93.5347 49.8384C92.9605 52.8652 90.484 55.42 87.5251 56.0387C86.9908 56.1505 85.372 56.2419 83.9274 56.2419H81.3012L81.2227 53.9981C81.1538 52.0256 81.0818 51.6164 80.6271 50.6125C80.0267 49.2869 78.7484 47.9915 77.4481 47.3911C76.5986 46.999 76.4118 46.9911 66.7305 46.9402L56.8773 46.8883L56.4215 47.3439C55.7943 47.9707 55.8057 48.8889 56.4486 49.5314L56.9319 50.0142H66.2148C75.4777 50.0142 75.4997 50.0152 76.3142 50.4264C76.7632 50.6531 77.3167 51.1185 77.5443 51.4609C77.913 52.0153 77.9581 52.3099 77.9581 54.1626V56.2419H68.9881H60.018L59.5494 56.654C58.8319 57.285 58.7606 58.0656 59.356 58.7728L59.8468 59.3557H73.629C88.5133 59.3557 88.3459 59.3656 90.5122 58.3662C92.6961 57.359 94.8873 55.1476 95.8604 52.9694C96.8897 50.6654 96.8626 51.1773 96.9669 32.0851C97.031 20.329 97.002 14.4686 96.8798 14.5441C96.779 14.6063 96.6496 14.4237 96.5926 14.1384C96.4222 13.2868 95.3521 12.0657 94.2909 11.5116L93.3111 11H49.9175H6.52395L5.54418 11.5116ZM13.9992 20.7536C14.0023 27.2852 14.0089 27.405 14.4116 28.1122C14.6669 28.5604 15.1253 28.9916 15.6287 29.257L16.4366 29.6829H49.9175H83.3985L84.2064 29.257C84.7098 28.9916 85.1682 28.5604 85.4235 28.1122C85.8261 27.405 85.8327 27.2852 85.8359 20.7536L85.8388 14.1138H49.9175H13.9963L13.9992 20.7536ZM3.08742 29.4997C3.08742 37.7101 3.10996 41.069 3.13745 36.9637C3.16494 32.8586 3.16494 26.141 3.13745 22.0357C3.10996 17.9306 3.08742 21.2893 3.08742 29.4997ZM17.5618 17.6773C16.8201 18.4184 16.968 19.6134 17.8582 20.0735C18.6411 20.4783 81.1939 20.4783 81.9769 20.0735C82.867 19.6134 83.0149 18.4184 82.2732 17.6773L81.8235 17.2276H49.9175H18.0116L17.5618 17.6773ZM17.5618 23.9049C16.9497 24.5165 16.9497 25.5078 17.5618 26.1194L18.0116 26.5691H49.9175H81.8235L82.2732 26.1194C82.8854 25.5078 82.8854 24.5165 82.2732 23.9049L81.8235 23.4553H49.9175H18.0116L17.5618 23.9049ZM27.1919 36.0325C20.799 36.6629 15.3192 39.2747 10.785 43.852C6.90534 47.7686 4.67712 51.8626 3.51261 57.2148C2.93366 59.8753 2.93146 65.212 3.50803 67.8205C4.64175 72.9486 7.0668 77.4836 10.5746 81.0348C14.7686 85.2809 19.6654 87.8145 25.5402 88.7785C27.9128 89.1677 33.0351 89.0237 35.2558 88.5055C45.7747 86.0506 53.3882 78.2706 55.7163 67.5981C56.2241 65.2703 56.1884 59.5685 55.6508 57.1553C53.4222 47.1501 46.0855 39.3969 36.4095 36.8219C33.6736 36.0938 29.8711 35.7682 27.1919 36.0325ZM27.3751 39.2099C21.9433 39.7136 16.9012 42.1161 12.9883 46.0654C10.2968 48.7819 8.38855 51.9254 7.25557 55.5092C6.44019 58.0884 6.21587 59.6746 6.23236 62.7442C6.24849 65.715 6.61412 67.8784 7.53231 70.4333C10.4744 78.6207 17.8021 84.497 26.6292 85.7476C28.9157 86.0715 32.6931 85.8632 35.0353 85.2838C44.0338 83.0584 50.6158 76.2096 52.6014 67.0061C53.0568 64.8944 53.0579 60.2244 52.6034 58.0735C51.0421 50.6874 46.5034 44.7763 39.8792 41.5018C36.1549 39.6608 31.5715 38.8206 27.3751 39.2099ZM80.1619 41.0346C79.3581 41.8379 79.5335 43.016 80.5411 43.5813C81.4978 44.118 82.7232 43.3543 82.7232 42.2215C82.7232 40.9095 81.0589 40.1381 80.1619 41.0346ZM86.5559 40.9076C85.7052 41.5604 85.641 42.518 86.397 43.2738C86.8798 43.7562 87.0473 43.817 87.6341 43.7232C88.9267 43.5164 89.4212 42.0385 88.5045 41.1225C88.0102 40.6283 87.057 40.5232 86.5559 40.9076ZM28.5308 44.0452C28.0171 44.4865 28.0166 44.4903 27.9534 47.1717L27.8901 49.8562L25.814 47.8289C23.8886 45.9483 23.6862 45.8014 23.0228 45.8014C22.2906 45.8014 21.7047 46.2311 21.4479 46.9565C21.2143 47.6162 21.8949 48.5123 24.8823 51.4776L27.9249 54.4976V57.4958C27.9249 59.8171 27.8733 60.4748 27.6959 60.4096C27.5699 60.3633 26.3122 59.9405 24.901 59.47L22.3352 58.6146L20.3206 54.669C19.2126 52.4989 18.1661 50.5967 17.9951 50.4421C17.8239 50.2873 17.3725 50.1608 16.9919 50.1608C16.189 50.1608 15.4625 50.8368 15.4625 51.5838C15.4625 51.8314 16.0403 53.1868 16.7467 54.5958C17.4528 56.0048 17.9683 57.1566 17.8921 57.1553C17.8159 57.154 16.7225 56.8254 15.4625 56.425C12.4845 55.4788 12.0237 55.4933 11.4604 56.5503C10.7999 57.79 11.4303 58.4109 14.3189 59.3657C15.603 59.7903 16.7243 60.1781 16.8106 60.2274C16.8968 60.2766 15.8294 60.9172 14.4383 61.6506C13.0475 62.3839 11.8016 63.1313 11.67 63.3111C11.2621 63.8687 11.3823 64.6475 11.9662 65.2311C12.2609 65.5256 12.6727 65.7665 12.8815 65.7665C13.0902 65.7665 15.0967 64.8505 17.3399 63.7309L21.4188 61.6956L24.2251 62.594L27.0313 63.4925L25.2818 65.8923L23.5321 68.2921L22.3839 68.4846C21.7524 68.5905 19.7923 68.8981 18.0283 69.168C16.2643 69.4382 14.6317 69.7767 14.4002 69.9205C13.1008 70.7279 13.6598 72.7268 15.185 72.7268C15.5363 72.7268 16.9037 72.5549 18.2238 72.3449C19.5437 72.1348 20.6557 71.9946 20.6945 72.0335C20.7334 72.0723 20.0668 73.0766 19.2135 74.2655C18.2667 75.5843 17.6617 76.6036 17.6617 76.8804C17.6617 77.4891 18.5964 78.4049 19.2175 78.4049C20.0028 78.4049 20.2702 78.1626 21.7817 76.0811C22.5727 74.9918 23.2775 74.0333 23.3483 73.9512C23.419 73.8692 23.658 74.9819 23.8794 76.424C24.3709 79.627 24.5141 80.0253 25.2902 80.3494C25.9817 80.6382 26.5407 80.4926 27.0929 79.8801C27.558 79.3639 27.5368 79.0167 26.7416 74.143L26.0909 70.1558L27.5835 68.0985C28.4046 66.9669 29.1981 65.9004 29.3469 65.728C29.5947 65.4417 29.7655 65.6176 31.3477 67.7879L33.0778 70.1608L32.4257 74.2549C32.0671 76.5067 31.7736 78.6357 31.7736 78.9861C31.7736 79.6363 32.2382 80.2378 32.9294 80.4822C33.3003 80.6135 34.4036 80.2109 34.6166 79.8667C34.6928 79.7435 34.9712 78.3256 35.2351 76.7156L35.7153 73.7886L37.0861 75.6845C37.8401 76.7275 38.6403 77.7662 38.8641 77.9928C39.4492 78.5851 40.2846 78.5358 40.9513 77.8695C41.8589 76.9625 41.8107 76.8359 39.1386 73.0995C38.6898 72.472 38.4521 71.9956 38.5888 71.9974C38.7213 71.9992 39.8193 72.1626 41.0289 72.3604C43.9882 72.8443 44.5125 72.8335 45.0691 72.2771C45.6884 71.6584 45.6667 70.829 45.015 70.1884C44.5479 69.7293 44.1863 69.6417 40.066 68.99L35.6209 68.2868L33.9722 66.0205C33.0653 64.7741 32.3235 63.6886 32.3235 63.6088C32.3235 63.5287 33.5516 63.0602 35.0526 62.5677L37.7817 61.672L41.8142 63.7192C44.0321 64.8451 46.0571 65.7665 46.3141 65.7665C47.0702 65.7665 47.7916 65.0159 47.7916 64.2292C47.7916 63.31 47.4734 63.0446 44.5988 61.5652C41.7735 60.1112 41.7253 60.3459 45.0572 59.3311C47.2566 58.6613 47.9016 58.1898 47.9016 57.2511C47.9016 56.4776 47.1861 55.6924 46.4814 55.6924C46.1946 55.6924 44.978 56.0221 43.7779 56.425C42.5779 56.828 41.4845 57.1577 41.3481 57.1577C41.1912 57.1577 41.5736 56.2415 42.3935 54.6531C43.1046 53.2755 43.6863 51.9265 43.6863 51.6554C43.6863 50.8476 43.0421 50.1974 42.2419 50.1974C41.8653 50.1974 41.4132 50.3025 41.2374 50.4309C41.0617 50.5595 39.9829 52.4736 38.8402 54.6844L36.7627 58.7043L34.0391 59.5755C32.541 60.0546 31.2948 60.4484 31.2697 60.4506C31.2445 60.4528 31.2238 59.1181 31.2238 57.4846V54.5146L34.4311 51.2913C37.3513 48.3564 37.6378 48.0115 37.6325 47.4384C37.6261 46.7414 37.383 46.3355 36.7799 46.0145C35.9389 45.567 35.6169 45.75 33.4079 47.9305L31.251 50.0597L31.1916 47.2732L31.1322 44.4867L30.6179 44.0451C29.9607 43.4807 29.1879 43.4807 28.5308 44.0452ZM63.3618 62.6512C62.8261 62.8671 62.38 63.5467 62.38 64.1467C62.38 64.945 62.0921 65.4926 61.0923 66.596C59.781 68.0432 59.3923 68.994 59.3723 70.8035C59.3531 72.5295 59.8463 73.8054 61.0002 75.0163C62.0012 76.0668 62.3785 76.7527 62.3793 77.5229C62.3804 78.5225 62.0943 79.1082 61.0835 80.1765C59.6104 81.733 58.9054 83.9568 59.5127 85.1307C59.8327 85.7489 60.1337 85.9147 60.9371 85.9147C61.5492 85.9147 62.3795 85.2086 62.3811 84.6865C62.3837 83.8511 62.8433 82.8811 63.6682 81.9707C65.1379 80.3488 65.3989 79.7017 65.4016 77.6722C65.4044 75.6036 65.0714 74.7597 63.6301 73.1838C62.0545 71.4607 62.0611 70.1375 63.6539 68.4423C64.7585 67.267 65.3155 66.1753 65.4436 64.9351C65.5787 63.6269 65.4097 63.0787 64.769 62.7475C64.168 62.4369 63.9329 62.4208 63.3618 62.6512ZM73.912 63.0049C73.5764 63.3403 73.3748 63.7337 73.3723 64.0581C73.3664 64.8252 72.7783 65.956 72.0078 66.6823C71.6338 67.0349 71.1089 67.7355 70.8417 68.2392C70.42 69.0338 70.3556 69.3732 70.3549 70.8035C70.354 72.8158 70.6683 73.5929 72.1497 75.2423C73.7947 77.0736 73.7604 78.3245 72.0133 80.2239C70.3604 82.0209 69.7442 84.4994 70.7106 85.465C71.6497 86.4037 73.3763 85.7588 73.3763 84.4697C73.3763 83.6006 73.6985 82.9747 74.6797 81.9378C76.0358 80.5049 76.3985 79.5848 76.3981 77.5806C76.3975 75.6437 76.0765 74.8656 74.6519 73.3495C72.998 71.5895 72.9828 70.2368 74.5969 68.4821C75.7964 67.1781 76.3123 66.1088 76.4445 64.6528C76.5352 63.652 76.5079 63.5562 75.9808 63.0294C75.2603 62.3094 74.6156 62.3017 73.912 63.0049ZM83.2589 63.0049C82.9039 63.3597 82.7232 63.7264 82.7232 64.092C82.7232 64.9483 82.4521 65.4741 81.4276 66.6048C80.08 68.0918 79.7052 69.0039 79.7021 70.8035C79.6988 72.6046 80.2015 73.8133 81.5913 75.3469C83.1414 77.0577 83.1183 78.2604 81.5004 80.0724C80.3337 81.3793 79.8698 82.2946 79.6915 83.6418C79.5575 84.6536 79.8812 85.5864 80.4405 85.8009C81.393 86.1662 82.7215 85.5179 82.7243 84.6865C82.7268 83.8511 83.1865 82.8811 84.0114 81.9707C85.481 80.3488 85.742 79.7017 85.7448 77.6722C85.7475 75.5997 85.4046 74.733 83.9848 73.2239C82.379 71.5171 82.3858 70.2106 84.0099 68.4182C85.1502 67.1596 85.6603 66.1599 85.7867 64.9351C85.9218 63.6269 85.7528 63.0787 85.1121 62.7475C84.3233 62.3398 83.8598 62.4043 83.2589 63.0049Z" fill="url(#paint0_linear_1_487)"/>
<defs>
<linearGradient id="paint0_linear_1_487" x1="85.0933" y1="-11.1" x2="60.5302" y2="114.972" gradientUnits="userSpaceOnUse">
<stop stop-color="white" stop-opacity="0"/>
<stop offset="1" stop-color="#0A0B43"/>
</linearGradient>
</defs>
</svg>
