<svg width="100" height="100" viewBox="0 0 100 100" fill="none" xmlns="http://www.w3.org/2000/svg">
<g clip-path="url(#clip0_1_409)">
<path fill-rule="evenodd" clip-rule="evenodd" d="M29.4506 8.1783C28.4424 8.41586 27.196 9.12937 26.2861 9.98987C24.7141 11.4768 23.9461 13.5505 24.1387 15.789L24.238 16.9415L22.2637 18.0535L20.2892 19.1656L19.5883 18.5912C17.9998 17.2897 15.7753 16.67 13.9191 17.0121C9.83002 17.7655 7.19633 21.9079 8.24534 25.9354C8.59135 27.2635 9.05844 28.1042 10.0092 29.1094C10.7663 29.91 12.4867 30.9689 13.0302 30.9689C13.2045 30.9689 13.2501 31.4929 13.2501 33.4964V36.0238L12.1881 36.5209C6.6669 39.1044 6.61588 46.6783 12.1016 49.3245C13.2634 49.885 13.4236 49.9181 14.9727 49.9181C16.8475 49.9181 17.6868 49.6725 19.1855 48.6857L20.1171 48.0721L22.0878 49.2271L24.0583 50.3821L23.9643 51.7146C23.8044 53.9824 24.5702 55.9195 26.2369 57.4627C29.1133 60.1256 33.2503 60.1267 36.0406 57.4651C37.6841 55.8975 38.5559 53.4453 38.2135 51.3535C38.117 50.764 38.1295 50.4482 38.253 50.3537C38.7391 49.9819 42.1133 48.0314 42.2703 48.0314C42.3694 48.0314 42.7688 48.2745 43.1582 48.5716C46.6977 51.2734 51.8678 49.9407 53.7909 45.8306C54.7895 43.6968 54.7836 41.6136 53.7732 39.5582C53.1043 38.1973 51.5227 36.7189 50.1784 36.1975L49.1798 35.8104V33.4027V30.995L49.6639 30.8886C50.385 30.7303 51.9759 29.6442 52.692 28.8216C54.0864 27.2199 54.7927 24.8472 54.4524 22.9085C53.9174 19.8617 51.6187 17.5653 48.5558 17.018C46.5823 16.6652 44.357 17.2716 42.8312 18.5776C42.4593 18.8958 42.1073 19.1564 42.0493 19.1564C41.9346 19.1564 38.55 17.2345 38.2502 16.9993C38.1229 16.8992 38.1118 16.6172 38.2137 16.0781C38.4202 14.9862 38.116 13.2322 37.5051 11.9913C36.931 10.825 35.5317 9.39105 34.4067 8.81601C32.9258 8.05886 31.0056 7.81178 29.4506 8.1783ZM59.4337 8.32726C57.7072 9.01436 56.0947 10.6453 55.3772 12.4298C55.0849 13.1566 55.0133 13.6672 55.0092 15.0548C55.0043 16.6541 55.0412 16.8559 55.5232 17.8734C56.7757 20.5171 59.213 22.1207 61.9883 22.1267C64.1654 22.1315 65.713 21.5117 67.1754 20.0492C67.9702 19.2546 69.0308 17.4547 69.0312 16.9005C69.0313 16.7415 70.0367 16.6954 73.5106 16.6954H77.99L78.2887 17.5262C78.6534 18.5405 79.6273 19.8663 80.5357 20.5852C81.2023 21.1125 82.7909 21.9454 83.1305 21.9454C83.2493 21.9454 83.3047 23.4038 83.3047 26.5264V31.1075L82.6895 31.3064C81.7106 31.623 80.809 32.2097 79.9037 33.1197C76.4067 36.6351 77.526 42.4818 82.1063 44.6251C84.2101 45.6096 86.9117 45.3937 88.8069 44.0896C89.7928 43.4115 90.9271 42.0928 91.4578 41.0082C91.8629 40.1802 91.9212 39.857 91.9709 38.1563C92.0237 36.3536 91.9999 36.1775 91.5756 35.232C90.7522 33.3973 89.2266 31.9291 87.5723 31.3797L86.7501 31.1065V26.5625V22.0184L87.8481 21.54C89.1967 20.9525 90.578 19.6269 91.2199 18.3039C93.075 14.4809 91.4285 9.99233 87.6117 8.46721C86.8405 8.15894 86.3534 8.08937 84.9454 8.08609C83.2906 8.08232 83.1722 8.10627 81.9394 8.69493C80.2962 9.47948 79.1098 10.6606 78.4549 12.1639L77.9817 13.2501H73.543H69.1043L68.6315 12.1648C68.0248 10.7721 66.7343 9.37136 65.3878 8.64407C64.3897 8.1048 64.2876 8.08494 62.3048 8.0436C60.5747 8.00751 60.1257 8.0518 59.4337 8.32726ZM30.4766 11.6077C28.7036 11.9386 27.5235 13.381 27.5235 15.2172C27.5235 17.962 30.1808 19.619 32.6915 18.4397C33.6562 17.9866 33.9513 17.6851 34.4015 16.6925C35.6152 14.0168 33.343 11.073 30.4766 11.6077ZM61.335 11.6321C58.4795 12.1581 57.4346 15.8325 59.5785 17.8086C61.8226 19.8773 65.2667 18.5784 65.6881 15.5048C66.0259 13.0403 63.9099 11.1578 61.335 11.6321ZM84.0957 11.6807C82.3647 12.1324 81.2072 13.7604 81.386 15.4922C81.5102 16.6954 82.1347 17.7212 83.0803 18.2754C85.5764 19.7381 88.4235 18.0298 88.4235 15.0691C88.4235 14.5572 88.3162 13.8832 88.1853 13.5712C87.5456 12.0484 85.7926 11.2381 84.0957 11.6807ZM23.9273 21.1574C22.3989 22.0408 21.9495 22.3758 22.0258 22.5748C22.0809 22.718 22.1252 23.4287 22.1245 24.154C22.1211 27.3859 20.1694 29.9939 16.9781 31.0312C16.7136 31.1172 16.6908 31.3477 16.732 33.5171L16.7774 35.908L17.7247 36.2929C19.7469 37.1143 21.474 38.9669 22.0433 40.9253C22.3306 41.9132 22.3746 43.7269 22.1309 44.5367L21.9731 45.0614L23.9202 46.2036C25.6509 47.2188 25.8908 47.3169 26.0801 47.086C26.1972 46.9431 26.7162 46.552 27.2333 46.2168C29.7274 44.6002 33.1892 44.7777 35.475 46.6395L36.3419 47.3454L38.3721 46.1324C39.4887 45.4653 40.399 44.8628 40.3945 44.7938C40.3903 44.7247 40.3246 44.2299 40.2488 43.6942C40.0774 42.4843 40.3409 40.9345 40.9322 39.6745C41.5408 38.3773 43.0919 36.8974 44.4736 36.2955L45.5704 35.8177V33.3932C45.5704 31.476 45.5244 30.9689 45.3505 30.9689C44.7852 30.9689 43.0857 29.9072 42.2521 29.0333C40.7012 27.4074 40.0343 25.5814 40.2246 23.4822L40.3312 22.3056L38.3223 21.1547L36.3135 20.0036L35.7407 20.5066C34.8958 21.2483 33.2805 21.9451 32.0917 22.0805C30.0481 22.3131 28.3998 21.8664 26.7746 20.6393L25.9287 20.0006L23.9273 21.1574ZM13.7423 20.7304C11.3702 21.7579 10.8177 24.9473 12.7018 26.7356C14.1514 28.1114 16.7085 27.9818 17.9552 26.4691C19.2492 24.8994 19.082 22.8017 17.5529 21.4232C16.5162 20.4886 14.9558 20.2049 13.7423 20.7304ZM45.7239 20.92C44.5109 21.5351 43.8923 22.4386 43.7988 23.7319C43.6317 26.0421 45.1194 27.6876 47.3751 27.6876C48.5506 27.6876 49.3829 27.3219 50.1213 26.4809C51.1608 25.2969 51.2835 23.3444 50.3987 22.0677C49.7799 21.1748 48.4448 20.4689 47.3751 20.4689C46.8694 20.4689 46.3147 20.6205 45.7239 20.92ZM29.4962 27.4584C26.9783 28.135 24.9917 30.4278 24.6424 33.0598C24.3089 35.5743 25.9456 38.373 28.4764 39.6158C29.3187 40.0294 29.5789 40.0743 31.1329 40.0743C32.6621 40.0743 32.9619 40.0245 33.8019 39.6309C35.0097 39.0649 36.3488 37.7253 36.9666 36.465C37.4076 35.5656 37.4493 35.332 37.4493 33.7579C37.4493 32.2039 37.4043 31.9437 36.9907 31.1014C36.0528 29.1916 34.295 27.7918 32.3143 27.3774C31.197 27.1436 30.6044 27.1607 29.4962 27.4584ZM29.8245 31.0991C28.2928 31.9439 27.7404 33.7176 28.5687 35.1311C29.5659 36.8326 31.5493 37.1598 33.023 35.8658C34.4335 34.6273 34.3474 32.5056 32.8396 31.3557C32.0538 30.7564 30.661 30.6378 29.8245 31.0991ZM83.9215 34.6383C82.701 35.0924 81.9035 35.8852 81.5227 37.0226C80.8942 38.9 82.0098 41.0146 83.9224 41.5706C87.3135 42.5564 89.9088 39.0007 87.972 36.0228C87.1758 34.7987 85.2546 34.142 83.9215 34.6383ZM13.7423 39.5976C12.4179 40.1711 11.5766 41.4687 11.5766 42.9371C11.5766 45.034 12.9175 46.4144 14.9545 46.414C16.4919 46.4139 17.6465 45.6984 18.2701 44.3592C18.9532 42.8918 18.7165 41.4584 17.6158 40.398C16.5617 39.3825 14.989 39.0576 13.7423 39.5976ZM46.2078 39.5526C45.2101 39.9257 44.6262 40.4515 44.1663 41.3916C43.5775 42.5952 43.6425 43.8696 44.3509 45.0156C45.6842 47.1722 49.0675 47.1696 50.402 45.0108C51.8627 42.6483 50.4028 39.6369 47.685 39.406C47.1588 39.3613 46.5608 39.4207 46.2078 39.5526ZM67.3087 40.5431C65.1448 41.112 63.4757 42.4347 62.5492 44.314C61.7305 45.9747 61.5053 47.7116 61.9148 49.2062C61.9707 49.41 61.4734 49.7896 59.9427 50.7122C58.2472 51.7341 57.8634 51.9065 57.7062 51.717C57.6019 51.5912 57.1064 51.2162 56.6054 50.8836C53.606 48.8927 49.5701 49.4098 47.2135 52.087C44.0764 55.6509 45.2964 61.285 49.6439 63.3105L50.8204 63.8587V66.2861C50.8204 68.4526 50.7895 68.7238 50.5333 68.8081C48.7028 69.411 47.1841 70.6682 46.3356 72.2831C44.8039 75.198 45.2733 78.4312 47.5611 80.7254C50.2038 83.3755 54.3021 83.6201 57.1936 81.3001L57.9066 80.7282L59.9167 81.8552L61.9268 82.9821L61.7862 83.8408C61.5901 85.0383 61.8843 86.7685 62.4951 88.009C63.0537 89.1438 64.4628 90.6071 65.5114 91.1413C68.4259 92.6259 71.6808 92.1332 73.9499 89.864C75.5024 88.3115 76.2049 86.3811 76.0368 84.1294L75.9446 82.8947L77.7988 81.8693C78.8186 81.3052 79.6993 80.8439 79.7559 80.8439C79.8124 80.8439 80.2179 81.1019 80.6571 81.4174C82.9961 83.0979 85.6904 83.3522 88.1784 82.1275C89.493 81.4803 90.8679 80.0483 91.5271 78.6395C92.0125 77.602 92.0255 77.5129 91.9725 75.5571C91.9244 73.7784 91.8663 73.4328 91.4757 72.5992C90.6836 70.9092 88.948 69.4261 87.0372 68.8066C86.7809 68.7236 86.7501 68.4531 86.7501 66.284V63.8544L87.8353 63.3816C89.2281 62.7748 90.6288 61.4843 91.3561 60.1379C91.8931 59.144 91.9161 59.0278 91.9733 57.0158C92.0316 54.9711 92.0222 54.9031 91.5323 53.8563C90.8313 52.3584 89.6039 51.1156 88.0834 50.364C86.8811 49.7699 86.8019 49.7542 85.0359 49.7586C82.9261 49.7642 81.9886 50.0559 80.5393 51.1579L79.6604 51.8261L77.7142 50.6624L75.7679 49.4986L75.886 48.9701C75.9508 48.6794 76.0028 47.8878 76.0014 47.2111C75.9951 44.3592 74.1924 41.8677 71.3713 40.8121C70.2272 40.3841 68.3788 40.2617 67.3087 40.5431ZM67.2069 44.5523C64.5933 45.9178 64.6536 49.8011 67.3072 51.0066C68.2729 51.4454 69.7765 51.4117 70.6872 50.9309C71.7784 50.3548 72.3641 49.4138 72.4476 48.1029C72.5352 46.7276 72.1813 45.7645 71.3165 45.0243C70.1085 43.9903 68.6116 43.8184 67.2069 44.5523ZM29.6563 49.1132C28.3089 49.6969 27.5235 50.9297 27.5235 52.4611C27.5235 54.5799 29.0243 56.0704 31.1578 56.0704C34.9506 56.0704 36.1381 50.7228 32.693 49.1577C31.8889 48.7925 30.4456 48.7713 29.6563 49.1132ZM61.6029 53.8047L59.6704 54.9706L59.7733 56.1357C59.8963 57.5321 59.561 59.1686 58.9049 60.3743C58.286 61.5111 56.817 62.8144 55.515 63.3816L54.4298 63.8544V66.3609C54.4298 68.5556 54.4626 68.8673 54.6939 68.8673C55.1982 68.8673 56.8925 69.9004 57.6805 70.6884C59.2271 72.235 59.9606 74.2482 59.7706 76.4253L59.6612 77.6809L61.6567 78.7842L63.6522 79.8874L64.0858 79.4897C65.6354 78.0688 67.773 77.4324 69.9573 77.7418C71.2745 77.9283 72.2647 78.3475 73.3844 79.1929L74.225 79.8277L76.1526 78.7568C77.9609 77.7523 78.0736 77.6602 77.9753 77.2688C77.7772 76.4788 77.8738 74.3429 78.1445 73.5292C78.899 71.2618 80.5967 69.6176 83.0176 68.8094C83.2741 68.7238 83.3047 68.4508 83.3047 66.2602V63.8068L82.6895 63.608C80.6368 62.9442 78.8698 61.1347 78.1435 58.9527C77.8787 58.157 77.7685 55.7595 77.9722 55.2286C78.0456 55.0377 77.576 54.6779 76.1065 53.7993C75.0265 53.1536 74.0981 52.6251 74.0433 52.6251C73.9885 52.6251 73.5767 52.915 73.1284 53.2694C71.8328 54.2936 70.7089 54.6582 68.8673 54.6516C67.0299 54.6451 65.9868 54.3074 64.6394 53.2827C64.1637 52.9211 63.7208 52.6282 63.655 52.6319C63.589 52.6356 62.6657 53.1634 61.6029 53.8047ZM51.8868 53.4313C50.6425 53.743 49.5466 54.713 49.1786 55.8276C48.8515 56.8191 49.0388 58.2536 49.6014 59.0654C50.2202 59.9582 51.5554 60.6642 52.6251 60.6642C53.7031 60.6642 55.0296 59.9587 55.6592 59.0505C56.1037 58.4093 56.1524 58.2136 56.1524 57.0688C56.1524 55.943 56.0963 55.7079 55.6587 55.0001C54.9142 53.7959 53.229 53.0948 51.8868 53.4313ZM84.1452 53.4458C83.2029 53.6682 82.2776 54.4365 81.7872 55.4037C81.0294 56.8981 81.2507 58.3463 82.4073 59.4603C83.7129 60.7178 85.905 60.8071 87.2974 59.6593C89.5258 57.8223 88.8496 54.354 86.105 53.5442C85.1355 53.2582 84.9739 53.25 84.1452 53.4458ZM13.004 54.9793C10.9322 55.6659 9.4302 56.9541 8.53951 58.8088C7.97415 59.986 7.973 59.9928 8.02747 62.0126C8.07882 63.9152 8.11442 64.1026 8.6217 65.1316C9.29928 66.5065 10.7219 67.839 12.1994 68.4826L13.2501 68.9403V73.4821V78.0238L12.1881 78.5209C6.69988 81.0891 6.61571 88.6889 12.0467 91.2952C15.6009 93.0007 20.171 91.367 21.7068 87.842L22.1825 86.7501L26.5347 86.7534L30.8868 86.7567L31.4362 87.9258C32.1634 89.4731 33.238 90.5339 34.8658 91.3112C36.0845 91.8932 36.2077 91.9179 37.8594 91.9142C39.8544 91.9096 40.8977 91.5842 42.3032 90.528C46.7941 87.1537 45.6391 80.2342 40.2513 78.2348C39.0422 77.7861 36.9976 77.7442 35.7975 78.1436C33.6155 78.8699 31.806 80.6368 31.1422 82.6896L30.9434 83.3048H26.5524H22.1615L21.9695 82.6646C21.4539 80.9433 19.6332 79.0682 17.7247 78.2927L16.7774 77.9078L16.7338 73.4143L16.6903 68.9208L17.3206 68.732C18.2612 68.4501 19.838 67.3691 20.5169 66.5406C22.2771 64.3925 22.6517 61.2369 21.4389 58.7735C20.7679 57.4103 19.3617 56.0624 17.8911 55.3725C16.922 54.9181 16.5751 54.8446 15.2188 54.806C14.2469 54.7784 13.4131 54.8436 13.004 54.9793ZM14.0906 58.3676C13.2009 58.5776 12.2411 59.3599 11.7845 60.2471C10.3086 63.1151 12.9362 66.2768 16.0424 65.3708C17.4973 64.9464 18.4308 63.8427 18.6085 62.337C18.8128 60.6074 17.749 58.9236 16.1527 58.4495C15.2502 58.1816 14.9324 58.169 14.0906 58.3676ZM67.2266 59.9884C65.4411 60.5749 63.9546 61.8308 63.0932 63.4808C62.5799 64.4642 62.5508 64.6117 62.5508 66.2423C62.5508 67.7715 62.6007 68.0713 62.9943 68.9113C63.528 70.0502 64.9009 71.4705 66.0099 72.0308C66.4536 72.2549 67.2507 72.528 67.7817 72.6378C71.1346 73.3305 74.6086 70.7882 75.2788 67.1515C75.7615 64.5331 74.1117 61.5741 71.4923 60.3599C70.7742 60.027 70.2884 59.9325 69.1133 59.8977C68.3012 59.8734 67.4522 59.9144 67.2266 59.9884ZM67.7941 63.5886C65.5304 64.6475 65.3442 67.5466 67.4604 68.7868C69.9191 70.2276 72.739 67.5873 71.4923 65.0118C70.8086 63.5996 69.1417 62.9581 67.7941 63.5886ZM51.0665 72.4596C48.616 73.5941 48.2759 77.0174 50.4507 78.6576C52.2064 79.9816 54.8732 79.3634 55.8653 77.4025C56.7923 75.5701 55.9511 73.1438 54.1243 72.3804C53.3448 72.0547 51.8579 72.0933 51.0665 72.4596ZM83.6378 72.3312C82.2159 72.8985 81.2287 74.5061 81.3831 76.0026C81.4782 76.9246 81.9279 77.962 82.429 78.4149C82.9942 78.9261 84.1872 79.3601 85.0274 79.3601C88.0606 79.3601 89.7485 75.7627 87.7891 73.4737C86.983 72.5318 86.1627 72.1461 84.993 72.1589C84.4704 72.1646 83.8606 72.2421 83.6378 72.3312ZM13.7423 81.5976C12.4179 82.1711 11.5766 83.4687 11.5766 84.9371C11.5766 87.034 12.9175 88.4144 14.9545 88.414C16.4919 88.4139 17.6465 87.6984 18.2701 86.3592C18.9532 84.8918 18.7165 83.4584 17.6158 82.398C16.5617 81.3825 14.989 81.0576 13.7423 81.5976ZM36.711 81.5516C35.9148 81.804 34.6971 83.0679 34.4506 83.8981C33.7234 86.3469 35.4003 88.6106 37.9415 88.6106C40.0639 88.6106 41.5262 87.1486 41.5251 85.0275C41.5238 82.4781 39.1637 80.7741 36.711 81.5516ZM67.6573 81.5682C66.2849 82.0765 65.2651 83.5514 65.2651 85.0275C65.2651 88.5502 69.996 89.9884 71.9369 87.0556C72.3437 86.4409 72.3946 86.2154 72.3946 85.0275C72.3946 83.8469 72.3424 83.6121 71.947 83.0147C71.0581 81.6714 69.132 81.0219 67.6573 81.5682Z" fill="#06CAC6"/>
<path fill-rule="evenodd" clip-rule="evenodd" d="M29.4506 8.1783C28.4424 8.41586 27.196 9.12937 26.2861 9.98987C24.7141 11.4768 23.9461 13.5505 24.1387 15.789L24.238 16.9415L22.2637 18.0535L20.2892 19.1656L19.5883 18.5912C17.9998 17.2897 15.7753 16.67 13.9191 17.0121C9.83002 17.7655 7.19633 21.9079 8.24534 25.9354C8.59135 27.2635 9.05844 28.1042 10.0092 29.1094C10.7663 29.91 12.4867 30.9689 13.0302 30.9689C13.2045 30.9689 13.2501 31.4929 13.2501 33.4964V36.0238L12.1881 36.5209C6.6669 39.1044 6.61588 46.6783 12.1016 49.3245C13.2634 49.885 13.4236 49.9181 14.9727 49.9181C16.8475 49.9181 17.6868 49.6725 19.1855 48.6857L20.1171 48.0721L22.0878 49.2271L24.0583 50.3821L23.9643 51.7146C23.8044 53.9824 24.5702 55.9195 26.2369 57.4627C29.1133 60.1256 33.2503 60.1267 36.0406 57.4651C37.6841 55.8975 38.5559 53.4453 38.2135 51.3535C38.117 50.764 38.1295 50.4482 38.253 50.3537C38.7391 49.9819 42.1133 48.0314 42.2703 48.0314C42.3694 48.0314 42.7688 48.2745 43.1582 48.5716C46.6977 51.2734 51.8678 49.9407 53.7909 45.8306C54.7895 43.6968 54.7836 41.6136 53.7732 39.5582C53.1043 38.1973 51.5227 36.7189 50.1784 36.1975L49.1798 35.8104V33.4027V30.995L49.6639 30.8886C50.385 30.7303 51.9759 29.6442 52.692 28.8216C54.0864 27.2199 54.7927 24.8472 54.4524 22.9085C53.9174 19.8617 51.6187 17.5653 48.5558 17.018C46.5823 16.6652 44.357 17.2716 42.8312 18.5776C42.4593 18.8958 42.1073 19.1564 42.0493 19.1564C41.9346 19.1564 38.55 17.2345 38.2502 16.9993C38.1229 16.8992 38.1118 16.6172 38.2137 16.0781C38.4202 14.9862 38.116 13.2322 37.5051 11.9913C36.931 10.825 35.5317 9.39105 34.4067 8.81601C32.9258 8.05886 31.0056 7.81178 29.4506 8.1783ZM59.4337 8.32726C57.7072 9.01436 56.0947 10.6453 55.3772 12.4298C55.0849 13.1566 55.0133 13.6672 55.0092 15.0548C55.0043 16.6541 55.0412 16.8559 55.5232 17.8734C56.7757 20.5171 59.213 22.1207 61.9883 22.1267C64.1654 22.1315 65.713 21.5117 67.1754 20.0492C67.9702 19.2546 69.0308 17.4547 69.0312 16.9005C69.0313 16.7415 70.0367 16.6954 73.5106 16.6954H77.99L78.2887 17.5262C78.6534 18.5405 79.6273 19.8663 80.5357 20.5852C81.2023 21.1125 82.7909 21.9454 83.1305 21.9454C83.2493 21.9454 83.3047 23.4038 83.3047 26.5264V31.1075L82.6895 31.3064C81.7106 31.623 80.809 32.2097 79.9037 33.1197C76.4067 36.6351 77.526 42.4818 82.1063 44.6251C84.2101 45.6096 86.9117 45.3937 88.8069 44.0896C89.7928 43.4115 90.9271 42.0928 91.4578 41.0082C91.8629 40.1802 91.9212 39.857 91.9709 38.1563C92.0237 36.3536 91.9999 36.1775 91.5756 35.232C90.7522 33.3973 89.2266 31.9291 87.5723 31.3797L86.7501 31.1065V26.5625V22.0184L87.8481 21.54C89.1967 20.9525 90.578 19.6269 91.2199 18.3039C93.075 14.4809 91.4285 9.99233 87.6117 8.46721C86.8405 8.15894 86.3534 8.08937 84.9454 8.08609C83.2906 8.08232 83.1722 8.10627 81.9394 8.69493C80.2962 9.47948 79.1098 10.6606 78.4549 12.1639L77.9817 13.2501H73.543H69.1043L68.6315 12.1648C68.0248 10.7721 66.7343 9.37136 65.3878 8.64407C64.3897 8.1048 64.2876 8.08494 62.3048 8.0436C60.5747 8.00751 60.1257 8.0518 59.4337 8.32726ZM30.4766 11.6077C28.7036 11.9386 27.5235 13.381 27.5235 15.2172C27.5235 17.962 30.1808 19.619 32.6915 18.4397C33.6562 17.9866 33.9513 17.6851 34.4015 16.6925C35.6152 14.0168 33.343 11.073 30.4766 11.6077ZM61.335 11.6321C58.4795 12.1581 57.4346 15.8325 59.5785 17.8086C61.8226 19.8773 65.2667 18.5784 65.6881 15.5048C66.0259 13.0403 63.9099 11.1578 61.335 11.6321ZM84.0957 11.6807C82.3647 12.1324 81.2072 13.7604 81.386 15.4922C81.5102 16.6954 82.1347 17.7212 83.0803 18.2754C85.5764 19.7381 88.4235 18.0298 88.4235 15.0691C88.4235 14.5572 88.3162 13.8832 88.1853 13.5712C87.5456 12.0484 85.7926 11.2381 84.0957 11.6807ZM23.9273 21.1574C22.3989 22.0408 21.9495 22.3758 22.0258 22.5748C22.0809 22.718 22.1252 23.4287 22.1245 24.154C22.1211 27.3859 20.1694 29.9939 16.9781 31.0312C16.7136 31.1172 16.6908 31.3477 16.732 33.5171L16.7774 35.908L17.7247 36.2929C19.7469 37.1143 21.474 38.9669 22.0433 40.9253C22.3306 41.9132 22.3746 43.7269 22.1309 44.5367L21.9731 45.0614L23.9202 46.2036C25.6509 47.2188 25.8908 47.3169 26.0801 47.086C26.1972 46.9431 26.7162 46.552 27.2333 46.2168C29.7274 44.6002 33.1892 44.7777 35.475 46.6395L36.3419 47.3454L38.3721 46.1324C39.4887 45.4653 40.399 44.8628 40.3945 44.7938C40.3903 44.7247 40.3246 44.2299 40.2488 43.6942C40.0774 42.4843 40.3409 40.9345 40.9322 39.6745C41.5408 38.3773 43.0919 36.8974 44.4736 36.2955L45.5704 35.8177V33.3932C45.5704 31.476 45.5244 30.9689 45.3505 30.9689C44.7852 30.9689 43.0857 29.9072 42.2521 29.0333C40.7012 27.4074 40.0343 25.5814 40.2246 23.4822L40.3312 22.3056L38.3223 21.1547L36.3135 20.0036L35.7407 20.5066C34.8958 21.2483 33.2805 21.9451 32.0917 22.0805C30.0481 22.3131 28.3998 21.8664 26.7746 20.6393L25.9287 20.0006L23.9273 21.1574ZM13.7423 20.7304C11.3702 21.7579 10.8177 24.9473 12.7018 26.7356C14.1514 28.1114 16.7085 27.9818 17.9552 26.4691C19.2492 24.8994 19.082 22.8017 17.5529 21.4232C16.5162 20.4886 14.9558 20.2049 13.7423 20.7304ZM45.7239 20.92C44.5109 21.5351 43.8923 22.4386 43.7988 23.7319C43.6317 26.0421 45.1194 27.6876 47.3751 27.6876C48.5506 27.6876 49.3829 27.3219 50.1213 26.4809C51.1608 25.2969 51.2835 23.3444 50.3987 22.0677C49.7799 21.1748 48.4448 20.4689 47.3751 20.4689C46.8694 20.4689 46.3147 20.6205 45.7239 20.92ZM29.4962 27.4584C26.9783 28.135 24.9917 30.4278 24.6424 33.0598C24.3089 35.5743 25.9456 38.373 28.4764 39.6158C29.3187 40.0294 29.5789 40.0743 31.1329 40.0743C32.6621 40.0743 32.9619 40.0245 33.8019 39.6309C35.0097 39.0649 36.3488 37.7253 36.9666 36.465C37.4076 35.5656 37.4493 35.332 37.4493 33.7579C37.4493 32.2039 37.4043 31.9437 36.9907 31.1014C36.0528 29.1916 34.295 27.7918 32.3143 27.3774C31.197 27.1436 30.6044 27.1607 29.4962 27.4584ZM29.8245 31.0991C28.2928 31.9439 27.7404 33.7176 28.5687 35.1311C29.5659 36.8326 31.5493 37.1598 33.023 35.8658C34.4335 34.6273 34.3474 32.5056 32.8396 31.3557C32.0538 30.7564 30.661 30.6378 29.8245 31.0991ZM83.9215 34.6383C82.701 35.0924 81.9035 35.8852 81.5227 37.0226C80.8942 38.9 82.0098 41.0146 83.9224 41.5706C87.3135 42.5564 89.9088 39.0007 87.972 36.0228C87.1758 34.7987 85.2546 34.142 83.9215 34.6383ZM13.7423 39.5976C12.4179 40.1711 11.5766 41.4687 11.5766 42.9371C11.5766 45.034 12.9175 46.4144 14.9545 46.414C16.4919 46.4139 17.6465 45.6984 18.2701 44.3592C18.9532 42.8918 18.7165 41.4584 17.6158 40.398C16.5617 39.3825 14.989 39.0576 13.7423 39.5976ZM46.2078 39.5526C45.2101 39.9257 44.6262 40.4515 44.1663 41.3916C43.5775 42.5952 43.6425 43.8696 44.3509 45.0156C45.6842 47.1722 49.0675 47.1696 50.402 45.0108C51.8627 42.6483 50.4028 39.6369 47.685 39.406C47.1588 39.3613 46.5608 39.4207 46.2078 39.5526ZM67.3087 40.5431C65.1448 41.112 63.4757 42.4347 62.5492 44.314C61.7305 45.9747 61.5053 47.7116 61.9148 49.2062C61.9707 49.41 61.4734 49.7896 59.9427 50.7122C58.2472 51.7341 57.8634 51.9065 57.7062 51.717C57.6019 51.5912 57.1064 51.2162 56.6054 50.8836C53.606 48.8927 49.5701 49.4098 47.2135 52.087C44.0764 55.6509 45.2964 61.285 49.6439 63.3105L50.8204 63.8587V66.2861C50.8204 68.4526 50.7895 68.7238 50.5333 68.8081C48.7028 69.411 47.1841 70.6682 46.3356 72.2831C44.8039 75.198 45.2733 78.4312 47.5611 80.7254C50.2038 83.3755 54.3021 83.6201 57.1936 81.3001L57.9066 80.7282L59.9167 81.8552L61.9268 82.9821L61.7862 83.8408C61.5901 85.0383 61.8843 86.7685 62.4951 88.009C63.0537 89.1438 64.4628 90.6071 65.5114 91.1413C68.4259 92.6259 71.6808 92.1332 73.9499 89.864C75.5024 88.3115 76.2049 86.3811 76.0368 84.1294L75.9446 82.8947L77.7988 81.8693C78.8186 81.3052 79.6993 80.8439 79.7559 80.8439C79.8124 80.8439 80.2179 81.1019 80.6571 81.4174C82.9961 83.0979 85.6904 83.3522 88.1784 82.1275C89.493 81.4803 90.8679 80.0483 91.5271 78.6395C92.0125 77.602 92.0255 77.5129 91.9725 75.5571C91.9244 73.7784 91.8663 73.4328 91.4757 72.5992C90.6836 70.9092 88.948 69.4261 87.0372 68.8066C86.7809 68.7236 86.7501 68.4531 86.7501 66.284V63.8544L87.8353 63.3816C89.2281 62.7748 90.6288 61.4843 91.3561 60.1379C91.8931 59.144 91.9161 59.0278 91.9733 57.0158C92.0316 54.9711 92.0222 54.9031 91.5323 53.8563C90.8313 52.3584 89.6039 51.1156 88.0834 50.364C86.8811 49.7699 86.8019 49.7542 85.0359 49.7586C82.9261 49.7642 81.9886 50.0559 80.5393 51.1579L79.6604 51.8261L77.7142 50.6624L75.7679 49.4986L75.886 48.9701C75.9508 48.6794 76.0028 47.8878 76.0014 47.2111C75.9951 44.3592 74.1924 41.8677 71.3713 40.8121C70.2272 40.3841 68.3788 40.2617 67.3087 40.5431ZM67.2069 44.5523C64.5933 45.9178 64.6536 49.8011 67.3072 51.0066C68.2729 51.4454 69.7765 51.4117 70.6872 50.9309C71.7784 50.3548 72.3641 49.4138 72.4476 48.1029C72.5352 46.7276 72.1813 45.7645 71.3165 45.0243C70.1085 43.9903 68.6116 43.8184 67.2069 44.5523ZM29.6563 49.1132C28.3089 49.6969 27.5235 50.9297 27.5235 52.4611C27.5235 54.5799 29.0243 56.0704 31.1578 56.0704C34.9506 56.0704 36.1381 50.7228 32.693 49.1577C31.8889 48.7925 30.4456 48.7713 29.6563 49.1132ZM61.6029 53.8047L59.6704 54.9706L59.7733 56.1357C59.8963 57.5321 59.561 59.1686 58.9049 60.3743C58.286 61.5111 56.817 62.8144 55.515 63.3816L54.4298 63.8544V66.3609C54.4298 68.5556 54.4626 68.8673 54.6939 68.8673C55.1982 68.8673 56.8925 69.9004 57.6805 70.6884C59.2271 72.235 59.9606 74.2482 59.7706 76.4253L59.6612 77.6809L61.6567 78.7842L63.6522 79.8874L64.0858 79.4897C65.6354 78.0688 67.773 77.4324 69.9573 77.7418C71.2745 77.9283 72.2647 78.3475 73.3844 79.1929L74.225 79.8277L76.1526 78.7568C77.9609 77.7523 78.0736 77.6602 77.9753 77.2688C77.7772 76.4788 77.8738 74.3429 78.1445 73.5292C78.899 71.2618 80.5967 69.6176 83.0176 68.8094C83.2741 68.7238 83.3047 68.4508 83.3047 66.2602V63.8068L82.6895 63.608C80.6368 62.9442 78.8698 61.1347 78.1435 58.9527C77.8787 58.157 77.7685 55.7595 77.9722 55.2286C78.0456 55.0377 77.576 54.6779 76.1065 53.7993C75.0265 53.1536 74.0981 52.6251 74.0433 52.6251C73.9885 52.6251 73.5767 52.915 73.1284 53.2694C71.8328 54.2936 70.7089 54.6582 68.8673 54.6516C67.0299 54.6451 65.9868 54.3074 64.6394 53.2827C64.1637 52.9211 63.7208 52.6282 63.655 52.6319C63.589 52.6356 62.6657 53.1634 61.6029 53.8047ZM51.8868 53.4313C50.6425 53.743 49.5466 54.713 49.1786 55.8276C48.8515 56.8191 49.0388 58.2536 49.6014 59.0654C50.2202 59.9582 51.5554 60.6642 52.6251 60.6642C53.7031 60.6642 55.0296 59.9587 55.6592 59.0505C56.1037 58.4093 56.1524 58.2136 56.1524 57.0688C56.1524 55.943 56.0963 55.7079 55.6587 55.0001C54.9142 53.7959 53.229 53.0948 51.8868 53.4313ZM84.1452 53.4458C83.2029 53.6682 82.2776 54.4365 81.7872 55.4037C81.0294 56.8981 81.2507 58.3463 82.4073 59.4603C83.7129 60.7178 85.905 60.8071 87.2974 59.6593C89.5258 57.8223 88.8496 54.354 86.105 53.5442C85.1355 53.2582 84.9739 53.25 84.1452 53.4458ZM13.004 54.9793C10.9322 55.6659 9.4302 56.9541 8.53951 58.8088C7.97415 59.986 7.973 59.9928 8.02747 62.0126C8.07882 63.9152 8.11442 64.1026 8.6217 65.1316C9.29928 66.5065 10.7219 67.839 12.1994 68.4826L13.2501 68.9403V73.4821V78.0238L12.1881 78.5209C6.69988 81.0891 6.61571 88.6889 12.0467 91.2952C15.6009 93.0007 20.171 91.367 21.7068 87.842L22.1825 86.7501L26.5347 86.7534L30.8868 86.7567L31.4362 87.9258C32.1634 89.4731 33.238 90.5339 34.8658 91.3112C36.0845 91.8932 36.2077 91.9179 37.8594 91.9142C39.8544 91.9096 40.8977 91.5842 42.3032 90.528C46.7941 87.1537 45.6391 80.2342 40.2513 78.2348C39.0422 77.7861 36.9976 77.7442 35.7975 78.1436C33.6155 78.8699 31.806 80.6368 31.1422 82.6896L30.9434 83.3048H26.5524H22.1615L21.9695 82.6646C21.4539 80.9433 19.6332 79.0682 17.7247 78.2927L16.7774 77.9078L16.7338 73.4143L16.6903 68.9208L17.3206 68.732C18.2612 68.4501 19.838 67.3691 20.5169 66.5406C22.2771 64.3925 22.6517 61.2369 21.4389 58.7735C20.7679 57.4103 19.3617 56.0624 17.8911 55.3725C16.922 54.9181 16.5751 54.8446 15.2188 54.806C14.2469 54.7784 13.4131 54.8436 13.004 54.9793ZM14.0906 58.3676C13.2009 58.5776 12.2411 59.3599 11.7845 60.2471C10.3086 63.1151 12.9362 66.2768 16.0424 65.3708C17.4973 64.9464 18.4308 63.8427 18.6085 62.337C18.8128 60.6074 17.749 58.9236 16.1527 58.4495C15.2502 58.1816 14.9324 58.169 14.0906 58.3676ZM67.2266 59.9884C65.4411 60.5749 63.9546 61.8308 63.0932 63.4808C62.5799 64.4642 62.5508 64.6117 62.5508 66.2423C62.5508 67.7715 62.6007 68.0713 62.9943 68.9113C63.528 70.0502 64.9009 71.4705 66.0099 72.0308C66.4536 72.2549 67.2507 72.528 67.7817 72.6378C71.1346 73.3305 74.6086 70.7882 75.2788 67.1515C75.7615 64.5331 74.1117 61.5741 71.4923 60.3599C70.7742 60.027 70.2884 59.9325 69.1133 59.8977C68.3012 59.8734 67.4522 59.9144 67.2266 59.9884ZM67.7941 63.5886C65.5304 64.6475 65.3442 67.5466 67.4604 68.7868C69.9191 70.2276 72.739 67.5873 71.4923 65.0118C70.8086 63.5996 69.1417 62.9581 67.7941 63.5886ZM51.0665 72.4596C48.616 73.5941 48.2759 77.0174 50.4507 78.6576C52.2064 79.9816 54.8732 79.3634 55.8653 77.4025C56.7923 75.5701 55.9511 73.1438 54.1243 72.3804C53.3448 72.0547 51.8579 72.0933 51.0665 72.4596ZM83.6378 72.3312C82.2159 72.8985 81.2287 74.5061 81.3831 76.0026C81.4782 76.9246 81.9279 77.962 82.429 78.4149C82.9942 78.9261 84.1872 79.3601 85.0274 79.3601C88.0606 79.3601 89.7485 75.7627 87.7891 73.4737C86.983 72.5318 86.1627 72.1461 84.993 72.1589C84.4704 72.1646 83.8606 72.2421 83.6378 72.3312ZM13.7423 81.5976C12.4179 82.1711 11.5766 83.4687 11.5766 84.9371C11.5766 87.034 12.9175 88.4144 14.9545 88.414C16.4919 88.4139 17.6465 87.6984 18.2701 86.3592C18.9532 84.8918 18.7165 83.4584 17.6158 82.398C16.5617 81.3825 14.989 81.0576 13.7423 81.5976ZM36.711 81.5516C35.9148 81.804 34.6971 83.0679 34.4506 83.8981C33.7234 86.3469 35.4003 88.6106 37.9415 88.6106C40.0639 88.6106 41.5262 87.1486 41.5251 85.0275C41.5238 82.4781 39.1637 80.7741 36.711 81.5516ZM67.6573 81.5682C66.2849 82.0765 65.2651 83.5514 65.2651 85.0275C65.2651 88.5502 69.996 89.9884 71.9369 87.0556C72.3437 86.4409 72.3946 86.2154 72.3946 85.0275C72.3946 83.8469 72.3424 83.6121 71.947 83.0147C71.0581 81.6714 69.132 81.0219 67.6573 81.5682Z" fill="url(#paint0_linear_1_409)"/>
</g>
<defs>
<linearGradient id="paint0_linear_1_409" x1="81.3588" y1="-15.7822" x2="50.0127" y2="117.744" gradientUnits="userSpaceOnUse">
<stop stop-color="white" stop-opacity="0"/>
<stop offset="1" stop-color="#0A0B43"/>
</linearGradient>
<clipPath id="clip0_1_409">
<rect width="84" height="84" fill="white" transform="translate(8 8)"/>
</clipPath>
</defs>
</svg>
